<?xml version="1.0" encoding="UTF-8"?>
<svg xmlns="http://www.w3.org/2000/svg" width="376" height="1208" viewBox="0 0 376 1208" role="img" aria-labelledby="title desc">
  <title id="title">Classes and Components diagram</title>
  <desc id="desc">Generated vector rendering of a documentation diagram.</desc>
  <defs>
    <style>
      .card { fill: #fbfcff; stroke: #cbd5e1; stroke-width: 1.2; }
      .segments { stroke: #0f172a; stroke-width: 1.8; stroke-linecap: round; }
      text {
        fill: #0f172a;
        font-family: "JetBrains Mono", "SFMono-Regular", Consolas, "Liberation Mono", monospace;
        font-size: 14px;
      }
    </style>
  </defs>
  <rect class="card" x="0.6" y="0.6" width="374.8" height="1206.8" rx="16" />
  <g class="segments">
    <line x1="28.2" y1="44" x2="32.4" y2="34" />
    <line x1="32.4" y1="34" x2="40.8" y2="34" />
    <line x1="40.8" y1="34" x2="49.199999999999996" y2="34" />
    <line x1="49.2" y1="34" x2="57.6" y2="34" />
    <line x1="57.6" y1="34" x2="66" y2="34" />
    <line x1="66" y1="34" x2="74.4" y2="34" />
    <line x1="74.4" y1="34" x2="82.80000000000001" y2="34" />
    <line x1="82.80000000000001" y1="34" x2="91.20000000000002" y2="34" />
    <line x1="91.2" y1="34" x2="99.60000000000001" y2="34" />
    <line x1="99.60000000000001" y1="34" x2="108.00000000000001" y2="34" />
    <line x1="108" y1="34" x2="116.4" y2="34" />
    <line x1="116.4" y1="34" x2="124.80000000000001" y2="34" />
    <line x1="124.80000000000001" y1="34" x2="133.20000000000002" y2="34" />
    <line x1="133.2" y1="34" x2="141.6" y2="34" />
    <line x1="141.60000000000002" y1="34" x2="150.00000000000003" y2="34" />
    <line x1="150" y1="34" x2="158.4" y2="34" />
    <line x1="158.4" y1="34" x2="166.8" y2="34" />
    <line x1="166.8" y1="34" x2="175.20000000000002" y2="34" />
    <line x1="175.20000000000002" y1="34" x2="183.60000000000002" y2="34" />
    <line x1="183.6" y1="34" x2="192" y2="34" />
    <line x1="192" y1="34" x2="200.4" y2="34" />
    <line x1="200.4" y1="34" x2="208.8" y2="34" />
    <line x1="208.8" y1="34" x2="217.20000000000002" y2="34" />
    <line x1="217.20000000000002" y1="34" x2="225.60000000000002" y2="34" />
    <line x1="225.60000000000002" y1="34" x2="234.00000000000003" y2="34" />
    <line x1="234" y1="34" x2="242.4" y2="34" />
    <line x1="242.4" y1="34" x2="250.8" y2="34" />
    <line x1="250.8" y1="34" x2="259.2" y2="34" />
    <line x1="259.20000000000005" y1="34" x2="267.6" y2="34" />
    <line x1="267.6" y1="34" x2="276" y2="34" />
    <line x1="276" y1="34" x2="284.4" y2="34" />
    <line x1="284.40000000000003" y1="34" x2="292.8" y2="34" />
    <line x1="292.8" y1="34" x2="301.2" y2="34" />
    <line x1="301.2" y1="34" x2="309.59999999999997" y2="34" />
    <line x1="309.6" y1="34" x2="318" y2="34" />
    <line x1="318" y1="34" x2="326.4" y2="34" />
    <line x1="326.40000000000003" y1="34" x2="334.8" y2="34" />
    <line x1="334.8" y1="34" x2="339" y2="44" />
    <line x1="28.2" y1="44" x2="28.2" y2="64" />
    <line x1="339" y1="44" x2="339" y2="64" />
    <line x1="28.2" y1="64" x2="28.2" y2="84" />
    <line x1="339" y1="64" x2="339" y2="84" />
    <line x1="28.2" y1="84" x2="28.2" y2="104" />
    <line x1="339" y1="84" x2="339" y2="104" />
    <line x1="28.2" y1="104" x2="28.2" y2="124" />
    <line x1="339" y1="104" x2="339" y2="124" />
    <line x1="28.2" y1="124" x2="28.2" y2="144" />
    <line x1="339" y1="124" x2="339" y2="144" />
    <line x1="28.2" y1="144" x2="28.2" y2="164" />
    <line x1="339" y1="144" x2="339" y2="164" />
    <line x1="28.2" y1="164" x2="28.2" y2="184" />
    <line x1="339" y1="164" x2="339" y2="184" />
    <line x1="28.2" y1="184" x2="28.2" y2="204" />
    <line x1="339" y1="184" x2="339" y2="204" />
    <line x1="28.2" y1="204" x2="28.2" y2="224" />
    <line x1="339" y1="204" x2="339" y2="224" />
    <line x1="28.2" y1="224" x2="28.2" y2="244" />
    <line x1="339" y1="224" x2="339" y2="244" />
    <line x1="28.2" y1="244" x2="28.2" y2="264" />
    <line x1="339" y1="244" x2="339" y2="264" />
    <line x1="28.2" y1="264" x2="28.2" y2="284" />
    <line x1="339" y1="264" x2="339" y2="284" />
    <line x1="28.2" y1="284" x2="28.2" y2="304" />
    <line x1="339" y1="284" x2="339" y2="304" />
    <line x1="28.2" y1="304" x2="28.2" y2="324" />
    <line x1="339" y1="304" x2="339" y2="324" />
    <line x1="28.2" y1="324" x2="28.2" y2="344" />
    <line x1="339" y1="324" x2="339" y2="344" />
    <line x1="28.2" y1="344" x2="28.2" y2="364" />
    <line x1="339" y1="344" x2="339" y2="364" />
    <line x1="28.2" y1="364" x2="28.2" y2="384" />
    <line x1="339" y1="364" x2="339" y2="384" />
    <line x1="28.2" y1="384" x2="32.4" y2="394" />
    <line x1="32.4" y1="394" x2="40.8" y2="394" />
    <line x1="40.8" y1="394" x2="49.199999999999996" y2="394" />
    <line x1="49.2" y1="394" x2="57.6" y2="394" />
    <line x1="57.6" y1="394" x2="66" y2="394" />
    <line x1="66" y1="394" x2="74.4" y2="394" />
    <line x1="74.4" y1="394" x2="82.80000000000001" y2="394" />
    <line x1="82.80000000000001" y1="394" x2="91.20000000000002" y2="394" />
    <line x1="91.2" y1="394" x2="99.60000000000001" y2="394" />
    <line x1="99.60000000000001" y1="394" x2="108.00000000000001" y2="394" />
    <line x1="108" y1="394" x2="116.4" y2="394" />
    <line x1="116.4" y1="394" x2="124.80000000000001" y2="394" />
    <line x1="124.80000000000001" y1="394" x2="133.20000000000002" y2="394" />
    <line x1="133.2" y1="394" x2="141.6" y2="394" />
    <line x1="141.60000000000002" y1="394" x2="150.00000000000003" y2="394" />
    <line x1="150" y1="394" x2="158.4" y2="394" />
    <line x1="158.4" y1="394" x2="166.8" y2="394" />
    <line x1="166.8" y1="394" x2="175.20000000000002" y2="394" />
    <line x1="171" y1="394" x2="171" y2="404" />
    <line x1="175.20000000000002" y1="394" x2="183.60000000000002" y2="394" />
    <line x1="183.6" y1="394" x2="192" y2="394" />
    <line x1="192" y1="394" x2="200.4" y2="394" />
    <line x1="200.4" y1="394" x2="208.8" y2="394" />
    <line x1="208.8" y1="394" x2="217.20000000000002" y2="394" />
    <line x1="217.20000000000002" y1="394" x2="225.60000000000002" y2="394" />
    <line x1="225.60000000000002" y1="394" x2="234.00000000000003" y2="394" />
    <line x1="234" y1="394" x2="242.4" y2="394" />
    <line x1="242.4" y1="394" x2="250.8" y2="394" />
    <line x1="250.8" y1="394" x2="259.2" y2="394" />
    <line x1="259.20000000000005" y1="394" x2="267.6" y2="394" />
    <line x1="267.6" y1="394" x2="276" y2="394" />
    <line x1="276" y1="394" x2="284.4" y2="394" />
    <line x1="284.40000000000003" y1="394" x2="292.8" y2="394" />
    <line x1="292.8" y1="394" x2="301.2" y2="394" />
    <line x1="301.2" y1="394" x2="309.59999999999997" y2="394" />
    <line x1="309.6" y1="394" x2="318" y2="394" />
    <line x1="318" y1="394" x2="326.4" y2="394" />
    <line x1="326.40000000000003" y1="394" x2="334.8" y2="394" />
    <line x1="334.8" y1="394" x2="339" y2="384" />
    <line x1="171" y1="404" x2="171" y2="424" />
    <line x1="61.800000000000004" y1="444" x2="66" y2="434" />
    <line x1="66" y1="434" x2="74.4" y2="434" />
    <line x1="74.4" y1="434" x2="82.80000000000001" y2="434" />
    <line x1="82.80000000000001" y1="434" x2="91.20000000000002" y2="434" />
    <line x1="91.2" y1="434" x2="99.60000000000001" y2="434" />
    <line x1="99.60000000000001" y1="434" x2="108.00000000000001" y2="434" />
    <line x1="108" y1="434" x2="116.4" y2="434" />
    <line x1="116.4" y1="434" x2="124.80000000000001" y2="434" />
    <line x1="124.80000000000001" y1="434" x2="133.20000000000002" y2="434" />
    <line x1="133.2" y1="434" x2="141.6" y2="434" />
    <line x1="141.60000000000002" y1="434" x2="150.00000000000003" y2="434" />
    <line x1="150" y1="434" x2="158.4" y2="434" />
    <line x1="158.4" y1="434" x2="166.8" y2="434" />
    <line x1="166.8" y1="434" x2="175.20000000000002" y2="434" />
    <line x1="171" y1="424" x2="171" y2="444" />
    <line x1="175.20000000000002" y1="434" x2="183.60000000000002" y2="434" />
    <line x1="183.6" y1="434" x2="192" y2="434" />
    <line x1="192" y1="434" x2="200.4" y2="434" />
    <line x1="200.4" y1="434" x2="208.8" y2="434" />
    <line x1="208.8" y1="434" x2="217.20000000000002" y2="434" />
    <line x1="217.20000000000002" y1="434" x2="225.60000000000002" y2="434" />
    <line x1="225.60000000000002" y1="434" x2="234.00000000000003" y2="434" />
    <line x1="234" y1="434" x2="242.4" y2="434" />
    <line x1="242.4" y1="434" x2="250.8" y2="434" />
    <line x1="250.8" y1="434" x2="259.2" y2="434" />
    <line x1="259.20000000000005" y1="434" x2="267.6" y2="434" />
    <line x1="267.6" y1="434" x2="276" y2="434" />
    <line x1="276" y1="434" x2="284.4" y2="434" />
    <line x1="284.40000000000003" y1="434" x2="292.8" y2="434" />
    <line x1="292.8" y1="434" x2="297" y2="444" />
    <line x1="61.800000000000004" y1="444" x2="61.800000000000004" y2="464" />
    <line x1="171" y1="444" x2="171" y2="464" />
    <line x1="297" y1="444" x2="297" y2="464" />
    <line x1="28.2" y1="484" x2="32.4" y2="474" />
    <line x1="32.4" y1="474" x2="40.8" y2="474" />
    <line x1="40.8" y1="474" x2="49.199999999999996" y2="474" />
    <line x1="49.2" y1="474" x2="57.6" y2="474" />
    <line x1="57.6" y1="474" x2="66" y2="474" />
    <line x1="61.800000000000004" y1="464" x2="61.800000000000004" y2="474" />
    <line x1="66" y1="474" x2="74.4" y2="474" />
    <line x1="74.4" y1="474" x2="82.80000000000001" y2="474" />
    <line x1="82.80000000000001" y1="474" x2="91.20000000000002" y2="474" />
    <line x1="91.2" y1="474" x2="99.60000000000001" y2="474" />
    <line x1="99.60000000000001" y1="474" x2="103.80000000000001" y2="484" />
    <line x1="120.60000000000001" y1="484" x2="124.80000000000001" y2="474" />
    <line x1="124.80000000000001" y1="474" x2="133.20000000000002" y2="474" />
    <line x1="133.2" y1="474" x2="141.6" y2="474" />
    <line x1="141.60000000000002" y1="474" x2="150.00000000000003" y2="474" />
    <line x1="150" y1="474" x2="158.4" y2="474" />
    <line x1="158.4" y1="474" x2="166.8" y2="474" />
    <line x1="162.6" y1="464" x2="162.6" y2="474" />
    <line x1="166.8" y1="474" x2="175.20000000000002" y2="474" />
    <line x1="175.20000000000002" y1="474" x2="183.60000000000002" y2="474" />
    <line x1="183.6" y1="474" x2="192" y2="474" />
    <line x1="192" y1="474" x2="200.4" y2="474" />
    <line x1="200.4" y1="474" x2="208.8" y2="474" />
    <line x1="208.8" y1="474" x2="213" y2="484" />
    <line x1="229.8" y1="484" x2="234.00000000000003" y2="474" />
    <line x1="234" y1="474" x2="242.4" y2="474" />
    <line x1="242.4" y1="474" x2="250.8" y2="474" />
    <line x1="250.8" y1="474" x2="259.2" y2="474" />
    <line x1="259.20000000000005" y1="474" x2="267.6" y2="474" />
    <line x1="267.6" y1="474" x2="276" y2="474" />
    <line x1="276" y1="474" x2="284.4" y2="474" />
    <line x1="280.2" y1="464" x2="280.2" y2="474" />
    <line x1="284.40000000000003" y1="474" x2="292.8" y2="474" />
    <line x1="292.8" y1="474" x2="301.2" y2="474" />
    <line x1="301.2" y1="474" x2="309.59999999999997" y2="474" />
    <line x1="309.6" y1="474" x2="318" y2="474" />
    <line x1="318" y1="474" x2="326.4" y2="474" />
    <line x1="326.40000000000003" y1="474" x2="334.8" y2="474" />
    <line x1="334.8" y1="474" x2="339" y2="484" />
    <line x1="28.2" y1="484" x2="28.2" y2="504" />
    <line x1="103.80000000000001" y1="484" x2="103.80000000000001" y2="504" />
    <line x1="120.60000000000001" y1="484" x2="120.60000000000001" y2="504" />
    <line x1="213" y1="484" x2="213" y2="504" />
    <line x1="229.8" y1="484" x2="229.8" y2="504" />
    <line x1="339" y1="484" x2="339" y2="504" />
    <line x1="28.2" y1="504" x2="28.2" y2="524" />
    <line x1="120.60000000000001" y1="504" x2="120.60000000000001" y2="524" />
    <line x1="137.39999999999998" y1="504" x2="137.39999999999998" y2="524" />
    <line x1="221.4" y1="504" x2="221.4" y2="524" />
    <line x1="238.2" y1="504" x2="238.2" y2="524" />
    <line x1="347.4" y1="504" x2="347.4" y2="524" />
    <line x1="28.2" y1="524" x2="28.2" y2="544" />
    <line x1="103.80000000000001" y1="524" x2="103.80000000000001" y2="544" />
    <line x1="120.60000000000001" y1="524" x2="120.60000000000001" y2="544" />
    <line x1="213" y1="524" x2="213" y2="544" />
    <line x1="229.8" y1="524" x2="229.8" y2="544" />
    <line x1="339" y1="524" x2="339" y2="544" />
    <line x1="28.2" y1="544" x2="28.2" y2="564" />
    <line x1="103.80000000000001" y1="544" x2="103.80000000000001" y2="564" />
    <line x1="120.60000000000001" y1="544" x2="120.60000000000001" y2="564" />
    <line x1="213" y1="544" x2="213" y2="564" />
    <line x1="229.8" y1="544" x2="229.8" y2="564" />
    <line x1="339" y1="544" x2="339" y2="564" />
    <line x1="28.2" y1="564" x2="28.2" y2="584" />
    <line x1="103.80000000000001" y1="564" x2="103.80000000000001" y2="584" />
    <line x1="120.60000000000001" y1="564" x2="120.60000000000001" y2="584" />
    <line x1="213" y1="564" x2="213" y2="584" />
    <line x1="229.8" y1="564" x2="229.8" y2="584" />
    <line x1="339" y1="564" x2="339" y2="584" />
    <line x1="28.2" y1="584" x2="28.2" y2="604" />
    <line x1="103.80000000000001" y1="584" x2="103.80000000000001" y2="604" />
    <line x1="120.60000000000001" y1="584" x2="120.60000000000001" y2="604" />
    <line x1="213" y1="584" x2="213" y2="604" />
    <line x1="229.8" y1="584" x2="229.8" y2="604" />
    <line x1="339" y1="584" x2="339" y2="604" />
    <line x1="28.2" y1="604" x2="28.2" y2="624" />
    <line x1="103.80000000000001" y1="604" x2="103.80000000000001" y2="624" />
    <line x1="120.60000000000001" y1="604" x2="120.60000000000001" y2="624" />
    <line x1="213" y1="604" x2="213" y2="624" />
    <line x1="229.8" y1="604" x2="229.8" y2="624" />
    <line x1="339" y1="604" x2="339" y2="624" />
    <line x1="28.2" y1="624" x2="28.2" y2="644" />
    <line x1="103.80000000000001" y1="624" x2="103.80000000000001" y2="644" />
    <line x1="120.60000000000001" y1="624" x2="120.60000000000001" y2="644" />
    <line x1="213" y1="624" x2="213" y2="644" />
    <line x1="229.8" y1="624" x2="229.8" y2="644" />
    <line x1="339" y1="624" x2="339" y2="644" />
    <line x1="28.2" y1="644" x2="28.2" y2="664" />
    <line x1="103.80000000000001" y1="644" x2="103.80000000000001" y2="664" />
    <line x1="120.60000000000001" y1="644" x2="120.60000000000001" y2="664" />
    <line x1="213" y1="644" x2="213" y2="664" />
    <line x1="229.8" y1="644" x2="229.8" y2="664" />
    <line x1="339" y1="644" x2="339" y2="664" />
    <line x1="28.2" y1="664" x2="32.4" y2="674" />
    <line x1="32.4" y1="674" x2="40.8" y2="674" />
    <line x1="40.8" y1="674" x2="49.199999999999996" y2="674" />
    <line x1="49.2" y1="674" x2="57.6" y2="674" />
    <line x1="57.6" y1="674" x2="66" y2="674" />
    <line x1="66" y1="674" x2="74.4" y2="674" />
    <line x1="74.4" y1="674" x2="82.80000000000001" y2="674" />
    <line x1="82.80000000000001" y1="674" x2="91.20000000000002" y2="674" />
    <line x1="91.2" y1="674" x2="99.60000000000001" y2="674" />
    <line x1="99.60000000000001" y1="674" x2="103.80000000000001" y2="664" />
    <line x1="120.60000000000001" y1="664" x2="124.80000000000001" y2="674" />
    <line x1="124.80000000000001" y1="674" x2="133.20000000000002" y2="674" />
    <line x1="133.2" y1="674" x2="141.6" y2="674" />
    <line x1="141.60000000000002" y1="674" x2="150.00000000000003" y2="674" />
    <line x1="150" y1="674" x2="158.4" y2="674" />
    <line x1="158.4" y1="674" x2="166.8" y2="674" />
    <line x1="166.8" y1="674" x2="175.20000000000002" y2="674" />
    <line x1="175.20000000000002" y1="674" x2="183.60000000000002" y2="674" />
    <line x1="183.6" y1="674" x2="192" y2="674" />
    <line x1="192" y1="674" x2="200.4" y2="674" />
    <line x1="200.4" y1="674" x2="208.8" y2="674" />
    <line x1="208.8" y1="674" x2="213" y2="664" />
    <line x1="229.8" y1="664" x2="234.00000000000003" y2="674" />
    <line x1="234" y1="674" x2="242.4" y2="674" />
    <line x1="242.4" y1="674" x2="250.8" y2="674" />
    <line x1="250.8" y1="674" x2="259.2" y2="674" />
    <line x1="259.20000000000005" y1="674" x2="267.6" y2="674" />
    <line x1="267.6" y1="674" x2="276" y2="674" />
    <line x1="276" y1="674" x2="284.4" y2="674" />
    <line x1="284.40000000000003" y1="674" x2="292.8" y2="674" />
    <line x1="292.8" y1="674" x2="301.2" y2="674" />
    <line x1="301.2" y1="674" x2="309.59999999999997" y2="674" />
    <line x1="309.6" y1="674" x2="318" y2="674" />
    <line x1="318" y1="674" x2="326.4" y2="674" />
    <line x1="326.40000000000003" y1="674" x2="334.8" y2="674" />
    <line x1="334.8" y1="674" x2="339" y2="664" />
    <line x1="28.2" y1="724" x2="32.4" y2="714" />
    <line x1="32.4" y1="714" x2="40.8" y2="714" />
    <line x1="40.8" y1="714" x2="49.199999999999996" y2="714" />
    <line x1="49.2" y1="714" x2="57.6" y2="714" />
    <line x1="57.6" y1="714" x2="66" y2="714" />
    <line x1="66" y1="714" x2="74.4" y2="714" />
    <line x1="74.4" y1="714" x2="82.80000000000001" y2="714" />
    <line x1="82.80000000000001" y1="714" x2="91.20000000000002" y2="714" />
    <line x1="91.2" y1="714" x2="99.60000000000001" y2="714" />
    <line x1="99.60000000000001" y1="714" x2="108.00000000000001" y2="714" />
    <line x1="108" y1="714" x2="116.4" y2="714" />
    <line x1="116.4" y1="714" x2="124.80000000000001" y2="714" />
    <line x1="124.80000000000001" y1="714" x2="133.20000000000002" y2="714" />
    <line x1="133.2" y1="714" x2="141.6" y2="714" />
    <line x1="141.60000000000002" y1="714" x2="150.00000000000003" y2="714" />
    <line x1="150" y1="714" x2="158.4" y2="714" />
    <line x1="158.4" y1="714" x2="166.8" y2="714" />
    <line x1="166.8" y1="714" x2="175.20000000000002" y2="714" />
    <line x1="175.20000000000002" y1="714" x2="183.60000000000002" y2="714" />
    <line x1="183.6" y1="714" x2="192" y2="714" />
    <line x1="192" y1="714" x2="200.4" y2="714" />
    <line x1="200.4" y1="714" x2="208.8" y2="714" />
    <line x1="208.8" y1="714" x2="217.20000000000002" y2="714" />
    <line x1="217.20000000000002" y1="714" x2="225.60000000000002" y2="714" />
    <line x1="225.60000000000002" y1="714" x2="234.00000000000003" y2="714" />
    <line x1="234" y1="714" x2="242.4" y2="714" />
    <line x1="242.4" y1="714" x2="250.8" y2="714" />
    <line x1="250.8" y1="714" x2="259.2" y2="714" />
    <line x1="259.20000000000005" y1="714" x2="267.6" y2="714" />
    <line x1="267.6" y1="714" x2="276" y2="714" />
    <line x1="276" y1="714" x2="284.4" y2="714" />
    <line x1="284.40000000000003" y1="714" x2="292.8" y2="714" />
    <line x1="292.8" y1="714" x2="301.2" y2="714" />
    <line x1="301.2" y1="714" x2="309.59999999999997" y2="714" />
    <line x1="309.6" y1="714" x2="318" y2="714" />
    <line x1="318" y1="714" x2="326.4" y2="714" />
    <line x1="326.40000000000003" y1="714" x2="334.8" y2="714" />
    <line x1="334.8" y1="714" x2="339" y2="724" />
    <line x1="28.2" y1="724" x2="28.2" y2="744" />
    <line x1="339" y1="724" x2="339" y2="744" />
    <line x1="28.2" y1="744" x2="28.2" y2="764" />
    <line x1="339" y1="744" x2="339" y2="764" />
    <line x1="28.2" y1="764" x2="28.2" y2="784" />
    <line x1="339" y1="764" x2="339" y2="784" />
    <line x1="28.2" y1="784" x2="28.2" y2="804" />
    <line x1="339" y1="784" x2="339" y2="804" />
    <line x1="28.2" y1="804" x2="28.2" y2="824" />
    <line x1="339" y1="804" x2="339" y2="824" />
    <line x1="28.2" y1="824" x2="28.2" y2="844" />
    <line x1="339" y1="824" x2="339" y2="844" />
    <line x1="28.2" y1="844" x2="28.2" y2="864" />
    <line x1="339" y1="844" x2="339" y2="864" />
    <line x1="28.2" y1="864" x2="28.2" y2="884" />
    <line x1="339" y1="864" x2="339" y2="884" />
    <line x1="28.2" y1="884" x2="28.2" y2="904" />
    <line x1="339" y1="884" x2="339" y2="904" />
    <line x1="28.2" y1="904" x2="28.2" y2="924" />
    <line x1="339" y1="904" x2="339" y2="924" />
    <line x1="28.2" y1="924" x2="28.2" y2="944" />
    <line x1="339" y1="924" x2="339" y2="944" />
    <line x1="28.2" y1="944" x2="28.2" y2="964" />
    <line x1="339" y1="944" x2="339" y2="964" />
    <line x1="28.2" y1="964" x2="32.4" y2="974" />
    <line x1="32.4" y1="974" x2="40.8" y2="974" />
    <line x1="40.8" y1="974" x2="49.199999999999996" y2="974" />
    <line x1="49.2" y1="974" x2="57.6" y2="974" />
    <line x1="57.6" y1="974" x2="66" y2="974" />
    <line x1="66" y1="974" x2="74.4" y2="974" />
    <line x1="74.4" y1="974" x2="82.80000000000001" y2="974" />
    <line x1="82.80000000000001" y1="974" x2="91.20000000000002" y2="974" />
    <line x1="91.2" y1="974" x2="99.60000000000001" y2="974" />
    <line x1="99.60000000000001" y1="974" x2="108.00000000000001" y2="974" />
    <line x1="108" y1="974" x2="116.4" y2="974" />
    <line x1="116.4" y1="974" x2="124.80000000000001" y2="974" />
    <line x1="124.80000000000001" y1="974" x2="133.20000000000002" y2="974" />
    <line x1="133.2" y1="974" x2="141.6" y2="974" />
    <line x1="141.60000000000002" y1="974" x2="150.00000000000003" y2="974" />
    <line x1="150" y1="974" x2="158.4" y2="974" />
    <line x1="158.4" y1="974" x2="166.8" y2="974" />
    <line x1="166.8" y1="974" x2="175.20000000000002" y2="974" />
    <line x1="175.20000000000002" y1="974" x2="183.60000000000002" y2="974" />
    <line x1="183.6" y1="974" x2="192" y2="974" />
    <line x1="192" y1="974" x2="200.4" y2="974" />
    <line x1="200.4" y1="974" x2="208.8" y2="974" />
    <line x1="208.8" y1="974" x2="217.20000000000002" y2="974" />
    <line x1="217.20000000000002" y1="974" x2="225.60000000000002" y2="974" />
    <line x1="225.60000000000002" y1="974" x2="234.00000000000003" y2="974" />
    <line x1="234" y1="974" x2="242.4" y2="974" />
    <line x1="242.4" y1="974" x2="250.8" y2="974" />
    <line x1="250.8" y1="974" x2="259.2" y2="974" />
    <line x1="259.20000000000005" y1="974" x2="267.6" y2="974" />
    <line x1="267.6" y1="974" x2="276" y2="974" />
    <line x1="276" y1="974" x2="284.4" y2="974" />
    <line x1="284.40000000000003" y1="974" x2="292.8" y2="974" />
    <line x1="292.8" y1="974" x2="301.2" y2="974" />
    <line x1="301.2" y1="974" x2="309.59999999999997" y2="974" />
    <line x1="309.6" y1="974" x2="318" y2="974" />
    <line x1="318" y1="974" x2="326.4" y2="974" />
    <line x1="326.40000000000003" y1="974" x2="334.8" y2="974" />
    <line x1="334.8" y1="974" x2="339" y2="964" />
    <line x1="28.2" y1="1024" x2="32.4" y2="1014" />
    <line x1="32.4" y1="1014" x2="40.8" y2="1014" />
    <line x1="40.8" y1="1014" x2="49.199999999999996" y2="1014" />
    <line x1="49.2" y1="1014" x2="57.6" y2="1014" />
    <line x1="57.6" y1="1014" x2="66" y2="1014" />
    <line x1="66" y1="1014" x2="74.4" y2="1014" />
    <line x1="74.4" y1="1014" x2="82.80000000000001" y2="1014" />
    <line x1="82.80000000000001" y1="1014" x2="91.20000000000002" y2="1014" />
    <line x1="91.2" y1="1014" x2="99.60000000000001" y2="1014" />
    <line x1="99.60000000000001" y1="1014" x2="108.00000000000001" y2="1014" />
    <line x1="108" y1="1014" x2="116.4" y2="1014" />
    <line x1="116.4" y1="1014" x2="124.80000000000001" y2="1014" />
    <line x1="124.80000000000001" y1="1014" x2="133.20000000000002" y2="1014" />
    <line x1="133.2" y1="1014" x2="141.6" y2="1014" />
    <line x1="141.60000000000002" y1="1014" x2="150.00000000000003" y2="1014" />
    <line x1="150" y1="1014" x2="158.4" y2="1014" />
    <line x1="158.4" y1="1014" x2="166.8" y2="1014" />
    <line x1="166.8" y1="1014" x2="175.20000000000002" y2="1014" />
    <line x1="175.20000000000002" y1="1014" x2="183.60000000000002" y2="1014" />
    <line x1="183.6" y1="1014" x2="192" y2="1014" />
    <line x1="192" y1="1014" x2="200.4" y2="1014" />
    <line x1="200.4" y1="1014" x2="208.8" y2="1014" />
    <line x1="208.8" y1="1014" x2="217.20000000000002" y2="1014" />
    <line x1="217.20000000000002" y1="1014" x2="225.60000000000002" y2="1014" />
    <line x1="225.60000000000002" y1="1014" x2="234.00000000000003" y2="1014" />
    <line x1="234" y1="1014" x2="242.4" y2="1014" />
    <line x1="242.4" y1="1014" x2="250.8" y2="1014" />
    <line x1="250.8" y1="1014" x2="259.2" y2="1014" />
    <line x1="259.20000000000005" y1="1014" x2="267.6" y2="1014" />
    <line x1="267.6" y1="1014" x2="276" y2="1014" />
    <line x1="276" y1="1014" x2="284.4" y2="1014" />
    <line x1="284.40000000000003" y1="1014" x2="292.8" y2="1014" />
    <line x1="292.8" y1="1014" x2="301.2" y2="1014" />
    <line x1="301.2" y1="1014" x2="309.59999999999997" y2="1014" />
    <line x1="309.6" y1="1014" x2="318" y2="1014" />
    <line x1="318" y1="1014" x2="326.4" y2="1014" />
    <line x1="326.40000000000003" y1="1014" x2="334.8" y2="1014" />
    <line x1="334.8" y1="1014" x2="339" y2="1024" />
    <line x1="28.2" y1="1024" x2="28.2" y2="1044" />
    <line x1="339" y1="1024" x2="339" y2="1044" />
    <line x1="28.2" y1="1044" x2="28.2" y2="1064" />
    <line x1="339" y1="1044" x2="339" y2="1064" />
    <line x1="28.2" y1="1064" x2="28.2" y2="1084" />
    <line x1="339" y1="1064" x2="339" y2="1084" />
    <line x1="28.2" y1="1084" x2="28.2" y2="1104" />
    <line x1="339" y1="1084" x2="339" y2="1104" />
    <line x1="28.2" y1="1104" x2="28.2" y2="1124" />
    <line x1="339" y1="1104" x2="339" y2="1124" />
    <line x1="28.2" y1="1124" x2="28.2" y2="1144" />
    <line x1="339" y1="1124" x2="339" y2="1144" />
    <line x1="28.2" y1="1144" x2="28.2" y2="1164" />
    <line x1="339" y1="1144" x2="339" y2="1164" />
    <line x1="28.2" y1="1164" x2="32.4" y2="1174" />
    <line x1="32.4" y1="1174" x2="40.8" y2="1174" />
    <line x1="40.8" y1="1174" x2="49.199999999999996" y2="1174" />
    <line x1="49.2" y1="1174" x2="57.6" y2="1174" />
    <line x1="57.6" y1="1174" x2="66" y2="1174" />
    <line x1="66" y1="1174" x2="74.4" y2="1174" />
    <line x1="74.4" y1="1174" x2="82.80000000000001" y2="1174" />
    <line x1="82.80000000000001" y1="1174" x2="91.20000000000002" y2="1174" />
    <line x1="91.2" y1="1174" x2="99.60000000000001" y2="1174" />
    <line x1="99.60000000000001" y1="1174" x2="108.00000000000001" y2="1174" />
    <line x1="108" y1="1174" x2="116.4" y2="1174" />
    <line x1="116.4" y1="1174" x2="124.80000000000001" y2="1174" />
    <line x1="124.80000000000001" y1="1174" x2="133.20000000000002" y2="1174" />
    <line x1="133.2" y1="1174" x2="141.6" y2="1174" />
    <line x1="141.60000000000002" y1="1174" x2="150.00000000000003" y2="1174" />
    <line x1="150" y1="1174" x2="158.4" y2="1174" />
    <line x1="158.4" y1="1174" x2="166.8" y2="1174" />
    <line x1="166.8" y1="1174" x2="175.20000000000002" y2="1174" />
    <line x1="175.20000000000002" y1="1174" x2="183.60000000000002" y2="1174" />
    <line x1="183.6" y1="1174" x2="192" y2="1174" />
    <line x1="192" y1="1174" x2="200.4" y2="1174" />
    <line x1="200.4" y1="1174" x2="208.8" y2="1174" />
    <line x1="208.8" y1="1174" x2="217.20000000000002" y2="1174" />
    <line x1="217.20000000000002" y1="1174" x2="225.60000000000002" y2="1174" />
    <line x1="225.60000000000002" y1="1174" x2="234.00000000000003" y2="1174" />
    <line x1="234" y1="1174" x2="242.4" y2="1174" />
    <line x1="242.4" y1="1174" x2="250.8" y2="1174" />
    <line x1="250.8" y1="1174" x2="259.2" y2="1174" />
    <line x1="259.20000000000005" y1="1174" x2="267.6" y2="1174" />
    <line x1="267.6" y1="1174" x2="276" y2="1174" />
    <line x1="276" y1="1174" x2="284.4" y2="1174" />
    <line x1="284.40000000000003" y1="1174" x2="292.8" y2="1174" />
    <line x1="292.8" y1="1174" x2="301.2" y2="1174" />
    <line x1="301.2" y1="1174" x2="309.59999999999997" y2="1174" />
    <line x1="309.6" y1="1174" x2="318" y2="1174" />
    <line x1="318" y1="1174" x2="326.4" y2="1174" />
    <line x1="326.40000000000003" y1="1174" x2="334.8" y2="1174" />
    <line x1="334.8" y1="1174" x2="339" y2="1164" />
  </g>
  <g>
    <text x="24" y="59" xml:space="preserve">         LatencyTracker               </text>
    <text x="24" y="99" xml:space="preserve">   - histogram: HDRHistogram          </text>
    <text x="24" y="119" xml:space="preserve">   - windowSize: Duration             </text>
    <text x="24" y="139" xml:space="preserve">   - serviceName: string              </text>
    <text x="24" y="159" xml:space="preserve">   - operationName: string            </text>
    <text x="24" y="199" xml:space="preserve">   + recordLatency(ms: float): void   </text>
    <text x="24" y="219" xml:space="preserve">   + getP50(): float                  </text>
    <text x="24" y="239" xml:space="preserve">   + getP95(): float                  </text>
    <text x="24" y="259" xml:space="preserve">   + getP99(): float                  </text>
    <text x="24" y="279" xml:space="preserve">   + getP999(): float                 </text>
    <text x="24" y="299" xml:space="preserve">   + getMean(): float                 </text>
    <text x="24" y="319" xml:space="preserve">   + getMax(): float                  </text>
    <text x="24" y="339" xml:space="preserve">   + getThroughput(): float           </text>
    <text x="24" y="359" xml:space="preserve">   + reset(): void                    </text>
    <text x="24" y="379" xml:space="preserve">   + snapshot(): LatencySnapshot      </text>
    <text x="24" y="499" xml:space="preserve">  Timer     Throughput     SLO        </text>
    <text x="24" y="519" xml:space="preserve"> Middleware   Counter       Checker    </text>
    <text x="24" y="559" xml:space="preserve"> Wraps      Count req    Compare      </text>
    <text x="24" y="579" xml:space="preserve"> handlers   per second   against      </text>
    <text x="24" y="599" xml:space="preserve"> to auto                 targets      </text>
    <text x="24" y="619" xml:space="preserve"> record                               </text>
    <text x="24" y="639" xml:space="preserve"> latency                 Alert if     </text>
    <text x="24" y="659" xml:space="preserve">                         violated     </text>
    <text x="24" y="739" xml:space="preserve">         LatencySnapshot              </text>
    <text x="24" y="779" xml:space="preserve">   - timestamp: datetime              </text>
    <text x="24" y="799" xml:space="preserve">   - p50: float                       </text>
    <text x="24" y="819" xml:space="preserve">   - p95: float                       </text>
    <text x="24" y="839" xml:space="preserve">   - p99: float                       </text>
    <text x="24" y="859" xml:space="preserve">   - p999: float                      </text>
    <text x="24" y="879" xml:space="preserve">   - mean: float                      </text>
    <text x="24" y="899" xml:space="preserve">   - max: float                       </text>
    <text x="24" y="919" xml:space="preserve">   - count: int                       </text>
    <text x="24" y="939" xml:space="preserve">   - throughput: float                </text>
    <text x="24" y="959" xml:space="preserve">   - errorRate: float                 </text>
    <text x="24" y="1039" xml:space="preserve">         SLOConfig                    </text>
    <text x="24" y="1079" xml:space="preserve">   - p99Target: float     (ms)        </text>
    <text x="24" y="1099" xml:space="preserve">   - p95Target: float     (ms)        </text>
    <text x="24" y="1119" xml:space="preserve">   - throughputMin: float (req/sec)   </text>
    <text x="24" y="1139" xml:space="preserve">   - errorRateMax: float  (%)         </text>
    <text x="24" y="1159" xml:space="preserve">   - windowSize: Duration             </text>
  </g>
</svg>
