<?xml version="1.0" encoding="UTF-8"?>
<svg xmlns="http://www.w3.org/2000/svg" width="636" height="548" viewBox="0 0 636 548" role="img" aria-labelledby="title desc">
  <title id="title">Sequence Flow — Request with Latency Tracking diagram</title>
  <desc id="desc">Generated vector rendering of a documentation diagram.</desc>
  <defs>
    <style>
      .card { fill: #fbfcff; stroke: #cbd5e1; stroke-width: 1.2; }
      .segments { stroke: #0f172a; stroke-width: 1.8; stroke-linecap: round; }
      text {
        fill: #0f172a;
        font-family: "JetBrains Mono", "SFMono-Regular", Consolas, "Liberation Mono", monospace;
        font-size: 14px;
      }
    </style>
  </defs>
  <rect class="card" x="0.6" y="0.6" width="634.8" height="546.8" rx="16" />
  <g class="segments">
    <line x1="45" y1="44" x2="45" y2="64" />
    <line x1="171" y1="44" x2="171" y2="64" />
    <line x1="280.2" y1="44" x2="280.2" y2="64" />
    <line x1="397.8" y1="44" x2="397.8" y2="64" />
    <line x1="507" y1="44" x2="507" y2="64" />
    <line x1="607.8000000000001" y1="44" x2="607.8000000000001" y2="64" />
    <line x1="45" y1="64" x2="45" y2="84" />
    <line x1="49.2" y1="74" x2="57.6" y2="74" />
    <line x1="150" y1="74" x2="158.4" y2="74" />
    <line x1="158.4" y1="74" x2="166.8" y2="74" />
    <line x1="280.2" y1="64" x2="280.2" y2="84" />
    <line x1="397.8" y1="64" x2="397.8" y2="84" />
    <line x1="507" y1="64" x2="507" y2="84" />
    <line x1="607.8000000000001" y1="64" x2="607.8000000000001" y2="84" />
    <line x1="45" y1="84" x2="45" y2="104" />
    <line x1="171" y1="84" x2="171" y2="104" />
    <line x1="175.20000000000002" y1="94" x2="183.60000000000002" y2="94" />
    <line x1="259.20000000000005" y1="94" x2="267.6" y2="94" />
    <line x1="267.6" y1="94" x2="276" y2="94" />
    <line x1="397.8" y1="84" x2="397.8" y2="104" />
    <line x1="507" y1="84" x2="507" y2="104" />
    <line x1="607.8000000000001" y1="84" x2="607.8000000000001" y2="104" />
    <line x1="45" y1="104" x2="45" y2="124" />
    <line x1="171" y1="104" x2="171" y2="124" />
    <line x1="280.2" y1="104" x2="280.2" y2="124" />
    <line x1="284.40000000000003" y1="114" x2="292.8" y2="114" />
    <line x1="397.8" y1="104" x2="397.8" y2="124" />
    <line x1="507" y1="104" x2="507" y2="124" />
    <line x1="607.8000000000001" y1="104" x2="607.8000000000001" y2="124" />
    <line x1="45" y1="124" x2="45" y2="144" />
    <line x1="171" y1="124" x2="171" y2="144" />
    <line x1="280.2" y1="124" x2="280.2" y2="144" />
    <line x1="397.8" y1="124" x2="397.8" y2="144" />
    <line x1="507" y1="124" x2="507" y2="144" />
    <line x1="607.8000000000001" y1="124" x2="607.8000000000001" y2="144" />
    <line x1="45" y1="144" x2="45" y2="164" />
    <line x1="171" y1="144" x2="171" y2="164" />
    <line x1="280.2" y1="144" x2="280.2" y2="164" />
    <line x1="284.40000000000003" y1="154" x2="292.8" y2="154" />
    <line x1="385.2" y1="154" x2="393.59999999999997" y2="154" />
    <line x1="507" y1="144" x2="507" y2="164" />
    <line x1="607.8000000000001" y1="144" x2="607.8000000000001" y2="164" />
    <line x1="45" y1="164" x2="45" y2="184" />
    <line x1="171" y1="164" x2="171" y2="184" />
    <line x1="280.2" y1="164" x2="280.2" y2="184" />
    <line x1="397.8" y1="164" x2="397.8" y2="184" />
    <line x1="402" y1="174" x2="410.4" y2="174" />
    <line x1="486" y1="174" x2="494.4" y2="174" />
    <line x1="494.40000000000003" y1="174" x2="502.8" y2="174" />
    <line x1="607.8000000000001" y1="164" x2="607.8000000000001" y2="184" />
    <line x1="45" y1="184" x2="45" y2="204" />
    <line x1="171" y1="184" x2="171" y2="204" />
    <line x1="280.2" y1="184" x2="280.2" y2="204" />
    <line x1="397.8" y1="184" x2="397.8" y2="204" />
    <line x1="410.40000000000003" y1="194" x2="418.8" y2="194" />
    <line x1="469.20000000000005" y1="194" x2="477.6" y2="194" />
    <line x1="477.6" y1="194" x2="486" y2="194" />
    <line x1="486" y1="194" x2="494.4" y2="194" />
    <line x1="494.40000000000003" y1="194" x2="502.8" y2="194" />
    <line x1="507" y1="184" x2="507" y2="204" />
    <line x1="607.8000000000001" y1="184" x2="607.8000000000001" y2="204" />
    <line x1="45" y1="204" x2="45" y2="224" />
    <line x1="171" y1="204" x2="171" y2="224" />
    <line x1="280.2" y1="204" x2="280.2" y2="224" />
    <line x1="397.8" y1="204" x2="397.8" y2="224" />
    <line x1="507" y1="204" x2="507" y2="224" />
    <line x1="607.8000000000001" y1="204" x2="607.8000000000001" y2="224" />
    <line x1="45" y1="224" x2="45" y2="244" />
    <line x1="171" y1="224" x2="171" y2="244" />
    <line x1="280.2" y1="224" x2="280.2" y2="244" />
    <line x1="397.8" y1="224" x2="397.8" y2="244" />
    <line x1="402" y1="234" x2="410.4" y2="234" />
    <line x1="477.6" y1="234" x2="486" y2="234" />
    <line x1="486" y1="234" x2="494.4" y2="234" />
    <line x1="494.40000000000003" y1="234" x2="502.8" y2="234" />
    <line x1="502.8" y1="234" x2="511.2" y2="234" />
    <line x1="511.20000000000005" y1="234" x2="519.6" y2="234" />
    <line x1="519.6" y1="234" x2="528" y2="234" />
    <line x1="528" y1="234" x2="536.4" y2="234" />
    <line x1="536.4" y1="234" x2="544.8" y2="234" />
    <line x1="544.8000000000001" y1="234" x2="553.2" y2="234" />
    <line x1="553.2" y1="234" x2="561.6" y2="234" />
    <line x1="561.6" y1="234" x2="570" y2="234" />
    <line x1="570" y1="234" x2="578.4" y2="234" />
    <line x1="578.4" y1="234" x2="586.8" y2="234" />
    <line x1="586.8000000000001" y1="234" x2="595.2" y2="234" />
    <line x1="595.2" y1="234" x2="603.6" y2="234" />
    <line x1="45" y1="244" x2="45" y2="264" />
    <line x1="171" y1="244" x2="171" y2="264" />
    <line x1="280.2" y1="244" x2="280.2" y2="264" />
    <line x1="397.8" y1="244" x2="397.8" y2="264" />
    <line x1="410.40000000000003" y1="254" x2="418.8" y2="254" />
    <line x1="502.8" y1="254" x2="511.2" y2="254" />
    <line x1="511.20000000000005" y1="254" x2="519.6" y2="254" />
    <line x1="519.6" y1="254" x2="528" y2="254" />
    <line x1="528" y1="254" x2="536.4" y2="254" />
    <line x1="536.4" y1="254" x2="544.8" y2="254" />
    <line x1="544.8000000000001" y1="254" x2="553.2" y2="254" />
    <line x1="553.2" y1="254" x2="561.6" y2="254" />
    <line x1="561.6" y1="254" x2="570" y2="254" />
    <line x1="570" y1="254" x2="578.4" y2="254" />
    <line x1="578.4" y1="254" x2="586.8" y2="254" />
    <line x1="586.8000000000001" y1="254" x2="595.2" y2="254" />
    <line x1="595.2" y1="254" x2="603.6" y2="254" />
    <line x1="607.8000000000001" y1="244" x2="607.8000000000001" y2="264" />
    <line x1="45" y1="264" x2="45" y2="284" />
    <line x1="171" y1="264" x2="171" y2="284" />
    <line x1="280.2" y1="264" x2="280.2" y2="284" />
    <line x1="397.8" y1="264" x2="397.8" y2="284" />
    <line x1="507" y1="264" x2="507" y2="284" />
    <line x1="607.8000000000001" y1="264" x2="607.8000000000001" y2="284" />
    <line x1="45" y1="284" x2="45" y2="304" />
    <line x1="171" y1="284" x2="171" y2="304" />
    <line x1="280.2" y1="284" x2="280.2" y2="304" />
    <line x1="397.8" y1="284" x2="397.8" y2="304" />
    <line x1="402" y1="294" x2="410.4" y2="294" />
    <line x1="607.8000000000001" y1="284" x2="607.8000000000001" y2="304" />
    <line x1="45" y1="304" x2="45" y2="324" />
    <line x1="171" y1="304" x2="171" y2="324" />
    <line x1="280.2" y1="304" x2="280.2" y2="324" />
    <line x1="397.8" y1="304" x2="397.8" y2="324" />
    <line x1="507" y1="304" x2="507" y2="324" />
    <line x1="607.8000000000001" y1="304" x2="607.8000000000001" y2="324" />
    <line x1="45" y1="324" x2="45" y2="344" />
    <line x1="171" y1="324" x2="171" y2="344" />
    <line x1="280.2" y1="324" x2="280.2" y2="344" />
    <line x1="292.8" y1="334" x2="301.2" y2="334" />
    <line x1="385.2" y1="334" x2="393.59999999999997" y2="334" />
    <line x1="397.8" y1="324" x2="397.8" y2="344" />
    <line x1="507" y1="324" x2="507" y2="344" />
    <line x1="607.8000000000001" y1="324" x2="607.8000000000001" y2="344" />
    <line x1="45" y1="344" x2="45" y2="364" />
    <line x1="171" y1="344" x2="171" y2="364" />
    <line x1="280.2" y1="344" x2="280.2" y2="364" />
    <line x1="397.8" y1="344" x2="397.8" y2="364" />
    <line x1="507" y1="344" x2="507" y2="364" />
    <line x1="607.8000000000001" y1="344" x2="607.8000000000001" y2="364" />
    <line x1="45" y1="364" x2="45" y2="384" />
    <line x1="171" y1="364" x2="171" y2="384" />
    <line x1="280.2" y1="364" x2="280.2" y2="384" />
    <line x1="284.40000000000003" y1="374" x2="292.8" y2="374" />
    <line x1="397.8" y1="364" x2="397.8" y2="384" />
    <line x1="507" y1="364" x2="507" y2="384" />
    <line x1="607.8000000000001" y1="364" x2="607.8000000000001" y2="384" />
    <line x1="45" y1="384" x2="45" y2="404" />
    <line x1="171" y1="384" x2="171" y2="404" />
    <line x1="280.2" y1="384" x2="280.2" y2="404" />
    <line x1="507" y1="384" x2="507" y2="404" />
    <line x1="607.8000000000001" y1="384" x2="607.8000000000001" y2="404" />
    <line x1="45" y1="404" x2="45" y2="424" />
    <line x1="171" y1="404" x2="171" y2="424" />
    <line x1="280.2" y1="404" x2="280.2" y2="424" />
    <line x1="284.40000000000003" y1="414" x2="292.8" y2="414" />
    <line x1="507" y1="404" x2="507" y2="424" />
    <line x1="607.8000000000001" y1="404" x2="607.8000000000001" y2="424" />
    <line x1="45" y1="424" x2="45" y2="444" />
    <line x1="171" y1="424" x2="171" y2="444" />
    <line x1="280.2" y1="424" x2="280.2" y2="444" />
    <line x1="507" y1="424" x2="507" y2="444" />
    <line x1="607.8000000000001" y1="424" x2="607.8000000000001" y2="444" />
    <line x1="45" y1="444" x2="45" y2="464" />
    <line x1="171" y1="444" x2="171" y2="464" />
    <line x1="280.2" y1="444" x2="280.2" y2="464" />
    <line x1="397.8" y1="444" x2="397.8" y2="464" />
    <line x1="507" y1="444" x2="507" y2="464" />
    <line x1="607.8000000000001" y1="444" x2="607.8000000000001" y2="464" />
    <line x1="45" y1="464" x2="45" y2="484" />
    <line x1="171" y1="464" x2="171" y2="484" />
    <line x1="183.6" y1="474" x2="192" y2="474" />
    <line x1="267.6" y1="474" x2="276" y2="474" />
    <line x1="280.2" y1="464" x2="280.2" y2="484" />
    <line x1="397.8" y1="464" x2="397.8" y2="484" />
    <line x1="507" y1="464" x2="507" y2="484" />
    <line x1="607.8000000000001" y1="464" x2="607.8000000000001" y2="484" />
    <line x1="45" y1="484" x2="45" y2="504" />
    <line x1="57.6" y1="494" x2="66" y2="494" />
    <line x1="133.2" y1="494" x2="141.6" y2="494" />
    <line x1="141.60000000000002" y1="494" x2="150.00000000000003" y2="494" />
    <line x1="150" y1="494" x2="158.4" y2="494" />
    <line x1="162.6" y1="484" x2="162.6" y2="504" />
    <line x1="271.8" y1="484" x2="271.8" y2="504" />
    <line x1="389.4" y1="484" x2="389.4" y2="504" />
    <line x1="498.6" y1="484" x2="498.6" y2="504" />
    <line x1="599.4000000000001" y1="484" x2="599.4000000000001" y2="504" />
    <line x1="45" y1="504" x2="45" y2="524" />
    <line x1="171" y1="504" x2="171" y2="524" />
    <line x1="280.2" y1="504" x2="280.2" y2="524" />
    <line x1="397.8" y1="504" x2="397.8" y2="524" />
    <line x1="507" y1="504" x2="507" y2="524" />
    <line x1="607.8000000000001" y1="504" x2="607.8000000000001" y2="524" />
  </g>
  <g>
    <text x="24" y="39" xml:space="preserve">Client          LB         TimerMW       Handler       Cache        DB</text>
    <text x="24" y="79" xml:space="preserve">     GET /item   ►                                                    </text>
    <text x="24" y="99" xml:space="preserve">                    forward   ►                                       </text>
    <text x="24" y="119" xml:space="preserve">                                 start_timer                          </text>
    <text x="24" y="159" xml:space="preserve">                                 handler()  ►                         </text>
    <text x="24" y="179" xml:space="preserve">                                               GET key   ►            </text>
    <text x="24" y="199" xml:space="preserve">                                             ◄  MISS                  </text>
    <text x="24" y="239" xml:space="preserve">                                               SELECT                ►</text>
    <text x="24" y="259" xml:space="preserve">                                             ◄  row data              </text>
    <text x="24" y="299" xml:space="preserve">                                               SET cache ►            </text>
    <text x="24" y="339" xml:space="preserve">                               ◄  response                            </text>
    <text x="24" y="379" xml:space="preserve">                                 stop_timer                           </text>
    <text x="24" y="399" xml:space="preserve">                                 latency = 23ms                       </text>
    <text x="24" y="419" xml:space="preserve">                                 tracker.record(                      </text>
    <text x="24" y="439" xml:space="preserve">                                  &quot;GET /item&quot;, 23)                    </text>
    <text x="24" y="479" xml:space="preserve">                  ◄  response                                         </text>
    <text x="24" y="499" xml:space="preserve">   ◄  200 OK                                                         </text>
    <text x="24" y="519" xml:space="preserve">     (23ms)                                                           </text>
  </g>
</svg>
