<?xml version="1.0" encoding="UTF-8"?>
<svg xmlns="http://www.w3.org/2000/svg" width="317" height="668" viewBox="0 0 317 668" role="img" aria-labelledby="title desc">
  <title id="title">Classes diagram</title>
  <desc id="desc">Generated vector rendering of a documentation diagram.</desc>
  <defs>
    <style>
      .card { fill: #fbfcff; stroke: #cbd5e1; stroke-width: 1.2; }
      .segments { stroke: #0f172a; stroke-width: 1.8; stroke-linecap: round; }
      text {
        fill: #0f172a;
        font-family: "JetBrains Mono", "SFMono-Regular", Consolas, "Liberation Mono", monospace;
        font-size: 14px;
      }
    </style>
  </defs>
  <rect class="card" x="0.6" y="0.6" width="315.8" height="666.8" rx="16" />
  <g class="segments">
    <line x1="28.2" y1="44" x2="32.4" y2="34" />
    <line x1="32.4" y1="34" x2="40.8" y2="34" />
    <line x1="40.8" y1="34" x2="49.199999999999996" y2="34" />
    <line x1="49.2" y1="34" x2="57.6" y2="34" />
    <line x1="57.6" y1="34" x2="66" y2="34" />
    <line x1="66" y1="34" x2="74.4" y2="34" />
    <line x1="74.4" y1="34" x2="82.80000000000001" y2="34" />
    <line x1="82.80000000000001" y1="34" x2="91.20000000000002" y2="34" />
    <line x1="91.2" y1="34" x2="99.60000000000001" y2="34" />
    <line x1="99.60000000000001" y1="34" x2="108.00000000000001" y2="34" />
    <line x1="108" y1="34" x2="116.4" y2="34" />
    <line x1="116.4" y1="34" x2="124.80000000000001" y2="34" />
    <line x1="124.80000000000001" y1="34" x2="133.20000000000002" y2="34" />
    <line x1="133.2" y1="34" x2="141.6" y2="34" />
    <line x1="141.60000000000002" y1="34" x2="150.00000000000003" y2="34" />
    <line x1="150" y1="34" x2="158.4" y2="34" />
    <line x1="158.4" y1="34" x2="166.8" y2="34" />
    <line x1="166.8" y1="34" x2="175.20000000000002" y2="34" />
    <line x1="175.20000000000002" y1="34" x2="183.60000000000002" y2="34" />
    <line x1="183.6" y1="34" x2="192" y2="34" />
    <line x1="192" y1="34" x2="200.4" y2="34" />
    <line x1="200.4" y1="34" x2="208.8" y2="34" />
    <line x1="208.8" y1="34" x2="217.20000000000002" y2="34" />
    <line x1="217.20000000000002" y1="34" x2="225.60000000000002" y2="34" />
    <line x1="225.60000000000002" y1="34" x2="234.00000000000003" y2="34" />
    <line x1="234" y1="34" x2="242.4" y2="34" />
    <line x1="242.4" y1="34" x2="250.8" y2="34" />
    <line x1="250.8" y1="34" x2="259.2" y2="34" />
    <line x1="259.20000000000005" y1="34" x2="267.6" y2="34" />
    <line x1="267.6" y1="34" x2="276" y2="34" />
    <line x1="276" y1="34" x2="284.4" y2="34" />
    <line x1="284.40000000000003" y1="34" x2="288.6" y2="44" />
    <line x1="28.2" y1="44" x2="28.2" y2="64" />
    <line x1="288.6" y1="44" x2="288.6" y2="64" />
    <line x1="28.2" y1="64" x2="28.2" y2="84" />
    <line x1="288.6" y1="64" x2="288.6" y2="84" />
    <line x1="28.2" y1="84" x2="28.2" y2="104" />
    <line x1="288.6" y1="84" x2="288.6" y2="104" />
    <line x1="28.2" y1="104" x2="28.2" y2="124" />
    <line x1="288.6" y1="104" x2="288.6" y2="124" />
    <line x1="28.2" y1="124" x2="28.2" y2="144" />
    <line x1="288.6" y1="124" x2="288.6" y2="144" />
    <line x1="28.2" y1="144" x2="28.2" y2="164" />
    <line x1="288.6" y1="144" x2="288.6" y2="164" />
    <line x1="28.2" y1="164" x2="28.2" y2="184" />
    <line x1="288.6" y1="164" x2="288.6" y2="184" />
    <line x1="28.2" y1="184" x2="28.2" y2="204" />
    <line x1="288.6" y1="184" x2="288.6" y2="204" />
    <line x1="28.2" y1="204" x2="28.2" y2="224" />
    <line x1="288.6" y1="204" x2="288.6" y2="224" />
    <line x1="28.2" y1="224" x2="32.4" y2="234" />
    <line x1="32.4" y1="234" x2="40.8" y2="234" />
    <line x1="40.8" y1="234" x2="49.199999999999996" y2="234" />
    <line x1="49.2" y1="234" x2="57.6" y2="234" />
    <line x1="57.6" y1="234" x2="66" y2="234" />
    <line x1="66" y1="234" x2="74.4" y2="234" />
    <line x1="74.4" y1="234" x2="82.80000000000001" y2="234" />
    <line x1="82.80000000000001" y1="234" x2="91.20000000000002" y2="234" />
    <line x1="91.2" y1="234" x2="99.60000000000001" y2="234" />
    <line x1="99.60000000000001" y1="234" x2="108.00000000000001" y2="234" />
    <line x1="108" y1="234" x2="116.4" y2="234" />
    <line x1="116.4" y1="234" x2="124.80000000000001" y2="234" />
    <line x1="124.80000000000001" y1="234" x2="133.20000000000002" y2="234" />
    <line x1="133.2" y1="234" x2="141.6" y2="234" />
    <line x1="141.60000000000002" y1="234" x2="150.00000000000003" y2="234" />
    <line x1="150" y1="234" x2="158.4" y2="234" />
    <line x1="154.2" y1="234" x2="154.2" y2="244" />
    <line x1="158.4" y1="234" x2="166.8" y2="234" />
    <line x1="166.8" y1="234" x2="175.20000000000002" y2="234" />
    <line x1="175.20000000000002" y1="234" x2="183.60000000000002" y2="234" />
    <line x1="183.6" y1="234" x2="192" y2="234" />
    <line x1="192" y1="234" x2="200.4" y2="234" />
    <line x1="200.4" y1="234" x2="208.8" y2="234" />
    <line x1="208.8" y1="234" x2="217.20000000000002" y2="234" />
    <line x1="217.20000000000002" y1="234" x2="225.60000000000002" y2="234" />
    <line x1="225.60000000000002" y1="234" x2="234.00000000000003" y2="234" />
    <line x1="234" y1="234" x2="242.4" y2="234" />
    <line x1="242.4" y1="234" x2="250.8" y2="234" />
    <line x1="250.8" y1="234" x2="259.2" y2="234" />
    <line x1="259.20000000000005" y1="234" x2="267.6" y2="234" />
    <line x1="267.6" y1="234" x2="276" y2="234" />
    <line x1="276" y1="234" x2="284.4" y2="234" />
    <line x1="284.40000000000003" y1="234" x2="288.6" y2="224" />
    <line x1="154.2" y1="244" x2="154.2" y2="264" />
    <line x1="78.60000000000001" y1="284" x2="82.80000000000001" y2="274" />
    <line x1="82.80000000000001" y1="274" x2="91.20000000000002" y2="274" />
    <line x1="91.2" y1="274" x2="99.60000000000001" y2="274" />
    <line x1="99.60000000000001" y1="274" x2="108.00000000000001" y2="274" />
    <line x1="108" y1="274" x2="116.4" y2="274" />
    <line x1="116.4" y1="274" x2="124.80000000000001" y2="274" />
    <line x1="124.80000000000001" y1="274" x2="133.20000000000002" y2="274" />
    <line x1="133.2" y1="274" x2="141.6" y2="274" />
    <line x1="141.60000000000002" y1="274" x2="150.00000000000003" y2="274" />
    <line x1="150" y1="274" x2="158.4" y2="274" />
    <line x1="154.2" y1="264" x2="154.2" y2="284" />
    <line x1="158.4" y1="274" x2="166.8" y2="274" />
    <line x1="166.8" y1="274" x2="175.20000000000002" y2="274" />
    <line x1="175.20000000000002" y1="274" x2="183.60000000000002" y2="274" />
    <line x1="183.6" y1="274" x2="192" y2="274" />
    <line x1="192" y1="274" x2="200.4" y2="274" />
    <line x1="200.4" y1="274" x2="208.8" y2="274" />
    <line x1="208.8" y1="274" x2="217.20000000000002" y2="274" />
    <line x1="217.20000000000002" y1="274" x2="225.60000000000002" y2="274" />
    <line x1="225.60000000000002" y1="274" x2="234.00000000000003" y2="274" />
    <line x1="234" y1="274" x2="238.2" y2="284" />
    <line x1="78.60000000000001" y1="284" x2="78.60000000000001" y2="304" />
    <line x1="154.2" y1="284" x2="154.2" y2="304" />
    <line x1="238.2" y1="284" x2="238.2" y2="304" />
    <line x1="28.2" y1="324" x2="32.4" y2="314" />
    <line x1="32.4" y1="314" x2="40.8" y2="314" />
    <line x1="40.8" y1="314" x2="49.199999999999996" y2="314" />
    <line x1="49.2" y1="314" x2="57.6" y2="314" />
    <line x1="57.6" y1="314" x2="66" y2="314" />
    <line x1="66" y1="314" x2="74.4" y2="314" />
    <line x1="74.4" y1="314" x2="82.80000000000001" y2="314" />
    <line x1="78.60000000000001" y1="304" x2="78.60000000000001" y2="314" />
    <line x1="82.80000000000001" y1="314" x2="91.20000000000002" y2="314" />
    <line x1="91.2" y1="314" x2="99.60000000000001" y2="314" />
    <line x1="99.60000000000001" y1="314" x2="103.80000000000001" y2="324" />
    <line x1="120.60000000000001" y1="324" x2="124.80000000000001" y2="314" />
    <line x1="124.80000000000001" y1="314" x2="133.20000000000002" y2="314" />
    <line x1="133.2" y1="314" x2="141.6" y2="314" />
    <line x1="141.60000000000002" y1="314" x2="150.00000000000003" y2="314" />
    <line x1="145.8" y1="304" x2="145.8" y2="314" />
    <line x1="150" y1="314" x2="158.4" y2="314" />
    <line x1="158.4" y1="314" x2="166.8" y2="314" />
    <line x1="166.8" y1="314" x2="175.20000000000002" y2="314" />
    <line x1="175.20000000000002" y1="314" x2="183.60000000000002" y2="314" />
    <line x1="183.6" y1="314" x2="187.79999999999998" y2="324" />
    <line x1="204.6" y1="324" x2="208.8" y2="314" />
    <line x1="208.8" y1="314" x2="217.20000000000002" y2="314" />
    <line x1="217.20000000000002" y1="314" x2="225.60000000000002" y2="314" />
    <line x1="225.60000000000002" y1="314" x2="234.00000000000003" y2="314" />
    <line x1="229.8" y1="304" x2="229.8" y2="314" />
    <line x1="234" y1="314" x2="242.4" y2="314" />
    <line x1="242.4" y1="314" x2="250.8" y2="314" />
    <line x1="250.8" y1="314" x2="259.2" y2="314" />
    <line x1="259.20000000000005" y1="314" x2="267.6" y2="314" />
    <line x1="267.6" y1="314" x2="276" y2="314" />
    <line x1="276" y1="314" x2="284.4" y2="314" />
    <line x1="284.40000000000003" y1="314" x2="288.6" y2="324" />
    <line x1="28.2" y1="324" x2="28.2" y2="344" />
    <line x1="103.80000000000001" y1="324" x2="103.80000000000001" y2="344" />
    <line x1="120.60000000000001" y1="324" x2="120.60000000000001" y2="344" />
    <line x1="187.79999999999998" y1="324" x2="187.79999999999998" y2="344" />
    <line x1="204.6" y1="324" x2="204.6" y2="344" />
    <line x1="288.6" y1="324" x2="288.6" y2="344" />
    <line x1="28.2" y1="344" x2="28.2" y2="364" />
    <line x1="103.80000000000001" y1="344" x2="103.80000000000001" y2="364" />
    <line x1="120.60000000000001" y1="344" x2="120.60000000000001" y2="364" />
    <line x1="187.79999999999998" y1="344" x2="187.79999999999998" y2="364" />
    <line x1="204.6" y1="344" x2="204.6" y2="364" />
    <line x1="288.6" y1="344" x2="288.6" y2="364" />
    <line x1="28.2" y1="364" x2="32.4" y2="374" />
    <line x1="32.4" y1="374" x2="40.8" y2="374" />
    <line x1="40.8" y1="374" x2="49.199999999999996" y2="374" />
    <line x1="49.2" y1="374" x2="57.6" y2="374" />
    <line x1="57.6" y1="374" x2="66" y2="374" />
    <line x1="66" y1="374" x2="74.4" y2="374" />
    <line x1="74.4" y1="374" x2="82.80000000000001" y2="374" />
    <line x1="82.80000000000001" y1="374" x2="91.20000000000002" y2="374" />
    <line x1="91.2" y1="374" x2="99.60000000000001" y2="374" />
    <line x1="99.60000000000001" y1="374" x2="103.80000000000001" y2="364" />
    <line x1="120.60000000000001" y1="364" x2="124.80000000000001" y2="374" />
    <line x1="124.80000000000001" y1="374" x2="133.20000000000002" y2="374" />
    <line x1="133.2" y1="374" x2="141.6" y2="374" />
    <line x1="141.60000000000002" y1="374" x2="150.00000000000003" y2="374" />
    <line x1="150" y1="374" x2="158.4" y2="374" />
    <line x1="158.4" y1="374" x2="166.8" y2="374" />
    <line x1="166.8" y1="374" x2="175.20000000000002" y2="374" />
    <line x1="175.20000000000002" y1="374" x2="183.60000000000002" y2="374" />
    <line x1="183.6" y1="374" x2="187.79999999999998" y2="364" />
    <line x1="204.6" y1="364" x2="208.8" y2="374" />
    <line x1="208.8" y1="374" x2="217.20000000000002" y2="374" />
    <line x1="217.20000000000002" y1="374" x2="225.60000000000002" y2="374" />
    <line x1="225.60000000000002" y1="374" x2="234.00000000000003" y2="374" />
    <line x1="234" y1="374" x2="242.4" y2="374" />
    <line x1="242.4" y1="374" x2="250.8" y2="374" />
    <line x1="250.8" y1="374" x2="259.2" y2="374" />
    <line x1="259.20000000000005" y1="374" x2="267.6" y2="374" />
    <line x1="267.6" y1="374" x2="276" y2="374" />
    <line x1="276" y1="374" x2="284.4" y2="374" />
    <line x1="284.40000000000003" y1="374" x2="288.6" y2="364" />
    <line x1="28.2" y1="424" x2="32.4" y2="414" />
    <line x1="32.4" y1="414" x2="40.8" y2="414" />
    <line x1="40.8" y1="414" x2="49.199999999999996" y2="414" />
    <line x1="49.2" y1="414" x2="57.6" y2="414" />
    <line x1="57.6" y1="414" x2="66" y2="414" />
    <line x1="66" y1="414" x2="74.4" y2="414" />
    <line x1="74.4" y1="414" x2="82.80000000000001" y2="414" />
    <line x1="82.80000000000001" y1="414" x2="91.20000000000002" y2="414" />
    <line x1="91.2" y1="414" x2="99.60000000000001" y2="414" />
    <line x1="99.60000000000001" y1="414" x2="108.00000000000001" y2="414" />
    <line x1="108" y1="414" x2="116.4" y2="414" />
    <line x1="116.4" y1="414" x2="124.80000000000001" y2="414" />
    <line x1="124.80000000000001" y1="414" x2="133.20000000000002" y2="414" />
    <line x1="133.2" y1="414" x2="141.6" y2="414" />
    <line x1="141.60000000000002" y1="414" x2="150.00000000000003" y2="414" />
    <line x1="150" y1="414" x2="158.4" y2="414" />
    <line x1="158.4" y1="414" x2="166.8" y2="414" />
    <line x1="166.8" y1="414" x2="175.20000000000002" y2="414" />
    <line x1="175.20000000000002" y1="414" x2="183.60000000000002" y2="414" />
    <line x1="183.6" y1="414" x2="192" y2="414" />
    <line x1="192" y1="414" x2="200.4" y2="414" />
    <line x1="200.4" y1="414" x2="208.8" y2="414" />
    <line x1="208.8" y1="414" x2="217.20000000000002" y2="414" />
    <line x1="217.20000000000002" y1="414" x2="225.60000000000002" y2="414" />
    <line x1="225.60000000000002" y1="414" x2="234.00000000000003" y2="414" />
    <line x1="234" y1="414" x2="242.4" y2="414" />
    <line x1="242.4" y1="414" x2="250.8" y2="414" />
    <line x1="250.8" y1="414" x2="259.2" y2="414" />
    <line x1="259.20000000000005" y1="414" x2="267.6" y2="414" />
    <line x1="267.6" y1="414" x2="276" y2="414" />
    <line x1="276" y1="414" x2="284.4" y2="414" />
    <line x1="284.40000000000003" y1="414" x2="288.6" y2="424" />
    <line x1="28.2" y1="424" x2="28.2" y2="444" />
    <line x1="288.6" y1="424" x2="288.6" y2="444" />
    <line x1="28.2" y1="444" x2="28.2" y2="464" />
    <line x1="288.6" y1="444" x2="288.6" y2="464" />
    <line x1="28.2" y1="464" x2="28.2" y2="484" />
    <line x1="288.6" y1="464" x2="288.6" y2="484" />
    <line x1="28.2" y1="484" x2="28.2" y2="504" />
    <line x1="288.6" y1="484" x2="288.6" y2="504" />
    <line x1="28.2" y1="504" x2="28.2" y2="524" />
    <line x1="288.6" y1="504" x2="288.6" y2="524" />
    <line x1="28.2" y1="524" x2="28.2" y2="544" />
    <line x1="288.6" y1="524" x2="288.6" y2="544" />
    <line x1="28.2" y1="544" x2="28.2" y2="564" />
    <line x1="288.6" y1="544" x2="288.6" y2="564" />
    <line x1="28.2" y1="564" x2="28.2" y2="584" />
    <line x1="288.6" y1="564" x2="288.6" y2="584" />
    <line x1="28.2" y1="584" x2="28.2" y2="604" />
    <line x1="288.6" y1="584" x2="288.6" y2="604" />
    <line x1="28.2" y1="604" x2="28.2" y2="624" />
    <line x1="288.6" y1="604" x2="288.6" y2="624" />
    <line x1="28.2" y1="624" x2="32.4" y2="634" />
    <line x1="32.4" y1="634" x2="40.8" y2="634" />
    <line x1="40.8" y1="634" x2="49.199999999999996" y2="634" />
    <line x1="49.2" y1="634" x2="57.6" y2="634" />
    <line x1="57.6" y1="634" x2="66" y2="634" />
    <line x1="66" y1="634" x2="74.4" y2="634" />
    <line x1="74.4" y1="634" x2="82.80000000000001" y2="634" />
    <line x1="82.80000000000001" y1="634" x2="91.20000000000002" y2="634" />
    <line x1="91.2" y1="634" x2="99.60000000000001" y2="634" />
    <line x1="99.60000000000001" y1="634" x2="108.00000000000001" y2="634" />
    <line x1="108" y1="634" x2="116.4" y2="634" />
    <line x1="116.4" y1="634" x2="124.80000000000001" y2="634" />
    <line x1="124.80000000000001" y1="634" x2="133.20000000000002" y2="634" />
    <line x1="133.2" y1="634" x2="141.6" y2="634" />
    <line x1="141.60000000000002" y1="634" x2="150.00000000000003" y2="634" />
    <line x1="150" y1="634" x2="158.4" y2="634" />
    <line x1="158.4" y1="634" x2="166.8" y2="634" />
    <line x1="166.8" y1="634" x2="175.20000000000002" y2="634" />
    <line x1="175.20000000000002" y1="634" x2="183.60000000000002" y2="634" />
    <line x1="183.6" y1="634" x2="192" y2="634" />
    <line x1="192" y1="634" x2="200.4" y2="634" />
    <line x1="200.4" y1="634" x2="208.8" y2="634" />
    <line x1="208.8" y1="634" x2="217.20000000000002" y2="634" />
    <line x1="217.20000000000002" y1="634" x2="225.60000000000002" y2="634" />
    <line x1="225.60000000000002" y1="634" x2="234.00000000000003" y2="634" />
    <line x1="234" y1="634" x2="242.4" y2="634" />
    <line x1="242.4" y1="634" x2="250.8" y2="634" />
    <line x1="250.8" y1="634" x2="259.2" y2="634" />
    <line x1="259.20000000000005" y1="634" x2="267.6" y2="634" />
    <line x1="267.6" y1="634" x2="276" y2="634" />
    <line x1="276" y1="634" x2="284.4" y2="634" />
    <line x1="284.40000000000003" y1="634" x2="288.6" y2="624" />
  </g>
  <g>
    <text x="24" y="59" xml:space="preserve">        HealthChecker           </text>
    <text x="24" y="99" xml:space="preserve">   - checks: List&lt;HealthCheck&gt;  </text>
    <text x="24" y="119" xml:space="preserve">   - interval: Duration         </text>
    <text x="24" y="139" xml:space="preserve">   - timeout: Duration          </text>
    <text x="24" y="179" xml:space="preserve">   + runAll(): HealthReport     </text>
    <text x="24" y="199" xml:space="preserve">   + register(check): void      </text>
    <text x="24" y="219" xml:space="preserve">   + isHealthy(): boolean       </text>
    <text x="24" y="339" xml:space="preserve">   DB        Redis     Custom   </text>
    <text x="24" y="359" xml:space="preserve">  Check      Check     Check    </text>
    <text x="24" y="439" xml:space="preserve">     FailoverManager            </text>
    <text x="24" y="479" xml:space="preserve">   - primary: Endpoint          </text>
    <text x="24" y="499" xml:space="preserve">   - secondary: Endpoint        </text>
    <text x="24" y="519" xml:space="preserve">   - healthChecker: HealthChkr  </text>
    <text x="24" y="539" xml:space="preserve">   - state: PRIMARY|SECONDARY   </text>
    <text x="24" y="579" xml:space="preserve">   + getCurrentEndpoint()       </text>
    <text x="24" y="599" xml:space="preserve">   + checkAndFailover(): void   </text>
    <text x="24" y="619" xml:space="preserve">   + failback(): void           </text>
  </g>
</svg>
