<?xml version="1.0" encoding="UTF-8"?>
<svg xmlns="http://www.w3.org/2000/svg" width="544" height="548" viewBox="0 0 544 548" role="img" aria-labelledby="title desc">
  <title id="title">E.1 HLD — File Storage Architecture diagram</title>
  <desc id="desc">Generated vector rendering of a documentation diagram.</desc>
  <defs>
    <style>
      .card { fill: #fbfcff; stroke: #cbd5e1; stroke-width: 1.2; }
      .segments { stroke: #0f172a; stroke-width: 1.8; stroke-linecap: round; }
      text {
        fill: #0f172a;
        font-family: "JetBrains Mono", "SFMono-Regular", Consolas, "Liberation Mono", monospace;
        font-size: 14px;
      }
    </style>
  </defs>
  <rect class="card" x="0.6" y="0.6" width="542.8" height="546.8" rx="16" />
  <g class="segments">
    <line x1="28.2" y1="44" x2="32.4" y2="34" />
    <line x1="32.4" y1="34" x2="40.8" y2="34" />
    <line x1="40.8" y1="34" x2="49.199999999999996" y2="34" />
    <line x1="49.2" y1="34" x2="57.6" y2="34" />
    <line x1="57.6" y1="34" x2="66" y2="34" />
    <line x1="66" y1="34" x2="74.4" y2="34" />
    <line x1="74.4" y1="34" x2="82.80000000000001" y2="34" />
    <line x1="82.80000000000001" y1="34" x2="91.20000000000002" y2="34" />
    <line x1="91.2" y1="34" x2="99.60000000000001" y2="34" />
    <line x1="99.60000000000001" y1="34" x2="108.00000000000001" y2="34" />
    <line x1="108" y1="34" x2="116.4" y2="34" />
    <line x1="116.4" y1="34" x2="124.80000000000001" y2="34" />
    <line x1="124.80000000000001" y1="34" x2="133.20000000000002" y2="34" />
    <line x1="133.2" y1="34" x2="141.6" y2="34" />
    <line x1="141.60000000000002" y1="34" x2="150.00000000000003" y2="34" />
    <line x1="150" y1="34" x2="158.4" y2="34" />
    <line x1="158.4" y1="34" x2="166.8" y2="34" />
    <line x1="166.8" y1="34" x2="175.20000000000002" y2="34" />
    <line x1="175.20000000000002" y1="34" x2="183.60000000000002" y2="34" />
    <line x1="183.6" y1="34" x2="192" y2="34" />
    <line x1="192" y1="34" x2="200.4" y2="34" />
    <line x1="200.4" y1="34" x2="208.8" y2="34" />
    <line x1="208.8" y1="34" x2="217.20000000000002" y2="34" />
    <line x1="217.20000000000002" y1="34" x2="225.60000000000002" y2="34" />
    <line x1="225.60000000000002" y1="34" x2="234.00000000000003" y2="34" />
    <line x1="234" y1="34" x2="242.4" y2="34" />
    <line x1="242.4" y1="34" x2="250.8" y2="34" />
    <line x1="250.8" y1="34" x2="259.2" y2="34" />
    <line x1="259.20000000000005" y1="34" x2="267.6" y2="34" />
    <line x1="267.6" y1="34" x2="276" y2="34" />
    <line x1="276" y1="34" x2="284.4" y2="34" />
    <line x1="284.40000000000003" y1="34" x2="292.8" y2="34" />
    <line x1="292.8" y1="34" x2="301.2" y2="34" />
    <line x1="301.2" y1="34" x2="309.59999999999997" y2="34" />
    <line x1="309.6" y1="34" x2="318" y2="34" />
    <line x1="318" y1="34" x2="326.4" y2="34" />
    <line x1="326.40000000000003" y1="34" x2="334.8" y2="34" />
    <line x1="334.8" y1="34" x2="343.2" y2="34" />
    <line x1="343.2" y1="34" x2="351.59999999999997" y2="34" />
    <line x1="351.6" y1="34" x2="360" y2="34" />
    <line x1="360" y1="34" x2="368.4" y2="34" />
    <line x1="368.40000000000003" y1="34" x2="376.8" y2="34" />
    <line x1="376.8" y1="34" x2="385.2" y2="34" />
    <line x1="385.2" y1="34" x2="393.59999999999997" y2="34" />
    <line x1="393.6" y1="34" x2="402" y2="34" />
    <line x1="402" y1="34" x2="410.4" y2="34" />
    <line x1="410.40000000000003" y1="34" x2="418.8" y2="34" />
    <line x1="418.8" y1="34" x2="427.2" y2="34" />
    <line x1="427.20000000000005" y1="34" x2="435.6" y2="34" />
    <line x1="435.6" y1="34" x2="444" y2="34" />
    <line x1="444" y1="34" x2="452.4" y2="34" />
    <line x1="452.40000000000003" y1="34" x2="460.8" y2="34" />
    <line x1="460.8" y1="34" x2="469.2" y2="34" />
    <line x1="469.20000000000005" y1="34" x2="477.6" y2="34" />
    <line x1="477.6" y1="34" x2="486" y2="34" />
    <line x1="486" y1="34" x2="490.2" y2="44" />
    <line x1="28.2" y1="44" x2="28.2" y2="64" />
    <line x1="507" y1="44" x2="507" y2="64" />
    <line x1="28.2" y1="64" x2="28.2" y2="84" />
    <line x1="70.2" y1="64" x2="70.2" y2="84" />
    <line x1="305.4" y1="64" x2="305.4" y2="84" />
    <line x1="515.4000000000001" y1="64" x2="515.4000000000001" y2="84" />
    <line x1="28.2" y1="84" x2="28.2" y2="104" />
    <line x1="507" y1="84" x2="507" y2="104" />
    <line x1="28.2" y1="104" x2="28.2" y2="124" />
    <line x1="53.400000000000006" y1="124" x2="57.6" y2="114" />
    <line x1="57.6" y1="114" x2="66" y2="114" />
    <line x1="66" y1="114" x2="74.4" y2="114" />
    <line x1="74.4" y1="114" x2="82.80000000000001" y2="114" />
    <line x1="82.80000000000001" y1="114" x2="91.20000000000002" y2="114" />
    <line x1="91.2" y1="114" x2="99.60000000000001" y2="114" />
    <line x1="99.60000000000001" y1="114" x2="108.00000000000001" y2="114" />
    <line x1="108" y1="114" x2="116.4" y2="114" />
    <line x1="116.4" y1="114" x2="124.80000000000001" y2="114" />
    <line x1="124.80000000000001" y1="114" x2="133.20000000000002" y2="114" />
    <line x1="133.2" y1="114" x2="141.6" y2="114" />
    <line x1="141.60000000000002" y1="114" x2="145.8" y2="124" />
    <line x1="246.6" y1="124" x2="250.8" y2="114" />
    <line x1="250.8" y1="114" x2="259.2" y2="114" />
    <line x1="259.20000000000005" y1="114" x2="267.6" y2="114" />
    <line x1="267.6" y1="114" x2="276" y2="114" />
    <line x1="276" y1="114" x2="284.4" y2="114" />
    <line x1="284.40000000000003" y1="114" x2="292.8" y2="114" />
    <line x1="292.8" y1="114" x2="301.2" y2="114" />
    <line x1="301.2" y1="114" x2="309.59999999999997" y2="114" />
    <line x1="309.6" y1="114" x2="318" y2="114" />
    <line x1="318" y1="114" x2="326.4" y2="114" />
    <line x1="326.40000000000003" y1="114" x2="334.8" y2="114" />
    <line x1="334.8" y1="114" x2="339" y2="124" />
    <line x1="498.6" y1="104" x2="498.6" y2="124" />
    <line x1="28.2" y1="124" x2="28.2" y2="144" />
    <line x1="53.400000000000006" y1="124" x2="53.400000000000006" y2="144" />
    <line x1="145.8" y1="124" x2="145.8" y2="144" />
    <line x1="246.6" y1="124" x2="246.6" y2="144" />
    <line x1="339" y1="124" x2="339" y2="144" />
    <line x1="498.6" y1="124" x2="498.6" y2="144" />
    <line x1="28.2" y1="144" x2="28.2" y2="164" />
    <line x1="53.400000000000006" y1="144" x2="53.400000000000006" y2="164" />
    <line x1="145.8" y1="144" x2="145.8" y2="164" />
    <line x1="246.6" y1="144" x2="246.6" y2="164" />
    <line x1="339" y1="144" x2="339" y2="164" />
    <line x1="507" y1="144" x2="507" y2="164" />
    <line x1="28.2" y1="164" x2="28.2" y2="184" />
    <line x1="53.400000000000006" y1="164" x2="53.400000000000006" y2="184" />
    <line x1="145.8" y1="164" x2="145.8" y2="184" />
    <line x1="246.6" y1="164" x2="250.8" y2="174" />
    <line x1="250.8" y1="174" x2="259.2" y2="174" />
    <line x1="259.20000000000005" y1="174" x2="267.6" y2="174" />
    <line x1="267.6" y1="174" x2="276" y2="174" />
    <line x1="276" y1="174" x2="284.4" y2="174" />
    <line x1="284.40000000000003" y1="174" x2="292.8" y2="174" />
    <line x1="288.6" y1="174" x2="288.6" y2="184" />
    <line x1="292.8" y1="174" x2="301.2" y2="174" />
    <line x1="301.2" y1="174" x2="309.59999999999997" y2="174" />
    <line x1="309.6" y1="174" x2="318" y2="174" />
    <line x1="318" y1="174" x2="326.4" y2="174" />
    <line x1="326.40000000000003" y1="174" x2="334.8" y2="174" />
    <line x1="334.8" y1="174" x2="339" y2="164" />
    <line x1="498.6" y1="164" x2="498.6" y2="184" />
    <line x1="28.2" y1="184" x2="28.2" y2="204" />
    <line x1="53.400000000000006" y1="184" x2="57.6" y2="194" />
    <line x1="57.6" y1="194" x2="66" y2="194" />
    <line x1="66" y1="194" x2="74.4" y2="194" />
    <line x1="74.4" y1="194" x2="82.80000000000001" y2="194" />
    <line x1="82.80000000000001" y1="194" x2="91.20000000000002" y2="194" />
    <line x1="91.2" y1="194" x2="99.60000000000001" y2="194" />
    <line x1="95.4" y1="194" x2="95.4" y2="204" />
    <line x1="99.60000000000001" y1="194" x2="108.00000000000001" y2="194" />
    <line x1="108" y1="194" x2="116.4" y2="194" />
    <line x1="116.4" y1="194" x2="124.80000000000001" y2="194" />
    <line x1="124.80000000000001" y1="194" x2="133.20000000000002" y2="194" />
    <line x1="133.2" y1="194" x2="141.6" y2="194" />
    <line x1="141.60000000000002" y1="194" x2="145.8" y2="184" />
    <line x1="288.6" y1="184" x2="288.6" y2="204" />
    <line x1="507" y1="184" x2="507" y2="204" />
    <line x1="28.2" y1="204" x2="28.2" y2="224" />
    <line x1="95.4" y1="204" x2="95.4" y2="224" />
    <line x1="288.6" y1="204" x2="288.6" y2="224" />
    <line x1="507" y1="204" x2="507" y2="224" />
    <line x1="28.2" y1="224" x2="28.2" y2="244" />
    <line x1="53.400000000000006" y1="244" x2="57.6" y2="234" />
    <line x1="57.6" y1="234" x2="66" y2="234" />
    <line x1="66" y1="234" x2="74.4" y2="234" />
    <line x1="74.4" y1="234" x2="82.80000000000001" y2="234" />
    <line x1="82.80000000000001" y1="234" x2="91.20000000000002" y2="234" />
    <line x1="91.2" y1="234" x2="99.60000000000001" y2="234" />
    <line x1="95.4" y1="224" x2="95.4" y2="234" />
    <line x1="99.60000000000001" y1="234" x2="108.00000000000001" y2="234" />
    <line x1="108" y1="234" x2="116.4" y2="234" />
    <line x1="116.4" y1="234" x2="124.80000000000001" y2="234" />
    <line x1="124.80000000000001" y1="234" x2="133.20000000000002" y2="234" />
    <line x1="133.2" y1="234" x2="141.6" y2="234" />
    <line x1="141.60000000000002" y1="234" x2="150.00000000000003" y2="234" />
    <line x1="150" y1="234" x2="158.4" y2="234" />
    <line x1="158.4" y1="234" x2="166.8" y2="234" />
    <line x1="166.8" y1="234" x2="175.20000000000002" y2="234" />
    <line x1="175.20000000000002" y1="234" x2="183.60000000000002" y2="234" />
    <line x1="183.6" y1="234" x2="192" y2="234" />
    <line x1="192" y1="234" x2="200.4" y2="234" />
    <line x1="200.4" y1="234" x2="208.8" y2="234" />
    <line x1="208.8" y1="234" x2="217.20000000000002" y2="234" />
    <line x1="217.20000000000002" y1="234" x2="225.60000000000002" y2="234" />
    <line x1="225.60000000000002" y1="234" x2="234.00000000000003" y2="234" />
    <line x1="234" y1="234" x2="242.4" y2="234" />
    <line x1="242.4" y1="234" x2="250.8" y2="234" />
    <line x1="250.8" y1="234" x2="259.2" y2="234" />
    <line x1="259.20000000000005" y1="234" x2="267.6" y2="234" />
    <line x1="267.6" y1="234" x2="276" y2="234" />
    <line x1="276" y1="234" x2="284.4" y2="234" />
    <line x1="284.40000000000003" y1="234" x2="292.8" y2="234" />
    <line x1="288.6" y1="224" x2="288.6" y2="234" />
    <line x1="292.8" y1="234" x2="301.2" y2="234" />
    <line x1="301.2" y1="234" x2="309.59999999999997" y2="234" />
    <line x1="309.6" y1="234" x2="318" y2="234" />
    <line x1="318" y1="234" x2="326.4" y2="234" />
    <line x1="326.40000000000003" y1="234" x2="334.8" y2="234" />
    <line x1="334.8" y1="234" x2="339" y2="244" />
    <line x1="498.6" y1="224" x2="498.6" y2="244" />
    <line x1="28.2" y1="244" x2="28.2" y2="264" />
    <line x1="53.400000000000006" y1="244" x2="53.400000000000006" y2="264" />
    <line x1="347.4" y1="244" x2="347.4" y2="264" />
    <line x1="507" y1="244" x2="507" y2="264" />
    <line x1="28.2" y1="264" x2="28.2" y2="284" />
    <line x1="53.400000000000006" y1="264" x2="53.400000000000006" y2="284" />
    <line x1="347.4" y1="264" x2="347.4" y2="284" />
    <line x1="507" y1="264" x2="507" y2="284" />
    <line x1="28.2" y1="284" x2="28.2" y2="304" />
    <line x1="53.400000000000006" y1="284" x2="53.400000000000006" y2="304" />
    <line x1="347.4" y1="284" x2="347.4" y2="304" />
    <line x1="507" y1="284" x2="507" y2="304" />
    <line x1="28.2" y1="304" x2="28.2" y2="324" />
    <line x1="53.400000000000006" y1="304" x2="53.400000000000006" y2="324" />
    <line x1="347.4" y1="304" x2="347.4" y2="324" />
    <line x1="507" y1="304" x2="507" y2="324" />
    <line x1="28.2" y1="324" x2="28.2" y2="344" />
    <line x1="53.400000000000006" y1="324" x2="53.400000000000006" y2="344" />
    <line x1="347.4" y1="324" x2="347.4" y2="344" />
    <line x1="507" y1="324" x2="507" y2="344" />
    <line x1="28.2" y1="344" x2="28.2" y2="364" />
    <line x1="53.400000000000006" y1="344" x2="57.6" y2="354" />
    <line x1="57.6" y1="354" x2="66" y2="354" />
    <line x1="66" y1="354" x2="74.4" y2="354" />
    <line x1="74.4" y1="354" x2="82.80000000000001" y2="354" />
    <line x1="82.80000000000001" y1="354" x2="91.20000000000002" y2="354" />
    <line x1="91.2" y1="354" x2="99.60000000000001" y2="354" />
    <line x1="99.60000000000001" y1="354" x2="108.00000000000001" y2="354" />
    <line x1="108" y1="354" x2="116.4" y2="354" />
    <line x1="116.4" y1="354" x2="124.80000000000001" y2="354" />
    <line x1="124.80000000000001" y1="354" x2="133.20000000000002" y2="354" />
    <line x1="133.2" y1="354" x2="141.6" y2="354" />
    <line x1="141.60000000000002" y1="354" x2="150.00000000000003" y2="354" />
    <line x1="150" y1="354" x2="158.4" y2="354" />
    <line x1="158.4" y1="354" x2="166.8" y2="354" />
    <line x1="166.8" y1="354" x2="175.20000000000002" y2="354" />
    <line x1="175.20000000000002" y1="354" x2="183.60000000000002" y2="354" />
    <line x1="183.6" y1="354" x2="192" y2="354" />
    <line x1="192" y1="354" x2="200.4" y2="354" />
    <line x1="200.4" y1="354" x2="208.8" y2="354" />
    <line x1="208.8" y1="354" x2="217.20000000000002" y2="354" />
    <line x1="217.20000000000002" y1="354" x2="225.60000000000002" y2="354" />
    <line x1="225.60000000000002" y1="354" x2="234.00000000000003" y2="354" />
    <line x1="234" y1="354" x2="242.4" y2="354" />
    <line x1="242.4" y1="354" x2="250.8" y2="354" />
    <line x1="250.8" y1="354" x2="259.2" y2="354" />
    <line x1="259.20000000000005" y1="354" x2="267.6" y2="354" />
    <line x1="267.6" y1="354" x2="276" y2="354" />
    <line x1="276" y1="354" x2="284.4" y2="354" />
    <line x1="284.40000000000003" y1="354" x2="292.8" y2="354" />
    <line x1="292.8" y1="354" x2="301.2" y2="354" />
    <line x1="301.2" y1="354" x2="309.59999999999997" y2="354" />
    <line x1="309.6" y1="354" x2="318" y2="354" />
    <line x1="318" y1="354" x2="326.4" y2="354" />
    <line x1="326.40000000000003" y1="354" x2="334.8" y2="354" />
    <line x1="334.8" y1="354" x2="343.2" y2="354" />
    <line x1="343.2" y1="354" x2="347.4" y2="344" />
    <line x1="507" y1="344" x2="507" y2="364" />
    <line x1="28.2" y1="364" x2="28.2" y2="384" />
    <line x1="507" y1="364" x2="507" y2="384" />
    <line x1="28.2" y1="384" x2="28.2" y2="404" />
    <line x1="498.6" y1="384" x2="498.6" y2="404" />
    <line x1="28.2" y1="404" x2="28.2" y2="424" />
    <line x1="498.6" y1="404" x2="498.6" y2="424" />
    <line x1="28.2" y1="424" x2="28.2" y2="444" />
    <line x1="507" y1="424" x2="507" y2="444" />
    <line x1="28.2" y1="444" x2="28.2" y2="464" />
    <line x1="507" y1="444" x2="507" y2="464" />
    <line x1="28.2" y1="464" x2="28.2" y2="484" />
    <line x1="498.6" y1="464" x2="498.6" y2="484" />
    <line x1="28.2" y1="484" x2="28.2" y2="504" />
    <line x1="498.6" y1="484" x2="498.6" y2="504" />
    <line x1="28.2" y1="504" x2="32.4" y2="514" />
    <line x1="32.4" y1="514" x2="40.8" y2="514" />
    <line x1="40.8" y1="514" x2="49.199999999999996" y2="514" />
    <line x1="49.2" y1="514" x2="57.6" y2="514" />
    <line x1="57.6" y1="514" x2="66" y2="514" />
    <line x1="66" y1="514" x2="74.4" y2="514" />
    <line x1="74.4" y1="514" x2="82.80000000000001" y2="514" />
    <line x1="82.80000000000001" y1="514" x2="91.20000000000002" y2="514" />
    <line x1="91.2" y1="514" x2="99.60000000000001" y2="514" />
    <line x1="99.60000000000001" y1="514" x2="108.00000000000001" y2="514" />
    <line x1="108" y1="514" x2="116.4" y2="514" />
    <line x1="116.4" y1="514" x2="124.80000000000001" y2="514" />
    <line x1="124.80000000000001" y1="514" x2="133.20000000000002" y2="514" />
    <line x1="133.2" y1="514" x2="141.6" y2="514" />
    <line x1="141.60000000000002" y1="514" x2="150.00000000000003" y2="514" />
    <line x1="150" y1="514" x2="158.4" y2="514" />
    <line x1="158.4" y1="514" x2="166.8" y2="514" />
    <line x1="166.8" y1="514" x2="175.20000000000002" y2="514" />
    <line x1="175.20000000000002" y1="514" x2="183.60000000000002" y2="514" />
    <line x1="183.6" y1="514" x2="192" y2="514" />
    <line x1="192" y1="514" x2="200.4" y2="514" />
    <line x1="200.4" y1="514" x2="208.8" y2="514" />
    <line x1="208.8" y1="514" x2="217.20000000000002" y2="514" />
    <line x1="217.20000000000002" y1="514" x2="225.60000000000002" y2="514" />
    <line x1="225.60000000000002" y1="514" x2="234.00000000000003" y2="514" />
    <line x1="234" y1="514" x2="242.4" y2="514" />
    <line x1="242.4" y1="514" x2="250.8" y2="514" />
    <line x1="250.8" y1="514" x2="259.2" y2="514" />
    <line x1="259.20000000000005" y1="514" x2="267.6" y2="514" />
    <line x1="267.6" y1="514" x2="276" y2="514" />
    <line x1="276" y1="514" x2="284.4" y2="514" />
    <line x1="284.40000000000003" y1="514" x2="292.8" y2="514" />
    <line x1="292.8" y1="514" x2="301.2" y2="514" />
    <line x1="301.2" y1="514" x2="309.59999999999997" y2="514" />
    <line x1="309.6" y1="514" x2="318" y2="514" />
    <line x1="318" y1="514" x2="326.4" y2="514" />
    <line x1="326.40000000000003" y1="514" x2="334.8" y2="514" />
    <line x1="334.8" y1="514" x2="343.2" y2="514" />
    <line x1="343.2" y1="514" x2="351.59999999999997" y2="514" />
    <line x1="351.6" y1="514" x2="360" y2="514" />
    <line x1="360" y1="514" x2="368.4" y2="514" />
    <line x1="368.40000000000003" y1="514" x2="376.8" y2="514" />
    <line x1="376.8" y1="514" x2="385.2" y2="514" />
    <line x1="385.2" y1="514" x2="393.59999999999997" y2="514" />
    <line x1="393.6" y1="514" x2="402" y2="514" />
    <line x1="402" y1="514" x2="410.4" y2="514" />
    <line x1="410.40000000000003" y1="514" x2="418.8" y2="514" />
    <line x1="418.8" y1="514" x2="427.2" y2="514" />
    <line x1="427.20000000000005" y1="514" x2="435.6" y2="514" />
    <line x1="435.6" y1="514" x2="444" y2="514" />
    <line x1="444" y1="514" x2="452.4" y2="514" />
    <line x1="452.40000000000003" y1="514" x2="460.8" y2="514" />
    <line x1="460.8" y1="514" x2="469.2" y2="514" />
    <line x1="469.20000000000005" y1="514" x2="477.6" y2="514" />
    <line x1="477.6" y1="514" x2="486" y2="514" />
    <line x1="486" y1="514" x2="490.2" y2="504" />
  </g>
  <g>
    <text x="24" y="59" xml:space="preserve">   Client                                                 </text>
    <text x="24" y="79" xml:space="preserve">       upload                      download                </text>
    <text x="24" y="99" xml:space="preserve">     ▼                          ▼                         </text>
    <text x="24" y="139" xml:space="preserve">     API Svc                CDN        (cache + serve)   </text>
    <text x="24" y="159" xml:space="preserve">     (signed               CloudFront                     </text>
    <text x="24" y="179" xml:space="preserve">      URLs)                                              </text>
    <text x="24" y="199" xml:space="preserve">                                 origin                   </text>
    <text x="24" y="259" xml:space="preserve">      S3 Bucket                                           </text>
    <text x="24" y="279" xml:space="preserve">      /uploads/raw/    (original)                         </text>
    <text x="24" y="299" xml:space="preserve">      /uploads/thumb/  (200px)                            </text>
    <text x="24" y="319" xml:space="preserve">      /uploads/medium/ (800px)                            </text>
    <text x="24" y="339" xml:space="preserve">      /uploads/large/  (1920px)                           </text>
    <text x="24" y="399" xml:space="preserve">   Metadata DB (PostgreSQL):                             </text>
    <text x="24" y="419" xml:space="preserve">     files (id, user_id, s3_key, size, content_type,     </text>
    <text x="24" y="439" xml:space="preserve">            upload_status, created_at)                    </text>
    <text x="24" y="479" xml:space="preserve">   Processing: S3 Event → Lambda → resize + virus scan   </text>
    <text x="24" y="499" xml:space="preserve">   Lifecycle: Standard → IA (30d) → Glacier (90d)        </text>
  </g>
</svg>
