<?xml version="1.0" encoding="UTF-8"?>
<svg xmlns="http://www.w3.org/2000/svg" width="468" height="368" viewBox="0 0 468 368" role="img" aria-labelledby="title desc">
  <title id="title">Cost Curves diagram</title>
  <desc id="desc">Generated vector rendering of a documentation diagram.</desc>
  <defs>
    <style>
      .card { fill: #fbfcff; stroke: #cbd5e1; stroke-width: 1.2; }
      .segments { stroke: #0f172a; stroke-width: 1.8; stroke-linecap: round; }
      text {
        fill: #0f172a;
        font-family: "JetBrains Mono", "SFMono-Regular", Consolas, "Liberation Mono", monospace;
        font-size: 14px;
      }
    </style>
  </defs>
  <rect class="card" x="0.6" y="0.6" width="466.8" height="366.8" rx="16" />
  <g class="segments">
    <line x1="78.60000000000001" y1="44" x2="78.60000000000001" y2="64" />
    <line x1="78.60000000000001" y1="64" x2="78.60000000000001" y2="84" />
    <line x1="78.60000000000001" y1="84" x2="78.60000000000001" y2="104" />
    <line x1="78.60000000000001" y1="104" x2="78.60000000000001" y2="124" />
    <line x1="78.60000000000001" y1="124" x2="78.60000000000001" y2="144" />
    <line x1="78.60000000000001" y1="144" x2="78.60000000000001" y2="164" />
    <line x1="78.60000000000001" y1="164" x2="78.60000000000001" y2="184" />
    <line x1="78.60000000000001" y1="184" x2="78.60000000000001" y2="204" />
    <line x1="78.60000000000001" y1="204" x2="78.60000000000001" y2="224" />
    <line x1="78.60000000000001" y1="224" x2="78.60000000000001" y2="244" />
    <line x1="78.60000000000001" y1="244" x2="78.60000000000001" y2="264" />
    <line x1="78.60000000000001" y1="264" x2="82.80000000000001" y2="274" />
    <line x1="82.80000000000001" y1="274" x2="91.20000000000002" y2="274" />
    <line x1="91.2" y1="274" x2="99.60000000000001" y2="274" />
    <line x1="99.60000000000001" y1="274" x2="108.00000000000001" y2="274" />
    <line x1="108" y1="274" x2="116.4" y2="274" />
    <line x1="116.4" y1="274" x2="124.80000000000001" y2="274" />
    <line x1="124.80000000000001" y1="274" x2="133.20000000000002" y2="274" />
    <line x1="133.2" y1="274" x2="141.6" y2="274" />
    <line x1="141.60000000000002" y1="274" x2="150.00000000000003" y2="274" />
    <line x1="150" y1="274" x2="158.4" y2="274" />
    <line x1="158.4" y1="274" x2="166.8" y2="274" />
    <line x1="166.8" y1="274" x2="175.20000000000002" y2="274" />
    <line x1="175.20000000000002" y1="274" x2="183.60000000000002" y2="274" />
    <line x1="183.6" y1="274" x2="192" y2="274" />
    <line x1="192" y1="274" x2="200.4" y2="274" />
    <line x1="200.4" y1="274" x2="208.8" y2="274" />
    <line x1="208.8" y1="274" x2="217.20000000000002" y2="274" />
    <line x1="217.20000000000002" y1="274" x2="225.60000000000002" y2="274" />
    <line x1="225.60000000000002" y1="274" x2="234.00000000000003" y2="274" />
    <line x1="234" y1="274" x2="242.4" y2="274" />
    <line x1="242.4" y1="274" x2="250.8" y2="274" />
    <line x1="250.8" y1="274" x2="259.2" y2="274" />
    <line x1="259.20000000000005" y1="274" x2="267.6" y2="274" />
    <line x1="267.6" y1="274" x2="276" y2="274" />
    <line x1="276" y1="274" x2="284.4" y2="274" />
    <line x1="284.40000000000003" y1="274" x2="292.8" y2="274" />
    <line x1="292.8" y1="274" x2="301.2" y2="274" />
  </g>
  <g>
    <text x="24" y="39" xml:space="preserve">Cost  ▲</text>
    <text x="24" y="59" xml:space="preserve">                 Vertical</text>
    <text x="24" y="79" xml:space="preserve">                ╱ (exponential)</text>
    <text x="24" y="99" xml:space="preserve">               ╱</text>
    <text x="24" y="119" xml:space="preserve">              ╱</text>
    <text x="24" y="139" xml:space="preserve">             ╱        Horizontal</text>
    <text x="24" y="159" xml:space="preserve">            ╱        ╱ (linear)</text>
    <text x="24" y="179" xml:space="preserve">           ╱       ╱</text>
    <text x="24" y="199" xml:space="preserve">          ╱      ╱</text>
    <text x="24" y="219" xml:space="preserve">         ╱     ╱</text>
    <text x="24" y="239" xml:space="preserve">        ╱    ╱</text>
    <text x="24" y="259" xml:space="preserve">       ╱   ╱</text>
    <text x="24" y="279" xml:space="preserve">                                 ► Capacity</text>
    <text x="24" y="319" xml:space="preserve">Vertical: 2× capacity ≠ 2× cost (often 4–10× cost)</text>
    <text x="24" y="339" xml:space="preserve">Horizontal: 2× capacity ≈ 2× cost (ideally)</text>
  </g>
</svg>
