<?xml version="1.0" encoding="UTF-8"?>
<svg xmlns="http://www.w3.org/2000/svg" width="670" height="208" viewBox="0 0 670 208" role="img" aria-labelledby="title desc">
  <title id="title">Multi-Leader diagram</title>
  <desc id="desc">Generated vector rendering of a documentation diagram.</desc>
  <defs>
    <style>
      .card { fill: #fbfcff; stroke: #cbd5e1; stroke-width: 1.2; }
      .segments { stroke: #0f172a; stroke-width: 1.8; stroke-linecap: round; }
      text {
        fill: #0f172a;
        font-family: "JetBrains Mono", "SFMono-Regular", Consolas, "Liberation Mono", monospace;
        font-size: 14px;
      }
    </style>
  </defs>
  <rect class="card" x="0.6" y="0.6" width="668.8" height="206.8" rx="16" />
  <g class="segments">
    <line x1="45" y1="44" x2="49.199999999999996" y2="34" />
    <line x1="49.2" y1="34" x2="57.6" y2="34" />
    <line x1="57.6" y1="34" x2="66" y2="34" />
    <line x1="66" y1="34" x2="74.4" y2="34" />
    <line x1="74.4" y1="34" x2="82.80000000000001" y2="34" />
    <line x1="82.80000000000001" y1="34" x2="91.20000000000002" y2="34" />
    <line x1="91.2" y1="34" x2="99.60000000000001" y2="34" />
    <line x1="99.60000000000001" y1="34" x2="108.00000000000001" y2="34" />
    <line x1="108" y1="34" x2="116.4" y2="34" />
    <line x1="116.4" y1="34" x2="124.80000000000001" y2="34" />
    <line x1="124.80000000000001" y1="34" x2="133.20000000000002" y2="34" />
    <line x1="133.2" y1="34" x2="137.39999999999998" y2="44" />
    <line x1="187.79999999999998" y1="44" x2="192" y2="34" />
    <line x1="192" y1="34" x2="200.4" y2="34" />
    <line x1="200.4" y1="34" x2="208.8" y2="34" />
    <line x1="208.8" y1="34" x2="217.20000000000002" y2="34" />
    <line x1="217.20000000000002" y1="34" x2="225.60000000000002" y2="34" />
    <line x1="225.60000000000002" y1="34" x2="234.00000000000003" y2="34" />
    <line x1="234" y1="34" x2="242.4" y2="34" />
    <line x1="242.4" y1="34" x2="250.8" y2="34" />
    <line x1="250.8" y1="34" x2="259.2" y2="34" />
    <line x1="259.20000000000005" y1="34" x2="267.6" y2="34" />
    <line x1="267.6" y1="34" x2="276" y2="34" />
    <line x1="276" y1="34" x2="280.2" y2="44" />
    <line x1="45" y1="44" x2="45" y2="64" />
    <line x1="137.39999999999998" y1="44" x2="137.39999999999998" y2="64" />
    <line x1="150" y1="54" x2="158.4" y2="54" />
    <line x1="158.4" y1="54" x2="166.8" y2="54" />
    <line x1="166.8" y1="54" x2="175.20000000000002" y2="54" />
    <line x1="187.79999999999998" y1="44" x2="187.79999999999998" y2="64" />
    <line x1="280.2" y1="44" x2="280.2" y2="64" />
    <line x1="45" y1="64" x2="45" y2="84" />
    <line x1="137.39999999999998" y1="64" x2="137.39999999999998" y2="84" />
    <line x1="187.79999999999998" y1="64" x2="187.79999999999998" y2="84" />
    <line x1="280.2" y1="64" x2="280.2" y2="84" />
    <line x1="45" y1="84" x2="49.199999999999996" y2="94" />
    <line x1="49.2" y1="94" x2="57.6" y2="94" />
    <line x1="57.6" y1="94" x2="66" y2="94" />
    <line x1="66" y1="94" x2="74.4" y2="94" />
    <line x1="74.4" y1="94" x2="82.80000000000001" y2="94" />
    <line x1="82.80000000000001" y1="94" x2="91.20000000000002" y2="94" />
    <line x1="91.2" y1="94" x2="99.60000000000001" y2="94" />
    <line x1="99.60000000000001" y1="94" x2="108.00000000000001" y2="94" />
    <line x1="108" y1="94" x2="116.4" y2="94" />
    <line x1="116.4" y1="94" x2="124.80000000000001" y2="94" />
    <line x1="124.80000000000001" y1="94" x2="133.20000000000002" y2="94" />
    <line x1="133.2" y1="94" x2="137.39999999999998" y2="84" />
    <line x1="187.79999999999998" y1="84" x2="192" y2="94" />
    <line x1="192" y1="94" x2="200.4" y2="94" />
    <line x1="200.4" y1="94" x2="208.8" y2="94" />
    <line x1="208.8" y1="94" x2="217.20000000000002" y2="94" />
    <line x1="217.20000000000002" y1="94" x2="225.60000000000002" y2="94" />
    <line x1="225.60000000000002" y1="94" x2="234.00000000000003" y2="94" />
    <line x1="234" y1="94" x2="242.4" y2="94" />
    <line x1="242.4" y1="94" x2="250.8" y2="94" />
    <line x1="250.8" y1="94" x2="259.2" y2="94" />
    <line x1="259.20000000000005" y1="94" x2="267.6" y2="94" />
    <line x1="267.6" y1="94" x2="276" y2="94" />
    <line x1="276" y1="94" x2="280.2" y2="84" />
  </g>
  <g>
    <text x="24" y="59" xml:space="preserve">    Leader 1  ◄   ►  Leader 2    Both accept writes</text>
    <text x="24" y="79" xml:space="preserve">    (US)             (EU)        Replicate to each other</text>
    <text x="24" y="139" xml:space="preserve">Pros: Write availability in multiple regions, low latency for local writes</text>
    <text x="24" y="159" xml:space="preserve">Cons: Write conflicts! Must resolve (LWW, vector clocks, CRDTs)</text>
    <text x="24" y="179" xml:space="preserve">Used by: CouchDB, MySQL Group Replication, multi-DC setups</text>
  </g>
</svg>
