<?xml version="1.0" encoding="UTF-8"?>
<svg xmlns="http://www.w3.org/2000/svg" width="527" height="528" viewBox="0 0 527 528" role="img" aria-labelledby="title desc">
  <title id="title">Architecture diagram</title>
  <desc id="desc">Generated vector rendering of a documentation diagram.</desc>
  <defs>
    <style>
      .card { fill: #fbfcff; stroke: #cbd5e1; stroke-width: 1.2; }
      .segments { stroke: #0f172a; stroke-width: 1.8; stroke-linecap: round; }
      text {
        fill: #0f172a;
        font-family: "JetBrains Mono", "SFMono-Regular", Consolas, "Liberation Mono", monospace;
        font-size: 14px;
      }
    </style>
  </defs>
  <rect class="card" x="0.6" y="0.6" width="525.8" height="526.8" rx="16" />
  <g class="segments">
    <line x1="28.2" y1="44" x2="32.4" y2="34" />
    <line x1="32.4" y1="34" x2="40.8" y2="34" />
    <line x1="40.8" y1="34" x2="49.199999999999996" y2="34" />
    <line x1="49.2" y1="34" x2="57.6" y2="34" />
    <line x1="57.6" y1="34" x2="66" y2="34" />
    <line x1="66" y1="34" x2="74.4" y2="34" />
    <line x1="74.4" y1="34" x2="82.80000000000001" y2="34" />
    <line x1="82.80000000000001" y1="34" x2="91.20000000000002" y2="34" />
    <line x1="91.2" y1="34" x2="99.60000000000001" y2="34" />
    <line x1="99.60000000000001" y1="34" x2="108.00000000000001" y2="34" />
    <line x1="108" y1="34" x2="116.4" y2="34" />
    <line x1="116.4" y1="34" x2="124.80000000000001" y2="34" />
    <line x1="124.80000000000001" y1="34" x2="133.20000000000002" y2="34" />
    <line x1="133.2" y1="34" x2="141.6" y2="34" />
    <line x1="141.60000000000002" y1="34" x2="150.00000000000003" y2="34" />
    <line x1="150" y1="34" x2="158.4" y2="34" />
    <line x1="158.4" y1="34" x2="166.8" y2="34" />
    <line x1="166.8" y1="34" x2="175.20000000000002" y2="34" />
    <line x1="175.20000000000002" y1="34" x2="183.60000000000002" y2="34" />
    <line x1="183.6" y1="34" x2="192" y2="34" />
    <line x1="192" y1="34" x2="200.4" y2="34" />
    <line x1="200.4" y1="34" x2="208.8" y2="34" />
    <line x1="208.8" y1="34" x2="217.20000000000002" y2="34" />
    <line x1="217.20000000000002" y1="34" x2="225.60000000000002" y2="34" />
    <line x1="225.60000000000002" y1="34" x2="234.00000000000003" y2="34" />
    <line x1="234" y1="34" x2="242.4" y2="34" />
    <line x1="242.4" y1="34" x2="250.8" y2="34" />
    <line x1="250.8" y1="34" x2="259.2" y2="34" />
    <line x1="259.20000000000005" y1="34" x2="267.6" y2="34" />
    <line x1="267.6" y1="34" x2="276" y2="34" />
    <line x1="276" y1="34" x2="284.4" y2="34" />
    <line x1="284.40000000000003" y1="34" x2="292.8" y2="34" />
    <line x1="292.8" y1="34" x2="301.2" y2="34" />
    <line x1="301.2" y1="34" x2="309.59999999999997" y2="34" />
    <line x1="309.6" y1="34" x2="318" y2="34" />
    <line x1="318" y1="34" x2="326.4" y2="34" />
    <line x1="326.40000000000003" y1="34" x2="334.8" y2="34" />
    <line x1="334.8" y1="34" x2="343.2" y2="34" />
    <line x1="343.2" y1="34" x2="351.59999999999997" y2="34" />
    <line x1="351.6" y1="34" x2="360" y2="34" />
    <line x1="360" y1="34" x2="368.4" y2="34" />
    <line x1="368.40000000000003" y1="34" x2="376.8" y2="34" />
    <line x1="376.8" y1="34" x2="385.2" y2="34" />
    <line x1="385.2" y1="34" x2="393.59999999999997" y2="34" />
    <line x1="393.6" y1="34" x2="402" y2="34" />
    <line x1="402" y1="34" x2="410.4" y2="34" />
    <line x1="410.40000000000003" y1="34" x2="418.8" y2="34" />
    <line x1="418.8" y1="34" x2="427.2" y2="34" />
    <line x1="427.20000000000005" y1="34" x2="435.6" y2="34" />
    <line x1="435.6" y1="34" x2="444" y2="34" />
    <line x1="444" y1="34" x2="452.4" y2="34" />
    <line x1="452.40000000000003" y1="34" x2="460.8" y2="34" />
    <line x1="460.8" y1="34" x2="469.2" y2="34" />
    <line x1="469.20000000000005" y1="34" x2="477.6" y2="34" />
    <line x1="477.6" y1="34" x2="481.8" y2="44" />
    <line x1="28.2" y1="44" x2="28.2" y2="64" />
    <line x1="498.6" y1="44" x2="498.6" y2="64" />
    <line x1="28.2" y1="64" x2="28.2" y2="84" />
    <line x1="490.2" y1="64" x2="490.2" y2="84" />
    <line x1="28.2" y1="84" x2="32.4" y2="94" />
    <line x1="32.4" y1="94" x2="40.8" y2="94" />
    <line x1="40.8" y1="94" x2="49.199999999999996" y2="94" />
    <line x1="49.2" y1="94" x2="57.6" y2="94" />
    <line x1="57.6" y1="94" x2="66" y2="94" />
    <line x1="66" y1="94" x2="74.4" y2="94" />
    <line x1="74.4" y1="94" x2="82.80000000000001" y2="94" />
    <line x1="82.80000000000001" y1="94" x2="91.20000000000002" y2="94" />
    <line x1="91.2" y1="94" x2="99.60000000000001" y2="94" />
    <line x1="99.60000000000001" y1="94" x2="108.00000000000001" y2="94" />
    <line x1="108" y1="94" x2="116.4" y2="94" />
    <line x1="116.4" y1="94" x2="124.80000000000001" y2="94" />
    <line x1="120.60000000000001" y1="94" x2="120.60000000000001" y2="104" />
    <line x1="124.80000000000001" y1="94" x2="133.20000000000002" y2="94" />
    <line x1="133.2" y1="94" x2="141.6" y2="94" />
    <line x1="141.60000000000002" y1="94" x2="150.00000000000003" y2="94" />
    <line x1="150" y1="94" x2="158.4" y2="94" />
    <line x1="158.4" y1="94" x2="166.8" y2="94" />
    <line x1="166.8" y1="94" x2="175.20000000000002" y2="94" />
    <line x1="175.20000000000002" y1="94" x2="183.60000000000002" y2="94" />
    <line x1="183.6" y1="94" x2="192" y2="94" />
    <line x1="192" y1="94" x2="200.4" y2="94" />
    <line x1="200.4" y1="94" x2="208.8" y2="94" />
    <line x1="208.8" y1="94" x2="217.20000000000002" y2="94" />
    <line x1="217.20000000000002" y1="94" x2="225.60000000000002" y2="94" />
    <line x1="225.60000000000002" y1="94" x2="234.00000000000003" y2="94" />
    <line x1="234" y1="94" x2="242.4" y2="94" />
    <line x1="242.4" y1="94" x2="250.8" y2="94" />
    <line x1="250.8" y1="94" x2="259.2" y2="94" />
    <line x1="259.20000000000005" y1="94" x2="267.6" y2="94" />
    <line x1="267.6" y1="94" x2="276" y2="94" />
    <line x1="276" y1="94" x2="284.4" y2="94" />
    <line x1="284.40000000000003" y1="94" x2="292.8" y2="94" />
    <line x1="292.8" y1="94" x2="301.2" y2="94" />
    <line x1="301.2" y1="94" x2="309.59999999999997" y2="94" />
    <line x1="309.6" y1="94" x2="318" y2="94" />
    <line x1="318" y1="94" x2="326.4" y2="94" />
    <line x1="326.40000000000003" y1="94" x2="334.8" y2="94" />
    <line x1="330.6" y1="94" x2="330.6" y2="104" />
    <line x1="334.8" y1="94" x2="343.2" y2="94" />
    <line x1="343.2" y1="94" x2="351.59999999999997" y2="94" />
    <line x1="351.6" y1="94" x2="360" y2="94" />
    <line x1="360" y1="94" x2="368.4" y2="94" />
    <line x1="368.40000000000003" y1="94" x2="376.8" y2="94" />
    <line x1="376.8" y1="94" x2="385.2" y2="94" />
    <line x1="385.2" y1="94" x2="393.59999999999997" y2="94" />
    <line x1="393.6" y1="94" x2="402" y2="94" />
    <line x1="402" y1="94" x2="410.4" y2="94" />
    <line x1="410.40000000000003" y1="94" x2="418.8" y2="94" />
    <line x1="418.8" y1="94" x2="427.2" y2="94" />
    <line x1="427.20000000000005" y1="94" x2="435.6" y2="94" />
    <line x1="435.6" y1="94" x2="444" y2="94" />
    <line x1="444" y1="94" x2="452.4" y2="94" />
    <line x1="452.40000000000003" y1="94" x2="460.8" y2="94" />
    <line x1="460.8" y1="94" x2="469.2" y2="94" />
    <line x1="469.20000000000005" y1="94" x2="477.6" y2="94" />
    <line x1="477.6" y1="94" x2="481.8" y2="84" />
    <line x1="120.60000000000001" y1="104" x2="120.60000000000001" y2="124" />
    <line x1="330.6" y1="104" x2="330.6" y2="124" />
    <line x1="61.800000000000004" y1="144" x2="66" y2="134" />
    <line x1="66" y1="134" x2="74.4" y2="134" />
    <line x1="74.4" y1="134" x2="82.80000000000001" y2="134" />
    <line x1="82.80000000000001" y1="134" x2="91.20000000000002" y2="134" />
    <line x1="91.2" y1="134" x2="99.60000000000001" y2="134" />
    <line x1="99.60000000000001" y1="134" x2="108.00000000000001" y2="134" />
    <line x1="108" y1="134" x2="116.4" y2="134" />
    <line x1="116.4" y1="134" x2="124.80000000000001" y2="134" />
    <line x1="120.60000000000001" y1="124" x2="120.60000000000001" y2="134" />
    <line x1="124.80000000000001" y1="134" x2="133.20000000000002" y2="134" />
    <line x1="133.2" y1="134" x2="141.6" y2="134" />
    <line x1="141.60000000000002" y1="134" x2="150.00000000000003" y2="134" />
    <line x1="150" y1="134" x2="158.4" y2="134" />
    <line x1="158.4" y1="134" x2="166.8" y2="134" />
    <line x1="166.8" y1="134" x2="175.20000000000002" y2="134" />
    <line x1="175.20000000000002" y1="134" x2="179.4" y2="144" />
    <line x1="271.8" y1="144" x2="276" y2="134" />
    <line x1="276" y1="134" x2="284.4" y2="134" />
    <line x1="284.40000000000003" y1="134" x2="292.8" y2="134" />
    <line x1="292.8" y1="134" x2="301.2" y2="134" />
    <line x1="301.2" y1="134" x2="309.59999999999997" y2="134" />
    <line x1="309.6" y1="134" x2="318" y2="134" />
    <line x1="318" y1="134" x2="326.4" y2="134" />
    <line x1="326.40000000000003" y1="134" x2="334.8" y2="134" />
    <line x1="330.6" y1="124" x2="330.6" y2="134" />
    <line x1="334.8" y1="134" x2="343.2" y2="134" />
    <line x1="343.2" y1="134" x2="351.59999999999997" y2="134" />
    <line x1="351.6" y1="134" x2="360" y2="134" />
    <line x1="360" y1="134" x2="368.4" y2="134" />
    <line x1="368.40000000000003" y1="134" x2="376.8" y2="134" />
    <line x1="376.8" y1="134" x2="385.2" y2="134" />
    <line x1="385.2" y1="134" x2="389.4" y2="144" />
    <line x1="61.800000000000004" y1="144" x2="61.800000000000004" y2="164" />
    <line x1="179.4" y1="144" x2="179.4" y2="164" />
    <line x1="271.8" y1="144" x2="271.8" y2="164" />
    <line x1="389.4" y1="144" x2="389.4" y2="164" />
    <line x1="61.800000000000004" y1="164" x2="61.800000000000004" y2="184" />
    <line x1="179.4" y1="164" x2="179.4" y2="184" />
    <line x1="271.8" y1="164" x2="271.8" y2="184" />
    <line x1="389.4" y1="164" x2="389.4" y2="184" />
    <line x1="61.800000000000004" y1="184" x2="66" y2="194" />
    <line x1="66" y1="194" x2="74.4" y2="194" />
    <line x1="74.4" y1="194" x2="82.80000000000001" y2="194" />
    <line x1="82.80000000000001" y1="194" x2="91.20000000000002" y2="194" />
    <line x1="91.2" y1="194" x2="99.60000000000001" y2="194" />
    <line x1="99.60000000000001" y1="194" x2="108.00000000000001" y2="194" />
    <line x1="108" y1="194" x2="116.4" y2="194" />
    <line x1="116.4" y1="194" x2="124.80000000000001" y2="194" />
    <line x1="120.60000000000001" y1="194" x2="120.60000000000001" y2="204" />
    <line x1="124.80000000000001" y1="194" x2="133.20000000000002" y2="194" />
    <line x1="133.2" y1="194" x2="141.6" y2="194" />
    <line x1="141.60000000000002" y1="194" x2="150.00000000000003" y2="194" />
    <line x1="150" y1="194" x2="158.4" y2="194" />
    <line x1="158.4" y1="194" x2="166.8" y2="194" />
    <line x1="166.8" y1="194" x2="175.20000000000002" y2="194" />
    <line x1="175.20000000000002" y1="194" x2="179.4" y2="184" />
    <line x1="271.8" y1="184" x2="276" y2="194" />
    <line x1="276" y1="194" x2="284.4" y2="194" />
    <line x1="284.40000000000003" y1="194" x2="292.8" y2="194" />
    <line x1="292.8" y1="194" x2="301.2" y2="194" />
    <line x1="301.2" y1="194" x2="309.59999999999997" y2="194" />
    <line x1="309.6" y1="194" x2="318" y2="194" />
    <line x1="318" y1="194" x2="326.4" y2="194" />
    <line x1="326.40000000000003" y1="194" x2="334.8" y2="194" />
    <line x1="330.6" y1="194" x2="330.6" y2="204" />
    <line x1="334.8" y1="194" x2="343.2" y2="194" />
    <line x1="343.2" y1="194" x2="351.59999999999997" y2="194" />
    <line x1="351.6" y1="194" x2="360" y2="194" />
    <line x1="360" y1="194" x2="368.4" y2="194" />
    <line x1="368.40000000000003" y1="194" x2="376.8" y2="194" />
    <line x1="376.8" y1="194" x2="385.2" y2="194" />
    <line x1="385.2" y1="194" x2="389.4" y2="184" />
    <line x1="120.60000000000001" y1="204" x2="120.60000000000001" y2="224" />
    <line x1="330.6" y1="204" x2="330.6" y2="224" />
    <line x1="61.800000000000004" y1="244" x2="66" y2="234" />
    <line x1="66" y1="234" x2="74.4" y2="234" />
    <line x1="74.4" y1="234" x2="82.80000000000001" y2="234" />
    <line x1="82.80000000000001" y1="234" x2="91.20000000000002" y2="234" />
    <line x1="91.2" y1="234" x2="99.60000000000001" y2="234" />
    <line x1="99.60000000000001" y1="234" x2="108.00000000000001" y2="234" />
    <line x1="108" y1="234" x2="116.4" y2="234" />
    <line x1="116.4" y1="234" x2="124.80000000000001" y2="234" />
    <line x1="120.60000000000001" y1="224" x2="120.60000000000001" y2="234" />
    <line x1="124.80000000000001" y1="234" x2="133.20000000000002" y2="234" />
    <line x1="133.2" y1="234" x2="141.6" y2="234" />
    <line x1="141.60000000000002" y1="234" x2="150.00000000000003" y2="234" />
    <line x1="150" y1="234" x2="158.4" y2="234" />
    <line x1="158.4" y1="234" x2="166.8" y2="234" />
    <line x1="166.8" y1="234" x2="175.20000000000002" y2="234" />
    <line x1="175.20000000000002" y1="234" x2="179.4" y2="244" />
    <line x1="271.8" y1="244" x2="276" y2="234" />
    <line x1="276" y1="234" x2="284.4" y2="234" />
    <line x1="284.40000000000003" y1="234" x2="292.8" y2="234" />
    <line x1="292.8" y1="234" x2="301.2" y2="234" />
    <line x1="301.2" y1="234" x2="309.59999999999997" y2="234" />
    <line x1="309.6" y1="234" x2="318" y2="234" />
    <line x1="318" y1="234" x2="326.4" y2="234" />
    <line x1="326.40000000000003" y1="234" x2="334.8" y2="234" />
    <line x1="330.6" y1="224" x2="330.6" y2="234" />
    <line x1="334.8" y1="234" x2="343.2" y2="234" />
    <line x1="343.2" y1="234" x2="351.59999999999997" y2="234" />
    <line x1="351.6" y1="234" x2="360" y2="234" />
    <line x1="360" y1="234" x2="368.4" y2="234" />
    <line x1="368.40000000000003" y1="234" x2="376.8" y2="234" />
    <line x1="376.8" y1="234" x2="385.2" y2="234" />
    <line x1="385.2" y1="234" x2="389.4" y2="244" />
    <line x1="61.800000000000004" y1="244" x2="61.800000000000004" y2="264" />
    <line x1="179.4" y1="244" x2="179.4" y2="264" />
    <line x1="271.8" y1="244" x2="271.8" y2="264" />
    <line x1="389.4" y1="244" x2="389.4" y2="264" />
    <line x1="61.800000000000004" y1="264" x2="61.800000000000004" y2="284" />
    <line x1="179.4" y1="264" x2="179.4" y2="284" />
    <line x1="271.8" y1="264" x2="271.8" y2="284" />
    <line x1="389.4" y1="264" x2="389.4" y2="284" />
    <line x1="61.800000000000004" y1="284" x2="61.800000000000004" y2="304" />
    <line x1="179.4" y1="284" x2="179.4" y2="304" />
    <line x1="271.8" y1="284" x2="271.8" y2="304" />
    <line x1="389.4" y1="284" x2="389.4" y2="304" />
    <line x1="61.800000000000004" y1="304" x2="61.800000000000004" y2="324" />
    <line x1="78.60000000000001" y1="324" x2="82.80000000000001" y2="314" />
    <line x1="82.80000000000001" y1="314" x2="91.20000000000002" y2="314" />
    <line x1="91.2" y1="314" x2="99.60000000000001" y2="314" />
    <line x1="99.60000000000001" y1="314" x2="108.00000000000001" y2="314" />
    <line x1="108" y1="314" x2="112.2" y2="324" />
    <line x1="120.60000000000001" y1="324" x2="124.80000000000001" y2="314" />
    <line x1="124.80000000000001" y1="314" x2="133.20000000000002" y2="314" />
    <line x1="133.2" y1="314" x2="141.6" y2="314" />
    <line x1="141.60000000000002" y1="314" x2="150.00000000000003" y2="314" />
    <line x1="150" y1="314" x2="154.2" y2="324" />
    <line x1="171" y1="304" x2="171" y2="324" />
    <line x1="263.40000000000003" y1="304" x2="263.40000000000003" y2="324" />
    <line x1="280.2" y1="324" x2="284.4" y2="314" />
    <line x1="284.40000000000003" y1="314" x2="292.8" y2="314" />
    <line x1="292.8" y1="314" x2="301.2" y2="314" />
    <line x1="301.2" y1="314" x2="309.59999999999997" y2="314" />
    <line x1="309.6" y1="314" x2="313.8" y2="324" />
    <line x1="322.2" y1="324" x2="326.4" y2="314" />
    <line x1="326.40000000000003" y1="314" x2="334.8" y2="314" />
    <line x1="334.8" y1="314" x2="343.2" y2="314" />
    <line x1="343.2" y1="314" x2="351.59999999999997" y2="314" />
    <line x1="351.6" y1="314" x2="355.8" y2="324" />
    <line x1="381" y1="304" x2="381" y2="324" />
    <line x1="61.800000000000004" y1="324" x2="61.800000000000004" y2="344" />
    <line x1="78.60000000000001" y1="324" x2="78.60000000000001" y2="344" />
    <line x1="112.2" y1="324" x2="112.2" y2="344" />
    <line x1="120.60000000000001" y1="324" x2="120.60000000000001" y2="344" />
    <line x1="154.2" y1="324" x2="154.2" y2="344" />
    <line x1="171" y1="324" x2="171" y2="344" />
    <line x1="263.40000000000003" y1="324" x2="263.40000000000003" y2="344" />
    <line x1="280.2" y1="324" x2="280.2" y2="344" />
    <line x1="313.8" y1="324" x2="313.8" y2="344" />
    <line x1="322.2" y1="324" x2="322.2" y2="344" />
    <line x1="355.8" y1="324" x2="355.8" y2="344" />
    <line x1="381" y1="324" x2="381" y2="344" />
    <line x1="61.800000000000004" y1="344" x2="61.800000000000004" y2="364" />
    <line x1="78.60000000000001" y1="344" x2="82.80000000000001" y2="354" />
    <line x1="82.80000000000001" y1="354" x2="91.20000000000002" y2="354" />
    <line x1="91.2" y1="354" x2="99.60000000000001" y2="354" />
    <line x1="99.60000000000001" y1="354" x2="108.00000000000001" y2="354" />
    <line x1="108" y1="354" x2="112.2" y2="344" />
    <line x1="120.60000000000001" y1="344" x2="124.80000000000001" y2="354" />
    <line x1="124.80000000000001" y1="354" x2="133.20000000000002" y2="354" />
    <line x1="133.2" y1="354" x2="141.6" y2="354" />
    <line x1="141.60000000000002" y1="354" x2="150.00000000000003" y2="354" />
    <line x1="150" y1="354" x2="154.2" y2="344" />
    <line x1="171" y1="344" x2="171" y2="364" />
    <line x1="263.40000000000003" y1="344" x2="263.40000000000003" y2="364" />
    <line x1="280.2" y1="344" x2="284.4" y2="354" />
    <line x1="284.40000000000003" y1="354" x2="292.8" y2="354" />
    <line x1="292.8" y1="354" x2="301.2" y2="354" />
    <line x1="301.2" y1="354" x2="309.59999999999997" y2="354" />
    <line x1="309.6" y1="354" x2="313.8" y2="344" />
    <line x1="322.2" y1="344" x2="326.4" y2="354" />
    <line x1="326.40000000000003" y1="354" x2="334.8" y2="354" />
    <line x1="334.8" y1="354" x2="343.2" y2="354" />
    <line x1="343.2" y1="354" x2="351.59999999999997" y2="354" />
    <line x1="351.6" y1="354" x2="355.8" y2="344" />
    <line x1="381" y1="344" x2="381" y2="364" />
    <line x1="61.800000000000004" y1="364" x2="61.800000000000004" y2="384" />
    <line x1="78.60000000000001" y1="384" x2="82.80000000000001" y2="374" />
    <line x1="82.80000000000001" y1="374" x2="91.20000000000002" y2="374" />
    <line x1="91.2" y1="374" x2="99.60000000000001" y2="374" />
    <line x1="99.60000000000001" y1="374" x2="108.00000000000001" y2="374" />
    <line x1="108" y1="374" x2="112.2" y2="384" />
    <line x1="171" y1="364" x2="171" y2="384" />
    <line x1="263.40000000000003" y1="364" x2="263.40000000000003" y2="384" />
    <line x1="280.2" y1="384" x2="284.4" y2="374" />
    <line x1="284.40000000000003" y1="374" x2="292.8" y2="374" />
    <line x1="292.8" y1="374" x2="301.2" y2="374" />
    <line x1="301.2" y1="374" x2="309.59999999999997" y2="374" />
    <line x1="309.6" y1="374" x2="313.8" y2="384" />
    <line x1="381" y1="364" x2="381" y2="384" />
    <line x1="61.800000000000004" y1="384" x2="61.800000000000004" y2="404" />
    <line x1="78.60000000000001" y1="384" x2="78.60000000000001" y2="404" />
    <line x1="112.2" y1="384" x2="112.2" y2="404" />
    <line x1="171" y1="384" x2="171" y2="404" />
    <line x1="263.40000000000003" y1="384" x2="263.40000000000003" y2="404" />
    <line x1="280.2" y1="384" x2="280.2" y2="404" />
    <line x1="313.8" y1="384" x2="313.8" y2="404" />
    <line x1="381" y1="384" x2="381" y2="404" />
    <line x1="61.800000000000004" y1="404" x2="61.800000000000004" y2="424" />
    <line x1="78.60000000000001" y1="404" x2="82.80000000000001" y2="414" />
    <line x1="82.80000000000001" y1="414" x2="91.20000000000002" y2="414" />
    <line x1="91.2" y1="414" x2="99.60000000000001" y2="414" />
    <line x1="99.60000000000001" y1="414" x2="108.00000000000001" y2="414" />
    <line x1="108" y1="414" x2="112.2" y2="404" />
    <line x1="171" y1="404" x2="171" y2="424" />
    <line x1="263.40000000000003" y1="404" x2="263.40000000000003" y2="424" />
    <line x1="280.2" y1="404" x2="284.4" y2="414" />
    <line x1="284.40000000000003" y1="414" x2="292.8" y2="414" />
    <line x1="292.8" y1="414" x2="301.2" y2="414" />
    <line x1="301.2" y1="414" x2="309.59999999999997" y2="414" />
    <line x1="309.6" y1="414" x2="313.8" y2="404" />
    <line x1="381" y1="404" x2="381" y2="424" />
    <line x1="61.800000000000004" y1="424" x2="66" y2="434" />
    <line x1="66" y1="434" x2="74.4" y2="434" />
    <line x1="74.4" y1="434" x2="82.80000000000001" y2="434" />
    <line x1="82.80000000000001" y1="434" x2="91.20000000000002" y2="434" />
    <line x1="91.2" y1="434" x2="99.60000000000001" y2="434" />
    <line x1="99.60000000000001" y1="434" x2="108.00000000000001" y2="434" />
    <line x1="108" y1="434" x2="116.4" y2="434" />
    <line x1="116.4" y1="434" x2="124.80000000000001" y2="434" />
    <line x1="124.80000000000001" y1="434" x2="133.20000000000002" y2="434" />
    <line x1="133.2" y1="434" x2="141.6" y2="434" />
    <line x1="141.60000000000002" y1="434" x2="150.00000000000003" y2="434" />
    <line x1="150" y1="434" x2="158.4" y2="434" />
    <line x1="158.4" y1="434" x2="166.8" y2="434" />
    <line x1="166.8" y1="434" x2="175.20000000000002" y2="434" />
    <line x1="175.20000000000002" y1="434" x2="179.4" y2="424" />
    <line x1="271.8" y1="424" x2="276" y2="434" />
    <line x1="276" y1="434" x2="284.4" y2="434" />
    <line x1="284.40000000000003" y1="434" x2="292.8" y2="434" />
    <line x1="292.8" y1="434" x2="301.2" y2="434" />
    <line x1="301.2" y1="434" x2="309.59999999999997" y2="434" />
    <line x1="309.6" y1="434" x2="318" y2="434" />
    <line x1="318" y1="434" x2="326.4" y2="434" />
    <line x1="326.40000000000003" y1="434" x2="334.8" y2="434" />
    <line x1="334.8" y1="434" x2="343.2" y2="434" />
    <line x1="343.2" y1="434" x2="351.59999999999997" y2="434" />
    <line x1="351.6" y1="434" x2="360" y2="434" />
    <line x1="360" y1="434" x2="368.4" y2="434" />
    <line x1="368.40000000000003" y1="434" x2="376.8" y2="434" />
    <line x1="376.8" y1="434" x2="385.2" y2="434" />
    <line x1="385.2" y1="434" x2="389.4" y2="424" />
  </g>
  <g>
    <text x="24" y="59" xml:space="preserve">                   Global Router                         </text>
    <text x="24" y="79" xml:space="preserve">    Routes by: data type → CP or AP path                </text>
    <text x="24" y="159" xml:space="preserve">       CP Path                  AP Path     </text>
    <text x="24" y="179" xml:space="preserve">       (Strong)                 (Eventual)  </text>
    <text x="24" y="259" xml:space="preserve">      Raft/Paxos                Ring-based  </text>
    <text x="24" y="279" xml:space="preserve">      Consensus                 Replication </text>
    <text x="24" y="339" xml:space="preserve">        L    F                  R1   R2    </text>
    <text x="24" y="399" xml:space="preserve">        F                       R3         </text>
    <text x="24" y="459" xml:space="preserve">    Leader + Followers        All peers equal</text>
    <text x="24" y="479" xml:space="preserve">    Writes go to leader       Write to any node</text>
    <text x="24" y="499" xml:space="preserve">    Blocks if no quorum       Always writable</text>
  </g>
</svg>
