<?xml version="1.0" encoding="UTF-8"?>
<svg xmlns="http://www.w3.org/2000/svg" width="477" height="548" viewBox="0 0 477 548" role="img" aria-labelledby="title desc">
  <title id="title">Multi-AZ and Multi-Region diagram</title>
  <desc id="desc">Generated vector rendering of a documentation diagram.</desc>
  <defs>
    <style>
      .card { fill: #fbfcff; stroke: #cbd5e1; stroke-width: 1.2; }
      .segments { stroke: #0f172a; stroke-width: 1.8; stroke-linecap: round; }
      text {
        fill: #0f172a;
        font-family: "JetBrains Mono", "SFMono-Regular", Consolas, "Liberation Mono", monospace;
        font-size: 14px;
      }
    </style>
  </defs>
  <rect class="card" x="0.6" y="0.6" width="475.8" height="546.8" rx="16" />
  <g class="segments">
    <line x1="45" y1="144" x2="49.199999999999996" y2="134" />
    <line x1="49.2" y1="134" x2="57.6" y2="134" />
    <line x1="57.6" y1="134" x2="66" y2="134" />
    <line x1="66" y1="134" x2="74.4" y2="134" />
    <line x1="74.4" y1="134" x2="82.80000000000001" y2="134" />
    <line x1="82.80000000000001" y1="134" x2="91.20000000000002" y2="134" />
    <line x1="91.2" y1="134" x2="99.60000000000001" y2="134" />
    <line x1="99.60000000000001" y1="134" x2="108.00000000000001" y2="134" />
    <line x1="108" y1="134" x2="116.4" y2="134" />
    <line x1="116.4" y1="134" x2="124.80000000000001" y2="134" />
    <line x1="124.80000000000001" y1="134" x2="133.20000000000002" y2="134" />
    <line x1="133.2" y1="134" x2="141.6" y2="134" />
    <line x1="141.60000000000002" y1="134" x2="150.00000000000003" y2="134" />
    <line x1="150" y1="134" x2="158.4" y2="134" />
    <line x1="158.4" y1="134" x2="162.6" y2="144" />
    <line x1="187.79999999999998" y1="144" x2="192" y2="134" />
    <line x1="192" y1="134" x2="200.4" y2="134" />
    <line x1="200.4" y1="134" x2="208.8" y2="134" />
    <line x1="208.8" y1="134" x2="217.20000000000002" y2="134" />
    <line x1="217.20000000000002" y1="134" x2="225.60000000000002" y2="134" />
    <line x1="225.60000000000002" y1="134" x2="234.00000000000003" y2="134" />
    <line x1="234" y1="134" x2="242.4" y2="134" />
    <line x1="242.4" y1="134" x2="250.8" y2="134" />
    <line x1="250.8" y1="134" x2="259.2" y2="134" />
    <line x1="259.20000000000005" y1="134" x2="267.6" y2="134" />
    <line x1="267.6" y1="134" x2="276" y2="134" />
    <line x1="276" y1="134" x2="284.4" y2="134" />
    <line x1="284.40000000000003" y1="134" x2="292.8" y2="134" />
    <line x1="292.8" y1="134" x2="301.2" y2="134" />
    <line x1="301.2" y1="134" x2="305.4" y2="144" />
    <line x1="45" y1="144" x2="45" y2="164" />
    <line x1="162.6" y1="144" x2="162.6" y2="164" />
    <line x1="187.79999999999998" y1="144" x2="187.79999999999998" y2="164" />
    <line x1="305.4" y1="144" x2="305.4" y2="164" />
    <line x1="45" y1="164" x2="45" y2="184" />
    <line x1="61.800000000000004" y1="184" x2="66" y2="174" />
    <line x1="66" y1="174" x2="74.4" y2="174" />
    <line x1="74.4" y1="174" x2="82.80000000000001" y2="174" />
    <line x1="82.80000000000001" y1="174" x2="91.20000000000002" y2="174" />
    <line x1="91.2" y1="174" x2="95.4" y2="184" />
    <line x1="112.2" y1="184" x2="116.4" y2="174" />
    <line x1="116.4" y1="174" x2="124.80000000000001" y2="174" />
    <line x1="124.80000000000001" y1="174" x2="133.20000000000002" y2="174" />
    <line x1="133.2" y1="174" x2="141.6" y2="174" />
    <line x1="141.60000000000002" y1="174" x2="145.8" y2="184" />
    <line x1="162.6" y1="164" x2="162.6" y2="184" />
    <line x1="187.79999999999998" y1="164" x2="187.79999999999998" y2="184" />
    <line x1="204.6" y1="184" x2="208.8" y2="174" />
    <line x1="208.8" y1="174" x2="217.20000000000002" y2="174" />
    <line x1="217.20000000000002" y1="174" x2="225.60000000000002" y2="174" />
    <line x1="225.60000000000002" y1="174" x2="234.00000000000003" y2="174" />
    <line x1="234" y1="174" x2="238.2" y2="184" />
    <line x1="255" y1="184" x2="259.2" y2="174" />
    <line x1="259.20000000000005" y1="174" x2="267.6" y2="174" />
    <line x1="267.6" y1="174" x2="276" y2="174" />
    <line x1="276" y1="174" x2="284.4" y2="174" />
    <line x1="284.40000000000003" y1="174" x2="288.6" y2="184" />
    <line x1="305.4" y1="164" x2="305.4" y2="184" />
    <line x1="45" y1="184" x2="45" y2="204" />
    <line x1="61.800000000000004" y1="184" x2="61.800000000000004" y2="204" />
    <line x1="95.4" y1="184" x2="95.4" y2="204" />
    <line x1="112.2" y1="184" x2="112.2" y2="204" />
    <line x1="145.8" y1="184" x2="145.8" y2="204" />
    <line x1="162.6" y1="184" x2="162.6" y2="204" />
    <line x1="187.79999999999998" y1="184" x2="187.79999999999998" y2="204" />
    <line x1="204.6" y1="184" x2="204.6" y2="204" />
    <line x1="238.2" y1="184" x2="238.2" y2="204" />
    <line x1="255" y1="184" x2="255" y2="204" />
    <line x1="288.6" y1="184" x2="288.6" y2="204" />
    <line x1="305.4" y1="184" x2="305.4" y2="204" />
    <line x1="45" y1="204" x2="45" y2="224" />
    <line x1="61.800000000000004" y1="204" x2="66" y2="214" />
    <line x1="66" y1="214" x2="74.4" y2="214" />
    <line x1="74.4" y1="214" x2="82.80000000000001" y2="214" />
    <line x1="82.80000000000001" y1="214" x2="91.20000000000002" y2="214" />
    <line x1="91.2" y1="214" x2="95.4" y2="204" />
    <line x1="112.2" y1="204" x2="116.4" y2="214" />
    <line x1="116.4" y1="214" x2="124.80000000000001" y2="214" />
    <line x1="124.80000000000001" y1="214" x2="133.20000000000002" y2="214" />
    <line x1="133.2" y1="214" x2="141.6" y2="214" />
    <line x1="141.60000000000002" y1="214" x2="145.8" y2="204" />
    <line x1="162.6" y1="204" x2="162.6" y2="224" />
    <line x1="187.79999999999998" y1="204" x2="187.79999999999998" y2="224" />
    <line x1="204.6" y1="204" x2="208.8" y2="214" />
    <line x1="208.8" y1="214" x2="217.20000000000002" y2="214" />
    <line x1="217.20000000000002" y1="214" x2="225.60000000000002" y2="214" />
    <line x1="225.60000000000002" y1="214" x2="234.00000000000003" y2="214" />
    <line x1="234" y1="214" x2="238.2" y2="204" />
    <line x1="255" y1="204" x2="259.2" y2="214" />
    <line x1="259.20000000000005" y1="214" x2="267.6" y2="214" />
    <line x1="267.6" y1="214" x2="276" y2="214" />
    <line x1="276" y1="214" x2="284.4" y2="214" />
    <line x1="284.40000000000003" y1="214" x2="288.6" y2="204" />
    <line x1="305.4" y1="204" x2="305.4" y2="224" />
    <line x1="45" y1="224" x2="45" y2="244" />
    <line x1="61.800000000000004" y1="244" x2="66" y2="234" />
    <line x1="66" y1="234" x2="74.4" y2="234" />
    <line x1="74.4" y1="234" x2="82.80000000000001" y2="234" />
    <line x1="82.80000000000001" y1="234" x2="91.20000000000002" y2="234" />
    <line x1="91.2" y1="234" x2="99.60000000000001" y2="234" />
    <line x1="99.60000000000001" y1="234" x2="108.00000000000001" y2="234" />
    <line x1="108" y1="234" x2="116.4" y2="234" />
    <line x1="116.4" y1="234" x2="124.80000000000001" y2="234" />
    <line x1="124.80000000000001" y1="234" x2="133.20000000000002" y2="234" />
    <line x1="133.2" y1="234" x2="141.6" y2="234" />
    <line x1="141.60000000000002" y1="234" x2="145.8" y2="244" />
    <line x1="162.6" y1="224" x2="162.6" y2="244" />
    <line x1="187.79999999999998" y1="224" x2="187.79999999999998" y2="244" />
    <line x1="204.6" y1="244" x2="208.8" y2="234" />
    <line x1="208.8" y1="234" x2="217.20000000000002" y2="234" />
    <line x1="217.20000000000002" y1="234" x2="225.60000000000002" y2="234" />
    <line x1="225.60000000000002" y1="234" x2="234.00000000000003" y2="234" />
    <line x1="234" y1="234" x2="242.4" y2="234" />
    <line x1="242.4" y1="234" x2="250.8" y2="234" />
    <line x1="250.8" y1="234" x2="259.2" y2="234" />
    <line x1="259.20000000000005" y1="234" x2="267.6" y2="234" />
    <line x1="267.6" y1="234" x2="276" y2="234" />
    <line x1="276" y1="234" x2="284.4" y2="234" />
    <line x1="284.40000000000003" y1="234" x2="288.6" y2="244" />
    <line x1="305.4" y1="224" x2="305.4" y2="244" />
    <line x1="45" y1="244" x2="45" y2="264" />
    <line x1="61.800000000000004" y1="244" x2="61.800000000000004" y2="264" />
    <line x1="154.2" y1="244" x2="154.2" y2="264" />
    <line x1="171" y1="244" x2="171" y2="264" />
    <line x1="196.2" y1="244" x2="196.2" y2="264" />
    <line x1="213" y1="244" x2="213" y2="264" />
    <line x1="305.4" y1="244" x2="305.4" y2="264" />
    <line x1="322.2" y1="244" x2="322.2" y2="264" />
    <line x1="45" y1="264" x2="45" y2="284" />
    <line x1="61.800000000000004" y1="264" x2="66" y2="274" />
    <line x1="66" y1="274" x2="74.4" y2="274" />
    <line x1="74.4" y1="274" x2="82.80000000000001" y2="274" />
    <line x1="82.80000000000001" y1="274" x2="91.20000000000002" y2="274" />
    <line x1="91.2" y1="274" x2="99.60000000000001" y2="274" />
    <line x1="99.60000000000001" y1="274" x2="108.00000000000001" y2="274" />
    <line x1="108" y1="274" x2="116.4" y2="274" />
    <line x1="116.4" y1="274" x2="124.80000000000001" y2="274" />
    <line x1="124.80000000000001" y1="274" x2="133.20000000000002" y2="274" />
    <line x1="133.2" y1="274" x2="141.6" y2="274" />
    <line x1="141.60000000000002" y1="274" x2="145.8" y2="264" />
    <line x1="162.6" y1="264" x2="162.6" y2="284" />
    <line x1="187.79999999999998" y1="264" x2="187.79999999999998" y2="284" />
    <line x1="204.6" y1="264" x2="208.8" y2="274" />
    <line x1="208.8" y1="274" x2="217.20000000000002" y2="274" />
    <line x1="217.20000000000002" y1="274" x2="225.60000000000002" y2="274" />
    <line x1="225.60000000000002" y1="274" x2="234.00000000000003" y2="274" />
    <line x1="234" y1="274" x2="242.4" y2="274" />
    <line x1="242.4" y1="274" x2="250.8" y2="274" />
    <line x1="250.8" y1="274" x2="259.2" y2="274" />
    <line x1="259.20000000000005" y1="274" x2="267.6" y2="274" />
    <line x1="267.6" y1="274" x2="276" y2="274" />
    <line x1="276" y1="274" x2="284.4" y2="274" />
    <line x1="284.40000000000003" y1="274" x2="288.6" y2="264" />
    <line x1="305.4" y1="264" x2="305.4" y2="284" />
    <line x1="45" y1="284" x2="49.199999999999996" y2="294" />
    <line x1="49.2" y1="294" x2="57.6" y2="294" />
    <line x1="57.6" y1="294" x2="66" y2="294" />
    <line x1="66" y1="294" x2="74.4" y2="294" />
    <line x1="74.4" y1="294" x2="82.80000000000001" y2="294" />
    <line x1="82.80000000000001" y1="294" x2="91.20000000000002" y2="294" />
    <line x1="91.2" y1="294" x2="99.60000000000001" y2="294" />
    <line x1="99.60000000000001" y1="294" x2="108.00000000000001" y2="294" />
    <line x1="108" y1="294" x2="116.4" y2="294" />
    <line x1="116.4" y1="294" x2="124.80000000000001" y2="294" />
    <line x1="124.80000000000001" y1="294" x2="133.20000000000002" y2="294" />
    <line x1="133.2" y1="294" x2="141.6" y2="294" />
    <line x1="141.60000000000002" y1="294" x2="150.00000000000003" y2="294" />
    <line x1="150" y1="294" x2="158.4" y2="294" />
    <line x1="158.4" y1="294" x2="162.6" y2="284" />
    <line x1="187.79999999999998" y1="284" x2="192" y2="294" />
    <line x1="192" y1="294" x2="200.4" y2="294" />
    <line x1="200.4" y1="294" x2="208.8" y2="294" />
    <line x1="208.8" y1="294" x2="217.20000000000002" y2="294" />
    <line x1="217.20000000000002" y1="294" x2="225.60000000000002" y2="294" />
    <line x1="225.60000000000002" y1="294" x2="234.00000000000003" y2="294" />
    <line x1="234" y1="294" x2="242.4" y2="294" />
    <line x1="242.4" y1="294" x2="250.8" y2="294" />
    <line x1="250.8" y1="294" x2="259.2" y2="294" />
    <line x1="259.20000000000005" y1="294" x2="267.6" y2="294" />
    <line x1="267.6" y1="294" x2="276" y2="294" />
    <line x1="276" y1="294" x2="284.4" y2="294" />
    <line x1="284.40000000000003" y1="294" x2="292.8" y2="294" />
    <line x1="292.8" y1="294" x2="301.2" y2="294" />
    <line x1="301.2" y1="294" x2="305.4" y2="284" />
    <line x1="45" y1="384" x2="49.199999999999996" y2="374" />
    <line x1="49.2" y1="374" x2="57.6" y2="374" />
    <line x1="57.6" y1="374" x2="66" y2="374" />
    <line x1="66" y1="374" x2="74.4" y2="374" />
    <line x1="74.4" y1="374" x2="82.80000000000001" y2="374" />
    <line x1="82.80000000000001" y1="374" x2="91.20000000000002" y2="374" />
    <line x1="91.2" y1="374" x2="99.60000000000001" y2="374" />
    <line x1="99.60000000000001" y1="374" x2="108.00000000000001" y2="374" />
    <line x1="108" y1="374" x2="116.4" y2="374" />
    <line x1="116.4" y1="374" x2="124.80000000000001" y2="374" />
    <line x1="124.80000000000001" y1="374" x2="133.20000000000002" y2="374" />
    <line x1="133.2" y1="374" x2="141.6" y2="374" />
    <line x1="141.60000000000002" y1="374" x2="150.00000000000003" y2="374" />
    <line x1="150" y1="374" x2="158.4" y2="374" />
    <line x1="158.4" y1="374" x2="166.8" y2="374" />
    <line x1="166.8" y1="374" x2="171" y2="384" />
    <line x1="196.2" y1="384" x2="200.4" y2="374" />
    <line x1="200.4" y1="374" x2="208.8" y2="374" />
    <line x1="208.8" y1="374" x2="217.20000000000002" y2="374" />
    <line x1="217.20000000000002" y1="374" x2="225.60000000000002" y2="374" />
    <line x1="225.60000000000002" y1="374" x2="234.00000000000003" y2="374" />
    <line x1="234" y1="374" x2="242.4" y2="374" />
    <line x1="242.4" y1="374" x2="250.8" y2="374" />
    <line x1="250.8" y1="374" x2="259.2" y2="374" />
    <line x1="259.20000000000005" y1="374" x2="267.6" y2="374" />
    <line x1="267.6" y1="374" x2="276" y2="374" />
    <line x1="276" y1="374" x2="284.4" y2="374" />
    <line x1="284.40000000000003" y1="374" x2="292.8" y2="374" />
    <line x1="292.8" y1="374" x2="301.2" y2="374" />
    <line x1="301.2" y1="374" x2="309.59999999999997" y2="374" />
    <line x1="309.6" y1="374" x2="318" y2="374" />
    <line x1="318" y1="374" x2="322.2" y2="384" />
    <line x1="45" y1="384" x2="45" y2="404" />
    <line x1="171" y1="384" x2="171" y2="404" />
    <line x1="196.2" y1="384" x2="196.2" y2="404" />
    <line x1="322.2" y1="384" x2="322.2" y2="404" />
    <line x1="45" y1="404" x2="45" y2="424" />
    <line x1="171" y1="404" x2="171" y2="424" />
    <line x1="196.2" y1="404" x2="196.2" y2="424" />
    <line x1="322.2" y1="404" x2="322.2" y2="424" />
    <line x1="45" y1="424" x2="45" y2="444" />
    <line x1="171" y1="424" x2="171" y2="444" />
    <line x1="196.2" y1="424" x2="196.2" y2="444" />
    <line x1="322.2" y1="424" x2="322.2" y2="444" />
    <line x1="45" y1="444" x2="49.199999999999996" y2="454" />
    <line x1="49.2" y1="454" x2="57.6" y2="454" />
    <line x1="57.6" y1="454" x2="66" y2="454" />
    <line x1="66" y1="454" x2="74.4" y2="454" />
    <line x1="74.4" y1="454" x2="82.80000000000001" y2="454" />
    <line x1="82.80000000000001" y1="454" x2="91.20000000000002" y2="454" />
    <line x1="91.2" y1="454" x2="99.60000000000001" y2="454" />
    <line x1="99.60000000000001" y1="454" x2="108.00000000000001" y2="454" />
    <line x1="108" y1="454" x2="116.4" y2="454" />
    <line x1="116.4" y1="454" x2="124.80000000000001" y2="454" />
    <line x1="124.80000000000001" y1="454" x2="133.20000000000002" y2="454" />
    <line x1="133.2" y1="454" x2="141.6" y2="454" />
    <line x1="141.60000000000002" y1="454" x2="150.00000000000003" y2="454" />
    <line x1="150" y1="454" x2="158.4" y2="454" />
    <line x1="158.4" y1="454" x2="166.8" y2="454" />
    <line x1="166.8" y1="454" x2="171" y2="444" />
    <line x1="196.2" y1="444" x2="200.4" y2="454" />
    <line x1="200.4" y1="454" x2="208.8" y2="454" />
    <line x1="208.8" y1="454" x2="217.20000000000002" y2="454" />
    <line x1="217.20000000000002" y1="454" x2="225.60000000000002" y2="454" />
    <line x1="225.60000000000002" y1="454" x2="234.00000000000003" y2="454" />
    <line x1="234" y1="454" x2="242.4" y2="454" />
    <line x1="242.4" y1="454" x2="250.8" y2="454" />
    <line x1="250.8" y1="454" x2="259.2" y2="454" />
    <line x1="259.20000000000005" y1="454" x2="267.6" y2="454" />
    <line x1="267.6" y1="454" x2="276" y2="454" />
    <line x1="276" y1="454" x2="284.4" y2="454" />
    <line x1="284.40000000000003" y1="454" x2="292.8" y2="454" />
    <line x1="292.8" y1="454" x2="301.2" y2="454" />
    <line x1="301.2" y1="454" x2="309.59999999999997" y2="454" />
    <line x1="309.6" y1="454" x2="318" y2="454" />
    <line x1="318" y1="454" x2="322.2" y2="444" />
  </g>
  <g>
    <text x="24" y="39" xml:space="preserve">SINGLE AZ (no redundancy):</text>
    <text x="24" y="59" xml:space="preserve">  Availability ≈ 99.9% (AZ SLA)</text>
    <text x="24" y="79" xml:space="preserve">  Risk: AZ failure = total outage</text>
    <text x="24" y="119" xml:space="preserve">MULTI-AZ (standard production):</text>
    <text x="24" y="159" xml:space="preserve">       AZ-1             AZ-2      </text>
    <text x="24" y="199" xml:space="preserve">     App   App        App   App   </text>
    <text x="24" y="259" xml:space="preserve">     DB Primary        DB Replica   </text>
    <text x="24" y="319" xml:space="preserve">  Availability ≈ 99.99%</text>
    <text x="24" y="359" xml:space="preserve">MULTI-REGION (highest availability):</text>
    <text x="24" y="399" xml:space="preserve">     US-EAST           EU-WEST      </text>
    <text x="24" y="419" xml:space="preserve">     (Primary)         (Secondary)  </text>
    <text x="24" y="439" xml:space="preserve">     Full stack   ◄►   Full stack   </text>
    <text x="24" y="479" xml:space="preserve">  Availability ≈ 99.999%</text>
    <text x="24" y="499" xml:space="preserve">  Cost: 2-3× single region</text>
    <text x="24" y="519" xml:space="preserve">  Complexity: Data replication, conflict resolution</text>
  </g>
</svg>
