<?xml version="1.0" encoding="UTF-8"?>
<svg xmlns="http://www.w3.org/2000/svg" width="603" height="288" viewBox="0 0 603 288" role="img" aria-labelledby="title desc">
  <title id="title">What is a CDN? diagram</title>
  <desc id="desc">Generated vector rendering of a documentation diagram.</desc>
  <defs>
    <style>
      .card { fill: #fbfcff; stroke: #cbd5e1; stroke-width: 1.2; }
      .segments { stroke: #0f172a; stroke-width: 1.8; stroke-linecap: round; }
      text {
        fill: #0f172a;
        font-family: "JetBrains Mono", "SFMono-Regular", Consolas, "Liberation Mono", monospace;
        font-size: 14px;
      }
    </style>
  </defs>
  <rect class="card" x="0.6" y="0.6" width="601.8" height="286.8" rx="16" />
  <g class="segments">
    <line x1="158.4" y1="54" x2="166.8" y2="54" />
    <line x1="166.8" y1="54" x2="175.20000000000002" y2="54" />
    <line x1="175.20000000000002" y1="54" x2="183.60000000000002" y2="54" />
    <line x1="183.6" y1="54" x2="192" y2="54" />
    <line x1="192" y1="54" x2="200.4" y2="54" />
    <line x1="200.4" y1="54" x2="208.8" y2="54" />
    <line x1="208.8" y1="54" x2="217.20000000000002" y2="54" />
    <line x1="217.20000000000002" y1="54" x2="225.60000000000002" y2="54" />
    <line x1="225.60000000000002" y1="54" x2="234.00000000000003" y2="54" />
    <line x1="292.8" y1="54" x2="301.2" y2="54" />
    <line x1="301.2" y1="54" x2="309.59999999999997" y2="54" />
    <line x1="309.6" y1="54" x2="318" y2="54" />
    <line x1="318" y1="54" x2="326.4" y2="54" />
    <line x1="326.40000000000003" y1="54" x2="334.8" y2="54" />
    <line x1="334.8" y1="54" x2="343.2" y2="54" />
    <line x1="343.2" y1="54" x2="351.59999999999997" y2="54" />
    <line x1="351.6" y1="54" x2="360" y2="54" />
    <line x1="158.4" y1="134" x2="166.8" y2="134" />
    <line x1="166.8" y1="134" x2="175.20000000000002" y2="134" />
    <line x1="175.20000000000002" y1="134" x2="183.60000000000002" y2="134" />
    <line x1="183.6" y1="134" x2="192" y2="134" />
    <line x1="242.4" y1="134" x2="250.8" y2="134" />
    <line x1="250.8" y1="134" x2="259.2" y2="134" />
    <line x1="259.20000000000005" y1="134" x2="267.6" y2="134" />
    <line x1="267.6" y1="134" x2="276" y2="134" />
    <line x1="330.6" y1="144" x2="330.6" y2="164" />
  </g>
  <g>
    <text x="24" y="39" xml:space="preserve">WITHOUT CDN:</text>
    <text x="24" y="59" xml:space="preserve">  User in Tokyo           200ms         ► Origin in Virginia</text>
    <text x="24" y="79" xml:space="preserve">  Every request travels across the globe.</text>
    <text x="24" y="119" xml:space="preserve">WITH CDN:</text>
    <text x="24" y="139" xml:space="preserve">  User in Tokyo      10ms     ► CDN Edge (Tokyo)</text>
    <text x="24" y="159" xml:space="preserve">                                      cache miss? </text>
    <text x="24" y="179" xml:space="preserve">                                    ▼</text>
    <text x="24" y="199" xml:space="preserve">                              Origin (Virginia)</text>
    <text x="24" y="219" xml:space="preserve">                              (only on first request)</text>
    <text x="24" y="259" xml:space="preserve">  Subsequent users in Tokyo get content from the Tokyo edge = 10ms</text>
  </g>
</svg>
