<?xml version="1.0" encoding="UTF-8"?>
<svg xmlns="http://www.w3.org/2000/svg" width="510" height="548" viewBox="0 0 510 548" role="img" aria-labelledby="title desc">
  <title id="title">D. Example: Order Processing Pipeline diagram</title>
  <desc id="desc">Generated vector rendering of a documentation diagram.</desc>
  <defs>
    <style>
      .card { fill: #fbfcff; stroke: #cbd5e1; stroke-width: 1.2; }
      .segments { stroke: #0f172a; stroke-width: 1.8; stroke-linecap: round; }
      text {
        fill: #0f172a;
        font-family: "JetBrains Mono", "SFMono-Regular", Consolas, "Liberation Mono", monospace;
        font-size: 14px;
      }
    </style>
  </defs>
  <rect class="card" x="0.6" y="0.6" width="508.8" height="546.8" rx="16" />
  <g class="segments">
    <line x1="28.2" y1="44" x2="32.4" y2="34" />
    <line x1="32.4" y1="34" x2="40.8" y2="34" />
    <line x1="40.8" y1="34" x2="49.199999999999996" y2="34" />
    <line x1="49.2" y1="34" x2="57.6" y2="34" />
    <line x1="57.6" y1="34" x2="66" y2="34" />
    <line x1="66" y1="34" x2="74.4" y2="34" />
    <line x1="74.4" y1="34" x2="82.80000000000001" y2="34" />
    <line x1="82.80000000000001" y1="34" x2="91.20000000000002" y2="34" />
    <line x1="91.2" y1="34" x2="99.60000000000001" y2="34" />
    <line x1="99.60000000000001" y1="34" x2="108.00000000000001" y2="34" />
    <line x1="108" y1="34" x2="116.4" y2="34" />
    <line x1="116.4" y1="34" x2="120.60000000000001" y2="44" />
    <line x1="162.6" y1="44" x2="166.8" y2="34" />
    <line x1="166.8" y1="34" x2="175.20000000000002" y2="34" />
    <line x1="175.20000000000002" y1="34" x2="183.60000000000002" y2="34" />
    <line x1="183.6" y1="34" x2="192" y2="34" />
    <line x1="192" y1="34" x2="200.4" y2="34" />
    <line x1="200.4" y1="34" x2="208.8" y2="34" />
    <line x1="208.8" y1="34" x2="217.20000000000002" y2="34" />
    <line x1="217.20000000000002" y1="34" x2="225.60000000000002" y2="34" />
    <line x1="225.60000000000002" y1="34" x2="234.00000000000003" y2="34" />
    <line x1="234" y1="34" x2="242.4" y2="34" />
    <line x1="242.4" y1="34" x2="250.8" y2="34" />
    <line x1="250.8" y1="34" x2="259.2" y2="34" />
    <line x1="259.20000000000005" y1="34" x2="267.6" y2="34" />
    <line x1="267.6" y1="34" x2="276" y2="34" />
    <line x1="276" y1="34" x2="284.4" y2="34" />
    <line x1="284.40000000000003" y1="34" x2="288.6" y2="44" />
    <line x1="330.6" y1="44" x2="334.8" y2="34" />
    <line x1="334.8" y1="34" x2="343.2" y2="34" />
    <line x1="343.2" y1="34" x2="351.59999999999997" y2="34" />
    <line x1="351.6" y1="34" x2="360" y2="34" />
    <line x1="360" y1="34" x2="368.4" y2="34" />
    <line x1="368.40000000000003" y1="34" x2="376.8" y2="34" />
    <line x1="376.8" y1="34" x2="385.2" y2="34" />
    <line x1="385.2" y1="34" x2="393.59999999999997" y2="34" />
    <line x1="393.6" y1="34" x2="402" y2="34" />
    <line x1="402" y1="34" x2="410.4" y2="34" />
    <line x1="410.40000000000003" y1="34" x2="418.8" y2="34" />
    <line x1="418.8" y1="34" x2="427.2" y2="34" />
    <line x1="427.20000000000005" y1="34" x2="435.6" y2="34" />
    <line x1="435.6" y1="34" x2="444" y2="34" />
    <line x1="444" y1="34" x2="452.4" y2="34" />
    <line x1="452.40000000000003" y1="34" x2="456.6" y2="44" />
    <line x1="28.2" y1="44" x2="28.2" y2="64" />
    <line x1="120.60000000000001" y1="44" x2="120.60000000000001" y2="64" />
    <line x1="124.80000000000001" y1="54" x2="133.20000000000002" y2="54" />
    <line x1="133.2" y1="54" x2="141.6" y2="54" />
    <line x1="141.60000000000002" y1="54" x2="150.00000000000003" y2="54" />
    <line x1="162.6" y1="44" x2="162.6" y2="64" />
    <line x1="288.6" y1="44" x2="288.6" y2="64" />
    <line x1="292.8" y1="54" x2="301.2" y2="54" />
    <line x1="301.2" y1="54" x2="309.59999999999997" y2="54" />
    <line x1="309.6" y1="54" x2="318" y2="54" />
    <line x1="330.6" y1="44" x2="330.6" y2="64" />
    <line x1="456.6" y1="44" x2="456.6" y2="64" />
    <line x1="28.2" y1="64" x2="28.2" y2="84" />
    <line x1="120.60000000000001" y1="64" x2="120.60000000000001" y2="84" />
    <line x1="162.6" y1="64" x2="162.6" y2="84" />
    <line x1="288.6" y1="64" x2="288.6" y2="84" />
    <line x1="330.6" y1="64" x2="330.6" y2="84" />
    <line x1="456.6" y1="64" x2="456.6" y2="84" />
    <line x1="28.2" y1="84" x2="32.4" y2="94" />
    <line x1="32.4" y1="94" x2="40.8" y2="94" />
    <line x1="40.8" y1="94" x2="49.199999999999996" y2="94" />
    <line x1="49.2" y1="94" x2="57.6" y2="94" />
    <line x1="57.6" y1="94" x2="66" y2="94" />
    <line x1="66" y1="94" x2="74.4" y2="94" />
    <line x1="74.4" y1="94" x2="82.80000000000001" y2="94" />
    <line x1="82.80000000000001" y1="94" x2="91.20000000000002" y2="94" />
    <line x1="91.2" y1="94" x2="99.60000000000001" y2="94" />
    <line x1="99.60000000000001" y1="94" x2="108.00000000000001" y2="94" />
    <line x1="108" y1="94" x2="116.4" y2="94" />
    <line x1="116.4" y1="94" x2="120.60000000000001" y2="84" />
    <line x1="162.6" y1="84" x2="166.8" y2="94" />
    <line x1="166.8" y1="94" x2="175.20000000000002" y2="94" />
    <line x1="175.20000000000002" y1="94" x2="183.60000000000002" y2="94" />
    <line x1="183.6" y1="94" x2="192" y2="94" />
    <line x1="192" y1="94" x2="200.4" y2="94" />
    <line x1="200.4" y1="94" x2="208.8" y2="94" />
    <line x1="208.8" y1="94" x2="217.20000000000002" y2="94" />
    <line x1="217.20000000000002" y1="94" x2="225.60000000000002" y2="94" />
    <line x1="221.4" y1="94" x2="221.4" y2="104" />
    <line x1="225.60000000000002" y1="94" x2="234.00000000000003" y2="94" />
    <line x1="234" y1="94" x2="242.4" y2="94" />
    <line x1="242.4" y1="94" x2="250.8" y2="94" />
    <line x1="250.8" y1="94" x2="259.2" y2="94" />
    <line x1="259.20000000000005" y1="94" x2="267.6" y2="94" />
    <line x1="267.6" y1="94" x2="276" y2="94" />
    <line x1="276" y1="94" x2="284.4" y2="94" />
    <line x1="284.40000000000003" y1="94" x2="288.6" y2="84" />
    <line x1="330.6" y1="84" x2="334.8" y2="94" />
    <line x1="334.8" y1="94" x2="343.2" y2="94" />
    <line x1="343.2" y1="94" x2="351.59999999999997" y2="94" />
    <line x1="351.6" y1="94" x2="360" y2="94" />
    <line x1="360" y1="94" x2="368.4" y2="94" />
    <line x1="368.40000000000003" y1="94" x2="376.8" y2="94" />
    <line x1="376.8" y1="94" x2="385.2" y2="94" />
    <line x1="385.2" y1="94" x2="393.59999999999997" y2="94" />
    <line x1="393.6" y1="94" x2="402" y2="94" />
    <line x1="402" y1="94" x2="410.4" y2="94" />
    <line x1="410.40000000000003" y1="94" x2="418.8" y2="94" />
    <line x1="418.8" y1="94" x2="427.2" y2="94" />
    <line x1="427.20000000000005" y1="94" x2="435.6" y2="94" />
    <line x1="435.6" y1="94" x2="444" y2="94" />
    <line x1="444" y1="94" x2="452.4" y2="94" />
    <line x1="452.40000000000003" y1="94" x2="456.6" y2="84" />
    <line x1="221.4" y1="104" x2="221.4" y2="124" />
    <line x1="221.4" y1="124" x2="221.4" y2="144" />
    <line x1="221.4" y1="134" x2="225.60000000000002" y2="134" />
    <line x1="225.60000000000002" y1="134" x2="234.00000000000003" y2="134" />
    <line x1="234" y1="134" x2="242.4" y2="134" />
    <line x1="242.4" y1="134" x2="250.8" y2="134" />
    <line x1="250.8" y1="134" x2="259.2" y2="134" />
    <line x1="259.20000000000005" y1="134" x2="267.6" y2="134" />
    <line x1="267.6" y1="134" x2="276" y2="134" />
    <line x1="276" y1="134" x2="284.4" y2="134" />
    <line x1="284.40000000000003" y1="134" x2="292.8" y2="134" />
    <line x1="292.8" y1="134" x2="301.2" y2="134" />
    <line x1="301.2" y1="134" x2="309.59999999999997" y2="134" />
    <line x1="309.6" y1="134" x2="318" y2="134" />
    <line x1="330.6" y1="144" x2="334.8" y2="134" />
    <line x1="334.8" y1="134" x2="343.2" y2="134" />
    <line x1="343.2" y1="134" x2="351.59999999999997" y2="134" />
    <line x1="351.6" y1="134" x2="360" y2="134" />
    <line x1="360" y1="134" x2="368.4" y2="134" />
    <line x1="368.40000000000003" y1="134" x2="376.8" y2="134" />
    <line x1="376.8" y1="134" x2="385.2" y2="134" />
    <line x1="385.2" y1="134" x2="393.59999999999997" y2="134" />
    <line x1="393.6" y1="134" x2="402" y2="134" />
    <line x1="402" y1="134" x2="410.4" y2="134" />
    <line x1="410.40000000000003" y1="134" x2="418.8" y2="134" />
    <line x1="418.8" y1="134" x2="427.2" y2="134" />
    <line x1="427.20000000000005" y1="134" x2="435.6" y2="134" />
    <line x1="435.6" y1="134" x2="444" y2="134" />
    <line x1="444" y1="134" x2="452.4" y2="134" />
    <line x1="452.40000000000003" y1="134" x2="456.6" y2="144" />
    <line x1="221.4" y1="144" x2="221.4" y2="164" />
    <line x1="330.6" y1="144" x2="330.6" y2="164" />
    <line x1="456.6" y1="144" x2="456.6" y2="164" />
    <line x1="221.4" y1="164" x2="221.4" y2="184" />
    <line x1="330.6" y1="164" x2="330.6" y2="184" />
    <line x1="456.6" y1="164" x2="456.6" y2="184" />
    <line x1="221.4" y1="184" x2="221.4" y2="204" />
    <line x1="330.6" y1="184" x2="334.8" y2="194" />
    <line x1="334.8" y1="194" x2="343.2" y2="194" />
    <line x1="343.2" y1="194" x2="351.59999999999997" y2="194" />
    <line x1="351.6" y1="194" x2="360" y2="194" />
    <line x1="360" y1="194" x2="368.4" y2="194" />
    <line x1="368.40000000000003" y1="194" x2="376.8" y2="194" />
    <line x1="376.8" y1="194" x2="385.2" y2="194" />
    <line x1="385.2" y1="194" x2="393.59999999999997" y2="194" />
    <line x1="393.6" y1="194" x2="402" y2="194" />
    <line x1="402" y1="194" x2="410.4" y2="194" />
    <line x1="410.40000000000003" y1="194" x2="418.8" y2="194" />
    <line x1="418.8" y1="194" x2="427.2" y2="194" />
    <line x1="427.20000000000005" y1="194" x2="435.6" y2="194" />
    <line x1="435.6" y1="194" x2="444" y2="194" />
    <line x1="444" y1="194" x2="452.4" y2="194" />
    <line x1="452.40000000000003" y1="194" x2="456.6" y2="184" />
    <line x1="221.4" y1="204" x2="221.4" y2="224" />
    <line x1="221.4" y1="224" x2="221.4" y2="244" />
    <line x1="221.4" y1="234" x2="225.60000000000002" y2="234" />
    <line x1="225.60000000000002" y1="234" x2="234.00000000000003" y2="234" />
    <line x1="234" y1="234" x2="242.4" y2="234" />
    <line x1="242.4" y1="234" x2="250.8" y2="234" />
    <line x1="250.8" y1="234" x2="259.2" y2="234" />
    <line x1="259.20000000000005" y1="234" x2="267.6" y2="234" />
    <line x1="267.6" y1="234" x2="276" y2="234" />
    <line x1="276" y1="234" x2="284.4" y2="234" />
    <line x1="284.40000000000003" y1="234" x2="292.8" y2="234" />
    <line x1="292.8" y1="234" x2="301.2" y2="234" />
    <line x1="301.2" y1="234" x2="309.59999999999997" y2="234" />
    <line x1="309.6" y1="234" x2="318" y2="234" />
    <line x1="330.6" y1="244" x2="334.8" y2="234" />
    <line x1="334.8" y1="234" x2="343.2" y2="234" />
    <line x1="343.2" y1="234" x2="351.59999999999997" y2="234" />
    <line x1="351.6" y1="234" x2="360" y2="234" />
    <line x1="360" y1="234" x2="368.4" y2="234" />
    <line x1="368.40000000000003" y1="234" x2="376.8" y2="234" />
    <line x1="376.8" y1="234" x2="385.2" y2="234" />
    <line x1="385.2" y1="234" x2="393.59999999999997" y2="234" />
    <line x1="393.6" y1="234" x2="402" y2="234" />
    <line x1="402" y1="234" x2="410.4" y2="234" />
    <line x1="410.40000000000003" y1="234" x2="418.8" y2="234" />
    <line x1="418.8" y1="234" x2="427.2" y2="234" />
    <line x1="427.20000000000005" y1="234" x2="435.6" y2="234" />
    <line x1="435.6" y1="234" x2="444" y2="234" />
    <line x1="444" y1="234" x2="452.4" y2="234" />
    <line x1="452.40000000000003" y1="234" x2="456.6" y2="244" />
    <line x1="221.4" y1="244" x2="221.4" y2="264" />
    <line x1="330.6" y1="244" x2="330.6" y2="264" />
    <line x1="456.6" y1="244" x2="456.6" y2="264" />
    <line x1="221.4" y1="264" x2="221.4" y2="284" />
    <line x1="330.6" y1="264" x2="330.6" y2="284" />
    <line x1="456.6" y1="264" x2="456.6" y2="284" />
    <line x1="221.4" y1="284" x2="221.4" y2="304" />
    <line x1="330.6" y1="284" x2="334.8" y2="294" />
    <line x1="334.8" y1="294" x2="343.2" y2="294" />
    <line x1="343.2" y1="294" x2="351.59999999999997" y2="294" />
    <line x1="351.6" y1="294" x2="360" y2="294" />
    <line x1="360" y1="294" x2="368.4" y2="294" />
    <line x1="368.40000000000003" y1="294" x2="376.8" y2="294" />
    <line x1="376.8" y1="294" x2="385.2" y2="294" />
    <line x1="385.2" y1="294" x2="393.59999999999997" y2="294" />
    <line x1="393.6" y1="294" x2="402" y2="294" />
    <line x1="402" y1="294" x2="410.4" y2="294" />
    <line x1="410.40000000000003" y1="294" x2="418.8" y2="294" />
    <line x1="418.8" y1="294" x2="427.2" y2="294" />
    <line x1="427.20000000000005" y1="294" x2="435.6" y2="294" />
    <line x1="435.6" y1="294" x2="444" y2="294" />
    <line x1="444" y1="294" x2="452.4" y2="294" />
    <line x1="452.40000000000003" y1="294" x2="456.6" y2="284" />
    <line x1="221.4" y1="304" x2="221.4" y2="324" />
    <line x1="221.4" y1="324" x2="225.60000000000002" y2="334" />
    <line x1="225.60000000000002" y1="334" x2="234.00000000000003" y2="334" />
    <line x1="234" y1="334" x2="242.4" y2="334" />
    <line x1="242.4" y1="334" x2="250.8" y2="334" />
    <line x1="250.8" y1="334" x2="259.2" y2="334" />
    <line x1="259.20000000000005" y1="334" x2="267.6" y2="334" />
    <line x1="267.6" y1="334" x2="276" y2="334" />
    <line x1="276" y1="334" x2="284.4" y2="334" />
    <line x1="284.40000000000003" y1="334" x2="292.8" y2="334" />
    <line x1="292.8" y1="334" x2="301.2" y2="334" />
    <line x1="301.2" y1="334" x2="309.59999999999997" y2="334" />
    <line x1="309.6" y1="334" x2="318" y2="334" />
    <line x1="330.6" y1="344" x2="334.8" y2="334" />
    <line x1="334.8" y1="334" x2="343.2" y2="334" />
    <line x1="343.2" y1="334" x2="351.59999999999997" y2="334" />
    <line x1="351.6" y1="334" x2="360" y2="334" />
    <line x1="360" y1="334" x2="368.4" y2="334" />
    <line x1="368.40000000000003" y1="334" x2="376.8" y2="334" />
    <line x1="376.8" y1="334" x2="385.2" y2="334" />
    <line x1="385.2" y1="334" x2="393.59999999999997" y2="334" />
    <line x1="393.6" y1="334" x2="402" y2="334" />
    <line x1="402" y1="334" x2="410.4" y2="334" />
    <line x1="410.40000000000003" y1="334" x2="418.8" y2="334" />
    <line x1="418.8" y1="334" x2="427.2" y2="334" />
    <line x1="427.20000000000005" y1="334" x2="435.6" y2="334" />
    <line x1="435.6" y1="334" x2="444" y2="334" />
    <line x1="444" y1="334" x2="452.4" y2="334" />
    <line x1="452.40000000000003" y1="334" x2="456.6" y2="344" />
    <line x1="330.6" y1="344" x2="330.6" y2="364" />
    <line x1="456.6" y1="344" x2="456.6" y2="364" />
    <line x1="330.6" y1="364" x2="330.6" y2="384" />
    <line x1="456.6" y1="364" x2="456.6" y2="384" />
    <line x1="330.6" y1="384" x2="334.8" y2="394" />
    <line x1="334.8" y1="394" x2="343.2" y2="394" />
    <line x1="343.2" y1="394" x2="351.59999999999997" y2="394" />
    <line x1="351.6" y1="394" x2="360" y2="394" />
    <line x1="360" y1="394" x2="368.4" y2="394" />
    <line x1="368.40000000000003" y1="394" x2="376.8" y2="394" />
    <line x1="376.8" y1="394" x2="385.2" y2="394" />
    <line x1="385.2" y1="394" x2="393.59999999999997" y2="394" />
    <line x1="393.6" y1="394" x2="402" y2="394" />
    <line x1="402" y1="394" x2="410.4" y2="394" />
    <line x1="410.40000000000003" y1="394" x2="418.8" y2="394" />
    <line x1="418.8" y1="394" x2="427.2" y2="394" />
    <line x1="427.20000000000005" y1="394" x2="435.6" y2="394" />
    <line x1="435.6" y1="394" x2="444" y2="394" />
    <line x1="444" y1="394" x2="452.4" y2="394" />
    <line x1="452.40000000000003" y1="394" x2="456.6" y2="384" />
  </g>
  <g>
    <text x="24" y="59" xml:space="preserve">   Order       ►  Kafka Topic:     ►  Payment       </text>
    <text x="24" y="79" xml:space="preserve">   Service        order.created       Consumer      </text>
    <text x="24" y="139" xml:space="preserve">                                   ►                </text>
    <text x="24" y="159" xml:space="preserve">                                      Inventory     </text>
    <text x="24" y="179" xml:space="preserve">                                      Consumer      </text>
    <text x="24" y="239" xml:space="preserve">                                   ►                </text>
    <text x="24" y="259" xml:space="preserve">                                      Notification  </text>
    <text x="24" y="279" xml:space="preserve">                                      Consumer      </text>
    <text x="24" y="339" xml:space="preserve">                                   ►                </text>
    <text x="24" y="359" xml:space="preserve">                                      Analytics     </text>
    <text x="24" y="379" xml:space="preserve">                                      Consumer      </text>
    <text x="24" y="439" xml:space="preserve">Each consumer is a different consumer group:</text>
    <text x="24" y="459" xml:space="preserve">  • Payment: Must process every order (at-least-once)</text>
    <text x="24" y="479" xml:space="preserve">  • Inventory: Must process every order (at-least-once)</text>
    <text x="24" y="499" xml:space="preserve">  • Notification: Best-effort (at-most-once OK)</text>
    <text x="24" y="519" xml:space="preserve">  • Analytics: Can tolerate delay, replays welcome</text>
  </g>
</svg>
