<?xml version="1.0" encoding="UTF-8"?>
<svg xmlns="http://www.w3.org/2000/svg" width="771" height="828" viewBox="0 0 771 828" role="img" aria-labelledby="title desc">
  <title id="title">Phase 4: Scaling Writes + Global (100M users, 100K redirects/sec) diagram</title>
  <desc id="desc">Generated vector rendering of a documentation diagram.</desc>
  <defs>
    <style>
      .card { fill: #fbfcff; stroke: #cbd5e1; stroke-width: 1.2; }
      .segments { stroke: #0f172a; stroke-width: 1.8; stroke-linecap: round; }
      text {
        fill: #0f172a;
        font-family: "JetBrains Mono", "SFMono-Regular", Consolas, "Liberation Mono", monospace;
        font-size: 14px;
      }
    </style>
  </defs>
  <rect class="card" x="0.6" y="0.6" width="769.8" height="826.8" rx="16" />
  <g class="segments">
    <line x1="238.2" y1="44" x2="242.4" y2="34" />
    <line x1="242.4" y1="34" x2="250.8" y2="34" />
    <line x1="250.8" y1="34" x2="259.2" y2="34" />
    <line x1="259.20000000000005" y1="34" x2="267.6" y2="34" />
    <line x1="267.6" y1="34" x2="276" y2="34" />
    <line x1="276" y1="34" x2="284.4" y2="34" />
    <line x1="284.40000000000003" y1="34" x2="292.8" y2="34" />
    <line x1="292.8" y1="34" x2="301.2" y2="34" />
    <line x1="301.2" y1="34" x2="309.59999999999997" y2="34" />
    <line x1="309.6" y1="34" x2="318" y2="34" />
    <line x1="318" y1="34" x2="326.4" y2="34" />
    <line x1="326.40000000000003" y1="34" x2="334.8" y2="34" />
    <line x1="334.8" y1="34" x2="343.2" y2="34" />
    <line x1="343.2" y1="34" x2="351.59999999999997" y2="34" />
    <line x1="351.6" y1="34" x2="360" y2="34" />
    <line x1="360" y1="34" x2="368.4" y2="34" />
    <line x1="368.40000000000003" y1="34" x2="376.8" y2="34" />
    <line x1="376.8" y1="34" x2="385.2" y2="34" />
    <line x1="385.2" y1="34" x2="393.59999999999997" y2="34" />
    <line x1="393.6" y1="34" x2="402" y2="34" />
    <line x1="402" y1="34" x2="406.2" y2="44" />
    <line x1="238.2" y1="44" x2="238.2" y2="64" />
    <line x1="406.2" y1="44" x2="406.2" y2="64" />
    <line x1="238.2" y1="64" x2="238.2" y2="84" />
    <line x1="406.2" y1="64" x2="406.2" y2="84" />
    <line x1="238.2" y1="84" x2="242.4" y2="94" />
    <line x1="242.4" y1="94" x2="250.8" y2="94" />
    <line x1="250.8" y1="94" x2="259.2" y2="94" />
    <line x1="259.20000000000005" y1="94" x2="267.6" y2="94" />
    <line x1="267.6" y1="94" x2="276" y2="94" />
    <line x1="276" y1="94" x2="284.4" y2="94" />
    <line x1="284.40000000000003" y1="94" x2="292.8" y2="94" />
    <line x1="292.8" y1="94" x2="301.2" y2="94" />
    <line x1="301.2" y1="94" x2="309.59999999999997" y2="94" />
    <line x1="309.6" y1="94" x2="318" y2="94" />
    <line x1="313.8" y1="94" x2="313.8" y2="104" />
    <line x1="318" y1="94" x2="326.4" y2="94" />
    <line x1="326.40000000000003" y1="94" x2="334.8" y2="94" />
    <line x1="334.8" y1="94" x2="343.2" y2="94" />
    <line x1="343.2" y1="94" x2="351.59999999999997" y2="94" />
    <line x1="351.6" y1="94" x2="360" y2="94" />
    <line x1="360" y1="94" x2="368.4" y2="94" />
    <line x1="368.40000000000003" y1="94" x2="376.8" y2="94" />
    <line x1="376.8" y1="94" x2="385.2" y2="94" />
    <line x1="385.2" y1="94" x2="393.59999999999997" y2="94" />
    <line x1="393.6" y1="94" x2="402" y2="94" />
    <line x1="402" y1="94" x2="406.2" y2="84" />
    <line x1="313.8" y1="104" x2="313.8" y2="124" />
    <line x1="196.2" y1="144" x2="200.4" y2="134" />
    <line x1="200.4" y1="134" x2="208.8" y2="134" />
    <line x1="208.8" y1="134" x2="217.20000000000002" y2="134" />
    <line x1="217.20000000000002" y1="134" x2="225.60000000000002" y2="134" />
    <line x1="225.60000000000002" y1="134" x2="234.00000000000003" y2="134" />
    <line x1="234" y1="134" x2="242.4" y2="134" />
    <line x1="242.4" y1="134" x2="250.8" y2="134" />
    <line x1="250.8" y1="134" x2="259.2" y2="134" />
    <line x1="259.20000000000005" y1="134" x2="267.6" y2="134" />
    <line x1="267.6" y1="134" x2="276" y2="134" />
    <line x1="276" y1="134" x2="284.4" y2="134" />
    <line x1="284.40000000000003" y1="134" x2="292.8" y2="134" />
    <line x1="292.8" y1="134" x2="301.2" y2="134" />
    <line x1="301.2" y1="134" x2="309.59999999999997" y2="134" />
    <line x1="309.6" y1="134" x2="318" y2="134" />
    <line x1="313.8" y1="124" x2="313.8" y2="144" />
    <line x1="318" y1="134" x2="326.4" y2="134" />
    <line x1="326.40000000000003" y1="134" x2="334.8" y2="134" />
    <line x1="334.8" y1="134" x2="343.2" y2="134" />
    <line x1="343.2" y1="134" x2="351.59999999999997" y2="134" />
    <line x1="351.6" y1="134" x2="360" y2="134" />
    <line x1="360" y1="134" x2="368.4" y2="134" />
    <line x1="368.40000000000003" y1="134" x2="376.8" y2="134" />
    <line x1="376.8" y1="134" x2="385.2" y2="134" />
    <line x1="385.2" y1="134" x2="393.59999999999997" y2="134" />
    <line x1="393.6" y1="134" x2="402" y2="134" />
    <line x1="402" y1="134" x2="410.4" y2="134" />
    <line x1="410.40000000000003" y1="134" x2="418.8" y2="134" />
    <line x1="418.8" y1="134" x2="427.2" y2="134" />
    <line x1="427.20000000000005" y1="134" x2="431.40000000000003" y2="144" />
    <line x1="196.2" y1="144" x2="196.2" y2="164" />
    <line x1="313.8" y1="144" x2="313.8" y2="164" />
    <line x1="431.40000000000003" y1="144" x2="431.40000000000003" y2="164" />
    <line x1="145.8" y1="184" x2="150.00000000000003" y2="174" />
    <line x1="150" y1="174" x2="158.4" y2="174" />
    <line x1="158.4" y1="174" x2="166.8" y2="174" />
    <line x1="166.8" y1="174" x2="175.20000000000002" y2="174" />
    <line x1="175.20000000000002" y1="174" x2="183.60000000000002" y2="174" />
    <line x1="183.6" y1="174" x2="192" y2="174" />
    <line x1="192" y1="174" x2="200.4" y2="174" />
    <line x1="196.2" y1="164" x2="196.2" y2="174" />
    <line x1="200.4" y1="174" x2="208.8" y2="174" />
    <line x1="208.8" y1="174" x2="217.20000000000002" y2="174" />
    <line x1="217.20000000000002" y1="174" x2="225.60000000000002" y2="174" />
    <line x1="225.60000000000002" y1="174" x2="234.00000000000003" y2="174" />
    <line x1="234" y1="174" x2="242.4" y2="174" />
    <line x1="242.4" y1="174" x2="246.6" y2="184" />
    <line x1="263.40000000000003" y1="184" x2="267.6" y2="174" />
    <line x1="267.6" y1="174" x2="276" y2="174" />
    <line x1="276" y1="174" x2="284.4" y2="174" />
    <line x1="284.40000000000003" y1="174" x2="292.8" y2="174" />
    <line x1="292.8" y1="174" x2="301.2" y2="174" />
    <line x1="301.2" y1="174" x2="309.59999999999997" y2="174" />
    <line x1="305.4" y1="164" x2="305.4" y2="174" />
    <line x1="309.6" y1="174" x2="318" y2="174" />
    <line x1="318" y1="174" x2="326.4" y2="174" />
    <line x1="326.40000000000003" y1="174" x2="334.8" y2="174" />
    <line x1="334.8" y1="174" x2="343.2" y2="174" />
    <line x1="343.2" y1="174" x2="347.4" y2="184" />
    <line x1="364.2" y1="184" x2="368.4" y2="174" />
    <line x1="368.40000000000003" y1="174" x2="376.8" y2="174" />
    <line x1="376.8" y1="174" x2="385.2" y2="174" />
    <line x1="385.2" y1="174" x2="393.59999999999997" y2="174" />
    <line x1="393.6" y1="174" x2="402" y2="174" />
    <line x1="402" y1="174" x2="410.4" y2="174" />
    <line x1="410.40000000000003" y1="174" x2="418.8" y2="174" />
    <line x1="418.8" y1="174" x2="427.2" y2="174" />
    <line x1="423" y1="164" x2="423" y2="174" />
    <line x1="427.20000000000005" y1="174" x2="435.6" y2="174" />
    <line x1="435.6" y1="174" x2="444" y2="174" />
    <line x1="444" y1="174" x2="452.4" y2="174" />
    <line x1="452.40000000000003" y1="174" x2="460.8" y2="174" />
    <line x1="460.8" y1="174" x2="469.2" y2="174" />
    <line x1="469.20000000000005" y1="174" x2="473.40000000000003" y2="184" />
    <line x1="145.8" y1="184" x2="145.8" y2="204" />
    <line x1="246.6" y1="184" x2="246.6" y2="204" />
    <line x1="263.40000000000003" y1="184" x2="263.40000000000003" y2="204" />
    <line x1="347.4" y1="184" x2="347.4" y2="204" />
    <line x1="364.2" y1="184" x2="364.2" y2="204" />
    <line x1="473.40000000000003" y1="184" x2="473.40000000000003" y2="204" />
    <line x1="145.8" y1="204" x2="150.00000000000003" y2="214" />
    <line x1="150" y1="214" x2="158.4" y2="214" />
    <line x1="158.4" y1="214" x2="166.8" y2="214" />
    <line x1="166.8" y1="214" x2="175.20000000000002" y2="214" />
    <line x1="175.20000000000002" y1="214" x2="183.60000000000002" y2="214" />
    <line x1="183.6" y1="214" x2="192" y2="214" />
    <line x1="192" y1="214" x2="200.4" y2="214" />
    <line x1="196.2" y1="214" x2="196.2" y2="224" />
    <line x1="200.4" y1="214" x2="208.8" y2="214" />
    <line x1="208.8" y1="214" x2="217.20000000000002" y2="214" />
    <line x1="217.20000000000002" y1="214" x2="225.60000000000002" y2="214" />
    <line x1="225.60000000000002" y1="214" x2="234.00000000000003" y2="214" />
    <line x1="234" y1="214" x2="242.4" y2="214" />
    <line x1="242.4" y1="214" x2="246.6" y2="204" />
    <line x1="263.40000000000003" y1="204" x2="267.6" y2="214" />
    <line x1="267.6" y1="214" x2="276" y2="214" />
    <line x1="276" y1="214" x2="284.4" y2="214" />
    <line x1="284.40000000000003" y1="214" x2="292.8" y2="214" />
    <line x1="292.8" y1="214" x2="301.2" y2="214" />
    <line x1="301.2" y1="214" x2="309.59999999999997" y2="214" />
    <line x1="305.4" y1="214" x2="305.4" y2="224" />
    <line x1="309.6" y1="214" x2="318" y2="214" />
    <line x1="318" y1="214" x2="326.4" y2="214" />
    <line x1="326.40000000000003" y1="214" x2="334.8" y2="214" />
    <line x1="334.8" y1="214" x2="343.2" y2="214" />
    <line x1="343.2" y1="214" x2="347.4" y2="204" />
    <line x1="364.2" y1="204" x2="368.4" y2="214" />
    <line x1="368.40000000000003" y1="214" x2="376.8" y2="214" />
    <line x1="376.8" y1="214" x2="385.2" y2="214" />
    <line x1="385.2" y1="214" x2="393.59999999999997" y2="214" />
    <line x1="393.6" y1="214" x2="402" y2="214" />
    <line x1="402" y1="214" x2="410.4" y2="214" />
    <line x1="410.40000000000003" y1="214" x2="418.8" y2="214" />
    <line x1="418.8" y1="214" x2="427.2" y2="214" />
    <line x1="423" y1="214" x2="423" y2="224" />
    <line x1="427.20000000000005" y1="214" x2="435.6" y2="214" />
    <line x1="435.6" y1="214" x2="444" y2="214" />
    <line x1="444" y1="214" x2="452.4" y2="214" />
    <line x1="452.40000000000003" y1="214" x2="460.8" y2="214" />
    <line x1="460.8" y1="214" x2="469.2" y2="214" />
    <line x1="469.20000000000005" y1="214" x2="473.40000000000003" y2="204" />
    <line x1="196.2" y1="224" x2="196.2" y2="244" />
    <line x1="305.4" y1="224" x2="305.4" y2="244" />
    <line x1="423" y1="224" x2="423" y2="244" />
    <line x1="196.2" y1="264" x2="196.2" y2="284" />
    <line x1="145.8" y1="304" x2="150.00000000000003" y2="294" />
    <line x1="150" y1="294" x2="158.4" y2="294" />
    <line x1="158.4" y1="294" x2="166.8" y2="294" />
    <line x1="166.8" y1="294" x2="175.20000000000002" y2="294" />
    <line x1="175.20000000000002" y1="294" x2="183.60000000000002" y2="294" />
    <line x1="183.6" y1="294" x2="192" y2="294" />
    <line x1="192" y1="294" x2="200.4" y2="294" />
    <line x1="196.2" y1="284" x2="196.2" y2="294" />
    <line x1="200.4" y1="294" x2="208.8" y2="294" />
    <line x1="208.8" y1="294" x2="217.20000000000002" y2="294" />
    <line x1="217.20000000000002" y1="294" x2="225.60000000000002" y2="294" />
    <line x1="225.60000000000002" y1="294" x2="234.00000000000003" y2="294" />
    <line x1="234" y1="294" x2="242.4" y2="294" />
    <line x1="242.4" y1="294" x2="250.8" y2="294" />
    <line x1="250.8" y1="294" x2="259.2" y2="294" />
    <line x1="259.20000000000005" y1="294" x2="267.6" y2="294" />
    <line x1="267.6" y1="294" x2="276" y2="294" />
    <line x1="276" y1="294" x2="284.4" y2="294" />
    <line x1="284.40000000000003" y1="294" x2="292.8" y2="294" />
    <line x1="292.8" y1="294" x2="301.2" y2="294" />
    <line x1="301.2" y1="294" x2="309.59999999999997" y2="294" />
    <line x1="309.6" y1="294" x2="318" y2="294" />
    <line x1="318" y1="294" x2="326.4" y2="294" />
    <line x1="326.40000000000003" y1="294" x2="334.8" y2="294" />
    <line x1="334.8" y1="294" x2="343.2" y2="294" />
    <line x1="343.2" y1="294" x2="351.59999999999997" y2="294" />
    <line x1="351.6" y1="294" x2="360" y2="294" />
    <line x1="360" y1="294" x2="368.4" y2="294" />
    <line x1="368.40000000000003" y1="294" x2="376.8" y2="294" />
    <line x1="376.8" y1="294" x2="385.2" y2="294" />
    <line x1="385.2" y1="294" x2="393.59999999999997" y2="294" />
    <line x1="393.6" y1="294" x2="402" y2="294" />
    <line x1="402" y1="294" x2="410.4" y2="294" />
    <line x1="410.40000000000003" y1="294" x2="418.8" y2="294" />
    <line x1="418.8" y1="294" x2="423" y2="304" />
    <line x1="145.8" y1="304" x2="145.8" y2="324" />
    <line x1="171" y1="324" x2="175.20000000000002" y2="314" />
    <line x1="175.20000000000002" y1="314" x2="183.60000000000002" y2="314" />
    <line x1="183.6" y1="314" x2="192" y2="314" />
    <line x1="192" y1="314" x2="200.4" y2="314" />
    <line x1="200.4" y1="314" x2="208.8" y2="314" />
    <line x1="208.8" y1="314" x2="217.20000000000002" y2="314" />
    <line x1="217.20000000000002" y1="314" x2="221.4" y2="324" />
    <line x1="246.6" y1="324" x2="250.8" y2="314" />
    <line x1="250.8" y1="314" x2="259.2" y2="314" />
    <line x1="259.20000000000005" y1="314" x2="267.6" y2="314" />
    <line x1="267.6" y1="314" x2="276" y2="314" />
    <line x1="276" y1="314" x2="284.4" y2="314" />
    <line x1="284.40000000000003" y1="314" x2="292.8" y2="314" />
    <line x1="292.8" y1="314" x2="301.2" y2="314" />
    <line x1="301.2" y1="314" x2="309.59999999999997" y2="314" />
    <line x1="309.6" y1="314" x2="318" y2="314" />
    <line x1="318" y1="314" x2="322.2" y2="324" />
    <line x1="347.4" y1="324" x2="351.59999999999997" y2="314" />
    <line x1="351.6" y1="314" x2="360" y2="314" />
    <line x1="360" y1="314" x2="368.4" y2="314" />
    <line x1="368.40000000000003" y1="314" x2="376.8" y2="314" />
    <line x1="376.8" y1="314" x2="385.2" y2="314" />
    <line x1="385.2" y1="314" x2="393.59999999999997" y2="314" />
    <line x1="393.6" y1="314" x2="402" y2="314" />
    <line x1="402" y1="314" x2="406.2" y2="324" />
    <line x1="423" y1="304" x2="423" y2="324" />
    <line x1="145.8" y1="324" x2="145.8" y2="344" />
    <line x1="171" y1="324" x2="171" y2="344" />
    <line x1="221.4" y1="324" x2="221.4" y2="344" />
    <line x1="246.6" y1="324" x2="246.6" y2="344" />
    <line x1="322.2" y1="324" x2="322.2" y2="344" />
    <line x1="347.4" y1="324" x2="347.4" y2="344" />
    <line x1="406.2" y1="324" x2="406.2" y2="344" />
    <line x1="423" y1="324" x2="423" y2="344" />
    <line x1="145.8" y1="344" x2="145.8" y2="364" />
    <line x1="171" y1="344" x2="171" y2="364" />
    <line x1="221.4" y1="344" x2="221.4" y2="364" />
    <line x1="246.6" y1="344" x2="246.6" y2="364" />
    <line x1="322.2" y1="344" x2="322.2" y2="364" />
    <line x1="347.4" y1="344" x2="347.4" y2="364" />
    <line x1="414.6" y1="344" x2="414.6" y2="364" />
    <line x1="431.40000000000003" y1="344" x2="431.40000000000003" y2="364" />
    <line x1="145.8" y1="364" x2="145.8" y2="384" />
    <line x1="171" y1="364" x2="175.20000000000002" y2="374" />
    <line x1="175.20000000000002" y1="374" x2="183.60000000000002" y2="374" />
    <line x1="183.6" y1="374" x2="192" y2="374" />
    <line x1="192" y1="374" x2="200.4" y2="374" />
    <line x1="200.4" y1="374" x2="208.8" y2="374" />
    <line x1="208.8" y1="374" x2="217.20000000000002" y2="374" />
    <line x1="217.20000000000002" y1="374" x2="221.4" y2="364" />
    <line x1="246.6" y1="364" x2="250.8" y2="374" />
    <line x1="250.8" y1="374" x2="259.2" y2="374" />
    <line x1="259.20000000000005" y1="374" x2="267.6" y2="374" />
    <line x1="267.6" y1="374" x2="276" y2="374" />
    <line x1="276" y1="374" x2="284.4" y2="374" />
    <line x1="284.40000000000003" y1="374" x2="292.8" y2="374" />
    <line x1="292.8" y1="374" x2="301.2" y2="374" />
    <line x1="301.2" y1="374" x2="309.59999999999997" y2="374" />
    <line x1="309.6" y1="374" x2="318" y2="374" />
    <line x1="318" y1="374" x2="322.2" y2="364" />
    <line x1="347.4" y1="364" x2="351.59999999999997" y2="374" />
    <line x1="351.6" y1="374" x2="360" y2="374" />
    <line x1="360" y1="374" x2="368.4" y2="374" />
    <line x1="368.40000000000003" y1="374" x2="376.8" y2="374" />
    <line x1="376.8" y1="374" x2="385.2" y2="374" />
    <line x1="385.2" y1="374" x2="393.59999999999997" y2="374" />
    <line x1="393.6" y1="374" x2="402" y2="374" />
    <line x1="402" y1="374" x2="406.2" y2="364" />
    <line x1="423" y1="364" x2="423" y2="384" />
    <line x1="145.8" y1="384" x2="145.8" y2="404" />
    <line x1="431.40000000000003" y1="384" x2="431.40000000000003" y2="404" />
    <line x1="145.8" y1="404" x2="145.8" y2="424" />
    <line x1="171" y1="424" x2="175.20000000000002" y2="414" />
    <line x1="175.20000000000002" y1="414" x2="183.60000000000002" y2="414" />
    <line x1="183.6" y1="414" x2="192" y2="414" />
    <line x1="192" y1="414" x2="200.4" y2="414" />
    <line x1="200.4" y1="414" x2="208.8" y2="414" />
    <line x1="208.8" y1="414" x2="217.20000000000002" y2="414" />
    <line x1="217.20000000000002" y1="414" x2="225.60000000000002" y2="414" />
    <line x1="225.60000000000002" y1="414" x2="234.00000000000003" y2="414" />
    <line x1="234" y1="414" x2="242.4" y2="414" />
    <line x1="242.4" y1="414" x2="250.8" y2="414" />
    <line x1="250.8" y1="414" x2="259.2" y2="414" />
    <line x1="259.20000000000005" y1="414" x2="267.6" y2="414" />
    <line x1="267.6" y1="414" x2="276" y2="414" />
    <line x1="276" y1="414" x2="284.4" y2="414" />
    <line x1="284.40000000000003" y1="414" x2="292.8" y2="414" />
    <line x1="292.8" y1="414" x2="301.2" y2="414" />
    <line x1="301.2" y1="414" x2="309.59999999999997" y2="414" />
    <line x1="309.6" y1="414" x2="318" y2="414" />
    <line x1="318" y1="414" x2="326.4" y2="414" />
    <line x1="326.40000000000003" y1="414" x2="334.8" y2="414" />
    <line x1="334.8" y1="414" x2="343.2" y2="414" />
    <line x1="343.2" y1="414" x2="351.59999999999997" y2="414" />
    <line x1="351.6" y1="414" x2="360" y2="414" />
    <line x1="360" y1="414" x2="368.4" y2="414" />
    <line x1="368.40000000000003" y1="414" x2="376.8" y2="414" />
    <line x1="376.8" y1="414" x2="385.2" y2="414" />
    <line x1="385.2" y1="414" x2="393.59999999999997" y2="414" />
    <line x1="393.6" y1="414" x2="397.8" y2="424" />
    <line x1="431.40000000000003" y1="404" x2="431.40000000000003" y2="424" />
    <line x1="145.8" y1="424" x2="145.8" y2="444" />
    <line x1="171" y1="424" x2="171" y2="444" />
    <line x1="397.8" y1="424" x2="397.8" y2="444" />
    <line x1="431.40000000000003" y1="424" x2="431.40000000000003" y2="444" />
    <line x1="145.8" y1="444" x2="145.8" y2="464" />
    <line x1="171" y1="444" x2="171" y2="464" />
    <line x1="397.8" y1="444" x2="397.8" y2="464" />
    <line x1="431.40000000000003" y1="444" x2="431.40000000000003" y2="464" />
    <line x1="145.8" y1="464" x2="145.8" y2="484" />
    <line x1="171" y1="464" x2="171" y2="484" />
    <line x1="397.8" y1="464" x2="397.8" y2="484" />
    <line x1="431.40000000000003" y1="464" x2="431.40000000000003" y2="484" />
    <line x1="145.8" y1="484" x2="145.8" y2="504" />
    <line x1="171" y1="484" x2="175.20000000000002" y2="494" />
    <line x1="175.20000000000002" y1="494" x2="183.60000000000002" y2="494" />
    <line x1="183.6" y1="494" x2="192" y2="494" />
    <line x1="192" y1="494" x2="200.4" y2="494" />
    <line x1="200.4" y1="494" x2="208.8" y2="494" />
    <line x1="208.8" y1="494" x2="217.20000000000002" y2="494" />
    <line x1="217.20000000000002" y1="494" x2="225.60000000000002" y2="494" />
    <line x1="225.60000000000002" y1="494" x2="234.00000000000003" y2="494" />
    <line x1="234" y1="494" x2="242.4" y2="494" />
    <line x1="242.4" y1="494" x2="250.8" y2="494" />
    <line x1="250.8" y1="494" x2="259.2" y2="494" />
    <line x1="259.20000000000005" y1="494" x2="267.6" y2="494" />
    <line x1="267.6" y1="494" x2="276" y2="494" />
    <line x1="276" y1="494" x2="284.4" y2="494" />
    <line x1="284.40000000000003" y1="494" x2="292.8" y2="494" />
    <line x1="292.8" y1="494" x2="301.2" y2="494" />
    <line x1="301.2" y1="494" x2="309.59999999999997" y2="494" />
    <line x1="309.6" y1="494" x2="318" y2="494" />
    <line x1="318" y1="494" x2="326.4" y2="494" />
    <line x1="326.40000000000003" y1="494" x2="334.8" y2="494" />
    <line x1="334.8" y1="494" x2="343.2" y2="494" />
    <line x1="343.2" y1="494" x2="351.59999999999997" y2="494" />
    <line x1="351.6" y1="494" x2="360" y2="494" />
    <line x1="360" y1="494" x2="368.4" y2="494" />
    <line x1="368.40000000000003" y1="494" x2="376.8" y2="494" />
    <line x1="376.8" y1="494" x2="385.2" y2="494" />
    <line x1="385.2" y1="494" x2="393.59999999999997" y2="494" />
    <line x1="393.6" y1="494" x2="397.8" y2="484" />
    <line x1="431.40000000000003" y1="484" x2="431.40000000000003" y2="504" />
    <line x1="145.8" y1="504" x2="150.00000000000003" y2="514" />
    <line x1="150" y1="514" x2="158.4" y2="514" />
    <line x1="158.4" y1="514" x2="166.8" y2="514" />
    <line x1="166.8" y1="514" x2="175.20000000000002" y2="514" />
    <line x1="175.20000000000002" y1="514" x2="183.60000000000002" y2="514" />
    <line x1="183.6" y1="514" x2="192" y2="514" />
    <line x1="192" y1="514" x2="200.4" y2="514" />
    <line x1="200.4" y1="514" x2="208.8" y2="514" />
    <line x1="208.8" y1="514" x2="217.20000000000002" y2="514" />
    <line x1="217.20000000000002" y1="514" x2="225.60000000000002" y2="514" />
    <line x1="225.60000000000002" y1="514" x2="234.00000000000003" y2="514" />
    <line x1="234" y1="514" x2="242.4" y2="514" />
    <line x1="242.4" y1="514" x2="250.8" y2="514" />
    <line x1="250.8" y1="514" x2="259.2" y2="514" />
    <line x1="259.20000000000005" y1="514" x2="267.6" y2="514" />
    <line x1="267.6" y1="514" x2="276" y2="514" />
    <line x1="276" y1="514" x2="284.4" y2="514" />
    <line x1="284.40000000000003" y1="514" x2="292.8" y2="514" />
    <line x1="292.8" y1="514" x2="301.2" y2="514" />
    <line x1="301.2" y1="514" x2="309.59999999999997" y2="514" />
    <line x1="309.6" y1="514" x2="318" y2="514" />
    <line x1="318" y1="514" x2="326.4" y2="514" />
    <line x1="326.40000000000003" y1="514" x2="334.8" y2="514" />
    <line x1="334.8" y1="514" x2="343.2" y2="514" />
    <line x1="343.2" y1="514" x2="351.59999999999997" y2="514" />
    <line x1="351.6" y1="514" x2="360" y2="514" />
    <line x1="360" y1="514" x2="368.4" y2="514" />
    <line x1="368.40000000000003" y1="514" x2="376.8" y2="514" />
    <line x1="376.8" y1="514" x2="385.2" y2="514" />
    <line x1="385.2" y1="514" x2="393.59999999999997" y2="514" />
    <line x1="393.6" y1="514" x2="402" y2="514" />
    <line x1="402" y1="514" x2="410.4" y2="514" />
    <line x1="410.40000000000003" y1="514" x2="418.8" y2="514" />
    <line x1="418.8" y1="514" x2="427.2" y2="514" />
    <line x1="427.20000000000005" y1="514" x2="431.40000000000003" y2="504" />
  </g>
  <g>
    <text x="24" y="59" xml:space="preserve">                              Global DNS      </text>
    <text x="24" y="79" xml:space="preserve">                            (Geo-routing)     </text>
    <text x="24" y="199" xml:space="preserve">                US Region    EU Region   Asia Region  </text>
    <text x="24" y="259" xml:space="preserve">              (Each region has:)</text>
    <text x="24" y="339" xml:space="preserve">                   CDN     LB + App    Redis    </text>
    <text x="24" y="359" xml:space="preserve">                           ×5 nodes    Cluster   </text>
    <text x="24" y="439" xml:space="preserve">                    DB Shard (by hash of         </text>
    <text x="24" y="459" xml:space="preserve">                    short_code)                  </text>
    <text x="24" y="479" xml:space="preserve">                    Shard 1 | Shard 2 |...       </text>
    <text x="24" y="559" xml:space="preserve">  Changes:</text>
    <text x="24" y="579" xml:space="preserve">  - Sharded database by hash(short_code) % N</text>
    <text x="24" y="599" xml:space="preserve">  - Distributed ID generation (Snowflake-like) for unique short codes</text>
    <text x="24" y="619" xml:space="preserve">  - Multi-region deployment with geo-routing</text>
    <text x="24" y="639" xml:space="preserve">  - Redis Cluster (not just single Redis)</text>
    <text x="24" y="659" xml:space="preserve">  - Kafka for analytics events (don&apos;t block the redirect path)</text>
    <text x="24" y="699" xml:space="preserve">  Write path: Generate short code → Write to correct shard (async analytics via Kafka)</text>
    <text x="24" y="719" xml:space="preserve">  Read path:  CDN hit (60%) → Redis hit (35%) → DB hit (5%)</text>
    <text x="24" y="759" xml:space="preserve">  QPS: 100K reads/sec, 1K writes/sec</text>
    <text x="24" y="779" xml:space="preserve">  Storage: 1B URLs × 500 bytes = 500 GB (across shards)</text>
    <text x="24" y="799" xml:space="preserve">  Cost: $20,000-50,000/month</text>
  </g>
</svg>
