<?xml version="1.0" encoding="UTF-8"?>
<svg xmlns="http://www.w3.org/2000/svg" width="645" height="348" viewBox="0 0 645 348" role="img" aria-labelledby="title desc">
  <title id="title">Horizontal Scaling (Scale Out) diagram</title>
  <desc id="desc">Generated vector rendering of a documentation diagram.</desc>
  <defs>
    <style>
      .card { fill: #fbfcff; stroke: #cbd5e1; stroke-width: 1.2; }
      .segments { stroke: #0f172a; stroke-width: 1.8; stroke-linecap: round; }
      text {
        fill: #0f172a;
        font-family: "JetBrains Mono", "SFMono-Regular", Consolas, "Liberation Mono", monospace;
        font-size: 14px;
      }
    </style>
  </defs>
  <rect class="card" x="0.6" y="0.6" width="643.8" height="346.8" rx="16" />
  <g class="segments">
    <line x1="28.2" y1="64" x2="32.4" y2="54" />
    <line x1="32.4" y1="54" x2="40.8" y2="54" />
    <line x1="40.8" y1="54" x2="49.199999999999996" y2="54" />
    <line x1="49.2" y1="54" x2="57.6" y2="54" />
    <line x1="57.6" y1="54" x2="66" y2="54" />
    <line x1="66" y1="54" x2="74.4" y2="54" />
    <line x1="74.4" y1="54" x2="82.80000000000001" y2="54" />
    <line x1="82.80000000000001" y1="54" x2="91.20000000000002" y2="54" />
    <line x1="91.2" y1="54" x2="99.60000000000001" y2="54" />
    <line x1="99.60000000000001" y1="54" x2="108.00000000000001" y2="54" />
    <line x1="108" y1="54" x2="116.4" y2="54" />
    <line x1="116.4" y1="54" x2="124.80000000000001" y2="54" />
    <line x1="124.80000000000001" y1="54" x2="133.20000000000002" y2="54" />
    <line x1="133.2" y1="54" x2="141.6" y2="54" />
    <line x1="141.60000000000002" y1="54" x2="150.00000000000003" y2="54" />
    <line x1="150" y1="54" x2="154.2" y2="64" />
    <line x1="305.4" y1="64" x2="309.59999999999997" y2="54" />
    <line x1="309.6" y1="54" x2="318" y2="54" />
    <line x1="318" y1="54" x2="326.4" y2="54" />
    <line x1="326.40000000000003" y1="54" x2="334.8" y2="54" />
    <line x1="334.8" y1="54" x2="343.2" y2="54" />
    <line x1="343.2" y1="54" x2="351.59999999999997" y2="54" />
    <line x1="351.6" y1="54" x2="360" y2="54" />
    <line x1="360" y1="54" x2="368.4" y2="54" />
    <line x1="368.40000000000003" y1="54" x2="376.8" y2="54" />
    <line x1="376.8" y1="54" x2="385.2" y2="54" />
    <line x1="385.2" y1="54" x2="393.59999999999997" y2="54" />
    <line x1="393.6" y1="54" x2="397.8" y2="64" />
    <line x1="414.6" y1="64" x2="418.8" y2="54" />
    <line x1="418.8" y1="54" x2="427.2" y2="54" />
    <line x1="427.20000000000005" y1="54" x2="435.6" y2="54" />
    <line x1="435.6" y1="54" x2="444" y2="54" />
    <line x1="444" y1="54" x2="452.4" y2="54" />
    <line x1="452.40000000000003" y1="54" x2="460.8" y2="54" />
    <line x1="460.8" y1="54" x2="469.2" y2="54" />
    <line x1="469.20000000000005" y1="54" x2="477.6" y2="54" />
    <line x1="477.6" y1="54" x2="486" y2="54" />
    <line x1="486" y1="54" x2="494.4" y2="54" />
    <line x1="494.40000000000003" y1="54" x2="502.8" y2="54" />
    <line x1="502.8" y1="54" x2="507" y2="64" />
    <line x1="523.8000000000001" y1="64" x2="528" y2="54" />
    <line x1="528" y1="54" x2="536.4" y2="54" />
    <line x1="536.4" y1="54" x2="544.8" y2="54" />
    <line x1="544.8000000000001" y1="54" x2="553.2" y2="54" />
    <line x1="553.2" y1="54" x2="561.6" y2="54" />
    <line x1="561.6" y1="54" x2="570" y2="54" />
    <line x1="570" y1="54" x2="578.4" y2="54" />
    <line x1="578.4" y1="54" x2="586.8" y2="54" />
    <line x1="586.8000000000001" y1="54" x2="595.2" y2="54" />
    <line x1="595.2" y1="54" x2="603.6" y2="54" />
    <line x1="603.6" y1="54" x2="612" y2="54" />
    <line x1="612" y1="54" x2="616.2" y2="64" />
    <line x1="28.2" y1="64" x2="28.2" y2="84" />
    <line x1="154.2" y1="64" x2="154.2" y2="84" />
    <line x1="305.4" y1="64" x2="305.4" y2="84" />
    <line x1="397.8" y1="64" x2="397.8" y2="84" />
    <line x1="414.6" y1="64" x2="414.6" y2="84" />
    <line x1="507" y1="64" x2="507" y2="84" />
    <line x1="523.8000000000001" y1="64" x2="523.8000000000001" y2="84" />
    <line x1="616.2" y1="64" x2="616.2" y2="84" />
    <line x1="28.2" y1="84" x2="28.2" y2="104" />
    <line x1="154.2" y1="84" x2="154.2" y2="104" />
    <line x1="297" y1="84" x2="297" y2="104" />
    <line x1="389.4" y1="84" x2="389.4" y2="104" />
    <line x1="406.2" y1="84" x2="406.2" y2="104" />
    <line x1="498.6" y1="84" x2="498.6" y2="104" />
    <line x1="515.4000000000001" y1="84" x2="515.4000000000001" y2="104" />
    <line x1="607.8000000000001" y1="84" x2="607.8000000000001" y2="104" />
    <line x1="28.2" y1="104" x2="28.2" y2="124" />
    <line x1="154.2" y1="104" x2="154.2" y2="124" />
    <line x1="175.20000000000002" y1="114" x2="183.60000000000002" y2="114" />
    <line x1="183.6" y1="114" x2="192" y2="114" />
    <line x1="192" y1="114" x2="200.4" y2="114" />
    <line x1="200.4" y1="114" x2="208.8" y2="114" />
    <line x1="208.8" y1="114" x2="217.20000000000002" y2="114" />
    <line x1="217.20000000000002" y1="114" x2="225.60000000000002" y2="114" />
    <line x1="225.60000000000002" y1="114" x2="234.00000000000003" y2="114" />
    <line x1="234" y1="114" x2="242.4" y2="114" />
    <line x1="242.4" y1="114" x2="250.8" y2="114" />
    <line x1="250.8" y1="114" x2="259.2" y2="114" />
    <line x1="259.20000000000005" y1="114" x2="267.6" y2="114" />
    <line x1="297" y1="104" x2="297" y2="124" />
    <line x1="389.4" y1="104" x2="389.4" y2="124" />
    <line x1="406.2" y1="104" x2="406.2" y2="124" />
    <line x1="498.6" y1="104" x2="498.6" y2="124" />
    <line x1="515.4000000000001" y1="104" x2="515.4000000000001" y2="124" />
    <line x1="607.8000000000001" y1="104" x2="607.8000000000001" y2="124" />
    <line x1="28.2" y1="124" x2="28.2" y2="144" />
    <line x1="154.2" y1="124" x2="154.2" y2="144" />
    <line x1="297" y1="124" x2="297" y2="144" />
    <line x1="389.4" y1="124" x2="389.4" y2="144" />
    <line x1="406.2" y1="124" x2="406.2" y2="144" />
    <line x1="498.6" y1="124" x2="498.6" y2="144" />
    <line x1="515.4000000000001" y1="124" x2="515.4000000000001" y2="144" />
    <line x1="607.8000000000001" y1="124" x2="607.8000000000001" y2="144" />
    <line x1="28.2" y1="144" x2="28.2" y2="164" />
    <line x1="154.2" y1="144" x2="154.2" y2="164" />
    <line x1="297" y1="144" x2="301.2" y2="154" />
    <line x1="301.2" y1="154" x2="309.59999999999997" y2="154" />
    <line x1="309.6" y1="154" x2="318" y2="154" />
    <line x1="318" y1="154" x2="326.4" y2="154" />
    <line x1="326.40000000000003" y1="154" x2="334.8" y2="154" />
    <line x1="334.8" y1="154" x2="343.2" y2="154" />
    <line x1="343.2" y1="154" x2="351.59999999999997" y2="154" />
    <line x1="351.6" y1="154" x2="360" y2="154" />
    <line x1="360" y1="154" x2="368.4" y2="154" />
    <line x1="368.40000000000003" y1="154" x2="376.8" y2="154" />
    <line x1="376.8" y1="154" x2="385.2" y2="154" />
    <line x1="385.2" y1="154" x2="389.4" y2="144" />
    <line x1="406.2" y1="144" x2="410.4" y2="154" />
    <line x1="410.40000000000003" y1="154" x2="418.8" y2="154" />
    <line x1="418.8" y1="154" x2="427.2" y2="154" />
    <line x1="427.20000000000005" y1="154" x2="435.6" y2="154" />
    <line x1="435.6" y1="154" x2="444" y2="154" />
    <line x1="444" y1="154" x2="452.4" y2="154" />
    <line x1="452.40000000000003" y1="154" x2="460.8" y2="154" />
    <line x1="460.8" y1="154" x2="469.2" y2="154" />
    <line x1="469.20000000000005" y1="154" x2="477.6" y2="154" />
    <line x1="477.6" y1="154" x2="486" y2="154" />
    <line x1="486" y1="154" x2="494.4" y2="154" />
    <line x1="494.40000000000003" y1="154" x2="498.6" y2="144" />
    <line x1="515.4000000000001" y1="144" x2="519.6" y2="154" />
    <line x1="519.6" y1="154" x2="528" y2="154" />
    <line x1="528" y1="154" x2="536.4" y2="154" />
    <line x1="536.4" y1="154" x2="544.8" y2="154" />
    <line x1="544.8000000000001" y1="154" x2="553.2" y2="154" />
    <line x1="553.2" y1="154" x2="561.6" y2="154" />
    <line x1="561.6" y1="154" x2="570" y2="154" />
    <line x1="570" y1="154" x2="578.4" y2="154" />
    <line x1="578.4" y1="154" x2="586.8" y2="154" />
    <line x1="586.8000000000001" y1="154" x2="595.2" y2="154" />
    <line x1="595.2" y1="154" x2="603.6" y2="154" />
    <line x1="603.6" y1="154" x2="607.8000000000001" y2="144" />
    <line x1="28.2" y1="164" x2="32.4" y2="174" />
    <line x1="32.4" y1="174" x2="40.8" y2="174" />
    <line x1="40.8" y1="174" x2="49.199999999999996" y2="174" />
    <line x1="49.2" y1="174" x2="57.6" y2="174" />
    <line x1="57.6" y1="174" x2="66" y2="174" />
    <line x1="66" y1="174" x2="74.4" y2="174" />
    <line x1="74.4" y1="174" x2="82.80000000000001" y2="174" />
    <line x1="82.80000000000001" y1="174" x2="91.20000000000002" y2="174" />
    <line x1="91.2" y1="174" x2="99.60000000000001" y2="174" />
    <line x1="99.60000000000001" y1="174" x2="108.00000000000001" y2="174" />
    <line x1="108" y1="174" x2="116.4" y2="174" />
    <line x1="116.4" y1="174" x2="124.80000000000001" y2="174" />
    <line x1="124.80000000000001" y1="174" x2="133.20000000000002" y2="174" />
    <line x1="133.2" y1="174" x2="141.6" y2="174" />
    <line x1="141.60000000000002" y1="174" x2="150.00000000000003" y2="174" />
    <line x1="150" y1="174" x2="154.2" y2="164" />
    <line x1="339" y1="184" x2="343.2" y2="194" />
    <line x1="343.2" y1="194" x2="351.59999999999997" y2="194" />
    <line x1="351.6" y1="194" x2="360" y2="194" />
    <line x1="360" y1="194" x2="368.4" y2="194" />
    <line x1="368.40000000000003" y1="194" x2="376.8" y2="194" />
    <line x1="376.8" y1="194" x2="385.2" y2="194" />
    <line x1="385.2" y1="194" x2="393.59999999999997" y2="194" />
    <line x1="393.6" y1="194" x2="402" y2="194" />
    <line x1="402" y1="194" x2="410.4" y2="194" />
    <line x1="410.40000000000003" y1="194" x2="418.8" y2="194" />
    <line x1="418.8" y1="194" x2="427.2" y2="194" />
    <line x1="427.20000000000005" y1="194" x2="435.6" y2="194" />
    <line x1="435.6" y1="194" x2="444" y2="194" />
    <line x1="444" y1="194" x2="452.4" y2="194" />
    <line x1="448.2" y1="184" x2="448.2" y2="204" />
    <line x1="452.40000000000003" y1="194" x2="460.8" y2="194" />
    <line x1="460.8" y1="194" x2="469.2" y2="194" />
    <line x1="469.20000000000005" y1="194" x2="477.6" y2="194" />
    <line x1="477.6" y1="194" x2="486" y2="194" />
    <line x1="486" y1="194" x2="494.4" y2="194" />
    <line x1="494.40000000000003" y1="194" x2="502.8" y2="194" />
    <line x1="502.8" y1="194" x2="511.2" y2="194" />
    <line x1="511.20000000000005" y1="194" x2="519.6" y2="194" />
    <line x1="519.6" y1="194" x2="528" y2="194" />
    <line x1="528" y1="194" x2="536.4" y2="194" />
    <line x1="536.4" y1="194" x2="544.8" y2="194" />
    <line x1="544.8000000000001" y1="194" x2="553.2" y2="194" />
    <line x1="553.2" y1="194" x2="557.4000000000001" y2="184" />
    <line x1="397.8" y1="224" x2="402" y2="214" />
    <line x1="402" y1="214" x2="410.4" y2="214" />
    <line x1="410.40000000000003" y1="214" x2="418.8" y2="214" />
    <line x1="418.8" y1="214" x2="427.2" y2="214" />
    <line x1="427.20000000000005" y1="214" x2="435.6" y2="214" />
    <line x1="435.6" y1="214" x2="444" y2="214" />
    <line x1="444" y1="214" x2="452.4" y2="214" />
    <line x1="448.2" y1="204" x2="448.2" y2="214" />
    <line x1="452.40000000000003" y1="214" x2="460.8" y2="214" />
    <line x1="460.8" y1="214" x2="469.2" y2="214" />
    <line x1="469.20000000000005" y1="214" x2="477.6" y2="214" />
    <line x1="477.6" y1="214" x2="486" y2="214" />
    <line x1="486" y1="214" x2="494.4" y2="214" />
    <line x1="494.40000000000003" y1="214" x2="498.6" y2="224" />
    <line x1="397.8" y1="224" x2="397.8" y2="244" />
    <line x1="498.6" y1="224" x2="498.6" y2="244" />
    <line x1="397.8" y1="244" x2="397.8" y2="264" />
    <line x1="498.6" y1="244" x2="498.6" y2="264" />
    <line x1="397.8" y1="264" x2="402" y2="274" />
    <line x1="402" y1="274" x2="410.4" y2="274" />
    <line x1="410.40000000000003" y1="274" x2="418.8" y2="274" />
    <line x1="418.8" y1="274" x2="427.2" y2="274" />
    <line x1="427.20000000000005" y1="274" x2="435.6" y2="274" />
    <line x1="435.6" y1="274" x2="444" y2="274" />
    <line x1="444" y1="274" x2="452.4" y2="274" />
    <line x1="452.40000000000003" y1="274" x2="460.8" y2="274" />
    <line x1="460.8" y1="274" x2="469.2" y2="274" />
    <line x1="469.20000000000005" y1="274" x2="477.6" y2="274" />
    <line x1="477.6" y1="274" x2="486" y2="274" />
    <line x1="486" y1="274" x2="494.4" y2="274" />
    <line x1="494.40000000000003" y1="274" x2="498.6" y2="264" />
  </g>
  <g>
    <text x="24" y="39" xml:space="preserve">BEFORE:                          AFTER:</text>
    <text x="24" y="79" xml:space="preserve">    Server                         Server 1     Server 2     Server 3  </text>
    <text x="24" y="99" xml:space="preserve">    4 CPU            Scale         4 CPU        4 CPU        4 CPU    </text>
    <text x="24" y="119" xml:space="preserve">    16 GB RAM                ►    16GB RAM     16GB RAM     16GB RAM  </text>
    <text x="24" y="139" xml:space="preserve">    Handles           Out                                             </text>
    <text x="24" y="159" xml:space="preserve">    1K QPS                                                            </text>
    <text x="24" y="179" xml:space="preserve">                                     ▲            ▲            ▲</text>
    <text x="24" y="239" xml:space="preserve">                                                 Load    </text>
    <text x="24" y="259" xml:space="preserve">                                               Balancer  </text>
    <text x="24" y="299" xml:space="preserve">                                           Total: 3K QPS</text>
    <text x="24" y="319" xml:space="preserve">                                           Cost: $300/month</text>
  </g>
</svg>
