<?xml version="1.0" encoding="UTF-8"?>
<svg xmlns="http://www.w3.org/2000/svg" width="586" height="228" viewBox="0 0 586 228" role="img" aria-labelledby="title desc">
  <title id="title">Gateway Timeout Strategy diagram</title>
  <desc id="desc">Generated vector rendering of a documentation diagram.</desc>
  <defs>
    <style>
      .card { fill: #fbfcff; stroke: #cbd5e1; stroke-width: 1.2; }
      .segments { stroke: #0f172a; stroke-width: 1.8; stroke-linecap: round; }
      text {
        fill: #0f172a;
        font-family: "JetBrains Mono", "SFMono-Regular", Consolas, "Liberation Mono", monospace;
        font-size: 14px;
      }
    </style>
  </defs>
  <rect class="card" x="0.6" y="0.6" width="584.8" height="226.8" rx="16" />
  <g class="segments">
    <line x1="82.80000000000001" y1="34" x2="91.20000000000002" y2="34" />
    <line x1="91.2" y1="34" x2="99.60000000000001" y2="34" />
    <line x1="208.8" y1="34" x2="217.20000000000002" y2="34" />
    <line x1="217.20000000000002" y1="34" x2="225.60000000000002" y2="34" />
    <line x1="309.6" y1="34" x2="318" y2="34" />
    <line x1="318" y1="34" x2="326.4" y2="34" />
    <line x1="427.20000000000005" y1="34" x2="435.6" y2="34" />
    <line x1="435.6" y1="34" x2="444" y2="34" />
    <line x1="309.6" y1="54" x2="318" y2="54" />
    <line x1="318" y1="54" x2="326.4" y2="54" />
    <line x1="427.20000000000005" y1="54" x2="435.6" y2="54" />
    <line x1="435.6" y1="54" x2="444" y2="54" />
    <line x1="309.6" y1="74" x2="318" y2="74" />
    <line x1="318" y1="74" x2="326.4" y2="74" />
    <line x1="427.20000000000005" y1="74" x2="435.6" y2="74" />
    <line x1="435.6" y1="74" x2="444" y2="74" />
  </g>
  <g>
    <text x="24" y="39" xml:space="preserve">Client   [10s timeout]  ► Gateway   [5s timeout]  ► Service A</text>
    <text x="24" y="59" xml:space="preserve">                                    [3s timeout]  ► Service B</text>
    <text x="24" y="79" xml:space="preserve">                                    [2s timeout]  ► Service C</text>
    <text x="24" y="119" xml:space="preserve">Rules:</text>
    <text x="24" y="139" xml:space="preserve">  • Gateway timeout &lt; Client timeout</text>
    <text x="24" y="159" xml:space="preserve">  • Individual service timeout &lt; Gateway timeout</text>
    <text x="24" y="179" xml:space="preserve">  • Set different timeouts per service based on expected latency</text>
    <text x="24" y="199" xml:space="preserve">  • Return partial response if some services timeout</text>
  </g>
</svg>
