<?xml version="1.0" encoding="UTF-8"?>
<svg xmlns="http://www.w3.org/2000/svg" width="695" height="568" viewBox="0 0 695 568" role="img" aria-labelledby="title desc">
  <title id="title">Multi-Layer Caching Strategy diagram</title>
  <desc id="desc">Generated vector rendering of a documentation diagram.</desc>
  <defs>
    <style>
      .card { fill: #fbfcff; stroke: #cbd5e1; stroke-width: 1.2; }
      .segments { stroke: #0f172a; stroke-width: 1.8; stroke-linecap: round; }
      text {
        fill: #0f172a;
        font-family: "JetBrains Mono", "SFMono-Regular", Consolas, "Liberation Mono", monospace;
        font-size: 14px;
      }
    </style>
  </defs>
  <rect class="card" x="0.6" y="0.6" width="693.8" height="566.8" rx="16" />
  <g class="segments">
    <line x1="45" y1="84" x2="49.199999999999996" y2="74" />
    <line x1="49.2" y1="74" x2="57.6" y2="74" />
    <line x1="57.6" y1="74" x2="66" y2="74" />
    <line x1="66" y1="74" x2="74.4" y2="74" />
    <line x1="74.4" y1="74" x2="82.80000000000001" y2="74" />
    <line x1="82.80000000000001" y1="74" x2="91.20000000000002" y2="74" />
    <line x1="91.2" y1="74" x2="99.60000000000001" y2="74" />
    <line x1="99.60000000000001" y1="74" x2="108.00000000000001" y2="74" />
    <line x1="108" y1="74" x2="116.4" y2="74" />
    <line x1="116.4" y1="74" x2="124.80000000000001" y2="74" />
    <line x1="124.80000000000001" y1="74" x2="133.20000000000002" y2="74" />
    <line x1="133.2" y1="74" x2="141.6" y2="74" />
    <line x1="141.60000000000002" y1="74" x2="150.00000000000003" y2="74" />
    <line x1="150" y1="74" x2="158.4" y2="74" />
    <line x1="158.4" y1="74" x2="166.8" y2="74" />
    <line x1="166.8" y1="74" x2="175.20000000000002" y2="74" />
    <line x1="175.20000000000002" y1="74" x2="183.60000000000002" y2="74" />
    <line x1="183.6" y1="74" x2="192" y2="74" />
    <line x1="192" y1="74" x2="200.4" y2="74" />
    <line x1="200.4" y1="74" x2="208.8" y2="74" />
    <line x1="208.8" y1="74" x2="217.20000000000002" y2="74" />
    <line x1="217.20000000000002" y1="74" x2="225.60000000000002" y2="74" />
    <line x1="225.60000000000002" y1="74" x2="234.00000000000003" y2="74" />
    <line x1="234" y1="74" x2="242.4" y2="74" />
    <line x1="242.4" y1="74" x2="250.8" y2="74" />
    <line x1="250.8" y1="74" x2="259.2" y2="74" />
    <line x1="259.20000000000005" y1="74" x2="267.6" y2="74" />
    <line x1="267.6" y1="74" x2="276" y2="74" />
    <line x1="276" y1="74" x2="284.4" y2="74" />
    <line x1="284.40000000000003" y1="74" x2="292.8" y2="74" />
    <line x1="292.8" y1="74" x2="301.2" y2="74" />
    <line x1="301.2" y1="74" x2="309.59999999999997" y2="74" />
    <line x1="309.6" y1="74" x2="318" y2="74" />
    <line x1="318" y1="74" x2="326.4" y2="74" />
    <line x1="326.40000000000003" y1="74" x2="334.8" y2="74" />
    <line x1="334.8" y1="74" x2="343.2" y2="74" />
    <line x1="343.2" y1="74" x2="351.59999999999997" y2="74" />
    <line x1="351.6" y1="74" x2="360" y2="74" />
    <line x1="360" y1="74" x2="368.4" y2="74" />
    <line x1="368.40000000000003" y1="74" x2="376.8" y2="74" />
    <line x1="376.8" y1="74" x2="385.2" y2="74" />
    <line x1="385.2" y1="74" x2="393.59999999999997" y2="74" />
    <line x1="393.6" y1="74" x2="402" y2="74" />
    <line x1="402" y1="74" x2="410.4" y2="74" />
    <line x1="410.40000000000003" y1="74" x2="418.8" y2="74" />
    <line x1="418.8" y1="74" x2="427.2" y2="74" />
    <line x1="427.20000000000005" y1="74" x2="431.40000000000003" y2="84" />
    <line x1="45" y1="84" x2="45" y2="104" />
    <line x1="431.40000000000003" y1="84" x2="431.40000000000003" y2="104" />
    <line x1="45" y1="104" x2="45" y2="124" />
    <line x1="431.40000000000003" y1="104" x2="431.40000000000003" y2="124" />
    <line x1="45" y1="124" x2="45" y2="144" />
    <line x1="431.40000000000003" y1="124" x2="431.40000000000003" y2="144" />
    <line x1="45" y1="144" x2="45" y2="164" />
    <line x1="45" y1="154" x2="49.199999999999996" y2="154" />
    <line x1="49.2" y1="154" x2="57.6" y2="154" />
    <line x1="57.6" y1="154" x2="66" y2="154" />
    <line x1="66" y1="154" x2="74.4" y2="154" />
    <line x1="74.4" y1="154" x2="82.80000000000001" y2="154" />
    <line x1="82.80000000000001" y1="154" x2="91.20000000000002" y2="154" />
    <line x1="91.2" y1="154" x2="99.60000000000001" y2="154" />
    <line x1="99.60000000000001" y1="154" x2="108.00000000000001" y2="154" />
    <line x1="108" y1="154" x2="116.4" y2="154" />
    <line x1="116.4" y1="154" x2="124.80000000000001" y2="154" />
    <line x1="124.80000000000001" y1="154" x2="133.20000000000002" y2="154" />
    <line x1="133.2" y1="154" x2="141.6" y2="154" />
    <line x1="141.60000000000002" y1="154" x2="150.00000000000003" y2="154" />
    <line x1="150" y1="154" x2="158.4" y2="154" />
    <line x1="158.4" y1="154" x2="166.8" y2="154" />
    <line x1="166.8" y1="154" x2="175.20000000000002" y2="154" />
    <line x1="175.20000000000002" y1="154" x2="183.60000000000002" y2="154" />
    <line x1="183.6" y1="154" x2="192" y2="154" />
    <line x1="192" y1="154" x2="200.4" y2="154" />
    <line x1="200.4" y1="154" x2="208.8" y2="154" />
    <line x1="208.8" y1="154" x2="217.20000000000002" y2="154" />
    <line x1="217.20000000000002" y1="154" x2="225.60000000000002" y2="154" />
    <line x1="225.60000000000002" y1="154" x2="234.00000000000003" y2="154" />
    <line x1="234" y1="154" x2="242.4" y2="154" />
    <line x1="242.4" y1="154" x2="250.8" y2="154" />
    <line x1="250.8" y1="154" x2="259.2" y2="154" />
    <line x1="259.20000000000005" y1="154" x2="267.6" y2="154" />
    <line x1="267.6" y1="154" x2="276" y2="154" />
    <line x1="276" y1="154" x2="284.4" y2="154" />
    <line x1="284.40000000000003" y1="154" x2="292.8" y2="154" />
    <line x1="292.8" y1="154" x2="301.2" y2="154" />
    <line x1="301.2" y1="154" x2="309.59999999999997" y2="154" />
    <line x1="309.6" y1="154" x2="318" y2="154" />
    <line x1="318" y1="154" x2="326.4" y2="154" />
    <line x1="326.40000000000003" y1="154" x2="334.8" y2="154" />
    <line x1="334.8" y1="154" x2="343.2" y2="154" />
    <line x1="343.2" y1="154" x2="351.59999999999997" y2="154" />
    <line x1="351.6" y1="154" x2="360" y2="154" />
    <line x1="360" y1="154" x2="368.4" y2="154" />
    <line x1="368.40000000000003" y1="154" x2="376.8" y2="154" />
    <line x1="376.8" y1="154" x2="385.2" y2="154" />
    <line x1="385.2" y1="154" x2="393.59999999999997" y2="154" />
    <line x1="393.6" y1="154" x2="402" y2="154" />
    <line x1="402" y1="154" x2="410.4" y2="154" />
    <line x1="410.40000000000003" y1="154" x2="418.8" y2="154" />
    <line x1="418.8" y1="154" x2="427.2" y2="154" />
    <line x1="431.40000000000003" y1="144" x2="431.40000000000003" y2="164" />
    <line x1="427.20000000000005" y1="154" x2="431.40000000000003" y2="154" />
    <line x1="45" y1="164" x2="45" y2="184" />
    <line x1="431.40000000000003" y1="164" x2="431.40000000000003" y2="184" />
    <line x1="45" y1="184" x2="45" y2="204" />
    <line x1="431.40000000000003" y1="184" x2="431.40000000000003" y2="204" />
    <line x1="45" y1="204" x2="45" y2="224" />
    <line x1="431.40000000000003" y1="204" x2="431.40000000000003" y2="224" />
    <line x1="45" y1="224" x2="45" y2="244" />
    <line x1="45" y1="234" x2="49.199999999999996" y2="234" />
    <line x1="49.2" y1="234" x2="57.6" y2="234" />
    <line x1="57.6" y1="234" x2="66" y2="234" />
    <line x1="66" y1="234" x2="74.4" y2="234" />
    <line x1="74.4" y1="234" x2="82.80000000000001" y2="234" />
    <line x1="82.80000000000001" y1="234" x2="91.20000000000002" y2="234" />
    <line x1="91.2" y1="234" x2="99.60000000000001" y2="234" />
    <line x1="99.60000000000001" y1="234" x2="108.00000000000001" y2="234" />
    <line x1="108" y1="234" x2="116.4" y2="234" />
    <line x1="116.4" y1="234" x2="124.80000000000001" y2="234" />
    <line x1="124.80000000000001" y1="234" x2="133.20000000000002" y2="234" />
    <line x1="133.2" y1="234" x2="141.6" y2="234" />
    <line x1="141.60000000000002" y1="234" x2="150.00000000000003" y2="234" />
    <line x1="150" y1="234" x2="158.4" y2="234" />
    <line x1="158.4" y1="234" x2="166.8" y2="234" />
    <line x1="166.8" y1="234" x2="175.20000000000002" y2="234" />
    <line x1="175.20000000000002" y1="234" x2="183.60000000000002" y2="234" />
    <line x1="183.6" y1="234" x2="192" y2="234" />
    <line x1="192" y1="234" x2="200.4" y2="234" />
    <line x1="200.4" y1="234" x2="208.8" y2="234" />
    <line x1="208.8" y1="234" x2="217.20000000000002" y2="234" />
    <line x1="217.20000000000002" y1="234" x2="225.60000000000002" y2="234" />
    <line x1="225.60000000000002" y1="234" x2="234.00000000000003" y2="234" />
    <line x1="234" y1="234" x2="242.4" y2="234" />
    <line x1="242.4" y1="234" x2="250.8" y2="234" />
    <line x1="250.8" y1="234" x2="259.2" y2="234" />
    <line x1="259.20000000000005" y1="234" x2="267.6" y2="234" />
    <line x1="267.6" y1="234" x2="276" y2="234" />
    <line x1="276" y1="234" x2="284.4" y2="234" />
    <line x1="284.40000000000003" y1="234" x2="292.8" y2="234" />
    <line x1="292.8" y1="234" x2="301.2" y2="234" />
    <line x1="301.2" y1="234" x2="309.59999999999997" y2="234" />
    <line x1="309.6" y1="234" x2="318" y2="234" />
    <line x1="318" y1="234" x2="326.4" y2="234" />
    <line x1="326.40000000000003" y1="234" x2="334.8" y2="234" />
    <line x1="334.8" y1="234" x2="343.2" y2="234" />
    <line x1="343.2" y1="234" x2="351.59999999999997" y2="234" />
    <line x1="351.6" y1="234" x2="360" y2="234" />
    <line x1="360" y1="234" x2="368.4" y2="234" />
    <line x1="368.40000000000003" y1="234" x2="376.8" y2="234" />
    <line x1="376.8" y1="234" x2="385.2" y2="234" />
    <line x1="385.2" y1="234" x2="393.59999999999997" y2="234" />
    <line x1="393.6" y1="234" x2="402" y2="234" />
    <line x1="402" y1="234" x2="410.4" y2="234" />
    <line x1="410.40000000000003" y1="234" x2="418.8" y2="234" />
    <line x1="418.8" y1="234" x2="427.2" y2="234" />
    <line x1="431.40000000000003" y1="224" x2="431.40000000000003" y2="244" />
    <line x1="427.20000000000005" y1="234" x2="431.40000000000003" y2="234" />
    <line x1="45" y1="244" x2="45" y2="264" />
    <line x1="431.40000000000003" y1="244" x2="431.40000000000003" y2="264" />
    <line x1="45" y1="264" x2="45" y2="284" />
    <line x1="431.40000000000003" y1="264" x2="431.40000000000003" y2="284" />
    <line x1="45" y1="284" x2="45" y2="304" />
    <line x1="431.40000000000003" y1="284" x2="431.40000000000003" y2="304" />
    <line x1="45" y1="304" x2="45" y2="324" />
    <line x1="45" y1="314" x2="49.199999999999996" y2="314" />
    <line x1="49.2" y1="314" x2="57.6" y2="314" />
    <line x1="57.6" y1="314" x2="66" y2="314" />
    <line x1="66" y1="314" x2="74.4" y2="314" />
    <line x1="74.4" y1="314" x2="82.80000000000001" y2="314" />
    <line x1="82.80000000000001" y1="314" x2="91.20000000000002" y2="314" />
    <line x1="91.2" y1="314" x2="99.60000000000001" y2="314" />
    <line x1="99.60000000000001" y1="314" x2="108.00000000000001" y2="314" />
    <line x1="108" y1="314" x2="116.4" y2="314" />
    <line x1="116.4" y1="314" x2="124.80000000000001" y2="314" />
    <line x1="124.80000000000001" y1="314" x2="133.20000000000002" y2="314" />
    <line x1="133.2" y1="314" x2="141.6" y2="314" />
    <line x1="141.60000000000002" y1="314" x2="150.00000000000003" y2="314" />
    <line x1="150" y1="314" x2="158.4" y2="314" />
    <line x1="158.4" y1="314" x2="166.8" y2="314" />
    <line x1="166.8" y1="314" x2="175.20000000000002" y2="314" />
    <line x1="175.20000000000002" y1="314" x2="183.60000000000002" y2="314" />
    <line x1="183.6" y1="314" x2="192" y2="314" />
    <line x1="192" y1="314" x2="200.4" y2="314" />
    <line x1="200.4" y1="314" x2="208.8" y2="314" />
    <line x1="208.8" y1="314" x2="217.20000000000002" y2="314" />
    <line x1="217.20000000000002" y1="314" x2="225.60000000000002" y2="314" />
    <line x1="225.60000000000002" y1="314" x2="234.00000000000003" y2="314" />
    <line x1="234" y1="314" x2="242.4" y2="314" />
    <line x1="242.4" y1="314" x2="250.8" y2="314" />
    <line x1="250.8" y1="314" x2="259.2" y2="314" />
    <line x1="259.20000000000005" y1="314" x2="267.6" y2="314" />
    <line x1="267.6" y1="314" x2="276" y2="314" />
    <line x1="276" y1="314" x2="284.4" y2="314" />
    <line x1="284.40000000000003" y1="314" x2="292.8" y2="314" />
    <line x1="292.8" y1="314" x2="301.2" y2="314" />
    <line x1="301.2" y1="314" x2="309.59999999999997" y2="314" />
    <line x1="309.6" y1="314" x2="318" y2="314" />
    <line x1="318" y1="314" x2="326.4" y2="314" />
    <line x1="326.40000000000003" y1="314" x2="334.8" y2="314" />
    <line x1="334.8" y1="314" x2="343.2" y2="314" />
    <line x1="343.2" y1="314" x2="351.59999999999997" y2="314" />
    <line x1="351.6" y1="314" x2="360" y2="314" />
    <line x1="360" y1="314" x2="368.4" y2="314" />
    <line x1="368.40000000000003" y1="314" x2="376.8" y2="314" />
    <line x1="376.8" y1="314" x2="385.2" y2="314" />
    <line x1="385.2" y1="314" x2="393.59999999999997" y2="314" />
    <line x1="393.6" y1="314" x2="402" y2="314" />
    <line x1="402" y1="314" x2="410.4" y2="314" />
    <line x1="410.40000000000003" y1="314" x2="418.8" y2="314" />
    <line x1="418.8" y1="314" x2="427.2" y2="314" />
    <line x1="431.40000000000003" y1="304" x2="431.40000000000003" y2="324" />
    <line x1="427.20000000000005" y1="314" x2="431.40000000000003" y2="314" />
    <line x1="45" y1="324" x2="45" y2="344" />
    <line x1="431.40000000000003" y1="324" x2="431.40000000000003" y2="344" />
    <line x1="45" y1="344" x2="45" y2="364" />
    <line x1="431.40000000000003" y1="344" x2="431.40000000000003" y2="364" />
    <line x1="45" y1="364" x2="49.199999999999996" y2="374" />
    <line x1="49.2" y1="374" x2="57.6" y2="374" />
    <line x1="57.6" y1="374" x2="66" y2="374" />
    <line x1="66" y1="374" x2="74.4" y2="374" />
    <line x1="74.4" y1="374" x2="82.80000000000001" y2="374" />
    <line x1="82.80000000000001" y1="374" x2="91.20000000000002" y2="374" />
    <line x1="91.2" y1="374" x2="99.60000000000001" y2="374" />
    <line x1="99.60000000000001" y1="374" x2="108.00000000000001" y2="374" />
    <line x1="108" y1="374" x2="116.4" y2="374" />
    <line x1="116.4" y1="374" x2="124.80000000000001" y2="374" />
    <line x1="124.80000000000001" y1="374" x2="133.20000000000002" y2="374" />
    <line x1="133.2" y1="374" x2="141.6" y2="374" />
    <line x1="141.60000000000002" y1="374" x2="150.00000000000003" y2="374" />
    <line x1="150" y1="374" x2="158.4" y2="374" />
    <line x1="158.4" y1="374" x2="166.8" y2="374" />
    <line x1="166.8" y1="374" x2="175.20000000000002" y2="374" />
    <line x1="175.20000000000002" y1="374" x2="183.60000000000002" y2="374" />
    <line x1="183.6" y1="374" x2="192" y2="374" />
    <line x1="192" y1="374" x2="200.4" y2="374" />
    <line x1="200.4" y1="374" x2="208.8" y2="374" />
    <line x1="208.8" y1="374" x2="217.20000000000002" y2="374" />
    <line x1="217.20000000000002" y1="374" x2="225.60000000000002" y2="374" />
    <line x1="225.60000000000002" y1="374" x2="234.00000000000003" y2="374" />
    <line x1="234" y1="374" x2="242.4" y2="374" />
    <line x1="242.4" y1="374" x2="250.8" y2="374" />
    <line x1="250.8" y1="374" x2="259.2" y2="374" />
    <line x1="259.20000000000005" y1="374" x2="267.6" y2="374" />
    <line x1="267.6" y1="374" x2="276" y2="374" />
    <line x1="276" y1="374" x2="284.4" y2="374" />
    <line x1="284.40000000000003" y1="374" x2="292.8" y2="374" />
    <line x1="292.8" y1="374" x2="301.2" y2="374" />
    <line x1="301.2" y1="374" x2="309.59999999999997" y2="374" />
    <line x1="309.6" y1="374" x2="318" y2="374" />
    <line x1="318" y1="374" x2="326.4" y2="374" />
    <line x1="326.40000000000003" y1="374" x2="334.8" y2="374" />
    <line x1="334.8" y1="374" x2="343.2" y2="374" />
    <line x1="343.2" y1="374" x2="351.59999999999997" y2="374" />
    <line x1="351.6" y1="374" x2="360" y2="374" />
    <line x1="360" y1="374" x2="368.4" y2="374" />
    <line x1="368.40000000000003" y1="374" x2="376.8" y2="374" />
    <line x1="376.8" y1="374" x2="385.2" y2="374" />
    <line x1="385.2" y1="374" x2="393.59999999999997" y2="374" />
    <line x1="393.6" y1="374" x2="402" y2="374" />
    <line x1="402" y1="374" x2="410.4" y2="374" />
    <line x1="410.40000000000003" y1="374" x2="418.8" y2="374" />
    <line x1="418.8" y1="374" x2="427.2" y2="374" />
    <line x1="427.20000000000005" y1="374" x2="431.40000000000003" y2="364" />
  </g>
  <g>
    <text x="24" y="39" xml:space="preserve">Request arrives:</text>
    <text x="24" y="99" xml:space="preserve">    1. Check CDN cache (edge)                    </text>
    <text x="24" y="119" xml:space="preserve">       HIT → Return (5ms)    Miss rate: ~30%     </text>
    <text x="24" y="139" xml:space="preserve">       MISS ↓                                    </text>
    <text x="24" y="179" xml:space="preserve">    2. Check L1 cache (in-process, per server)   </text>
    <text x="24" y="199" xml:space="preserve">       HIT → Return (0.01ms) Miss rate: ~50%     </text>
    <text x="24" y="219" xml:space="preserve">       MISS ↓                                    </text>
    <text x="24" y="259" xml:space="preserve">    3. Check L2 cache (Redis, shared)            </text>
    <text x="24" y="279" xml:space="preserve">       HIT → Return (0.5ms)  Miss rate: ~10%     </text>
    <text x="24" y="299" xml:space="preserve">       MISS ↓                                    </text>
    <text x="24" y="339" xml:space="preserve">    4. Query DB read replica                     </text>
    <text x="24" y="359" xml:space="preserve">       Return + populate L2 + L1 (5-20ms)        </text>
    <text x="24" y="419" xml:space="preserve">  Overall cache hit rate: ~97%</text>
    <text x="24" y="439" xml:space="preserve">  Only ~3% of requests hit the database</text>
    <text x="24" y="479" xml:space="preserve">  Effective avg latency:</text>
    <text x="24" y="499" xml:space="preserve">    0.70 × 5ms (CDN) + 0.15 × 0.5ms (L1) + 0.12 × 1ms (L2) + 0.03 × 15ms (DB)</text>
    <text x="24" y="519" xml:space="preserve">    = 3.5 + 0.075 + 0.12 + 0.45</text>
    <text x="24" y="539" xml:space="preserve">    ≈ 4.1ms average</text>
  </g>
</svg>
