<?xml version="1.0" encoding="UTF-8"?>
<svg xmlns="http://www.w3.org/2000/svg" width="687" height="508" viewBox="0 0 687 508" role="img" aria-labelledby="title desc">
  <title id="title">Idempotency Key Pattern diagram</title>
  <desc id="desc">Generated vector rendering of a documentation diagram.</desc>
  <defs>
    <style>
      .card { fill: #fbfcff; stroke: #cbd5e1; stroke-width: 1.2; }
      .segments { stroke: #0f172a; stroke-width: 1.8; stroke-linecap: round; }
      text {
        fill: #0f172a;
        font-family: "JetBrains Mono", "SFMono-Regular", Consolas, "Liberation Mono", monospace;
        font-size: 14px;
      }
    </style>
  </defs>
  <rect class="card" x="0.6" y="0.6" width="685.8" height="506.8" rx="16" />
  <g class="segments">
    <line x1="45" y1="264" x2="49.199999999999996" y2="254" />
    <line x1="49.2" y1="254" x2="57.6" y2="254" />
    <line x1="57.6" y1="254" x2="66" y2="254" />
    <line x1="66" y1="254" x2="74.4" y2="254" />
    <line x1="74.4" y1="254" x2="82.80000000000001" y2="254" />
    <line x1="82.80000000000001" y1="254" x2="91.20000000000002" y2="254" />
    <line x1="91.2" y1="254" x2="99.60000000000001" y2="254" />
    <line x1="99.60000000000001" y1="254" x2="108.00000000000001" y2="254" />
    <line x1="108" y1="254" x2="116.4" y2="254" />
    <line x1="116.4" y1="254" x2="120.60000000000001" y2="264" />
    <line x1="297" y1="264" x2="301.2" y2="254" />
    <line x1="301.2" y1="254" x2="309.59999999999997" y2="254" />
    <line x1="309.6" y1="254" x2="318" y2="254" />
    <line x1="318" y1="254" x2="326.4" y2="254" />
    <line x1="326.40000000000003" y1="254" x2="334.8" y2="254" />
    <line x1="334.8" y1="254" x2="343.2" y2="254" />
    <line x1="343.2" y1="254" x2="351.59999999999997" y2="254" />
    <line x1="351.6" y1="254" x2="360" y2="254" />
    <line x1="360" y1="254" x2="368.4" y2="254" />
    <line x1="368.40000000000003" y1="254" x2="376.8" y2="254" />
    <line x1="376.8" y1="254" x2="385.2" y2="254" />
    <line x1="385.2" y1="254" x2="389.4" y2="264" />
    <line x1="45" y1="264" x2="45" y2="284" />
    <line x1="120.60000000000001" y1="264" x2="120.60000000000001" y2="284" />
    <line x1="124.80000000000001" y1="274" x2="133.20000000000002" y2="274" />
    <line x1="133.2" y1="274" x2="141.6" y2="274" />
    <line x1="242.4" y1="274" x2="250.8" y2="274" />
    <line x1="250.8" y1="274" x2="259.2" y2="274" />
    <line x1="259.20000000000005" y1="274" x2="267.6" y2="274" />
    <line x1="267.6" y1="274" x2="276" y2="274" />
    <line x1="276" y1="274" x2="284.4" y2="274" />
    <line x1="297" y1="264" x2="297" y2="284" />
    <line x1="389.4" y1="264" x2="389.4" y2="284" />
    <line x1="45" y1="284" x2="49.199999999999996" y2="294" />
    <line x1="49.2" y1="294" x2="57.6" y2="294" />
    <line x1="57.6" y1="294" x2="66" y2="294" />
    <line x1="66" y1="294" x2="74.4" y2="294" />
    <line x1="74.4" y1="294" x2="82.80000000000001" y2="294" />
    <line x1="82.80000000000001" y1="294" x2="91.20000000000002" y2="294" />
    <line x1="91.2" y1="294" x2="99.60000000000001" y2="294" />
    <line x1="99.60000000000001" y1="294" x2="108.00000000000001" y2="294" />
    <line x1="108" y1="294" x2="116.4" y2="294" />
    <line x1="116.4" y1="294" x2="120.60000000000001" y2="284" />
    <line x1="297" y1="284" x2="297" y2="304" />
    <line x1="389.4" y1="284" x2="389.4" y2="304" />
    <line x1="297" y1="304" x2="297" y2="324" />
    <line x1="389.4" y1="304" x2="389.4" y2="324" />
    <line x1="393.6" y1="314" x2="402" y2="314" />
    <line x1="402" y1="314" x2="410.4" y2="314" />
    <line x1="297" y1="324" x2="297" y2="344" />
    <line x1="389.4" y1="324" x2="389.4" y2="344" />
    <line x1="297" y1="344" x2="297" y2="364" />
    <line x1="389.4" y1="344" x2="389.4" y2="364" />
    <line x1="393.6" y1="354" x2="402" y2="354" />
    <line x1="402" y1="354" x2="410.4" y2="354" />
    <line x1="297" y1="364" x2="297" y2="384" />
    <line x1="389.4" y1="364" x2="389.4" y2="384" />
    <line x1="393.6" y1="374" x2="402" y2="374" />
    <line x1="402" y1="374" x2="410.4" y2="374" />
    <line x1="297" y1="384" x2="301.2" y2="394" />
    <line x1="301.2" y1="394" x2="309.59999999999997" y2="394" />
    <line x1="309.6" y1="394" x2="318" y2="394" />
    <line x1="318" y1="394" x2="326.4" y2="394" />
    <line x1="326.40000000000003" y1="394" x2="334.8" y2="394" />
    <line x1="334.8" y1="394" x2="343.2" y2="394" />
    <line x1="343.2" y1="394" x2="351.59999999999997" y2="394" />
    <line x1="351.6" y1="394" x2="360" y2="394" />
    <line x1="360" y1="394" x2="368.4" y2="394" />
    <line x1="368.40000000000003" y1="394" x2="376.8" y2="394" />
    <line x1="376.8" y1="394" x2="385.2" y2="394" />
    <line x1="385.2" y1="394" x2="389.4" y2="384" />
  </g>
  <g>
    <text x="24" y="39" xml:space="preserve">Client generates a unique key per operation and sends it with the request:</text>
    <text x="24" y="79" xml:space="preserve">  POST /payments</text>
    <text x="24" y="99" xml:space="preserve">  Idempotency-Key: pay_abc123</text>
    <text x="24" y="119" xml:space="preserve">  { &quot;amount&quot;: 100, &quot;to&quot;: &quot;merchant_456&quot; }</text>
    <text x="24" y="159" xml:space="preserve">Server flow:</text>
    <text x="24" y="179" xml:space="preserve">  1. Check if idempotency key &quot;pay_abc123&quot; exists in store</text>
    <text x="24" y="199" xml:space="preserve">  2a. EXISTS → return stored response (no re-processing)</text>
    <text x="24" y="219" xml:space="preserve">  2b. NOT EXISTS → process payment → store result with key → return response</text>
    <text x="24" y="279" xml:space="preserve">    Client     pay_abc123      ►   Server   </text>
    <text x="24" y="319" xml:space="preserve">                                  1. Check    ► Redis: EXISTS pay_abc123?</text>
    <text x="24" y="359" xml:space="preserve">                                  2a. Yes     ► Return stored result</text>
    <text x="24" y="379" xml:space="preserve">                                  2b. No      ► Process → Store → Return</text>
    <text x="24" y="439" xml:space="preserve">Key generation (client-side):</text>
    <text x="24" y="459" xml:space="preserve">  • UUID v4: &quot;550e8400-e29b-41d4-a716-446655440000&quot;</text>
    <text x="24" y="479" xml:space="preserve">  • Deterministic: hash(user_id + action + timestamp_minute)</text>
  </g>
</svg>
