<?xml version="1.0" encoding="UTF-8"?>
<svg xmlns="http://www.w3.org/2000/svg" width="620" height="1048" viewBox="0 0 620 1048" role="img" aria-labelledby="title desc">
  <title id="title">Scaling Journey — From 0 to 10M Users diagram</title>
  <desc id="desc">Generated vector rendering of a documentation diagram.</desc>
  <defs>
    <style>
      .card { fill: #fbfcff; stroke: #cbd5e1; stroke-width: 1.2; }
      .segments { stroke: #0f172a; stroke-width: 1.8; stroke-linecap: round; }
      text {
        fill: #0f172a;
        font-family: "JetBrains Mono", "SFMono-Regular", Consolas, "Liberation Mono", monospace;
        font-size: 14px;
      }
    </style>
  </defs>
  <rect class="card" x="0.6" y="0.6" width="618.8" height="1046.8" rx="16" />
  <g class="segments">
    <line x1="28.2" y1="64" x2="32.4" y2="54" />
    <line x1="32.4" y1="54" x2="40.8" y2="54" />
    <line x1="40.8" y1="54" x2="49.199999999999996" y2="54" />
    <line x1="49.2" y1="54" x2="57.6" y2="54" />
    <line x1="57.6" y1="54" x2="66" y2="54" />
    <line x1="66" y1="54" x2="74.4" y2="54" />
    <line x1="74.4" y1="54" x2="82.80000000000001" y2="54" />
    <line x1="82.80000000000001" y1="54" x2="91.20000000000002" y2="54" />
    <line x1="91.2" y1="54" x2="99.60000000000001" y2="54" />
    <line x1="99.60000000000001" y1="54" x2="108.00000000000001" y2="54" />
    <line x1="108" y1="54" x2="116.4" y2="54" />
    <line x1="116.4" y1="54" x2="124.80000000000001" y2="54" />
    <line x1="124.80000000000001" y1="54" x2="133.20000000000002" y2="54" />
    <line x1="133.2" y1="54" x2="141.6" y2="54" />
    <line x1="141.60000000000002" y1="54" x2="150.00000000000003" y2="54" />
    <line x1="150" y1="54" x2="158.4" y2="54" />
    <line x1="158.4" y1="54" x2="166.8" y2="54" />
    <line x1="166.8" y1="54" x2="175.20000000000002" y2="54" />
    <line x1="175.20000000000002" y1="54" x2="183.60000000000002" y2="54" />
    <line x1="183.6" y1="54" x2="192" y2="54" />
    <line x1="192" y1="54" x2="200.4" y2="54" />
    <line x1="200.4" y1="54" x2="208.8" y2="54" />
    <line x1="208.8" y1="54" x2="217.20000000000002" y2="54" />
    <line x1="217.20000000000002" y1="54" x2="225.60000000000002" y2="54" />
    <line x1="225.60000000000002" y1="54" x2="234.00000000000003" y2="54" />
    <line x1="234" y1="54" x2="242.4" y2="54" />
    <line x1="242.4" y1="54" x2="250.8" y2="54" />
    <line x1="250.8" y1="54" x2="259.2" y2="54" />
    <line x1="259.20000000000005" y1="54" x2="267.6" y2="54" />
    <line x1="267.6" y1="54" x2="276" y2="54" />
    <line x1="276" y1="54" x2="284.4" y2="54" />
    <line x1="284.40000000000003" y1="54" x2="292.8" y2="54" />
    <line x1="292.8" y1="54" x2="301.2" y2="54" />
    <line x1="301.2" y1="54" x2="309.59999999999997" y2="54" />
    <line x1="309.6" y1="54" x2="318" y2="54" />
    <line x1="318" y1="54" x2="326.4" y2="54" />
    <line x1="326.40000000000003" y1="54" x2="334.8" y2="54" />
    <line x1="334.8" y1="54" x2="343.2" y2="54" />
    <line x1="343.2" y1="54" x2="347.4" y2="64" />
    <line x1="28.2" y1="64" x2="28.2" y2="84" />
    <line x1="347.4" y1="64" x2="347.4" y2="84" />
    <line x1="28.2" y1="84" x2="28.2" y2="104" />
    <line x1="53.400000000000006" y1="104" x2="57.6" y2="94" />
    <line x1="57.6" y1="94" x2="66" y2="94" />
    <line x1="66" y1="94" x2="74.4" y2="94" />
    <line x1="74.4" y1="94" x2="82.80000000000001" y2="94" />
    <line x1="82.80000000000001" y1="94" x2="91.20000000000002" y2="94" />
    <line x1="91.2" y1="94" x2="99.60000000000001" y2="94" />
    <line x1="99.60000000000001" y1="94" x2="108.00000000000001" y2="94" />
    <line x1="108" y1="94" x2="116.4" y2="94" />
    <line x1="116.4" y1="94" x2="120.60000000000001" y2="104" />
    <line x1="145.8" y1="104" x2="150.00000000000003" y2="94" />
    <line x1="150" y1="94" x2="158.4" y2="94" />
    <line x1="158.4" y1="94" x2="166.8" y2="94" />
    <line x1="166.8" y1="94" x2="175.20000000000002" y2="94" />
    <line x1="175.20000000000002" y1="94" x2="183.60000000000002" y2="94" />
    <line x1="183.6" y1="94" x2="192" y2="94" />
    <line x1="192" y1="94" x2="200.4" y2="94" />
    <line x1="200.4" y1="94" x2="204.6" y2="104" />
    <line x1="229.8" y1="104" x2="234.00000000000003" y2="94" />
    <line x1="234" y1="94" x2="242.4" y2="94" />
    <line x1="242.4" y1="94" x2="250.8" y2="94" />
    <line x1="250.8" y1="94" x2="259.2" y2="94" />
    <line x1="259.20000000000005" y1="94" x2="267.6" y2="94" />
    <line x1="267.6" y1="94" x2="276" y2="94" />
    <line x1="276" y1="94" x2="284.4" y2="94" />
    <line x1="284.40000000000003" y1="94" x2="288.6" y2="104" />
    <line x1="339" y1="84" x2="339" y2="104" />
    <line x1="28.2" y1="104" x2="28.2" y2="124" />
    <line x1="53.400000000000006" y1="104" x2="53.400000000000006" y2="124" />
    <line x1="120.60000000000001" y1="104" x2="120.60000000000001" y2="124" />
    <line x1="145.8" y1="104" x2="145.8" y2="124" />
    <line x1="204.6" y1="104" x2="204.6" y2="124" />
    <line x1="229.8" y1="104" x2="229.8" y2="124" />
    <line x1="288.6" y1="104" x2="288.6" y2="124" />
    <line x1="339" y1="104" x2="339" y2="124" />
    <line x1="28.2" y1="124" x2="28.2" y2="144" />
    <line x1="53.400000000000006" y1="124" x2="53.400000000000006" y2="144" />
    <line x1="120.60000000000001" y1="124" x2="120.60000000000001" y2="144" />
    <line x1="145.8" y1="124" x2="145.8" y2="144" />
    <line x1="204.6" y1="124" x2="204.6" y2="144" />
    <line x1="229.8" y1="124" x2="229.8" y2="144" />
    <line x1="288.6" y1="124" x2="288.6" y2="144" />
    <line x1="339" y1="124" x2="339" y2="144" />
    <line x1="28.2" y1="144" x2="28.2" y2="164" />
    <line x1="53.400000000000006" y1="144" x2="57.6" y2="154" />
    <line x1="57.6" y1="154" x2="66" y2="154" />
    <line x1="66" y1="154" x2="74.4" y2="154" />
    <line x1="74.4" y1="154" x2="82.80000000000001" y2="154" />
    <line x1="82.80000000000001" y1="154" x2="91.20000000000002" y2="154" />
    <line x1="91.2" y1="154" x2="99.60000000000001" y2="154" />
    <line x1="99.60000000000001" y1="154" x2="108.00000000000001" y2="154" />
    <line x1="108" y1="154" x2="116.4" y2="154" />
    <line x1="116.4" y1="154" x2="120.60000000000001" y2="144" />
    <line x1="145.8" y1="144" x2="150.00000000000003" y2="154" />
    <line x1="150" y1="154" x2="158.4" y2="154" />
    <line x1="158.4" y1="154" x2="166.8" y2="154" />
    <line x1="166.8" y1="154" x2="175.20000000000002" y2="154" />
    <line x1="175.20000000000002" y1="154" x2="183.60000000000002" y2="154" />
    <line x1="183.6" y1="154" x2="192" y2="154" />
    <line x1="192" y1="154" x2="200.4" y2="154" />
    <line x1="200.4" y1="154" x2="204.6" y2="144" />
    <line x1="229.8" y1="144" x2="234.00000000000003" y2="154" />
    <line x1="234" y1="154" x2="242.4" y2="154" />
    <line x1="242.4" y1="154" x2="250.8" y2="154" />
    <line x1="250.8" y1="154" x2="259.2" y2="154" />
    <line x1="259.20000000000005" y1="154" x2="267.6" y2="154" />
    <line x1="267.6" y1="154" x2="276" y2="154" />
    <line x1="276" y1="154" x2="284.4" y2="154" />
    <line x1="284.40000000000003" y1="154" x2="288.6" y2="144" />
    <line x1="339" y1="144" x2="339" y2="164" />
    <line x1="28.2" y1="164" x2="28.2" y2="184" />
    <line x1="347.4" y1="164" x2="347.4" y2="184" />
    <line x1="28.2" y1="184" x2="32.4" y2="194" />
    <line x1="32.4" y1="194" x2="40.8" y2="194" />
    <line x1="40.8" y1="194" x2="49.199999999999996" y2="194" />
    <line x1="49.2" y1="194" x2="57.6" y2="194" />
    <line x1="57.6" y1="194" x2="66" y2="194" />
    <line x1="66" y1="194" x2="74.4" y2="194" />
    <line x1="74.4" y1="194" x2="82.80000000000001" y2="194" />
    <line x1="82.80000000000001" y1="194" x2="91.20000000000002" y2="194" />
    <line x1="91.2" y1="194" x2="99.60000000000001" y2="194" />
    <line x1="99.60000000000001" y1="194" x2="108.00000000000001" y2="194" />
    <line x1="108" y1="194" x2="116.4" y2="194" />
    <line x1="116.4" y1="194" x2="124.80000000000001" y2="194" />
    <line x1="124.80000000000001" y1="194" x2="133.20000000000002" y2="194" />
    <line x1="133.2" y1="194" x2="141.6" y2="194" />
    <line x1="141.60000000000002" y1="194" x2="150.00000000000003" y2="194" />
    <line x1="150" y1="194" x2="158.4" y2="194" />
    <line x1="158.4" y1="194" x2="166.8" y2="194" />
    <line x1="166.8" y1="194" x2="175.20000000000002" y2="194" />
    <line x1="175.20000000000002" y1="194" x2="183.60000000000002" y2="194" />
    <line x1="183.6" y1="194" x2="192" y2="194" />
    <line x1="192" y1="194" x2="200.4" y2="194" />
    <line x1="200.4" y1="194" x2="208.8" y2="194" />
    <line x1="208.8" y1="194" x2="217.20000000000002" y2="194" />
    <line x1="217.20000000000002" y1="194" x2="225.60000000000002" y2="194" />
    <line x1="225.60000000000002" y1="194" x2="234.00000000000003" y2="194" />
    <line x1="234" y1="194" x2="242.4" y2="194" />
    <line x1="242.4" y1="194" x2="250.8" y2="194" />
    <line x1="250.8" y1="194" x2="259.2" y2="194" />
    <line x1="259.20000000000005" y1="194" x2="267.6" y2="194" />
    <line x1="267.6" y1="194" x2="276" y2="194" />
    <line x1="276" y1="194" x2="284.4" y2="194" />
    <line x1="284.40000000000003" y1="194" x2="292.8" y2="194" />
    <line x1="292.8" y1="194" x2="301.2" y2="194" />
    <line x1="301.2" y1="194" x2="309.59999999999997" y2="194" />
    <line x1="309.6" y1="194" x2="318" y2="194" />
    <line x1="318" y1="194" x2="326.4" y2="194" />
    <line x1="326.40000000000003" y1="194" x2="334.8" y2="194" />
    <line x1="334.8" y1="194" x2="343.2" y2="194" />
    <line x1="343.2" y1="194" x2="347.4" y2="184" />
    <line x1="28.2" y1="264" x2="32.4" y2="254" />
    <line x1="32.4" y1="254" x2="40.8" y2="254" />
    <line x1="40.8" y1="254" x2="49.199999999999996" y2="254" />
    <line x1="49.2" y1="254" x2="57.6" y2="254" />
    <line x1="57.6" y1="254" x2="66" y2="254" />
    <line x1="66" y1="254" x2="74.4" y2="254" />
    <line x1="74.4" y1="254" x2="82.80000000000001" y2="254" />
    <line x1="82.80000000000001" y1="254" x2="91.20000000000002" y2="254" />
    <line x1="91.2" y1="254" x2="99.60000000000001" y2="254" />
    <line x1="99.60000000000001" y1="254" x2="108.00000000000001" y2="254" />
    <line x1="108" y1="254" x2="116.4" y2="254" />
    <line x1="116.4" y1="254" x2="120.60000000000001" y2="264" />
    <line x1="171" y1="264" x2="175.20000000000002" y2="254" />
    <line x1="175.20000000000002" y1="254" x2="183.60000000000002" y2="254" />
    <line x1="183.6" y1="254" x2="192" y2="254" />
    <line x1="192" y1="254" x2="200.4" y2="254" />
    <line x1="200.4" y1="254" x2="208.8" y2="254" />
    <line x1="208.8" y1="254" x2="217.20000000000002" y2="254" />
    <line x1="217.20000000000002" y1="254" x2="225.60000000000002" y2="254" />
    <line x1="225.60000000000002" y1="254" x2="234.00000000000003" y2="254" />
    <line x1="234" y1="254" x2="242.4" y2="254" />
    <line x1="242.4" y1="254" x2="250.8" y2="254" />
    <line x1="250.8" y1="254" x2="259.2" y2="254" />
    <line x1="259.20000000000005" y1="254" x2="263.40000000000003" y2="264" />
    <line x1="28.2" y1="264" x2="28.2" y2="284" />
    <line x1="120.60000000000001" y1="264" x2="120.60000000000001" y2="284" />
    <line x1="124.80000000000001" y1="274" x2="133.20000000000002" y2="274" />
    <line x1="133.2" y1="274" x2="141.6" y2="274" />
    <line x1="141.60000000000002" y1="274" x2="150.00000000000003" y2="274" />
    <line x1="150" y1="274" x2="158.4" y2="274" />
    <line x1="171" y1="264" x2="171" y2="284" />
    <line x1="263.40000000000003" y1="264" x2="263.40000000000003" y2="284" />
    <line x1="28.2" y1="284" x2="28.2" y2="304" />
    <line x1="120.60000000000001" y1="284" x2="120.60000000000001" y2="304" />
    <line x1="171" y1="284" x2="171" y2="304" />
    <line x1="263.40000000000003" y1="284" x2="263.40000000000003" y2="304" />
    <line x1="28.2" y1="304" x2="32.4" y2="314" />
    <line x1="32.4" y1="314" x2="40.8" y2="314" />
    <line x1="40.8" y1="314" x2="49.199999999999996" y2="314" />
    <line x1="49.2" y1="314" x2="57.6" y2="314" />
    <line x1="57.6" y1="314" x2="66" y2="314" />
    <line x1="66" y1="314" x2="74.4" y2="314" />
    <line x1="74.4" y1="314" x2="82.80000000000001" y2="314" />
    <line x1="82.80000000000001" y1="314" x2="91.20000000000002" y2="314" />
    <line x1="91.2" y1="314" x2="99.60000000000001" y2="314" />
    <line x1="99.60000000000001" y1="314" x2="108.00000000000001" y2="314" />
    <line x1="108" y1="314" x2="116.4" y2="314" />
    <line x1="116.4" y1="314" x2="120.60000000000001" y2="304" />
    <line x1="171" y1="304" x2="175.20000000000002" y2="314" />
    <line x1="175.20000000000002" y1="314" x2="183.60000000000002" y2="314" />
    <line x1="183.6" y1="314" x2="192" y2="314" />
    <line x1="192" y1="314" x2="200.4" y2="314" />
    <line x1="200.4" y1="314" x2="208.8" y2="314" />
    <line x1="208.8" y1="314" x2="217.20000000000002" y2="314" />
    <line x1="217.20000000000002" y1="314" x2="225.60000000000002" y2="314" />
    <line x1="225.60000000000002" y1="314" x2="234.00000000000003" y2="314" />
    <line x1="234" y1="314" x2="242.4" y2="314" />
    <line x1="242.4" y1="314" x2="250.8" y2="314" />
    <line x1="250.8" y1="314" x2="259.2" y2="314" />
    <line x1="259.20000000000005" y1="314" x2="263.40000000000003" y2="304" />
    <line x1="28.2" y1="404" x2="32.4" y2="394" />
    <line x1="32.4" y1="394" x2="40.8" y2="394" />
    <line x1="40.8" y1="394" x2="49.199999999999996" y2="394" />
    <line x1="49.2" y1="394" x2="57.6" y2="394" />
    <line x1="57.6" y1="394" x2="66" y2="394" />
    <line x1="66" y1="394" x2="74.4" y2="394" />
    <line x1="74.4" y1="394" x2="82.80000000000001" y2="394" />
    <line x1="82.80000000000001" y1="394" x2="87.00000000000001" y2="404" />
    <line x1="112.2" y1="404" x2="116.4" y2="394" />
    <line x1="116.4" y1="394" x2="124.80000000000001" y2="394" />
    <line x1="124.80000000000001" y1="394" x2="133.20000000000002" y2="394" />
    <line x1="133.2" y1="394" x2="141.6" y2="394" />
    <line x1="141.60000000000002" y1="394" x2="150.00000000000003" y2="394" />
    <line x1="150" y1="394" x2="158.4" y2="394" />
    <line x1="158.4" y1="394" x2="166.8" y2="394" />
    <line x1="166.8" y1="394" x2="171" y2="404" />
    <line x1="196.2" y1="404" x2="200.4" y2="394" />
    <line x1="200.4" y1="394" x2="208.8" y2="394" />
    <line x1="208.8" y1="394" x2="217.20000000000002" y2="394" />
    <line x1="217.20000000000002" y1="394" x2="225.60000000000002" y2="394" />
    <line x1="225.60000000000002" y1="394" x2="234.00000000000003" y2="394" />
    <line x1="234" y1="394" x2="242.4" y2="394" />
    <line x1="242.4" y1="394" x2="250.8" y2="394" />
    <line x1="250.8" y1="394" x2="259.2" y2="394" />
    <line x1="259.20000000000005" y1="394" x2="267.6" y2="394" />
    <line x1="267.6" y1="394" x2="276" y2="394" />
    <line x1="276" y1="394" x2="284.4" y2="394" />
    <line x1="284.40000000000003" y1="394" x2="288.6" y2="404" />
    <line x1="313.8" y1="404" x2="318" y2="394" />
    <line x1="318" y1="394" x2="326.4" y2="394" />
    <line x1="326.40000000000003" y1="394" x2="334.8" y2="394" />
    <line x1="334.8" y1="394" x2="343.2" y2="394" />
    <line x1="343.2" y1="394" x2="351.59999999999997" y2="394" />
    <line x1="351.6" y1="394" x2="360" y2="394" />
    <line x1="360" y1="394" x2="368.4" y2="394" />
    <line x1="368.40000000000003" y1="394" x2="376.8" y2="394" />
    <line x1="376.8" y1="394" x2="381" y2="404" />
    <line x1="406.2" y1="404" x2="410.4" y2="394" />
    <line x1="410.40000000000003" y1="394" x2="418.8" y2="394" />
    <line x1="418.8" y1="394" x2="427.2" y2="394" />
    <line x1="427.20000000000005" y1="394" x2="435.6" y2="394" />
    <line x1="435.6" y1="394" x2="444" y2="394" />
    <line x1="444" y1="394" x2="452.4" y2="394" />
    <line x1="452.40000000000003" y1="394" x2="460.8" y2="394" />
    <line x1="460.8" y1="394" x2="465" y2="404" />
    <line x1="28.2" y1="404" x2="28.2" y2="424" />
    <line x1="87.00000000000001" y1="404" x2="87.00000000000001" y2="424" />
    <line x1="91.2" y1="414" x2="99.60000000000001" y2="414" />
    <line x1="112.2" y1="404" x2="112.2" y2="424" />
    <line x1="171" y1="404" x2="171" y2="424" />
    <line x1="175.20000000000002" y1="414" x2="183.60000000000002" y2="414" />
    <line x1="196.2" y1="404" x2="196.2" y2="424" />
    <line x1="288.6" y1="404" x2="288.6" y2="424" />
    <line x1="292.8" y1="414" x2="301.2" y2="414" />
    <line x1="313.8" y1="404" x2="313.8" y2="424" />
    <line x1="381" y1="404" x2="381" y2="424" />
    <line x1="385.2" y1="414" x2="393.59999999999997" y2="414" />
    <line x1="406.2" y1="404" x2="406.2" y2="424" />
    <line x1="465" y1="404" x2="465" y2="424" />
    <line x1="28.2" y1="424" x2="32.4" y2="434" />
    <line x1="32.4" y1="434" x2="40.8" y2="434" />
    <line x1="40.8" y1="434" x2="49.199999999999996" y2="434" />
    <line x1="49.2" y1="434" x2="57.6" y2="434" />
    <line x1="57.6" y1="434" x2="66" y2="434" />
    <line x1="66" y1="434" x2="74.4" y2="434" />
    <line x1="74.4" y1="434" x2="82.80000000000001" y2="434" />
    <line x1="82.80000000000001" y1="434" x2="87.00000000000001" y2="424" />
    <line x1="112.2" y1="424" x2="116.4" y2="434" />
    <line x1="116.4" y1="434" x2="124.80000000000001" y2="434" />
    <line x1="124.80000000000001" y1="434" x2="133.20000000000002" y2="434" />
    <line x1="133.2" y1="434" x2="141.6" y2="434" />
    <line x1="141.60000000000002" y1="434" x2="150.00000000000003" y2="434" />
    <line x1="150" y1="434" x2="158.4" y2="434" />
    <line x1="158.4" y1="434" x2="166.8" y2="434" />
    <line x1="166.8" y1="434" x2="171" y2="424" />
    <line x1="196.2" y1="424" x2="200.4" y2="434" />
    <line x1="200.4" y1="434" x2="208.8" y2="434" />
    <line x1="208.8" y1="434" x2="217.20000000000002" y2="434" />
    <line x1="217.20000000000002" y1="434" x2="225.60000000000002" y2="434" />
    <line x1="225.60000000000002" y1="434" x2="234.00000000000003" y2="434" />
    <line x1="234" y1="434" x2="242.4" y2="434" />
    <line x1="242.4" y1="434" x2="250.8" y2="434" />
    <line x1="250.8" y1="434" x2="259.2" y2="434" />
    <line x1="259.20000000000005" y1="434" x2="267.6" y2="434" />
    <line x1="267.6" y1="434" x2="276" y2="434" />
    <line x1="276" y1="434" x2="284.4" y2="434" />
    <line x1="284.40000000000003" y1="434" x2="288.6" y2="424" />
    <line x1="313.8" y1="424" x2="318" y2="434" />
    <line x1="318" y1="434" x2="326.4" y2="434" />
    <line x1="326.40000000000003" y1="434" x2="334.8" y2="434" />
    <line x1="334.8" y1="434" x2="343.2" y2="434" />
    <line x1="343.2" y1="434" x2="351.59999999999997" y2="434" />
    <line x1="351.6" y1="434" x2="360" y2="434" />
    <line x1="360" y1="434" x2="368.4" y2="434" />
    <line x1="368.40000000000003" y1="434" x2="376.8" y2="434" />
    <line x1="376.8" y1="434" x2="381" y2="424" />
    <line x1="406.2" y1="424" x2="410.4" y2="434" />
    <line x1="410.40000000000003" y1="434" x2="418.8" y2="434" />
    <line x1="418.8" y1="434" x2="427.2" y2="434" />
    <line x1="427.20000000000005" y1="434" x2="435.6" y2="434" />
    <line x1="435.6" y1="434" x2="444" y2="434" />
    <line x1="444" y1="434" x2="452.4" y2="434" />
    <line x1="452.40000000000003" y1="434" x2="460.8" y2="434" />
    <line x1="460.8" y1="434" x2="465" y2="424" />
    <line x1="28.2" y1="524" x2="32.4" y2="514" />
    <line x1="32.4" y1="514" x2="40.8" y2="514" />
    <line x1="40.8" y1="514" x2="49.199999999999996" y2="514" />
    <line x1="49.2" y1="514" x2="57.6" y2="514" />
    <line x1="57.6" y1="514" x2="66" y2="514" />
    <line x1="66" y1="514" x2="74.4" y2="514" />
    <line x1="74.4" y1="514" x2="82.80000000000001" y2="514" />
    <line x1="82.80000000000001" y1="514" x2="87.00000000000001" y2="524" />
    <line x1="112.2" y1="524" x2="116.4" y2="514" />
    <line x1="116.4" y1="514" x2="124.80000000000001" y2="514" />
    <line x1="124.80000000000001" y1="514" x2="133.20000000000002" y2="514" />
    <line x1="133.2" y1="514" x2="141.6" y2="514" />
    <line x1="141.60000000000002" y1="514" x2="150.00000000000003" y2="514" />
    <line x1="150" y1="514" x2="158.4" y2="514" />
    <line x1="158.4" y1="514" x2="162.6" y2="524" />
    <line x1="187.79999999999998" y1="524" x2="192" y2="514" />
    <line x1="192" y1="514" x2="200.4" y2="514" />
    <line x1="200.4" y1="514" x2="208.8" y2="514" />
    <line x1="208.8" y1="514" x2="217.20000000000002" y2="514" />
    <line x1="217.20000000000002" y1="514" x2="225.60000000000002" y2="514" />
    <line x1="225.60000000000002" y1="514" x2="229.8" y2="524" />
    <line x1="255" y1="524" x2="259.2" y2="514" />
    <line x1="259.20000000000005" y1="514" x2="267.6" y2="514" />
    <line x1="267.6" y1="514" x2="276" y2="514" />
    <line x1="276" y1="514" x2="284.4" y2="514" />
    <line x1="284.40000000000003" y1="514" x2="292.8" y2="514" />
    <line x1="292.8" y1="514" x2="301.2" y2="514" />
    <line x1="301.2" y1="514" x2="309.59999999999997" y2="514" />
    <line x1="309.6" y1="514" x2="318" y2="514" />
    <line x1="318" y1="514" x2="326.4" y2="514" />
    <line x1="326.40000000000003" y1="514" x2="334.8" y2="514" />
    <line x1="334.8" y1="514" x2="343.2" y2="514" />
    <line x1="343.2" y1="514" x2="347.4" y2="524" />
    <line x1="372.6" y1="524" x2="376.8" y2="514" />
    <line x1="376.8" y1="514" x2="385.2" y2="514" />
    <line x1="385.2" y1="514" x2="393.59999999999997" y2="514" />
    <line x1="393.6" y1="514" x2="402" y2="514" />
    <line x1="402" y1="514" x2="410.4" y2="514" />
    <line x1="410.40000000000003" y1="514" x2="418.8" y2="514" />
    <line x1="418.8" y1="514" x2="427.2" y2="514" />
    <line x1="427.20000000000005" y1="514" x2="435.6" y2="514" />
    <line x1="435.6" y1="514" x2="439.8" y2="524" />
    <line x1="465" y1="524" x2="469.2" y2="514" />
    <line x1="469.20000000000005" y1="514" x2="477.6" y2="514" />
    <line x1="477.6" y1="514" x2="486" y2="514" />
    <line x1="486" y1="514" x2="494.4" y2="514" />
    <line x1="494.40000000000003" y1="514" x2="502.8" y2="514" />
    <line x1="502.8" y1="514" x2="511.2" y2="514" />
    <line x1="511.20000000000005" y1="514" x2="519.6" y2="514" />
    <line x1="519.6" y1="514" x2="523.8000000000001" y2="524" />
    <line x1="28.2" y1="524" x2="28.2" y2="544" />
    <line x1="87.00000000000001" y1="524" x2="87.00000000000001" y2="544" />
    <line x1="91.2" y1="534" x2="99.60000000000001" y2="534" />
    <line x1="112.2" y1="524" x2="112.2" y2="544" />
    <line x1="162.6" y1="524" x2="162.6" y2="544" />
    <line x1="166.8" y1="534" x2="175.20000000000002" y2="534" />
    <line x1="187.79999999999998" y1="524" x2="187.79999999999998" y2="544" />
    <line x1="229.8" y1="524" x2="229.8" y2="544" />
    <line x1="234" y1="534" x2="242.4" y2="534" />
    <line x1="255" y1="524" x2="255" y2="544" />
    <line x1="347.4" y1="524" x2="347.4" y2="544" />
    <line x1="351.6" y1="534" x2="360" y2="534" />
    <line x1="372.6" y1="524" x2="372.6" y2="544" />
    <line x1="439.8" y1="524" x2="439.8" y2="544" />
    <line x1="444" y1="534" x2="452.4" y2="534" />
    <line x1="465" y1="524" x2="465" y2="544" />
    <line x1="523.8000000000001" y1="524" x2="523.8000000000001" y2="544" />
    <line x1="28.2" y1="544" x2="32.4" y2="554" />
    <line x1="32.4" y1="554" x2="40.8" y2="554" />
    <line x1="40.8" y1="554" x2="49.199999999999996" y2="554" />
    <line x1="49.2" y1="554" x2="57.6" y2="554" />
    <line x1="57.6" y1="554" x2="66" y2="554" />
    <line x1="66" y1="554" x2="74.4" y2="554" />
    <line x1="74.4" y1="554" x2="82.80000000000001" y2="554" />
    <line x1="82.80000000000001" y1="554" x2="87.00000000000001" y2="544" />
    <line x1="112.2" y1="544" x2="116.4" y2="554" />
    <line x1="116.4" y1="554" x2="124.80000000000001" y2="554" />
    <line x1="124.80000000000001" y1="554" x2="133.20000000000002" y2="554" />
    <line x1="133.2" y1="554" x2="141.6" y2="554" />
    <line x1="141.60000000000002" y1="554" x2="150.00000000000003" y2="554" />
    <line x1="150" y1="554" x2="158.4" y2="554" />
    <line x1="158.4" y1="554" x2="162.6" y2="544" />
    <line x1="187.79999999999998" y1="544" x2="192" y2="554" />
    <line x1="192" y1="554" x2="200.4" y2="554" />
    <line x1="200.4" y1="554" x2="208.8" y2="554" />
    <line x1="208.8" y1="554" x2="217.20000000000002" y2="554" />
    <line x1="217.20000000000002" y1="554" x2="225.60000000000002" y2="554" />
    <line x1="225.60000000000002" y1="554" x2="229.8" y2="544" />
    <line x1="255" y1="544" x2="259.2" y2="554" />
    <line x1="259.20000000000005" y1="554" x2="267.6" y2="554" />
    <line x1="267.6" y1="554" x2="276" y2="554" />
    <line x1="276" y1="554" x2="284.4" y2="554" />
    <line x1="284.40000000000003" y1="554" x2="292.8" y2="554" />
    <line x1="292.8" y1="554" x2="301.2" y2="554" />
    <line x1="301.2" y1="554" x2="309.59999999999997" y2="554" />
    <line x1="309.6" y1="554" x2="318" y2="554" />
    <line x1="318" y1="554" x2="326.4" y2="554" />
    <line x1="326.40000000000003" y1="554" x2="334.8" y2="554" />
    <line x1="334.8" y1="554" x2="343.2" y2="554" />
    <line x1="343.2" y1="554" x2="347.4" y2="544" />
    <line x1="372.6" y1="544" x2="372.6" y2="564" />
    <line x1="439.8" y1="544" x2="439.8" y2="564" />
    <line x1="465" y1="544" x2="465" y2="564" />
    <line x1="523.8000000000001" y1="544" x2="523.8000000000001" y2="564" />
    <line x1="381" y1="564" x2="385.2" y2="574" />
    <line x1="385.2" y1="574" x2="393.59999999999997" y2="574" />
    <line x1="393.6" y1="574" x2="402" y2="574" />
    <line x1="402" y1="574" x2="410.4" y2="574" />
    <line x1="410.40000000000003" y1="574" x2="418.8" y2="574" />
    <line x1="418.8" y1="574" x2="427.2" y2="574" />
    <line x1="427.20000000000005" y1="574" x2="435.6" y2="574" />
    <line x1="435.6" y1="574" x2="444" y2="574" />
    <line x1="444" y1="574" x2="448.2" y2="564" />
    <line x1="473.40000000000003" y1="564" x2="473.40000000000003" y2="584" />
    <line x1="540.6" y1="564" x2="540.6" y2="584" />
    <line x1="473.40000000000003" y1="584" x2="477.6" y2="594" />
    <line x1="477.6" y1="594" x2="486" y2="594" />
    <line x1="486" y1="594" x2="494.4" y2="594" />
    <line x1="494.40000000000003" y1="594" x2="502.8" y2="594" />
    <line x1="502.8" y1="594" x2="511.2" y2="594" />
    <line x1="511.20000000000005" y1="594" x2="519.6" y2="594" />
    <line x1="519.6" y1="594" x2="528" y2="594" />
    <line x1="528" y1="594" x2="532.2" y2="584" />
    <line x1="28.2" y1="684" x2="32.4" y2="674" />
    <line x1="32.4" y1="674" x2="40.8" y2="674" />
    <line x1="40.8" y1="674" x2="49.199999999999996" y2="674" />
    <line x1="49.2" y1="674" x2="57.6" y2="674" />
    <line x1="57.6" y1="674" x2="66" y2="674" />
    <line x1="66" y1="674" x2="74.4" y2="674" />
    <line x1="74.4" y1="674" x2="82.80000000000001" y2="674" />
    <line x1="82.80000000000001" y1="674" x2="87.00000000000001" y2="684" />
    <line x1="112.2" y1="684" x2="116.4" y2="674" />
    <line x1="116.4" y1="674" x2="124.80000000000001" y2="674" />
    <line x1="124.80000000000001" y1="674" x2="133.20000000000002" y2="674" />
    <line x1="133.2" y1="674" x2="141.6" y2="674" />
    <line x1="141.60000000000002" y1="674" x2="150.00000000000003" y2="674" />
    <line x1="150" y1="674" x2="158.4" y2="674" />
    <line x1="158.4" y1="674" x2="162.6" y2="684" />
    <line x1="187.79999999999998" y1="684" x2="192" y2="674" />
    <line x1="192" y1="674" x2="200.4" y2="674" />
    <line x1="200.4" y1="674" x2="208.8" y2="674" />
    <line x1="208.8" y1="674" x2="217.20000000000002" y2="674" />
    <line x1="217.20000000000002" y1="674" x2="225.60000000000002" y2="674" />
    <line x1="225.60000000000002" y1="674" x2="234.00000000000003" y2="674" />
    <line x1="234" y1="674" x2="238.2" y2="684" />
    <line x1="263.40000000000003" y1="684" x2="267.6" y2="674" />
    <line x1="267.6" y1="674" x2="276" y2="674" />
    <line x1="276" y1="674" x2="284.4" y2="674" />
    <line x1="284.40000000000003" y1="674" x2="292.8" y2="674" />
    <line x1="292.8" y1="674" x2="301.2" y2="674" />
    <line x1="301.2" y1="674" x2="309.59999999999997" y2="674" />
    <line x1="309.6" y1="674" x2="318" y2="674" />
    <line x1="318" y1="674" x2="326.4" y2="674" />
    <line x1="326.40000000000003" y1="674" x2="334.8" y2="674" />
    <line x1="334.8" y1="674" x2="343.2" y2="674" />
    <line x1="343.2" y1="674" x2="347.4" y2="684" />
    <line x1="372.6" y1="684" x2="376.8" y2="674" />
    <line x1="376.8" y1="674" x2="385.2" y2="674" />
    <line x1="385.2" y1="674" x2="393.59999999999997" y2="674" />
    <line x1="393.6" y1="674" x2="402" y2="674" />
    <line x1="402" y1="674" x2="410.4" y2="674" />
    <line x1="410.40000000000003" y1="674" x2="418.8" y2="674" />
    <line x1="418.8" y1="674" x2="427.2" y2="674" />
    <line x1="427.20000000000005" y1="674" x2="435.6" y2="674" />
    <line x1="435.6" y1="674" x2="444" y2="674" />
    <line x1="444" y1="674" x2="452.4" y2="674" />
    <line x1="452.40000000000003" y1="674" x2="460.8" y2="674" />
    <line x1="460.8" y1="674" x2="465" y2="684" />
    <line x1="490.2" y1="684" x2="494.4" y2="674" />
    <line x1="494.40000000000003" y1="674" x2="502.8" y2="674" />
    <line x1="502.8" y1="674" x2="511.2" y2="674" />
    <line x1="511.20000000000005" y1="674" x2="519.6" y2="674" />
    <line x1="519.6" y1="674" x2="528" y2="674" />
    <line x1="528" y1="674" x2="536.4" y2="674" />
    <line x1="536.4" y1="674" x2="544.8" y2="674" />
    <line x1="544.8000000000001" y1="674" x2="553.2" y2="674" />
    <line x1="553.2" y1="674" x2="561.6" y2="674" />
    <line x1="561.6" y1="674" x2="570" y2="674" />
    <line x1="570" y1="674" x2="578.4" y2="674" />
    <line x1="578.4" y1="674" x2="582.6" y2="684" />
    <line x1="28.2" y1="684" x2="28.2" y2="704" />
    <line x1="87.00000000000001" y1="684" x2="87.00000000000001" y2="704" />
    <line x1="91.2" y1="694" x2="99.60000000000001" y2="694" />
    <line x1="112.2" y1="684" x2="112.2" y2="704" />
    <line x1="162.6" y1="684" x2="162.6" y2="704" />
    <line x1="166.8" y1="694" x2="175.20000000000002" y2="694" />
    <line x1="187.79999999999998" y1="684" x2="187.79999999999998" y2="704" />
    <line x1="238.2" y1="684" x2="238.2" y2="704" />
    <line x1="242.4" y1="694" x2="250.8" y2="694" />
    <line x1="263.40000000000003" y1="684" x2="263.40000000000003" y2="704" />
    <line x1="347.4" y1="684" x2="347.4" y2="704" />
    <line x1="351.6" y1="694" x2="360" y2="694" />
    <line x1="372.6" y1="684" x2="372.6" y2="704" />
    <line x1="465" y1="684" x2="465" y2="704" />
    <line x1="469.20000000000005" y1="694" x2="477.6" y2="694" />
    <line x1="490.2" y1="684" x2="490.2" y2="704" />
    <line x1="582.6" y1="684" x2="582.6" y2="704" />
    <line x1="28.2" y1="704" x2="32.4" y2="714" />
    <line x1="32.4" y1="714" x2="40.8" y2="714" />
    <line x1="40.8" y1="714" x2="49.199999999999996" y2="714" />
    <line x1="49.2" y1="714" x2="57.6" y2="714" />
    <line x1="57.6" y1="714" x2="66" y2="714" />
    <line x1="66" y1="714" x2="74.4" y2="714" />
    <line x1="74.4" y1="714" x2="82.80000000000001" y2="714" />
    <line x1="82.80000000000001" y1="714" x2="87.00000000000001" y2="704" />
    <line x1="112.2" y1="704" x2="116.4" y2="714" />
    <line x1="116.4" y1="714" x2="124.80000000000001" y2="714" />
    <line x1="124.80000000000001" y1="714" x2="133.20000000000002" y2="714" />
    <line x1="133.2" y1="714" x2="141.6" y2="714" />
    <line x1="141.60000000000002" y1="714" x2="150.00000000000003" y2="714" />
    <line x1="150" y1="714" x2="158.4" y2="714" />
    <line x1="158.4" y1="714" x2="162.6" y2="704" />
    <line x1="187.79999999999998" y1="704" x2="192" y2="714" />
    <line x1="192" y1="714" x2="200.4" y2="714" />
    <line x1="200.4" y1="714" x2="208.8" y2="714" />
    <line x1="208.8" y1="714" x2="217.20000000000002" y2="714" />
    <line x1="217.20000000000002" y1="714" x2="225.60000000000002" y2="714" />
    <line x1="225.60000000000002" y1="714" x2="234.00000000000003" y2="714" />
    <line x1="234" y1="714" x2="238.2" y2="704" />
    <line x1="263.40000000000003" y1="704" x2="263.40000000000003" y2="724" />
    <line x1="347.4" y1="704" x2="347.4" y2="724" />
    <line x1="372.6" y1="704" x2="372.6" y2="724" />
    <line x1="465" y1="704" x2="465" y2="724" />
    <line x1="490.2" y1="704" x2="490.2" y2="724" />
    <line x1="582.6" y1="704" x2="582.6" y2="724" />
    <line x1="271.8" y1="724" x2="276" y2="734" />
    <line x1="276" y1="734" x2="284.4" y2="734" />
    <line x1="284.40000000000003" y1="734" x2="292.8" y2="734" />
    <line x1="292.8" y1="734" x2="301.2" y2="734" />
    <line x1="301.2" y1="734" x2="309.59999999999997" y2="734" />
    <line x1="309.6" y1="734" x2="318" y2="734" />
    <line x1="313.8" y1="734" x2="313.8" y2="744" />
    <line x1="318" y1="734" x2="326.4" y2="734" />
    <line x1="326.40000000000003" y1="734" x2="334.8" y2="734" />
    <line x1="334.8" y1="734" x2="343.2" y2="734" />
    <line x1="343.2" y1="734" x2="351.59999999999997" y2="734" />
    <line x1="351.6" y1="734" x2="355.8" y2="724" />
    <line x1="381" y1="724" x2="385.2" y2="734" />
    <line x1="385.2" y1="734" x2="393.59999999999997" y2="734" />
    <line x1="393.6" y1="734" x2="402" y2="734" />
    <line x1="402" y1="734" x2="410.4" y2="734" />
    <line x1="410.40000000000003" y1="734" x2="418.8" y2="734" />
    <line x1="418.8" y1="734" x2="427.2" y2="734" />
    <line x1="427.20000000000005" y1="734" x2="435.6" y2="734" />
    <line x1="435.6" y1="734" x2="444" y2="734" />
    <line x1="444" y1="734" x2="452.4" y2="734" />
    <line x1="452.40000000000003" y1="734" x2="460.8" y2="734" />
    <line x1="460.8" y1="734" x2="469.2" y2="734" />
    <line x1="469.20000000000005" y1="734" x2="473.40000000000003" y2="724" />
    <line x1="498.6" y1="724" x2="502.8" y2="734" />
    <line x1="502.8" y1="734" x2="511.2" y2="734" />
    <line x1="511.20000000000005" y1="734" x2="519.6" y2="734" />
    <line x1="519.6" y1="734" x2="528" y2="734" />
    <line x1="528" y1="734" x2="536.4" y2="734" />
    <line x1="536.4" y1="734" x2="544.8" y2="734" />
    <line x1="544.8000000000001" y1="734" x2="553.2" y2="734" />
    <line x1="553.2" y1="734" x2="561.6" y2="734" />
    <line x1="561.6" y1="734" x2="570" y2="734" />
    <line x1="570" y1="734" x2="578.4" y2="734" />
    <line x1="578.4" y1="734" x2="586.8" y2="734" />
    <line x1="586.8000000000001" y1="734" x2="591.0000000000001" y2="724" />
    <line x1="313.8" y1="744" x2="313.8" y2="764" />
    <line x1="196.2" y1="784" x2="200.4" y2="774" />
    <line x1="200.4" y1="774" x2="208.8" y2="774" />
    <line x1="208.8" y1="774" x2="217.20000000000002" y2="774" />
    <line x1="217.20000000000002" y1="774" x2="225.60000000000002" y2="774" />
    <line x1="225.60000000000002" y1="774" x2="234.00000000000003" y2="774" />
    <line x1="234" y1="774" x2="242.4" y2="774" />
    <line x1="242.4" y1="774" x2="250.8" y2="774" />
    <line x1="250.8" y1="774" x2="259.2" y2="774" />
    <line x1="259.20000000000005" y1="774" x2="267.6" y2="774" />
    <line x1="267.6" y1="774" x2="276" y2="774" />
    <line x1="276" y1="774" x2="284.4" y2="774" />
    <line x1="284.40000000000003" y1="774" x2="292.8" y2="774" />
    <line x1="292.8" y1="774" x2="301.2" y2="774" />
    <line x1="301.2" y1="774" x2="309.59999999999997" y2="774" />
    <line x1="309.6" y1="774" x2="318" y2="774" />
    <line x1="313.8" y1="764" x2="313.8" y2="784" />
    <line x1="318" y1="774" x2="326.4" y2="774" />
    <line x1="326.40000000000003" y1="774" x2="334.8" y2="774" />
    <line x1="334.8" y1="774" x2="343.2" y2="774" />
    <line x1="343.2" y1="774" x2="351.59999999999997" y2="774" />
    <line x1="351.6" y1="774" x2="360" y2="774" />
    <line x1="360" y1="774" x2="368.4" y2="774" />
    <line x1="368.40000000000003" y1="774" x2="376.8" y2="774" />
    <line x1="376.8" y1="774" x2="385.2" y2="774" />
    <line x1="385.2" y1="774" x2="393.59999999999997" y2="774" />
    <line x1="393.6" y1="774" x2="402" y2="774" />
    <line x1="402" y1="774" x2="410.4" y2="774" />
    <line x1="410.40000000000003" y1="774" x2="418.8" y2="774" />
    <line x1="418.8" y1="774" x2="427.2" y2="774" />
    <line x1="427.20000000000005" y1="774" x2="431.40000000000003" y2="784" />
    <line x1="196.2" y1="784" x2="196.2" y2="804" />
    <line x1="313.8" y1="784" x2="313.8" y2="804" />
    <line x1="431.40000000000003" y1="784" x2="431.40000000000003" y2="804" />
    <line x1="154.2" y1="824" x2="158.4" y2="814" />
    <line x1="158.4" y1="814" x2="166.8" y2="814" />
    <line x1="166.8" y1="814" x2="175.20000000000002" y2="814" />
    <line x1="175.20000000000002" y1="814" x2="183.60000000000002" y2="814" />
    <line x1="183.6" y1="814" x2="192" y2="814" />
    <line x1="192" y1="814" x2="200.4" y2="814" />
    <line x1="196.2" y1="804" x2="196.2" y2="814" />
    <line x1="200.4" y1="814" x2="208.8" y2="814" />
    <line x1="208.8" y1="814" x2="217.20000000000002" y2="814" />
    <line x1="217.20000000000002" y1="814" x2="225.60000000000002" y2="814" />
    <line x1="225.60000000000002" y1="814" x2="229.8" y2="824" />
    <line x1="255" y1="824" x2="259.2" y2="814" />
    <line x1="259.20000000000005" y1="814" x2="267.6" y2="814" />
    <line x1="267.6" y1="814" x2="276" y2="814" />
    <line x1="276" y1="814" x2="284.4" y2="814" />
    <line x1="284.40000000000003" y1="814" x2="292.8" y2="814" />
    <line x1="292.8" y1="814" x2="301.2" y2="814" />
    <line x1="301.2" y1="814" x2="309.59999999999997" y2="814" />
    <line x1="305.4" y1="804" x2="305.4" y2="814" />
    <line x1="309.6" y1="814" x2="318" y2="814" />
    <line x1="318" y1="814" x2="326.4" y2="814" />
    <line x1="326.40000000000003" y1="814" x2="334.8" y2="814" />
    <line x1="334.8" y1="814" x2="343.2" y2="814" />
    <line x1="343.2" y1="814" x2="347.4" y2="824" />
    <line x1="372.6" y1="824" x2="376.8" y2="814" />
    <line x1="376.8" y1="814" x2="385.2" y2="814" />
    <line x1="385.2" y1="814" x2="393.59999999999997" y2="814" />
    <line x1="393.6" y1="814" x2="402" y2="814" />
    <line x1="402" y1="814" x2="410.4" y2="814" />
    <line x1="410.40000000000003" y1="814" x2="418.8" y2="814" />
    <line x1="414.6" y1="804" x2="414.6" y2="814" />
    <line x1="418.8" y1="814" x2="427.2" y2="814" />
    <line x1="427.20000000000005" y1="814" x2="435.6" y2="814" />
    <line x1="435.6" y1="814" x2="444" y2="814" />
    <line x1="444" y1="814" x2="452.4" y2="814" />
    <line x1="452.40000000000003" y1="814" x2="460.8" y2="814" />
    <line x1="460.8" y1="814" x2="465" y2="824" />
    <line x1="154.2" y1="824" x2="154.2" y2="844" />
    <line x1="229.8" y1="824" x2="229.8" y2="844" />
    <line x1="255" y1="824" x2="255" y2="844" />
    <line x1="347.4" y1="824" x2="347.4" y2="844" />
    <line x1="372.6" y1="824" x2="372.6" y2="844" />
    <line x1="465" y1="824" x2="465" y2="844" />
    <line x1="154.2" y1="844" x2="154.2" y2="864" />
    <line x1="229.8" y1="844" x2="229.8" y2="864" />
    <line x1="255" y1="844" x2="255" y2="864" />
    <line x1="347.4" y1="844" x2="347.4" y2="864" />
    <line x1="372.6" y1="844" x2="372.6" y2="864" />
    <line x1="465" y1="844" x2="465" y2="864" />
    <line x1="154.2" y1="864" x2="158.4" y2="874" />
    <line x1="158.4" y1="874" x2="166.8" y2="874" />
    <line x1="166.8" y1="874" x2="175.20000000000002" y2="874" />
    <line x1="175.20000000000002" y1="874" x2="183.60000000000002" y2="874" />
    <line x1="183.6" y1="874" x2="192" y2="874" />
    <line x1="192" y1="874" x2="200.4" y2="874" />
    <line x1="200.4" y1="874" x2="208.8" y2="874" />
    <line x1="208.8" y1="874" x2="217.20000000000002" y2="874" />
    <line x1="217.20000000000002" y1="874" x2="225.60000000000002" y2="874" />
    <line x1="225.60000000000002" y1="874" x2="229.8" y2="864" />
    <line x1="255" y1="864" x2="259.2" y2="874" />
    <line x1="259.20000000000005" y1="874" x2="267.6" y2="874" />
    <line x1="267.6" y1="874" x2="276" y2="874" />
    <line x1="276" y1="874" x2="284.4" y2="874" />
    <line x1="284.40000000000003" y1="874" x2="292.8" y2="874" />
    <line x1="292.8" y1="874" x2="301.2" y2="874" />
    <line x1="301.2" y1="874" x2="309.59999999999997" y2="874" />
    <line x1="309.6" y1="874" x2="318" y2="874" />
    <line x1="318" y1="874" x2="326.4" y2="874" />
    <line x1="326.40000000000003" y1="874" x2="334.8" y2="874" />
    <line x1="334.8" y1="874" x2="343.2" y2="874" />
    <line x1="343.2" y1="874" x2="347.4" y2="864" />
    <line x1="372.6" y1="864" x2="376.8" y2="874" />
    <line x1="376.8" y1="874" x2="385.2" y2="874" />
    <line x1="385.2" y1="874" x2="393.59999999999997" y2="874" />
    <line x1="393.6" y1="874" x2="402" y2="874" />
    <line x1="402" y1="874" x2="410.4" y2="874" />
    <line x1="410.40000000000003" y1="874" x2="418.8" y2="874" />
    <line x1="418.8" y1="874" x2="427.2" y2="874" />
    <line x1="427.20000000000005" y1="874" x2="435.6" y2="874" />
    <line x1="435.6" y1="874" x2="444" y2="874" />
    <line x1="444" y1="874" x2="452.4" y2="874" />
    <line x1="452.40000000000003" y1="874" x2="460.8" y2="874" />
    <line x1="460.8" y1="874" x2="465" y2="864" />
  </g>
  <g>
    <text x="24" y="39" xml:space="preserve">Stage 1: Single Server (0 – 1K users)</text>
    <text x="24" y="79" xml:space="preserve">            Single Server              </text>
    <text x="24" y="119" xml:space="preserve">      Web       App        DB         </text>
    <text x="24" y="139" xml:space="preserve">    Server     Logic                  </text>
    <text x="24" y="179" xml:space="preserve">   Cost: $20/month                     </text>
    <text x="24" y="239" xml:space="preserve">Stage 2: Separate DB (1K – 10K users)</text>
    <text x="24" y="279" xml:space="preserve">   App          ►     DB     </text>
    <text x="24" y="299" xml:space="preserve">   Server         (Managed)  </text>
    <text x="24" y="339" xml:space="preserve">  Cost: $50/month + $100/month (RDS)</text>
    <text x="24" y="379" xml:space="preserve">Stage 3: Add Cache + CDN (10K – 100K users)</text>
    <text x="24" y="419" xml:space="preserve"> Client  ►  CDN    ► App Server  ►  Redis   ►   DB   </text>
    <text x="24" y="459" xml:space="preserve">  Cost: ~$500/month total</text>
    <text x="24" y="499" xml:space="preserve">Stage 4: Load Balancer + Multiple Servers (100K – 1M users)</text>
    <text x="24" y="539" xml:space="preserve"> Client  ►  CDN   ►  LB   ► Servers ×3  ►  Redis   ►   DB   </text>
    <text x="24" y="559" xml:space="preserve">                                          Cluster    +Read  </text>
    <text x="24" y="579" xml:space="preserve">                                                      Replica </text>
    <text x="24" y="619" xml:space="preserve">  Cost: ~$2,000/month</text>
    <text x="24" y="659" xml:space="preserve">Stage 5: Sharding + Microservices (1M – 10M users)</text>
    <text x="24" y="699" xml:space="preserve"> Client  ►  CDN   ►  LB    ► API        ► Redis       ► DB Shards  </text>
    <text x="24" y="719" xml:space="preserve">                             Gateway      Cluster       (3 shards) </text>
    <text x="24" y="839" xml:space="preserve">                  Auth        Product       Order    </text>
    <text x="24" y="859" xml:space="preserve">                Service      Service       Service   </text>
    <text x="24" y="899" xml:space="preserve">  Cost: ~$10,000-30,000/month</text>
    <text x="24" y="939" xml:space="preserve">Stage 6: Multi-Region (10M+ users)</text>
    <text x="24" y="959" xml:space="preserve">  + Global DNS routing</text>
    <text x="24" y="979" xml:space="preserve">  + Region-local app servers + caches + DB replicas</text>
    <text x="24" y="999" xml:space="preserve">  + Cross-region replication for writes</text>
    <text x="24" y="1019" xml:space="preserve">  Cost: $50,000-200,000+/month</text>
  </g>
</svg>
