<?xml version="1.0" encoding="UTF-8"?>
<svg xmlns="http://www.w3.org/2000/svg" width="670" height="548" viewBox="0 0 670 548" role="img" aria-labelledby="title desc">
  <title id="title">D. Example: Image Upload Service diagram</title>
  <desc id="desc">Generated vector rendering of a documentation diagram.</desc>
  <defs>
    <style>
      .card { fill: #fbfcff; stroke: #cbd5e1; stroke-width: 1.2; }
      .segments { stroke: #0f172a; stroke-width: 1.8; stroke-linecap: round; }
      text {
        fill: #0f172a;
        font-family: "JetBrains Mono", "SFMono-Regular", Consolas, "Liberation Mono", monospace;
        font-size: 14px;
      }
    </style>
  </defs>
  <rect class="card" x="0.6" y="0.6" width="668.8" height="546.8" rx="16" />
  <g class="segments">
    <line x1="28.2" y1="44" x2="32.4" y2="34" />
    <line x1="32.4" y1="34" x2="40.8" y2="34" />
    <line x1="40.8" y1="34" x2="49.199999999999996" y2="34" />
    <line x1="49.2" y1="34" x2="57.6" y2="34" />
    <line x1="57.6" y1="34" x2="66" y2="34" />
    <line x1="66" y1="34" x2="74.4" y2="34" />
    <line x1="74.4" y1="34" x2="82.80000000000001" y2="34" />
    <line x1="82.80000000000001" y1="34" x2="91.20000000000002" y2="34" />
    <line x1="91.2" y1="34" x2="99.60000000000001" y2="34" />
    <line x1="99.60000000000001" y1="34" x2="103.80000000000001" y2="44" />
    <line x1="322.2" y1="44" x2="326.4" y2="34" />
    <line x1="326.40000000000003" y1="34" x2="334.8" y2="34" />
    <line x1="334.8" y1="34" x2="343.2" y2="34" />
    <line x1="343.2" y1="34" x2="351.59999999999997" y2="34" />
    <line x1="351.6" y1="34" x2="360" y2="34" />
    <line x1="360" y1="34" x2="368.4" y2="34" />
    <line x1="368.40000000000003" y1="34" x2="376.8" y2="34" />
    <line x1="376.8" y1="34" x2="385.2" y2="34" />
    <line x1="385.2" y1="34" x2="393.59999999999997" y2="34" />
    <line x1="393.6" y1="34" x2="402" y2="34" />
    <line x1="402" y1="34" x2="410.4" y2="34" />
    <line x1="410.40000000000003" y1="34" x2="414.6" y2="44" />
    <line x1="28.2" y1="44" x2="28.2" y2="64" />
    <line x1="103.80000000000001" y1="44" x2="103.80000000000001" y2="64" />
    <line x1="108" y1="54" x2="116.4" y2="54" />
    <line x1="116.4" y1="54" x2="124.80000000000001" y2="54" />
    <line x1="124.80000000000001" y1="54" x2="133.20000000000002" y2="54" />
    <line x1="133.2" y1="54" x2="141.6" y2="54" />
    <line x1="141.60000000000002" y1="54" x2="150.00000000000003" y2="54" />
    <line x1="150" y1="54" x2="158.4" y2="54" />
    <line x1="158.4" y1="54" x2="166.8" y2="54" />
    <line x1="166.8" y1="54" x2="175.20000000000002" y2="54" />
    <line x1="175.20000000000002" y1="54" x2="183.60000000000002" y2="54" />
    <line x1="183.6" y1="54" x2="192" y2="54" />
    <line x1="192" y1="54" x2="200.4" y2="54" />
    <line x1="200.4" y1="54" x2="208.8" y2="54" />
    <line x1="208.8" y1="54" x2="217.20000000000002" y2="54" />
    <line x1="217.20000000000002" y1="54" x2="225.60000000000002" y2="54" />
    <line x1="225.60000000000002" y1="54" x2="234.00000000000003" y2="54" />
    <line x1="234" y1="54" x2="242.4" y2="54" />
    <line x1="242.4" y1="54" x2="250.8" y2="54" />
    <line x1="250.8" y1="54" x2="259.2" y2="54" />
    <line x1="259.20000000000005" y1="54" x2="267.6" y2="54" />
    <line x1="267.6" y1="54" x2="276" y2="54" />
    <line x1="276" y1="54" x2="284.4" y2="54" />
    <line x1="284.40000000000003" y1="54" x2="292.8" y2="54" />
    <line x1="292.8" y1="54" x2="301.2" y2="54" />
    <line x1="301.2" y1="54" x2="309.59999999999997" y2="54" />
    <line x1="322.2" y1="44" x2="322.2" y2="64" />
    <line x1="414.6" y1="44" x2="414.6" y2="64" />
    <line x1="28.2" y1="64" x2="28.2" y2="84" />
    <line x1="103.80000000000001" y1="64" x2="103.80000000000001" y2="84" />
    <line x1="116.4" y1="74" x2="124.80000000000001" y2="74" />
    <line x1="124.80000000000001" y1="74" x2="133.20000000000002" y2="74" />
    <line x1="133.2" y1="74" x2="141.6" y2="74" />
    <line x1="141.60000000000002" y1="74" x2="150.00000000000003" y2="74" />
    <line x1="150" y1="74" x2="158.4" y2="74" />
    <line x1="158.4" y1="74" x2="166.8" y2="74" />
    <line x1="166.8" y1="74" x2="175.20000000000002" y2="74" />
    <line x1="175.20000000000002" y1="74" x2="183.60000000000002" y2="74" />
    <line x1="183.6" y1="74" x2="192" y2="74" />
    <line x1="192" y1="74" x2="200.4" y2="74" />
    <line x1="200.4" y1="74" x2="208.8" y2="74" />
    <line x1="208.8" y1="74" x2="217.20000000000002" y2="74" />
    <line x1="217.20000000000002" y1="74" x2="225.60000000000002" y2="74" />
    <line x1="225.60000000000002" y1="74" x2="234.00000000000003" y2="74" />
    <line x1="234" y1="74" x2="242.4" y2="74" />
    <line x1="242.4" y1="74" x2="250.8" y2="74" />
    <line x1="250.8" y1="74" x2="259.2" y2="74" />
    <line x1="259.20000000000005" y1="74" x2="267.6" y2="74" />
    <line x1="267.6" y1="74" x2="276" y2="74" />
    <line x1="276" y1="74" x2="284.4" y2="74" />
    <line x1="284.40000000000003" y1="74" x2="292.8" y2="74" />
    <line x1="292.8" y1="74" x2="301.2" y2="74" />
    <line x1="301.2" y1="74" x2="309.59999999999997" y2="74" />
    <line x1="309.6" y1="74" x2="318" y2="74" />
    <line x1="322.2" y1="64" x2="322.2" y2="84" />
    <line x1="414.6" y1="64" x2="414.6" y2="84" />
    <line x1="28.2" y1="84" x2="28.2" y2="104" />
    <line x1="103.80000000000001" y1="84" x2="103.80000000000001" y2="104" />
    <line x1="322.2" y1="84" x2="322.2" y2="104" />
    <line x1="414.6" y1="84" x2="414.6" y2="104" />
    <line x1="28.2" y1="104" x2="28.2" y2="124" />
    <line x1="103.80000000000001" y1="104" x2="103.80000000000001" y2="124" />
    <line x1="330.6" y1="104" x2="334.8" y2="114" />
    <line x1="334.8" y1="114" x2="343.2" y2="114" />
    <line x1="343.2" y1="114" x2="351.59999999999997" y2="114" />
    <line x1="351.6" y1="114" x2="360" y2="114" />
    <line x1="360" y1="114" x2="368.4" y2="114" />
    <line x1="368.40000000000003" y1="114" x2="376.8" y2="114" />
    <line x1="376.8" y1="114" x2="385.2" y2="114" />
    <line x1="385.2" y1="114" x2="393.59999999999997" y2="114" />
    <line x1="393.6" y1="114" x2="402" y2="114" />
    <line x1="402" y1="114" x2="410.4" y2="114" />
    <line x1="410.40000000000003" y1="114" x2="418.8" y2="114" />
    <line x1="418.8" y1="114" x2="423" y2="104" />
    <line x1="28.2" y1="124" x2="28.2" y2="144" />
    <line x1="103.80000000000001" y1="124" x2="103.80000000000001" y2="144" />
    <line x1="28.2" y1="144" x2="28.2" y2="164" />
    <line x1="103.80000000000001" y1="144" x2="103.80000000000001" y2="164" />
    <line x1="108" y1="154" x2="116.4" y2="154" />
    <line x1="116.4" y1="154" x2="124.80000000000001" y2="154" />
    <line x1="124.80000000000001" y1="154" x2="133.20000000000002" y2="154" />
    <line x1="133.2" y1="154" x2="141.6" y2="154" />
    <line x1="141.60000000000002" y1="154" x2="150.00000000000003" y2="154" />
    <line x1="150" y1="154" x2="158.4" y2="154" />
    <line x1="158.4" y1="154" x2="166.8" y2="154" />
    <line x1="166.8" y1="154" x2="175.20000000000002" y2="154" />
    <line x1="175.20000000000002" y1="154" x2="183.60000000000002" y2="154" />
    <line x1="183.6" y1="154" x2="192" y2="154" />
    <line x1="192" y1="154" x2="200.4" y2="154" />
    <line x1="200.4" y1="154" x2="208.8" y2="154" />
    <line x1="208.8" y1="154" x2="217.20000000000002" y2="154" />
    <line x1="217.20000000000002" y1="154" x2="225.60000000000002" y2="154" />
    <line x1="225.60000000000002" y1="154" x2="234.00000000000003" y2="154" />
    <line x1="234" y1="154" x2="242.4" y2="154" />
    <line x1="242.4" y1="154" x2="250.8" y2="154" />
    <line x1="250.8" y1="154" x2="259.2" y2="154" />
    <line x1="259.20000000000005" y1="154" x2="267.6" y2="154" />
    <line x1="267.6" y1="154" x2="276" y2="154" />
    <line x1="276" y1="154" x2="284.4" y2="154" />
    <line x1="284.40000000000003" y1="154" x2="292.8" y2="154" />
    <line x1="292.8" y1="154" x2="301.2" y2="154" />
    <line x1="301.2" y1="154" x2="309.59999999999997" y2="154" />
    <line x1="309.6" y1="154" x2="318" y2="154" />
    <line x1="330.6" y1="164" x2="334.8" y2="154" />
    <line x1="334.8" y1="154" x2="343.2" y2="154" />
    <line x1="343.2" y1="154" x2="351.59999999999997" y2="154" />
    <line x1="351.6" y1="154" x2="360" y2="154" />
    <line x1="360" y1="154" x2="368.4" y2="154" />
    <line x1="368.40000000000003" y1="154" x2="376.8" y2="154" />
    <line x1="376.8" y1="154" x2="385.2" y2="154" />
    <line x1="385.2" y1="154" x2="393.59999999999997" y2="154" />
    <line x1="393.6" y1="154" x2="402" y2="154" />
    <line x1="402" y1="154" x2="410.4" y2="154" />
    <line x1="410.40000000000003" y1="154" x2="418.8" y2="154" />
    <line x1="418.8" y1="154" x2="423" y2="164" />
    <line x1="28.2" y1="164" x2="28.2" y2="184" />
    <line x1="103.80000000000001" y1="164" x2="103.80000000000001" y2="184" />
    <line x1="330.6" y1="164" x2="330.6" y2="184" />
    <line x1="423" y1="164" x2="423" y2="184" />
    <line x1="28.2" y1="184" x2="32.4" y2="194" />
    <line x1="32.4" y1="194" x2="40.8" y2="194" />
    <line x1="40.8" y1="194" x2="49.199999999999996" y2="194" />
    <line x1="49.2" y1="194" x2="57.6" y2="194" />
    <line x1="57.6" y1="194" x2="66" y2="194" />
    <line x1="66" y1="194" x2="74.4" y2="194" />
    <line x1="74.4" y1="194" x2="82.80000000000001" y2="194" />
    <line x1="82.80000000000001" y1="194" x2="91.20000000000002" y2="194" />
    <line x1="91.2" y1="194" x2="99.60000000000001" y2="194" />
    <line x1="99.60000000000001" y1="194" x2="103.80000000000001" y2="184" />
    <line x1="330.6" y1="184" x2="330.6" y2="204" />
    <line x1="423" y1="184" x2="423" y2="204" />
    <line x1="330.6" y1="204" x2="334.8" y2="214" />
    <line x1="334.8" y1="214" x2="343.2" y2="214" />
    <line x1="343.2" y1="214" x2="351.59999999999997" y2="214" />
    <line x1="351.6" y1="214" x2="360" y2="214" />
    <line x1="360" y1="214" x2="368.4" y2="214" />
    <line x1="368.40000000000003" y1="214" x2="376.8" y2="214" />
    <line x1="372.6" y1="214" x2="372.6" y2="224" />
    <line x1="376.8" y1="214" x2="385.2" y2="214" />
    <line x1="385.2" y1="214" x2="393.59999999999997" y2="214" />
    <line x1="393.6" y1="214" x2="402" y2="214" />
    <line x1="402" y1="214" x2="410.4" y2="214" />
    <line x1="410.40000000000003" y1="214" x2="418.8" y2="214" />
    <line x1="418.8" y1="214" x2="423" y2="204" />
    <line x1="372.6" y1="224" x2="372.6" y2="244" />
    <line x1="330.6" y1="264" x2="334.8" y2="254" />
    <line x1="334.8" y1="254" x2="343.2" y2="254" />
    <line x1="343.2" y1="254" x2="351.59999999999997" y2="254" />
    <line x1="351.6" y1="254" x2="360" y2="254" />
    <line x1="360" y1="254" x2="368.4" y2="254" />
    <line x1="368.40000000000003" y1="254" x2="376.8" y2="254" />
    <line x1="372.6" y1="244" x2="372.6" y2="254" />
    <line x1="376.8" y1="254" x2="385.2" y2="254" />
    <line x1="385.2" y1="254" x2="393.59999999999997" y2="254" />
    <line x1="393.6" y1="254" x2="402" y2="254" />
    <line x1="402" y1="254" x2="410.4" y2="254" />
    <line x1="410.40000000000003" y1="254" x2="418.8" y2="254" />
    <line x1="418.8" y1="254" x2="423" y2="264" />
    <line x1="330.6" y1="264" x2="330.6" y2="284" />
    <line x1="423" y1="264" x2="423" y2="284" />
    <line x1="330.6" y1="284" x2="330.6" y2="304" />
    <line x1="423" y1="284" x2="423" y2="304" />
    <line x1="330.6" y1="304" x2="334.8" y2="314" />
    <line x1="334.8" y1="314" x2="343.2" y2="314" />
    <line x1="343.2" y1="314" x2="351.59999999999997" y2="314" />
    <line x1="351.6" y1="314" x2="360" y2="314" />
    <line x1="360" y1="314" x2="368.4" y2="314" />
    <line x1="368.40000000000003" y1="314" x2="376.8" y2="314" />
    <line x1="372.6" y1="314" x2="372.6" y2="324" />
    <line x1="376.8" y1="314" x2="385.2" y2="314" />
    <line x1="385.2" y1="314" x2="393.59999999999997" y2="314" />
    <line x1="393.6" y1="314" x2="402" y2="314" />
    <line x1="402" y1="314" x2="410.4" y2="314" />
    <line x1="410.40000000000003" y1="314" x2="418.8" y2="314" />
    <line x1="418.8" y1="314" x2="423" y2="304" />
    <line x1="372.6" y1="324" x2="372.6" y2="344" />
    <line x1="330.6" y1="364" x2="334.8" y2="354" />
    <line x1="334.8" y1="354" x2="343.2" y2="354" />
    <line x1="343.2" y1="354" x2="351.59999999999997" y2="354" />
    <line x1="351.6" y1="354" x2="360" y2="354" />
    <line x1="360" y1="354" x2="368.4" y2="354" />
    <line x1="368.40000000000003" y1="354" x2="376.8" y2="354" />
    <line x1="372.6" y1="344" x2="372.6" y2="354" />
    <line x1="376.8" y1="354" x2="385.2" y2="354" />
    <line x1="385.2" y1="354" x2="393.59999999999997" y2="354" />
    <line x1="393.6" y1="354" x2="402" y2="354" />
    <line x1="402" y1="354" x2="410.4" y2="354" />
    <line x1="410.40000000000003" y1="354" x2="418.8" y2="354" />
    <line x1="418.8" y1="354" x2="423" y2="364" />
    <line x1="330.6" y1="364" x2="330.6" y2="384" />
    <line x1="423" y1="364" x2="423" y2="384" />
    <line x1="330.6" y1="384" x2="330.6" y2="404" />
    <line x1="423" y1="384" x2="423" y2="404" />
    <line x1="330.6" y1="404" x2="334.8" y2="414" />
    <line x1="334.8" y1="414" x2="343.2" y2="414" />
    <line x1="343.2" y1="414" x2="351.59999999999997" y2="414" />
    <line x1="351.6" y1="414" x2="360" y2="414" />
    <line x1="360" y1="414" x2="368.4" y2="414" />
    <line x1="368.40000000000003" y1="414" x2="376.8" y2="414" />
    <line x1="372.6" y1="414" x2="372.6" y2="424" />
    <line x1="376.8" y1="414" x2="385.2" y2="414" />
    <line x1="385.2" y1="414" x2="393.59999999999997" y2="414" />
    <line x1="393.6" y1="414" x2="402" y2="414" />
    <line x1="402" y1="414" x2="410.4" y2="414" />
    <line x1="410.40000000000003" y1="414" x2="418.8" y2="414" />
    <line x1="418.8" y1="414" x2="423" y2="404" />
    <line x1="372.6" y1="424" x2="372.6" y2="444" />
    <line x1="330.6" y1="464" x2="334.8" y2="454" />
    <line x1="334.8" y1="454" x2="343.2" y2="454" />
    <line x1="343.2" y1="454" x2="351.59999999999997" y2="454" />
    <line x1="351.6" y1="454" x2="360" y2="454" />
    <line x1="360" y1="454" x2="368.4" y2="454" />
    <line x1="368.40000000000003" y1="454" x2="376.8" y2="454" />
    <line x1="372.6" y1="444" x2="372.6" y2="454" />
    <line x1="376.8" y1="454" x2="385.2" y2="454" />
    <line x1="385.2" y1="454" x2="393.59999999999997" y2="454" />
    <line x1="393.6" y1="454" x2="402" y2="454" />
    <line x1="402" y1="454" x2="410.4" y2="454" />
    <line x1="410.40000000000003" y1="454" x2="418.8" y2="454" />
    <line x1="418.8" y1="454" x2="423" y2="464" />
    <line x1="330.6" y1="464" x2="330.6" y2="484" />
    <line x1="423" y1="464" x2="423" y2="484" />
    <line x1="330.6" y1="484" x2="330.6" y2="504" />
    <line x1="423" y1="484" x2="423" y2="504" />
    <line x1="330.6" y1="504" x2="334.8" y2="514" />
    <line x1="334.8" y1="514" x2="343.2" y2="514" />
    <line x1="343.2" y1="514" x2="351.59999999999997" y2="514" />
    <line x1="351.6" y1="514" x2="360" y2="514" />
    <line x1="360" y1="514" x2="368.4" y2="514" />
    <line x1="368.40000000000003" y1="514" x2="376.8" y2="514" />
    <line x1="376.8" y1="514" x2="385.2" y2="514" />
    <line x1="385.2" y1="514" x2="393.59999999999997" y2="514" />
    <line x1="393.6" y1="514" x2="402" y2="514" />
    <line x1="402" y1="514" x2="410.4" y2="514" />
    <line x1="410.40000000000003" y1="514" x2="418.8" y2="514" />
    <line x1="418.8" y1="514" x2="423" y2="504" />
  </g>
  <g>
    <text x="24" y="39" xml:space="preserve">            1. Request upload URL              </text>
    <text x="24" y="59" xml:space="preserve">  Client                          ►   API      </text>
    <text x="24" y="79" xml:space="preserve">          ◄                           Server   </text>
    <text x="24" y="99" xml:space="preserve">            2. Pre-signed PUT URL              </text>
    <text x="24" y="139" xml:space="preserve">            3. PUT image directly</text>
    <text x="24" y="159" xml:space="preserve">                                   ►            </text>
    <text x="24" y="179" xml:space="preserve">                                        S3      </text>
    <text x="24" y="199" xml:space="preserve">                                       Bucket   </text>
    <text x="24" y="239" xml:space="preserve">                                           S3 Event</text>
    <text x="24" y="279" xml:space="preserve">                                      Lambda     4. Resize image</text>
    <text x="24" y="299" xml:space="preserve">                                      (resize)      (thumb, medium, large)</text>
    <text x="24" y="339" xml:space="preserve">                                           Save variants</text>
    <text x="24" y="379" xml:space="preserve">                                        S3      </text>
    <text x="24" y="399" xml:space="preserve">                                      (output)  </text>
    <text x="24" y="479" xml:space="preserve">                                     CloudFront  5. Serve via CDN</text>
    <text x="24" y="499" xml:space="preserve">                                       (CDN)    </text>
  </g>
</svg>
