<?xml version="1.0" encoding="UTF-8"?>
<svg xmlns="http://www.w3.org/2000/svg" width="510" height="568" viewBox="0 0 510 568" role="img" aria-labelledby="title desc">
  <title id="title">Auto-Scaling diagram</title>
  <desc id="desc">Generated vector rendering of a documentation diagram.</desc>
  <defs>
    <style>
      .card { fill: #fbfcff; stroke: #cbd5e1; stroke-width: 1.2; }
      .segments { stroke: #0f172a; stroke-width: 1.8; stroke-linecap: round; }
      text {
        fill: #0f172a;
        font-family: "JetBrains Mono", "SFMono-Regular", Consolas, "Liberation Mono", monospace;
        font-size: 14px;
      }
    </style>
  </defs>
  <rect class="card" x="0.6" y="0.6" width="508.8" height="566.8" rx="16" />
  <g class="segments">
    <line x1="95.4" y1="224" x2="95.4" y2="244" />
    <line x1="145.8" y1="244" x2="150.00000000000003" y2="234" />
    <line x1="150" y1="234" x2="158.4" y2="234" />
    <line x1="158.4" y1="234" x2="166.8" y2="234" />
    <line x1="166.8" y1="234" x2="175.20000000000002" y2="234" />
    <line x1="175.20000000000002" y1="234" x2="183.60000000000002" y2="234" />
    <line x1="183.6" y1="234" x2="187.79999999999998" y2="244" />
    <line x1="95.4" y1="244" x2="95.4" y2="264" />
    <line x1="145.8" y1="244" x2="145.8" y2="264" />
    <line x1="187.79999999999998" y1="244" x2="187.79999999999998" y2="264" />
    <line x1="238.2" y1="264" x2="242.4" y2="254" />
    <line x1="242.4" y1="254" x2="250.8" y2="254" />
    <line x1="250.8" y1="254" x2="259.2" y2="254" />
    <line x1="259.20000000000005" y1="254" x2="267.6" y2="254" />
    <line x1="267.6" y1="254" x2="276" y2="254" />
    <line x1="276" y1="254" x2="284.4" y2="254" />
    <line x1="284.40000000000003" y1="254" x2="292.8" y2="254" />
    <line x1="292.8" y1="254" x2="297" y2="264" />
    <line x1="95.4" y1="264" x2="95.4" y2="284" />
    <line x1="120.60000000000001" y1="284" x2="124.80000000000001" y2="274" />
    <line x1="124.80000000000001" y1="274" x2="133.20000000000002" y2="274" />
    <line x1="133.2" y1="274" x2="141.6" y2="274" />
    <line x1="141.60000000000002" y1="274" x2="145.8" y2="264" />
    <line x1="187.79999999999998" y1="264" x2="187.79999999999998" y2="284" />
    <line x1="238.2" y1="264" x2="238.2" y2="284" />
    <line x1="297" y1="264" x2="297" y2="284" />
    <line x1="95.4" y1="284" x2="95.4" y2="304" />
    <line x1="120.60000000000001" y1="284" x2="120.60000000000001" y2="304" />
    <line x1="187.79999999999998" y1="284" x2="192" y2="294" />
    <line x1="192" y1="294" x2="200.4" y2="294" />
    <line x1="200.4" y1="294" x2="208.8" y2="294" />
    <line x1="208.8" y1="294" x2="217.20000000000002" y2="294" />
    <line x1="217.20000000000002" y1="294" x2="225.60000000000002" y2="294" />
    <line x1="225.60000000000002" y1="294" x2="234.00000000000003" y2="294" />
    <line x1="234" y1="294" x2="238.2" y2="284" />
    <line x1="297" y1="284" x2="301.2" y2="294" />
    <line x1="301.2" y1="294" x2="309.59999999999997" y2="294" />
    <line x1="309.6" y1="294" x2="318" y2="294" />
    <line x1="318" y1="294" x2="322.2" y2="304" />
    <line x1="95.4" y1="304" x2="95.4" y2="324" />
    <line x1="99.60000000000001" y1="314" x2="108.00000000000001" y2="314" />
    <line x1="108" y1="314" x2="116.4" y2="314" />
    <line x1="116.4" y1="314" x2="120.60000000000001" y2="304" />
    <line x1="322.2" y1="304" x2="326.4" y2="314" />
    <line x1="326.40000000000003" y1="314" x2="334.8" y2="314" />
    <line x1="334.8" y1="314" x2="343.2" y2="314" />
    <line x1="343.2" y1="314" x2="351.59999999999997" y2="314" />
    <line x1="351.6" y1="314" x2="360" y2="314" />
    <line x1="95.4" y1="324" x2="99.60000000000001" y2="334" />
    <line x1="99.60000000000001" y1="334" x2="108.00000000000001" y2="334" />
    <line x1="108" y1="334" x2="116.4" y2="334" />
    <line x1="116.4" y1="334" x2="124.80000000000001" y2="334" />
    <line x1="124.80000000000001" y1="334" x2="133.20000000000002" y2="334" />
    <line x1="133.2" y1="334" x2="141.6" y2="334" />
    <line x1="141.60000000000002" y1="334" x2="150.00000000000003" y2="334" />
    <line x1="150" y1="334" x2="158.4" y2="334" />
    <line x1="158.4" y1="334" x2="166.8" y2="334" />
    <line x1="166.8" y1="334" x2="175.20000000000002" y2="334" />
    <line x1="175.20000000000002" y1="334" x2="183.60000000000002" y2="334" />
    <line x1="183.6" y1="334" x2="192" y2="334" />
    <line x1="192" y1="334" x2="200.4" y2="334" />
    <line x1="200.4" y1="334" x2="208.8" y2="334" />
    <line x1="208.8" y1="334" x2="217.20000000000002" y2="334" />
    <line x1="217.20000000000002" y1="334" x2="225.60000000000002" y2="334" />
    <line x1="225.60000000000002" y1="334" x2="234.00000000000003" y2="334" />
    <line x1="234" y1="334" x2="242.4" y2="334" />
    <line x1="242.4" y1="334" x2="250.8" y2="334" />
    <line x1="250.8" y1="334" x2="259.2" y2="334" />
    <line x1="259.20000000000005" y1="334" x2="267.6" y2="334" />
    <line x1="267.6" y1="334" x2="276" y2="334" />
    <line x1="276" y1="334" x2="284.4" y2="334" />
    <line x1="284.40000000000003" y1="334" x2="292.8" y2="334" />
    <line x1="292.8" y1="334" x2="301.2" y2="334" />
    <line x1="301.2" y1="334" x2="309.59999999999997" y2="334" />
    <line x1="309.6" y1="334" x2="318" y2="334" />
    <line x1="318" y1="334" x2="326.4" y2="334" />
    <line x1="326.40000000000003" y1="334" x2="334.8" y2="334" />
    <line x1="334.8" y1="334" x2="343.2" y2="334" />
    <line x1="343.2" y1="334" x2="351.59999999999997" y2="334" />
    <line x1="351.6" y1="334" x2="360" y2="334" />
    <line x1="360" y1="334" x2="368.4" y2="334" />
    <line x1="112.2" y1="404" x2="112.2" y2="424" />
    <line x1="162.6" y1="424" x2="166.8" y2="414" />
    <line x1="166.8" y1="414" x2="175.20000000000002" y2="414" />
    <line x1="175.20000000000002" y1="414" x2="183.60000000000002" y2="414" />
    <line x1="183.6" y1="414" x2="187.79999999999998" y2="424" />
    <line x1="112.2" y1="424" x2="112.2" y2="444" />
    <line x1="162.6" y1="424" x2="162.6" y2="444" />
    <line x1="187.79999999999998" y1="424" x2="187.79999999999998" y2="444" />
    <line x1="238.2" y1="444" x2="242.4" y2="434" />
    <line x1="242.4" y1="434" x2="250.8" y2="434" />
    <line x1="250.8" y1="434" x2="259.2" y2="434" />
    <line x1="259.20000000000005" y1="434" x2="267.6" y2="434" />
    <line x1="267.6" y1="434" x2="276" y2="434" />
    <line x1="276" y1="434" x2="280.2" y2="444" />
    <line x1="112.2" y1="444" x2="112.2" y2="464" />
    <line x1="137.39999999999998" y1="464" x2="141.6" y2="454" />
    <line x1="141.60000000000002" y1="454" x2="150.00000000000003" y2="454" />
    <line x1="150" y1="454" x2="158.4" y2="454" />
    <line x1="158.4" y1="454" x2="162.6" y2="444" />
    <line x1="187.79999999999998" y1="444" x2="187.79999999999998" y2="464" />
    <line x1="238.2" y1="444" x2="238.2" y2="464" />
    <line x1="280.2" y1="444" x2="280.2" y2="464" />
    <line x1="112.2" y1="464" x2="112.2" y2="484" />
    <line x1="137.39999999999998" y1="464" x2="137.39999999999998" y2="484" />
    <line x1="187.79999999999998" y1="464" x2="192" y2="474" />
    <line x1="192" y1="474" x2="200.4" y2="474" />
    <line x1="200.4" y1="474" x2="208.8" y2="474" />
    <line x1="208.8" y1="474" x2="217.20000000000002" y2="474" />
    <line x1="217.20000000000002" y1="474" x2="225.60000000000002" y2="474" />
    <line x1="225.60000000000002" y1="474" x2="234.00000000000003" y2="474" />
    <line x1="234" y1="474" x2="238.2" y2="464" />
    <line x1="280.2" y1="464" x2="284.4" y2="474" />
    <line x1="284.40000000000003" y1="474" x2="292.8" y2="474" />
    <line x1="292.8" y1="474" x2="301.2" y2="474" />
    <line x1="301.2" y1="474" x2="305.4" y2="484" />
    <line x1="112.2" y1="484" x2="112.2" y2="504" />
    <line x1="116.4" y1="494" x2="124.80000000000001" y2="494" />
    <line x1="124.80000000000001" y1="494" x2="133.20000000000002" y2="494" />
    <line x1="133.2" y1="494" x2="137.39999999999998" y2="484" />
    <line x1="305.4" y1="484" x2="309.59999999999997" y2="494" />
    <line x1="309.6" y1="494" x2="318" y2="494" />
    <line x1="318" y1="494" x2="326.4" y2="494" />
    <line x1="326.40000000000003" y1="494" x2="334.8" y2="494" />
    <line x1="334.8" y1="494" x2="343.2" y2="494" />
    <line x1="112.2" y1="504" x2="116.4" y2="514" />
    <line x1="116.4" y1="514" x2="124.80000000000001" y2="514" />
    <line x1="124.80000000000001" y1="514" x2="133.20000000000002" y2="514" />
    <line x1="133.2" y1="514" x2="141.6" y2="514" />
    <line x1="141.60000000000002" y1="514" x2="150.00000000000003" y2="514" />
    <line x1="150" y1="514" x2="158.4" y2="514" />
    <line x1="158.4" y1="514" x2="166.8" y2="514" />
    <line x1="166.8" y1="514" x2="175.20000000000002" y2="514" />
    <line x1="175.20000000000002" y1="514" x2="183.60000000000002" y2="514" />
    <line x1="183.6" y1="514" x2="192" y2="514" />
    <line x1="192" y1="514" x2="200.4" y2="514" />
    <line x1="200.4" y1="514" x2="208.8" y2="514" />
    <line x1="208.8" y1="514" x2="217.20000000000002" y2="514" />
    <line x1="217.20000000000002" y1="514" x2="225.60000000000002" y2="514" />
    <line x1="225.60000000000002" y1="514" x2="234.00000000000003" y2="514" />
    <line x1="234" y1="514" x2="242.4" y2="514" />
    <line x1="242.4" y1="514" x2="250.8" y2="514" />
    <line x1="250.8" y1="514" x2="259.2" y2="514" />
    <line x1="259.20000000000005" y1="514" x2="267.6" y2="514" />
    <line x1="267.6" y1="514" x2="276" y2="514" />
    <line x1="276" y1="514" x2="284.4" y2="514" />
    <line x1="284.40000000000003" y1="514" x2="292.8" y2="514" />
    <line x1="292.8" y1="514" x2="301.2" y2="514" />
    <line x1="301.2" y1="514" x2="309.59999999999997" y2="514" />
    <line x1="309.6" y1="514" x2="318" y2="514" />
    <line x1="318" y1="514" x2="326.4" y2="514" />
    <line x1="326.40000000000003" y1="514" x2="334.8" y2="514" />
    <line x1="334.8" y1="514" x2="343.2" y2="514" />
    <line x1="343.2" y1="514" x2="351.59999999999997" y2="514" />
  </g>
  <g>
    <text x="24" y="39" xml:space="preserve">Auto-Scaling Configuration:</text>
    <text x="24" y="59" xml:space="preserve">  Metric:     CPU Utilization</text>
    <text x="24" y="79" xml:space="preserve">  Target:     60%</text>
    <text x="24" y="99" xml:space="preserve">  Min:        2 instances</text>
    <text x="24" y="119" xml:space="preserve">  Max:        20 instances</text>
    <text x="24" y="139" xml:space="preserve">  Cooldown:   300 seconds (5 min between scale actions)</text>
    <text x="24" y="159" xml:space="preserve">  Scale-up:   +2 instances when CPU &gt; 70% for 2 min</text>
    <text x="24" y="179" xml:space="preserve">  Scale-down: -1 instance when CPU &lt; 40% for 10 min</text>
    <text x="24" y="219" xml:space="preserve">Traffic ▲</text>
    <text x="24" y="339" xml:space="preserve">                                         ► Time</text>
    <text x="24" y="359" xml:space="preserve">           6am    12pm    6pm    12am</text>
    <text x="24" y="399" xml:space="preserve">Instances ▲</text>
    <text x="24" y="519" xml:space="preserve">                                       ► Time</text>
    <text x="24" y="539" xml:space="preserve">          2     8    4     10    6    3</text>
  </g>
</svg>
