<?xml version="1.0" encoding="UTF-8"?>
<svg xmlns="http://www.w3.org/2000/svg" width="611" height="808" viewBox="0 0 611 808" role="img" aria-labelledby="title desc">
  <title id="title">Architecture diagram</title>
  <desc id="desc">Generated vector rendering of a documentation diagram.</desc>
  <defs>
    <style>
      .card { fill: #fbfcff; stroke: #cbd5e1; stroke-width: 1.2; }
      .segments { stroke: #0f172a; stroke-width: 1.8; stroke-linecap: round; }
      text {
        fill: #0f172a;
        font-family: "JetBrains Mono", "SFMono-Regular", Consolas, "Liberation Mono", monospace;
        font-size: 14px;
      }
    </style>
  </defs>
  <rect class="card" x="0.6" y="0.6" width="609.8" height="806.8" rx="16" />
  <g class="segments">
    <line x1="28.2" y1="44" x2="32.4" y2="34" />
    <line x1="32.4" y1="34" x2="40.8" y2="34" />
    <line x1="40.8" y1="34" x2="49.199999999999996" y2="34" />
    <line x1="49.2" y1="34" x2="57.6" y2="34" />
    <line x1="57.6" y1="34" x2="66" y2="34" />
    <line x1="66" y1="34" x2="74.4" y2="34" />
    <line x1="74.4" y1="34" x2="82.80000000000001" y2="34" />
    <line x1="82.80000000000001" y1="34" x2="91.20000000000002" y2="34" />
    <line x1="91.2" y1="34" x2="99.60000000000001" y2="34" />
    <line x1="99.60000000000001" y1="34" x2="108.00000000000001" y2="34" />
    <line x1="108" y1="34" x2="116.4" y2="34" />
    <line x1="116.4" y1="34" x2="124.80000000000001" y2="34" />
    <line x1="124.80000000000001" y1="34" x2="133.20000000000002" y2="34" />
    <line x1="133.2" y1="34" x2="141.6" y2="34" />
    <line x1="141.60000000000002" y1="34" x2="150.00000000000003" y2="34" />
    <line x1="150" y1="34" x2="158.4" y2="34" />
    <line x1="158.4" y1="34" x2="166.8" y2="34" />
    <line x1="166.8" y1="34" x2="175.20000000000002" y2="34" />
    <line x1="175.20000000000002" y1="34" x2="183.60000000000002" y2="34" />
    <line x1="183.6" y1="34" x2="192" y2="34" />
    <line x1="192" y1="34" x2="200.4" y2="34" />
    <line x1="200.4" y1="34" x2="208.8" y2="34" />
    <line x1="208.8" y1="34" x2="217.20000000000002" y2="34" />
    <line x1="217.20000000000002" y1="34" x2="225.60000000000002" y2="34" />
    <line x1="225.60000000000002" y1="34" x2="234.00000000000003" y2="34" />
    <line x1="234" y1="34" x2="242.4" y2="34" />
    <line x1="242.4" y1="34" x2="250.8" y2="34" />
    <line x1="250.8" y1="34" x2="259.2" y2="34" />
    <line x1="259.20000000000005" y1="34" x2="267.6" y2="34" />
    <line x1="267.6" y1="34" x2="276" y2="34" />
    <line x1="276" y1="34" x2="284.4" y2="34" />
    <line x1="284.40000000000003" y1="34" x2="292.8" y2="34" />
    <line x1="292.8" y1="34" x2="301.2" y2="34" />
    <line x1="301.2" y1="34" x2="309.59999999999997" y2="34" />
    <line x1="309.6" y1="34" x2="318" y2="34" />
    <line x1="318" y1="34" x2="326.4" y2="34" />
    <line x1="326.40000000000003" y1="34" x2="334.8" y2="34" />
    <line x1="334.8" y1="34" x2="343.2" y2="34" />
    <line x1="343.2" y1="34" x2="351.59999999999997" y2="34" />
    <line x1="351.6" y1="34" x2="360" y2="34" />
    <line x1="360" y1="34" x2="368.4" y2="34" />
    <line x1="368.40000000000003" y1="34" x2="376.8" y2="34" />
    <line x1="376.8" y1="34" x2="385.2" y2="34" />
    <line x1="385.2" y1="34" x2="393.59999999999997" y2="34" />
    <line x1="393.6" y1="34" x2="402" y2="34" />
    <line x1="402" y1="34" x2="410.4" y2="34" />
    <line x1="410.40000000000003" y1="34" x2="418.8" y2="34" />
    <line x1="418.8" y1="34" x2="427.2" y2="34" />
    <line x1="427.20000000000005" y1="34" x2="435.6" y2="34" />
    <line x1="435.6" y1="34" x2="444" y2="34" />
    <line x1="444" y1="34" x2="452.4" y2="34" />
    <line x1="452.40000000000003" y1="34" x2="460.8" y2="34" />
    <line x1="460.8" y1="34" x2="469.2" y2="34" />
    <line x1="469.20000000000005" y1="34" x2="477.6" y2="34" />
    <line x1="477.6" y1="34" x2="486" y2="34" />
    <line x1="486" y1="34" x2="494.4" y2="34" />
    <line x1="494.40000000000003" y1="34" x2="502.8" y2="34" />
    <line x1="502.8" y1="34" x2="511.2" y2="34" />
    <line x1="511.20000000000005" y1="34" x2="519.6" y2="34" />
    <line x1="519.6" y1="34" x2="528" y2="34" />
    <line x1="528" y1="34" x2="536.4" y2="34" />
    <line x1="536.4" y1="34" x2="544.8" y2="34" />
    <line x1="544.8000000000001" y1="34" x2="553.2" y2="34" />
    <line x1="553.2" y1="34" x2="561.6" y2="34" />
    <line x1="561.6" y1="34" x2="565.8000000000001" y2="44" />
    <line x1="28.2" y1="44" x2="28.2" y2="64" />
    <line x1="582.6" y1="44" x2="582.6" y2="64" />
    <line x1="28.2" y1="64" x2="28.2" y2="84" />
    <line x1="574.2" y1="64" x2="574.2" y2="84" />
    <line x1="28.2" y1="84" x2="28.2" y2="104" />
    <line x1="53.400000000000006" y1="104" x2="57.6" y2="94" />
    <line x1="57.6" y1="94" x2="66" y2="94" />
    <line x1="66" y1="94" x2="74.4" y2="94" />
    <line x1="74.4" y1="94" x2="82.80000000000001" y2="94" />
    <line x1="82.80000000000001" y1="94" x2="91.20000000000002" y2="94" />
    <line x1="91.2" y1="94" x2="99.60000000000001" y2="94" />
    <line x1="99.60000000000001" y1="94" x2="108.00000000000001" y2="94" />
    <line x1="108" y1="94" x2="116.4" y2="94" />
    <line x1="116.4" y1="94" x2="124.80000000000001" y2="94" />
    <line x1="124.80000000000001" y1="94" x2="133.20000000000002" y2="94" />
    <line x1="133.2" y1="94" x2="141.6" y2="94" />
    <line x1="141.60000000000002" y1="94" x2="145.8" y2="104" />
    <line x1="162.6" y1="104" x2="166.8" y2="94" />
    <line x1="166.8" y1="94" x2="175.20000000000002" y2="94" />
    <line x1="175.20000000000002" y1="94" x2="183.60000000000002" y2="94" />
    <line x1="183.6" y1="94" x2="192" y2="94" />
    <line x1="192" y1="94" x2="200.4" y2="94" />
    <line x1="200.4" y1="94" x2="208.8" y2="94" />
    <line x1="208.8" y1="94" x2="217.20000000000002" y2="94" />
    <line x1="217.20000000000002" y1="94" x2="225.60000000000002" y2="94" />
    <line x1="225.60000000000002" y1="94" x2="234.00000000000003" y2="94" />
    <line x1="234" y1="94" x2="242.4" y2="94" />
    <line x1="242.4" y1="94" x2="250.8" y2="94" />
    <line x1="250.8" y1="94" x2="255" y2="104" />
    <line x1="271.8" y1="104" x2="276" y2="94" />
    <line x1="276" y1="94" x2="284.4" y2="94" />
    <line x1="284.40000000000003" y1="94" x2="292.8" y2="94" />
    <line x1="292.8" y1="94" x2="301.2" y2="94" />
    <line x1="301.2" y1="94" x2="309.59999999999997" y2="94" />
    <line x1="309.6" y1="94" x2="318" y2="94" />
    <line x1="318" y1="94" x2="326.4" y2="94" />
    <line x1="326.40000000000003" y1="94" x2="334.8" y2="94" />
    <line x1="334.8" y1="94" x2="343.2" y2="94" />
    <line x1="343.2" y1="94" x2="351.59999999999997" y2="94" />
    <line x1="351.6" y1="94" x2="360" y2="94" />
    <line x1="360" y1="94" x2="364.2" y2="104" />
    <line x1="565.8000000000001" y1="84" x2="565.8000000000001" y2="104" />
    <line x1="28.2" y1="104" x2="28.2" y2="124" />
    <line x1="53.400000000000006" y1="104" x2="53.400000000000006" y2="124" />
    <line x1="145.8" y1="104" x2="145.8" y2="124" />
    <line x1="162.6" y1="104" x2="162.6" y2="124" />
    <line x1="255" y1="104" x2="255" y2="124" />
    <line x1="271.8" y1="104" x2="271.8" y2="124" />
    <line x1="364.2" y1="104" x2="364.2" y2="124" />
    <line x1="565.8000000000001" y1="104" x2="565.8000000000001" y2="124" />
    <line x1="28.2" y1="124" x2="28.2" y2="144" />
    <line x1="53.400000000000006" y1="124" x2="57.6" y2="134" />
    <line x1="57.6" y1="134" x2="66" y2="134" />
    <line x1="66" y1="134" x2="74.4" y2="134" />
    <line x1="74.4" y1="134" x2="82.80000000000001" y2="134" />
    <line x1="82.80000000000001" y1="134" x2="91.20000000000002" y2="134" />
    <line x1="91.2" y1="134" x2="99.60000000000001" y2="134" />
    <line x1="95.4" y1="134" x2="95.4" y2="144" />
    <line x1="99.60000000000001" y1="134" x2="108.00000000000001" y2="134" />
    <line x1="108" y1="134" x2="116.4" y2="134" />
    <line x1="116.4" y1="134" x2="124.80000000000001" y2="134" />
    <line x1="124.80000000000001" y1="134" x2="133.20000000000002" y2="134" />
    <line x1="133.2" y1="134" x2="141.6" y2="134" />
    <line x1="141.60000000000002" y1="134" x2="145.8" y2="124" />
    <line x1="162.6" y1="124" x2="166.8" y2="134" />
    <line x1="166.8" y1="134" x2="175.20000000000002" y2="134" />
    <line x1="175.20000000000002" y1="134" x2="183.60000000000002" y2="134" />
    <line x1="183.6" y1="134" x2="192" y2="134" />
    <line x1="192" y1="134" x2="200.4" y2="134" />
    <line x1="200.4" y1="134" x2="208.8" y2="134" />
    <line x1="204.6" y1="134" x2="204.6" y2="144" />
    <line x1="208.8" y1="134" x2="217.20000000000002" y2="134" />
    <line x1="217.20000000000002" y1="134" x2="225.60000000000002" y2="134" />
    <line x1="225.60000000000002" y1="134" x2="234.00000000000003" y2="134" />
    <line x1="234" y1="134" x2="242.4" y2="134" />
    <line x1="242.4" y1="134" x2="250.8" y2="134" />
    <line x1="250.8" y1="134" x2="255" y2="124" />
    <line x1="271.8" y1="124" x2="276" y2="134" />
    <line x1="276" y1="134" x2="284.4" y2="134" />
    <line x1="284.40000000000003" y1="134" x2="292.8" y2="134" />
    <line x1="292.8" y1="134" x2="301.2" y2="134" />
    <line x1="301.2" y1="134" x2="309.59999999999997" y2="134" />
    <line x1="309.6" y1="134" x2="318" y2="134" />
    <line x1="313.8" y1="134" x2="313.8" y2="144" />
    <line x1="318" y1="134" x2="326.4" y2="134" />
    <line x1="326.40000000000003" y1="134" x2="334.8" y2="134" />
    <line x1="334.8" y1="134" x2="343.2" y2="134" />
    <line x1="343.2" y1="134" x2="351.59999999999997" y2="134" />
    <line x1="351.6" y1="134" x2="360" y2="134" />
    <line x1="360" y1="134" x2="364.2" y2="124" />
    <line x1="565.8000000000001" y1="124" x2="565.8000000000001" y2="144" />
    <line x1="28.2" y1="144" x2="28.2" y2="164" />
    <line x1="95.4" y1="144" x2="99.60000000000001" y2="154" />
    <line x1="99.60000000000001" y1="154" x2="108.00000000000001" y2="154" />
    <line x1="108" y1="154" x2="116.4" y2="154" />
    <line x1="116.4" y1="154" x2="124.80000000000001" y2="154" />
    <line x1="124.80000000000001" y1="154" x2="133.20000000000002" y2="154" />
    <line x1="133.2" y1="154" x2="141.6" y2="154" />
    <line x1="141.60000000000002" y1="154" x2="150.00000000000003" y2="154" />
    <line x1="150" y1="154" x2="158.4" y2="154" />
    <line x1="158.4" y1="154" x2="166.8" y2="154" />
    <line x1="166.8" y1="154" x2="175.20000000000002" y2="154" />
    <line x1="175.20000000000002" y1="154" x2="183.60000000000002" y2="154" />
    <line x1="183.6" y1="154" x2="192" y2="154" />
    <line x1="192" y1="154" x2="200.4" y2="154" />
    <line x1="200.4" y1="154" x2="208.8" y2="154" />
    <line x1="208.8" y1="154" x2="217.20000000000002" y2="154" />
    <line x1="213" y1="144" x2="213" y2="164" />
    <line x1="217.20000000000002" y1="154" x2="225.60000000000002" y2="154" />
    <line x1="225.60000000000002" y1="154" x2="234.00000000000003" y2="154" />
    <line x1="234" y1="154" x2="242.4" y2="154" />
    <line x1="242.4" y1="154" x2="250.8" y2="154" />
    <line x1="250.8" y1="154" x2="259.2" y2="154" />
    <line x1="259.20000000000005" y1="154" x2="267.6" y2="154" />
    <line x1="267.6" y1="154" x2="276" y2="154" />
    <line x1="276" y1="154" x2="284.4" y2="154" />
    <line x1="284.40000000000003" y1="154" x2="292.8" y2="154" />
    <line x1="292.8" y1="154" x2="301.2" y2="154" />
    <line x1="301.2" y1="154" x2="309.59999999999997" y2="154" />
    <line x1="309.6" y1="154" x2="313.8" y2="144" />
    <line x1="574.2" y1="144" x2="574.2" y2="164" />
    <line x1="28.2" y1="164" x2="28.2" y2="184" />
    <line x1="574.2" y1="164" x2="574.2" y2="184" />
    <line x1="28.2" y1="184" x2="28.2" y2="204" />
    <line x1="53.400000000000006" y1="204" x2="57.6" y2="194" />
    <line x1="57.6" y1="194" x2="66" y2="194" />
    <line x1="66" y1="194" x2="74.4" y2="194" />
    <line x1="74.4" y1="194" x2="82.80000000000001" y2="194" />
    <line x1="82.80000000000001" y1="194" x2="91.20000000000002" y2="194" />
    <line x1="91.2" y1="194" x2="99.60000000000001" y2="194" />
    <line x1="99.60000000000001" y1="194" x2="108.00000000000001" y2="194" />
    <line x1="108" y1="194" x2="116.4" y2="194" />
    <line x1="116.4" y1="194" x2="124.80000000000001" y2="194" />
    <line x1="124.80000000000001" y1="194" x2="133.20000000000002" y2="194" />
    <line x1="133.2" y1="194" x2="141.6" y2="194" />
    <line x1="141.60000000000002" y1="194" x2="150.00000000000003" y2="194" />
    <line x1="150" y1="194" x2="158.4" y2="194" />
    <line x1="158.4" y1="194" x2="166.8" y2="194" />
    <line x1="166.8" y1="194" x2="175.20000000000002" y2="194" />
    <line x1="175.20000000000002" y1="194" x2="183.60000000000002" y2="194" />
    <line x1="183.6" y1="194" x2="192" y2="194" />
    <line x1="192" y1="194" x2="200.4" y2="194" />
    <line x1="200.4" y1="194" x2="208.8" y2="194" />
    <line x1="208.8" y1="194" x2="217.20000000000002" y2="194" />
    <line x1="217.20000000000002" y1="194" x2="225.60000000000002" y2="194" />
    <line x1="225.60000000000002" y1="194" x2="234.00000000000003" y2="194" />
    <line x1="234" y1="194" x2="242.4" y2="194" />
    <line x1="242.4" y1="194" x2="250.8" y2="194" />
    <line x1="250.8" y1="194" x2="259.2" y2="194" />
    <line x1="259.20000000000005" y1="194" x2="267.6" y2="194" />
    <line x1="267.6" y1="194" x2="276" y2="194" />
    <line x1="276" y1="194" x2="284.4" y2="194" />
    <line x1="284.40000000000003" y1="194" x2="292.8" y2="194" />
    <line x1="292.8" y1="194" x2="301.2" y2="194" />
    <line x1="301.2" y1="194" x2="309.59999999999997" y2="194" />
    <line x1="309.6" y1="194" x2="313.8" y2="204" />
    <line x1="574.2" y1="184" x2="574.2" y2="204" />
    <line x1="28.2" y1="204" x2="28.2" y2="224" />
    <line x1="53.400000000000006" y1="204" x2="53.400000000000006" y2="224" />
    <line x1="305.4" y1="204" x2="305.4" y2="224" />
    <line x1="565.8000000000001" y1="204" x2="565.8000000000001" y2="224" />
    <line x1="28.2" y1="224" x2="28.2" y2="244" />
    <line x1="53.400000000000006" y1="224" x2="53.400000000000006" y2="244" />
    <line x1="305.4" y1="224" x2="305.4" y2="244" />
    <line x1="574.2" y1="224" x2="574.2" y2="244" />
    <line x1="28.2" y1="244" x2="28.2" y2="264" />
    <line x1="53.400000000000006" y1="244" x2="53.400000000000006" y2="264" />
    <line x1="305.4" y1="244" x2="305.4" y2="264" />
    <line x1="574.2" y1="244" x2="574.2" y2="264" />
    <line x1="28.2" y1="264" x2="28.2" y2="284" />
    <line x1="53.400000000000006" y1="264" x2="57.6" y2="274" />
    <line x1="57.6" y1="274" x2="66" y2="274" />
    <line x1="66" y1="274" x2="74.4" y2="274" />
    <line x1="74.4" y1="274" x2="82.80000000000001" y2="274" />
    <line x1="82.80000000000001" y1="274" x2="91.20000000000002" y2="274" />
    <line x1="91.2" y1="274" x2="99.60000000000001" y2="274" />
    <line x1="99.60000000000001" y1="274" x2="108.00000000000001" y2="274" />
    <line x1="108" y1="274" x2="116.4" y2="274" />
    <line x1="116.4" y1="274" x2="124.80000000000001" y2="274" />
    <line x1="124.80000000000001" y1="274" x2="133.20000000000002" y2="274" />
    <line x1="133.2" y1="274" x2="141.6" y2="274" />
    <line x1="141.60000000000002" y1="274" x2="150.00000000000003" y2="274" />
    <line x1="150" y1="274" x2="158.4" y2="274" />
    <line x1="158.4" y1="274" x2="166.8" y2="274" />
    <line x1="166.8" y1="274" x2="175.20000000000002" y2="274" />
    <line x1="175.20000000000002" y1="274" x2="183.60000000000002" y2="274" />
    <line x1="179.4" y1="274" x2="179.4" y2="284" />
    <line x1="183.6" y1="274" x2="192" y2="274" />
    <line x1="192" y1="274" x2="200.4" y2="274" />
    <line x1="200.4" y1="274" x2="208.8" y2="274" />
    <line x1="208.8" y1="274" x2="217.20000000000002" y2="274" />
    <line x1="217.20000000000002" y1="274" x2="225.60000000000002" y2="274" />
    <line x1="225.60000000000002" y1="274" x2="234.00000000000003" y2="274" />
    <line x1="234" y1="274" x2="242.4" y2="274" />
    <line x1="242.4" y1="274" x2="250.8" y2="274" />
    <line x1="250.8" y1="274" x2="259.2" y2="274" />
    <line x1="259.20000000000005" y1="274" x2="267.6" y2="274" />
    <line x1="267.6" y1="274" x2="276" y2="274" />
    <line x1="276" y1="274" x2="284.4" y2="274" />
    <line x1="284.40000000000003" y1="274" x2="292.8" y2="274" />
    <line x1="292.8" y1="274" x2="301.2" y2="274" />
    <line x1="301.2" y1="274" x2="305.4" y2="264" />
    <line x1="565.8000000000001" y1="264" x2="565.8000000000001" y2="284" />
    <line x1="28.2" y1="284" x2="28.2" y2="304" />
    <line x1="179.4" y1="284" x2="179.4" y2="304" />
    <line x1="574.2" y1="284" x2="574.2" y2="304" />
    <line x1="28.2" y1="304" x2="28.2" y2="324" />
    <line x1="70.2" y1="324" x2="74.4" y2="314" />
    <line x1="74.4" y1="314" x2="82.80000000000001" y2="314" />
    <line x1="82.80000000000001" y1="314" x2="91.20000000000002" y2="314" />
    <line x1="91.2" y1="314" x2="99.60000000000001" y2="314" />
    <line x1="99.60000000000001" y1="314" x2="108.00000000000001" y2="314" />
    <line x1="108" y1="314" x2="116.4" y2="314" />
    <line x1="116.4" y1="314" x2="124.80000000000001" y2="314" />
    <line x1="124.80000000000001" y1="314" x2="133.20000000000002" y2="314" />
    <line x1="133.2" y1="314" x2="141.6" y2="314" />
    <line x1="141.60000000000002" y1="314" x2="150.00000000000003" y2="314" />
    <line x1="150" y1="314" x2="158.4" y2="314" />
    <line x1="158.4" y1="314" x2="166.8" y2="314" />
    <line x1="166.8" y1="314" x2="175.20000000000002" y2="314" />
    <line x1="175.20000000000002" y1="314" x2="183.60000000000002" y2="314" />
    <line x1="179.4" y1="304" x2="179.4" y2="324" />
    <line x1="183.6" y1="314" x2="192" y2="314" />
    <line x1="192" y1="314" x2="200.4" y2="314" />
    <line x1="200.4" y1="314" x2="208.8" y2="314" />
    <line x1="208.8" y1="314" x2="217.20000000000002" y2="314" />
    <line x1="217.20000000000002" y1="314" x2="225.60000000000002" y2="314" />
    <line x1="225.60000000000002" y1="314" x2="234.00000000000003" y2="314" />
    <line x1="234" y1="314" x2="242.4" y2="314" />
    <line x1="242.4" y1="314" x2="250.8" y2="314" />
    <line x1="250.8" y1="314" x2="259.2" y2="314" />
    <line x1="259.20000000000005" y1="314" x2="267.6" y2="314" />
    <line x1="267.6" y1="314" x2="276" y2="314" />
    <line x1="276" y1="314" x2="284.4" y2="314" />
    <line x1="284.40000000000003" y1="314" x2="288.6" y2="324" />
    <line x1="574.2" y1="304" x2="574.2" y2="324" />
    <line x1="28.2" y1="324" x2="28.2" y2="344" />
    <line x1="574.2" y1="324" x2="574.2" y2="344" />
    <line x1="28.2" y1="344" x2="28.2" y2="364" />
    <line x1="53.400000000000006" y1="364" x2="57.6" y2="354" />
    <line x1="57.6" y1="354" x2="66" y2="354" />
    <line x1="66" y1="354" x2="74.4" y2="354" />
    <line x1="74.4" y1="354" x2="82.80000000000001" y2="354" />
    <line x1="82.80000000000001" y1="354" x2="91.20000000000002" y2="354" />
    <line x1="91.2" y1="354" x2="99.60000000000001" y2="354" />
    <line x1="99.60000000000001" y1="354" x2="108.00000000000001" y2="354" />
    <line x1="108" y1="354" x2="112.2" y2="364" />
    <line x1="137.39999999999998" y1="364" x2="141.6" y2="354" />
    <line x1="141.60000000000002" y1="354" x2="150.00000000000003" y2="354" />
    <line x1="150" y1="354" x2="158.4" y2="354" />
    <line x1="158.4" y1="354" x2="166.8" y2="354" />
    <line x1="166.8" y1="354" x2="175.20000000000002" y2="354" />
    <line x1="175.20000000000002" y1="354" x2="183.60000000000002" y2="354" />
    <line x1="183.6" y1="354" x2="192" y2="354" />
    <line x1="192" y1="354" x2="196.2" y2="364" />
    <line x1="221.4" y1="364" x2="225.60000000000002" y2="354" />
    <line x1="225.60000000000002" y1="354" x2="234.00000000000003" y2="354" />
    <line x1="234" y1="354" x2="242.4" y2="354" />
    <line x1="242.4" y1="354" x2="250.8" y2="354" />
    <line x1="250.8" y1="354" x2="259.2" y2="354" />
    <line x1="259.20000000000005" y1="354" x2="267.6" y2="354" />
    <line x1="267.6" y1="354" x2="276" y2="354" />
    <line x1="276" y1="354" x2="280.2" y2="364" />
    <line x1="565.8000000000001" y1="344" x2="565.8000000000001" y2="364" />
    <line x1="28.2" y1="364" x2="28.2" y2="384" />
    <line x1="53.400000000000006" y1="364" x2="53.400000000000006" y2="384" />
    <line x1="112.2" y1="364" x2="112.2" y2="384" />
    <line x1="137.39999999999998" y1="364" x2="137.39999999999998" y2="384" />
    <line x1="196.2" y1="364" x2="196.2" y2="384" />
    <line x1="221.4" y1="364" x2="221.4" y2="384" />
    <line x1="280.2" y1="364" x2="280.2" y2="384" />
    <line x1="565.8000000000001" y1="364" x2="565.8000000000001" y2="384" />
    <line x1="28.2" y1="384" x2="28.2" y2="404" />
    <line x1="53.400000000000006" y1="384" x2="53.400000000000006" y2="404" />
    <line x1="112.2" y1="384" x2="112.2" y2="404" />
    <line x1="137.39999999999998" y1="384" x2="137.39999999999998" y2="404" />
    <line x1="196.2" y1="384" x2="196.2" y2="404" />
    <line x1="221.4" y1="384" x2="221.4" y2="404" />
    <line x1="280.2" y1="384" x2="280.2" y2="404" />
    <line x1="565.8000000000001" y1="384" x2="565.8000000000001" y2="404" />
    <line x1="28.2" y1="404" x2="28.2" y2="424" />
    <line x1="53.400000000000006" y1="404" x2="53.400000000000006" y2="424" />
    <line x1="112.2" y1="404" x2="112.2" y2="424" />
    <line x1="137.39999999999998" y1="404" x2="137.39999999999998" y2="424" />
    <line x1="196.2" y1="404" x2="196.2" y2="424" />
    <line x1="221.4" y1="404" x2="221.4" y2="424" />
    <line x1="280.2" y1="404" x2="280.2" y2="424" />
    <line x1="565.8000000000001" y1="404" x2="565.8000000000001" y2="424" />
    <line x1="28.2" y1="424" x2="28.2" y2="444" />
    <line x1="53.400000000000006" y1="424" x2="57.6" y2="434" />
    <line x1="57.6" y1="434" x2="66" y2="434" />
    <line x1="66" y1="434" x2="74.4" y2="434" />
    <line x1="74.4" y1="434" x2="82.80000000000001" y2="434" />
    <line x1="78.60000000000001" y1="434" x2="78.60000000000001" y2="444" />
    <line x1="82.80000000000001" y1="434" x2="91.20000000000002" y2="434" />
    <line x1="91.2" y1="434" x2="99.60000000000001" y2="434" />
    <line x1="99.60000000000001" y1="434" x2="108.00000000000001" y2="434" />
    <line x1="108" y1="434" x2="112.2" y2="424" />
    <line x1="137.39999999999998" y1="424" x2="141.6" y2="434" />
    <line x1="141.60000000000002" y1="434" x2="150.00000000000003" y2="434" />
    <line x1="150" y1="434" x2="158.4" y2="434" />
    <line x1="158.4" y1="434" x2="166.8" y2="434" />
    <line x1="162.6" y1="434" x2="162.6" y2="444" />
    <line x1="166.8" y1="434" x2="175.20000000000002" y2="434" />
    <line x1="175.20000000000002" y1="434" x2="183.60000000000002" y2="434" />
    <line x1="183.6" y1="434" x2="192" y2="434" />
    <line x1="192" y1="434" x2="196.2" y2="424" />
    <line x1="221.4" y1="424" x2="225.60000000000002" y2="434" />
    <line x1="225.60000000000002" y1="434" x2="234.00000000000003" y2="434" />
    <line x1="234" y1="434" x2="242.4" y2="434" />
    <line x1="242.4" y1="434" x2="250.8" y2="434" />
    <line x1="246.6" y1="434" x2="246.6" y2="444" />
    <line x1="250.8" y1="434" x2="259.2" y2="434" />
    <line x1="259.20000000000005" y1="434" x2="267.6" y2="434" />
    <line x1="267.6" y1="434" x2="276" y2="434" />
    <line x1="276" y1="434" x2="280.2" y2="424" />
    <line x1="565.8000000000001" y1="424" x2="565.8000000000001" y2="444" />
    <line x1="28.2" y1="444" x2="28.2" y2="464" />
    <line x1="78.60000000000001" y1="444" x2="78.60000000000001" y2="464" />
    <line x1="162.6" y1="444" x2="162.6" y2="464" />
    <line x1="246.6" y1="444" x2="246.6" y2="464" />
    <line x1="574.2" y1="444" x2="574.2" y2="464" />
    <line x1="28.2" y1="464" x2="28.2" y2="484" />
    <line x1="574.2" y1="464" x2="574.2" y2="484" />
    <line x1="28.2" y1="484" x2="28.2" y2="504" />
    <line x1="53.400000000000006" y1="504" x2="57.6" y2="494" />
    <line x1="57.6" y1="494" x2="66" y2="494" />
    <line x1="66" y1="494" x2="74.4" y2="494" />
    <line x1="74.4" y1="494" x2="82.80000000000001" y2="494" />
    <line x1="82.80000000000001" y1="494" x2="91.20000000000002" y2="494" />
    <line x1="91.2" y1="494" x2="99.60000000000001" y2="494" />
    <line x1="99.60000000000001" y1="494" x2="108.00000000000001" y2="494" />
    <line x1="108" y1="494" x2="112.2" y2="504" />
    <line x1="137.39999999999998" y1="504" x2="141.6" y2="494" />
    <line x1="141.60000000000002" y1="494" x2="150.00000000000003" y2="494" />
    <line x1="150" y1="494" x2="158.4" y2="494" />
    <line x1="158.4" y1="494" x2="166.8" y2="494" />
    <line x1="166.8" y1="494" x2="175.20000000000002" y2="494" />
    <line x1="175.20000000000002" y1="494" x2="183.60000000000002" y2="494" />
    <line x1="183.6" y1="494" x2="192" y2="494" />
    <line x1="192" y1="494" x2="196.2" y2="504" />
    <line x1="221.4" y1="504" x2="225.60000000000002" y2="494" />
    <line x1="225.60000000000002" y1="494" x2="234.00000000000003" y2="494" />
    <line x1="234" y1="494" x2="242.4" y2="494" />
    <line x1="242.4" y1="494" x2="250.8" y2="494" />
    <line x1="250.8" y1="494" x2="259.2" y2="494" />
    <line x1="259.20000000000005" y1="494" x2="267.6" y2="494" />
    <line x1="267.6" y1="494" x2="276" y2="494" />
    <line x1="276" y1="494" x2="280.2" y2="504" />
    <line x1="565.8000000000001" y1="484" x2="565.8000000000001" y2="504" />
    <line x1="28.2" y1="504" x2="28.2" y2="524" />
    <line x1="53.400000000000006" y1="504" x2="53.400000000000006" y2="524" />
    <line x1="112.2" y1="504" x2="112.2" y2="524" />
    <line x1="137.39999999999998" y1="504" x2="137.39999999999998" y2="524" />
    <line x1="196.2" y1="504" x2="196.2" y2="524" />
    <line x1="221.4" y1="504" x2="221.4" y2="524" />
    <line x1="280.2" y1="504" x2="280.2" y2="524" />
    <line x1="565.8000000000001" y1="504" x2="565.8000000000001" y2="524" />
    <line x1="28.2" y1="524" x2="28.2" y2="544" />
    <line x1="53.400000000000006" y1="524" x2="53.400000000000006" y2="544" />
    <line x1="112.2" y1="524" x2="112.2" y2="544" />
    <line x1="137.39999999999998" y1="524" x2="137.39999999999998" y2="544" />
    <line x1="196.2" y1="524" x2="196.2" y2="544" />
    <line x1="221.4" y1="524" x2="221.4" y2="544" />
    <line x1="280.2" y1="524" x2="280.2" y2="544" />
    <line x1="565.8000000000001" y1="524" x2="565.8000000000001" y2="544" />
    <line x1="28.2" y1="544" x2="28.2" y2="564" />
    <line x1="53.400000000000006" y1="544" x2="57.6" y2="554" />
    <line x1="57.6" y1="554" x2="66" y2="554" />
    <line x1="66" y1="554" x2="74.4" y2="554" />
    <line x1="74.4" y1="554" x2="82.80000000000001" y2="554" />
    <line x1="82.80000000000001" y1="554" x2="91.20000000000002" y2="554" />
    <line x1="91.2" y1="554" x2="99.60000000000001" y2="554" />
    <line x1="99.60000000000001" y1="554" x2="108.00000000000001" y2="554" />
    <line x1="108" y1="554" x2="112.2" y2="544" />
    <line x1="137.39999999999998" y1="544" x2="141.6" y2="554" />
    <line x1="141.60000000000002" y1="554" x2="150.00000000000003" y2="554" />
    <line x1="150" y1="554" x2="158.4" y2="554" />
    <line x1="158.4" y1="554" x2="166.8" y2="554" />
    <line x1="166.8" y1="554" x2="175.20000000000002" y2="554" />
    <line x1="175.20000000000002" y1="554" x2="183.60000000000002" y2="554" />
    <line x1="183.6" y1="554" x2="192" y2="554" />
    <line x1="192" y1="554" x2="196.2" y2="544" />
    <line x1="221.4" y1="544" x2="225.60000000000002" y2="554" />
    <line x1="225.60000000000002" y1="554" x2="234.00000000000003" y2="554" />
    <line x1="234" y1="554" x2="242.4" y2="554" />
    <line x1="242.4" y1="554" x2="250.8" y2="554" />
    <line x1="250.8" y1="554" x2="259.2" y2="554" />
    <line x1="259.20000000000005" y1="554" x2="267.6" y2="554" />
    <line x1="267.6" y1="554" x2="276" y2="554" />
    <line x1="276" y1="554" x2="280.2" y2="544" />
    <line x1="565.8000000000001" y1="544" x2="565.8000000000001" y2="564" />
    <line x1="28.2" y1="564" x2="28.2" y2="584" />
    <line x1="582.6" y1="564" x2="582.6" y2="584" />
    <line x1="28.2" y1="584" x2="28.2" y2="604" />
    <line x1="53.400000000000006" y1="604" x2="57.6" y2="594" />
    <line x1="57.6" y1="594" x2="66" y2="594" />
    <line x1="66" y1="594" x2="74.4" y2="594" />
    <line x1="74.4" y1="594" x2="82.80000000000001" y2="594" />
    <line x1="82.80000000000001" y1="594" x2="91.20000000000002" y2="594" />
    <line x1="91.2" y1="594" x2="99.60000000000001" y2="594" />
    <line x1="99.60000000000001" y1="594" x2="108.00000000000001" y2="594" />
    <line x1="108" y1="594" x2="116.4" y2="594" />
    <line x1="116.4" y1="594" x2="124.80000000000001" y2="594" />
    <line x1="124.80000000000001" y1="594" x2="133.20000000000002" y2="594" />
    <line x1="133.2" y1="594" x2="141.6" y2="594" />
    <line x1="141.60000000000002" y1="594" x2="150.00000000000003" y2="594" />
    <line x1="150" y1="594" x2="158.4" y2="594" />
    <line x1="158.4" y1="594" x2="166.8" y2="594" />
    <line x1="166.8" y1="594" x2="175.20000000000002" y2="594" />
    <line x1="175.20000000000002" y1="594" x2="183.60000000000002" y2="594" />
    <line x1="183.6" y1="594" x2="192" y2="594" />
    <line x1="192" y1="594" x2="200.4" y2="594" />
    <line x1="200.4" y1="594" x2="208.8" y2="594" />
    <line x1="208.8" y1="594" x2="217.20000000000002" y2="594" />
    <line x1="217.20000000000002" y1="594" x2="225.60000000000002" y2="594" />
    <line x1="225.60000000000002" y1="594" x2="234.00000000000003" y2="594" />
    <line x1="234" y1="594" x2="242.4" y2="594" />
    <line x1="242.4" y1="594" x2="250.8" y2="594" />
    <line x1="250.8" y1="594" x2="259.2" y2="594" />
    <line x1="259.20000000000005" y1="594" x2="267.6" y2="594" />
    <line x1="267.6" y1="594" x2="276" y2="594" />
    <line x1="276" y1="594" x2="280.2" y2="604" />
    <line x1="574.2" y1="584" x2="574.2" y2="604" />
    <line x1="28.2" y1="604" x2="28.2" y2="624" />
    <line x1="53.400000000000006" y1="604" x2="53.400000000000006" y2="624" />
    <line x1="297" y1="604" x2="297" y2="624" />
    <line x1="582.6" y1="604" x2="582.6" y2="624" />
    <line x1="28.2" y1="624" x2="28.2" y2="644" />
    <line x1="53.400000000000006" y1="624" x2="53.400000000000006" y2="644" />
    <line x1="297" y1="624" x2="297" y2="644" />
    <line x1="582.6" y1="624" x2="582.6" y2="644" />
    <line x1="28.2" y1="644" x2="28.2" y2="664" />
    <line x1="53.400000000000006" y1="644" x2="57.6" y2="654" />
    <line x1="57.6" y1="654" x2="66" y2="654" />
    <line x1="66" y1="654" x2="74.4" y2="654" />
    <line x1="74.4" y1="654" x2="82.80000000000001" y2="654" />
    <line x1="82.80000000000001" y1="654" x2="91.20000000000002" y2="654" />
    <line x1="91.2" y1="654" x2="99.60000000000001" y2="654" />
    <line x1="99.60000000000001" y1="654" x2="108.00000000000001" y2="654" />
    <line x1="108" y1="654" x2="116.4" y2="654" />
    <line x1="116.4" y1="654" x2="124.80000000000001" y2="654" />
    <line x1="124.80000000000001" y1="654" x2="133.20000000000002" y2="654" />
    <line x1="133.2" y1="654" x2="141.6" y2="654" />
    <line x1="141.60000000000002" y1="654" x2="150.00000000000003" y2="654" />
    <line x1="150" y1="654" x2="158.4" y2="654" />
    <line x1="158.4" y1="654" x2="166.8" y2="654" />
    <line x1="166.8" y1="654" x2="175.20000000000002" y2="654" />
    <line x1="175.20000000000002" y1="654" x2="183.60000000000002" y2="654" />
    <line x1="183.6" y1="654" x2="192" y2="654" />
    <line x1="192" y1="654" x2="200.4" y2="654" />
    <line x1="200.4" y1="654" x2="208.8" y2="654" />
    <line x1="208.8" y1="654" x2="217.20000000000002" y2="654" />
    <line x1="217.20000000000002" y1="654" x2="225.60000000000002" y2="654" />
    <line x1="225.60000000000002" y1="654" x2="234.00000000000003" y2="654" />
    <line x1="234" y1="654" x2="242.4" y2="654" />
    <line x1="242.4" y1="654" x2="250.8" y2="654" />
    <line x1="250.8" y1="654" x2="259.2" y2="654" />
    <line x1="259.20000000000005" y1="654" x2="267.6" y2="654" />
    <line x1="267.6" y1="654" x2="276" y2="654" />
    <line x1="276" y1="654" x2="280.2" y2="644" />
    <line x1="574.2" y1="644" x2="574.2" y2="664" />
    <line x1="28.2" y1="664" x2="28.2" y2="684" />
    <line x1="582.6" y1="664" x2="582.6" y2="684" />
    <line x1="28.2" y1="684" x2="28.2" y2="704" />
    <line x1="53.400000000000006" y1="704" x2="57.6" y2="694" />
    <line x1="57.6" y1="694" x2="66" y2="694" />
    <line x1="66" y1="694" x2="74.4" y2="694" />
    <line x1="74.4" y1="694" x2="82.80000000000001" y2="694" />
    <line x1="82.80000000000001" y1="694" x2="91.20000000000002" y2="694" />
    <line x1="91.2" y1="694" x2="99.60000000000001" y2="694" />
    <line x1="99.60000000000001" y1="694" x2="108.00000000000001" y2="694" />
    <line x1="108" y1="694" x2="116.4" y2="694" />
    <line x1="116.4" y1="694" x2="124.80000000000001" y2="694" />
    <line x1="124.80000000000001" y1="694" x2="133.20000000000002" y2="694" />
    <line x1="133.2" y1="694" x2="141.6" y2="694" />
    <line x1="141.60000000000002" y1="694" x2="150.00000000000003" y2="694" />
    <line x1="150" y1="694" x2="158.4" y2="694" />
    <line x1="158.4" y1="694" x2="166.8" y2="694" />
    <line x1="166.8" y1="694" x2="175.20000000000002" y2="694" />
    <line x1="175.20000000000002" y1="694" x2="183.60000000000002" y2="694" />
    <line x1="183.6" y1="694" x2="192" y2="694" />
    <line x1="192" y1="694" x2="200.4" y2="694" />
    <line x1="200.4" y1="694" x2="208.8" y2="694" />
    <line x1="208.8" y1="694" x2="217.20000000000002" y2="694" />
    <line x1="217.20000000000002" y1="694" x2="225.60000000000002" y2="694" />
    <line x1="225.60000000000002" y1="694" x2="234.00000000000003" y2="694" />
    <line x1="234" y1="694" x2="242.4" y2="694" />
    <line x1="242.4" y1="694" x2="250.8" y2="694" />
    <line x1="250.8" y1="694" x2="259.2" y2="694" />
    <line x1="259.20000000000005" y1="694" x2="267.6" y2="694" />
    <line x1="267.6" y1="694" x2="276" y2="694" />
    <line x1="276" y1="694" x2="280.2" y2="704" />
    <line x1="574.2" y1="684" x2="574.2" y2="704" />
    <line x1="28.2" y1="704" x2="28.2" y2="724" />
    <line x1="53.400000000000006" y1="704" x2="53.400000000000006" y2="724" />
    <line x1="280.2" y1="704" x2="280.2" y2="724" />
    <line x1="574.2" y1="704" x2="574.2" y2="724" />
    <line x1="28.2" y1="724" x2="28.2" y2="744" />
    <line x1="53.400000000000006" y1="724" x2="53.400000000000006" y2="744" />
    <line x1="280.2" y1="724" x2="280.2" y2="744" />
    <line x1="574.2" y1="724" x2="574.2" y2="744" />
    <line x1="28.2" y1="744" x2="28.2" y2="764" />
    <line x1="53.400000000000006" y1="744" x2="57.6" y2="754" />
    <line x1="57.6" y1="754" x2="66" y2="754" />
    <line x1="66" y1="754" x2="74.4" y2="754" />
    <line x1="74.4" y1="754" x2="82.80000000000001" y2="754" />
    <line x1="82.80000000000001" y1="754" x2="91.20000000000002" y2="754" />
    <line x1="91.2" y1="754" x2="99.60000000000001" y2="754" />
    <line x1="99.60000000000001" y1="754" x2="108.00000000000001" y2="754" />
    <line x1="108" y1="754" x2="116.4" y2="754" />
    <line x1="116.4" y1="754" x2="124.80000000000001" y2="754" />
    <line x1="124.80000000000001" y1="754" x2="133.20000000000002" y2="754" />
    <line x1="133.2" y1="754" x2="141.6" y2="754" />
    <line x1="141.60000000000002" y1="754" x2="150.00000000000003" y2="754" />
    <line x1="150" y1="754" x2="158.4" y2="754" />
    <line x1="158.4" y1="754" x2="166.8" y2="754" />
    <line x1="166.8" y1="754" x2="175.20000000000002" y2="754" />
    <line x1="175.20000000000002" y1="754" x2="183.60000000000002" y2="754" />
    <line x1="183.6" y1="754" x2="192" y2="754" />
    <line x1="192" y1="754" x2="200.4" y2="754" />
    <line x1="200.4" y1="754" x2="208.8" y2="754" />
    <line x1="208.8" y1="754" x2="217.20000000000002" y2="754" />
    <line x1="217.20000000000002" y1="754" x2="225.60000000000002" y2="754" />
    <line x1="225.60000000000002" y1="754" x2="234.00000000000003" y2="754" />
    <line x1="234" y1="754" x2="242.4" y2="754" />
    <line x1="242.4" y1="754" x2="250.8" y2="754" />
    <line x1="250.8" y1="754" x2="259.2" y2="754" />
    <line x1="259.20000000000005" y1="754" x2="267.6" y2="754" />
    <line x1="267.6" y1="754" x2="276" y2="754" />
    <line x1="276" y1="754" x2="280.2" y2="744" />
    <line x1="574.2" y1="744" x2="574.2" y2="764" />
    <line x1="28.2" y1="764" x2="32.4" y2="774" />
    <line x1="32.4" y1="774" x2="40.8" y2="774" />
    <line x1="40.8" y1="774" x2="49.199999999999996" y2="774" />
    <line x1="49.2" y1="774" x2="57.6" y2="774" />
    <line x1="57.6" y1="774" x2="66" y2="774" />
    <line x1="66" y1="774" x2="74.4" y2="774" />
    <line x1="74.4" y1="774" x2="82.80000000000001" y2="774" />
    <line x1="82.80000000000001" y1="774" x2="91.20000000000002" y2="774" />
    <line x1="91.2" y1="774" x2="99.60000000000001" y2="774" />
    <line x1="99.60000000000001" y1="774" x2="108.00000000000001" y2="774" />
    <line x1="108" y1="774" x2="116.4" y2="774" />
    <line x1="116.4" y1="774" x2="124.80000000000001" y2="774" />
    <line x1="124.80000000000001" y1="774" x2="133.20000000000002" y2="774" />
    <line x1="133.2" y1="774" x2="141.6" y2="774" />
    <line x1="141.60000000000002" y1="774" x2="150.00000000000003" y2="774" />
    <line x1="150" y1="774" x2="158.4" y2="774" />
    <line x1="158.4" y1="774" x2="166.8" y2="774" />
    <line x1="166.8" y1="774" x2="175.20000000000002" y2="774" />
    <line x1="175.20000000000002" y1="774" x2="183.60000000000002" y2="774" />
    <line x1="183.6" y1="774" x2="192" y2="774" />
    <line x1="192" y1="774" x2="200.4" y2="774" />
    <line x1="200.4" y1="774" x2="208.8" y2="774" />
    <line x1="208.8" y1="774" x2="217.20000000000002" y2="774" />
    <line x1="217.20000000000002" y1="774" x2="225.60000000000002" y2="774" />
    <line x1="225.60000000000002" y1="774" x2="234.00000000000003" y2="774" />
    <line x1="234" y1="774" x2="242.4" y2="774" />
    <line x1="242.4" y1="774" x2="250.8" y2="774" />
    <line x1="250.8" y1="774" x2="259.2" y2="774" />
    <line x1="259.20000000000005" y1="774" x2="267.6" y2="774" />
    <line x1="267.6" y1="774" x2="276" y2="774" />
    <line x1="276" y1="774" x2="284.4" y2="774" />
    <line x1="284.40000000000003" y1="774" x2="292.8" y2="774" />
    <line x1="292.8" y1="774" x2="301.2" y2="774" />
    <line x1="301.2" y1="774" x2="309.59999999999997" y2="774" />
    <line x1="309.6" y1="774" x2="318" y2="774" />
    <line x1="318" y1="774" x2="326.4" y2="774" />
    <line x1="326.40000000000003" y1="774" x2="334.8" y2="774" />
    <line x1="334.8" y1="774" x2="343.2" y2="774" />
    <line x1="343.2" y1="774" x2="351.59999999999997" y2="774" />
    <line x1="351.6" y1="774" x2="360" y2="774" />
    <line x1="360" y1="774" x2="368.4" y2="774" />
    <line x1="368.40000000000003" y1="774" x2="376.8" y2="774" />
    <line x1="376.8" y1="774" x2="385.2" y2="774" />
    <line x1="385.2" y1="774" x2="393.59999999999997" y2="774" />
    <line x1="393.6" y1="774" x2="402" y2="774" />
    <line x1="402" y1="774" x2="410.4" y2="774" />
    <line x1="410.40000000000003" y1="774" x2="418.8" y2="774" />
    <line x1="418.8" y1="774" x2="427.2" y2="774" />
    <line x1="427.20000000000005" y1="774" x2="435.6" y2="774" />
    <line x1="435.6" y1="774" x2="444" y2="774" />
    <line x1="444" y1="774" x2="452.4" y2="774" />
    <line x1="452.40000000000003" y1="774" x2="460.8" y2="774" />
    <line x1="460.8" y1="774" x2="469.2" y2="774" />
    <line x1="469.20000000000005" y1="774" x2="477.6" y2="774" />
    <line x1="477.6" y1="774" x2="486" y2="774" />
    <line x1="486" y1="774" x2="494.4" y2="774" />
    <line x1="494.40000000000003" y1="774" x2="502.8" y2="774" />
    <line x1="502.8" y1="774" x2="511.2" y2="774" />
    <line x1="511.20000000000005" y1="774" x2="519.6" y2="774" />
    <line x1="519.6" y1="774" x2="528" y2="774" />
    <line x1="528" y1="774" x2="536.4" y2="774" />
    <line x1="536.4" y1="774" x2="544.8" y2="774" />
    <line x1="544.8000000000001" y1="774" x2="553.2" y2="774" />
    <line x1="553.2" y1="774" x2="561.6" y2="774" />
    <line x1="561.6" y1="774" x2="565.8000000000001" y2="764" />
  </g>
  <g>
    <text x="24" y="79" xml:space="preserve">   Producers (any service)                                        </text>
    <text x="24" y="119" xml:space="preserve">    Order Svc    Auth Svc     Marketing                          </text>
    <text x="24" y="179" xml:space="preserve">                      ▼                                           </text>
    <text x="24" y="219" xml:space="preserve">        Kafka (Multi-AZ, 3                                       </text>
    <text x="24" y="239" xml:space="preserve">        brokers, replication=3)     Durability: messages survive  </text>
    <text x="24" y="259" xml:space="preserve">        Topic: notifications        broker failure                </text>
    <text x="24" y="339" xml:space="preserve">     ▼            ▼            ▼                                  </text>
    <text x="24" y="379" xml:space="preserve">    Push      Email     SMS       Consumer groups (independent)  </text>
    <text x="24" y="399" xml:space="preserve">    Worker    Worker    Worker    Each scales independently      </text>
    <text x="24" y="419" xml:space="preserve">    (×3)      (×3)      (×2)                                     </text>
    <text x="24" y="479" xml:space="preserve">      ▼         ▼         ▼                                       </text>
    <text x="24" y="519" xml:space="preserve">     FCM/      SES/     Twilio    External providers             </text>
    <text x="24" y="539" xml:space="preserve">     APNS      SMTP               (with fallback providers)      </text>
    <text x="24" y="619" xml:space="preserve">      Notification DB (Postgres)   Track delivery status           </text>
    <text x="24" y="639" xml:space="preserve">      + Redis (dedup/rate limit)   Idempotency check               </text>
    <text x="24" y="719" xml:space="preserve">      Dead Letter Queue          Failed after N retries           </text>
    <text x="24" y="739" xml:space="preserve">      + Alert on DLQ depth       Manual investigation             </text>
  </g>
</svg>
