<?xml version="1.0" encoding="UTF-8"?>
<svg xmlns="http://www.w3.org/2000/svg" width="729" height="308" viewBox="0 0 729 308" role="img" aria-labelledby="title desc">
  <title id="title">Object Storage Model diagram</title>
  <desc id="desc">Generated vector rendering of a documentation diagram.</desc>
  <defs>
    <style>
      .card { fill: #fbfcff; stroke: #cbd5e1; stroke-width: 1.2; }
      .segments { stroke: #0f172a; stroke-width: 1.8; stroke-linecap: round; }
      text {
        fill: #0f172a;
        font-family: "JetBrains Mono", "SFMono-Regular", Consolas, "Liberation Mono", monospace;
        font-size: 14px;
      }
    </style>
  </defs>
  <rect class="card" x="0.6" y="0.6" width="727.8" height="306.8" rx="16" />
  <g class="segments">
    <line x1="61.800000000000004" y1="44" x2="61.800000000000004" y2="64" />
    <line x1="61.800000000000004" y1="64" x2="61.800000000000004" y2="84" />
    <line x1="61.800000000000004" y1="74" x2="66" y2="74" />
    <line x1="66" y1="74" x2="74.4" y2="74" />
    <line x1="74.4" y1="74" x2="82.80000000000001" y2="74" />
    <line x1="61.800000000000004" y1="84" x2="61.800000000000004" y2="104" />
    <line x1="61.800000000000004" y1="94" x2="66" y2="94" />
    <line x1="66" y1="94" x2="74.4" y2="94" />
    <line x1="74.4" y1="94" x2="82.80000000000001" y2="94" />
    <line x1="61.800000000000004" y1="104" x2="61.800000000000004" y2="124" />
    <line x1="61.800000000000004" y1="114" x2="66" y2="114" />
    <line x1="66" y1="114" x2="74.4" y2="114" />
    <line x1="74.4" y1="114" x2="82.80000000000001" y2="114" />
    <line x1="61.800000000000004" y1="124" x2="61.800000000000004" y2="144" />
    <line x1="61.800000000000004" y1="134" x2="66" y2="134" />
    <line x1="66" y1="134" x2="74.4" y2="134" />
    <line x1="74.4" y1="134" x2="82.80000000000001" y2="134" />
    <line x1="61.800000000000004" y1="144" x2="66" y2="154" />
    <line x1="66" y1="154" x2="74.4" y2="154" />
    <line x1="74.4" y1="154" x2="82.80000000000001" y2="154" />
  </g>
  <g>
    <text x="24" y="39" xml:space="preserve">  Bucket: my-app-uploads</text>
    <text x="24" y="79" xml:space="preserve">        images/profile/user_123.jpg    (200 KB)</text>
    <text x="24" y="99" xml:space="preserve">        images/profile/user_456.jpg    (150 KB)</text>
    <text x="24" y="119" xml:space="preserve">        videos/upload_789.mp4          (500 MB)</text>
    <text x="24" y="139" xml:space="preserve">        backups/db_2024_01_15.sql.gz   (2 GB)</text>
    <text x="24" y="159" xml:space="preserve">        logs/2024/01/15/app.log.gz     (50 MB)</text>
    <text x="24" y="199" xml:space="preserve">  Each object:</text>
    <text x="24" y="219" xml:space="preserve">    Key:      &quot;images/profile/user_123.jpg&quot;</text>
    <text x="24" y="239" xml:space="preserve">    Data:     Binary content (the actual image)</text>
    <text x="24" y="259" xml:space="preserve">    Metadata: Content-Type, size, upload date, custom headers</text>
    <text x="24" y="279" xml:space="preserve">    URL:      https://my-app-uploads.s3.amazonaws.com/images/profile/user_123.jpg</text>
  </g>
</svg>
