<?xml version="1.0" encoding="UTF-8"?>
<svg xmlns="http://www.w3.org/2000/svg" width="510" height="648" viewBox="0 0 510 648" role="img" aria-labelledby="title desc">
  <title id="title">D. Example: Choosing a Database for a Chat Application diagram</title>
  <desc id="desc">Generated vector rendering of a documentation diagram.</desc>
  <defs>
    <style>
      .card { fill: #fbfcff; stroke: #cbd5e1; stroke-width: 1.2; }
      .segments { stroke: #0f172a; stroke-width: 1.8; stroke-linecap: round; }
      text {
        fill: #0f172a;
        font-family: "JetBrains Mono", "SFMono-Regular", Consolas, "Liberation Mono", monospace;
        font-size: 14px;
      }
    </style>
  </defs>
  <rect class="card" x="0.6" y="0.6" width="508.8" height="646.8" rx="16" />
  <g class="segments">
    <line x1="45" y1="224" x2="49.199999999999996" y2="214" />
    <line x1="49.2" y1="214" x2="57.6" y2="214" />
    <line x1="57.6" y1="214" x2="66" y2="214" />
    <line x1="66" y1="214" x2="74.4" y2="214" />
    <line x1="74.4" y1="214" x2="82.80000000000001" y2="214" />
    <line x1="82.80000000000001" y1="214" x2="91.20000000000002" y2="214" />
    <line x1="91.2" y1="214" x2="99.60000000000001" y2="214" />
    <line x1="99.60000000000001" y1="214" x2="108.00000000000001" y2="214" />
    <line x1="108" y1="214" x2="116.4" y2="214" />
    <line x1="116.4" y1="214" x2="124.80000000000001" y2="214" />
    <line x1="124.80000000000001" y1="214" x2="133.20000000000002" y2="214" />
    <line x1="133.2" y1="214" x2="141.6" y2="214" />
    <line x1="141.60000000000002" y1="214" x2="150.00000000000003" y2="214" />
    <line x1="150" y1="214" x2="158.4" y2="214" />
    <line x1="158.4" y1="214" x2="166.8" y2="214" />
    <line x1="166.8" y1="214" x2="175.20000000000002" y2="214" />
    <line x1="175.20000000000002" y1="214" x2="183.60000000000002" y2="214" />
    <line x1="183.6" y1="214" x2="192" y2="214" />
    <line x1="192" y1="214" x2="200.4" y2="214" />
    <line x1="200.4" y1="214" x2="208.8" y2="214" />
    <line x1="208.8" y1="214" x2="217.20000000000002" y2="214" />
    <line x1="217.20000000000002" y1="214" x2="225.60000000000002" y2="214" />
    <line x1="225.60000000000002" y1="214" x2="234.00000000000003" y2="214" />
    <line x1="234" y1="214" x2="242.4" y2="214" />
    <line x1="242.4" y1="214" x2="250.8" y2="214" />
    <line x1="250.8" y1="214" x2="259.2" y2="214" />
    <line x1="259.20000000000005" y1="214" x2="267.6" y2="214" />
    <line x1="267.6" y1="214" x2="276" y2="214" />
    <line x1="276" y1="214" x2="284.4" y2="214" />
    <line x1="284.40000000000003" y1="214" x2="292.8" y2="214" />
    <line x1="292.8" y1="214" x2="301.2" y2="214" />
    <line x1="301.2" y1="214" x2="309.59999999999997" y2="214" />
    <line x1="309.6" y1="214" x2="318" y2="214" />
    <line x1="318" y1="214" x2="326.4" y2="214" />
    <line x1="326.40000000000003" y1="214" x2="334.8" y2="214" />
    <line x1="334.8" y1="214" x2="343.2" y2="214" />
    <line x1="343.2" y1="214" x2="351.59999999999997" y2="214" />
    <line x1="351.6" y1="214" x2="360" y2="214" />
    <line x1="360" y1="214" x2="368.4" y2="214" />
    <line x1="368.40000000000003" y1="214" x2="376.8" y2="214" />
    <line x1="376.8" y1="214" x2="385.2" y2="214" />
    <line x1="385.2" y1="214" x2="393.59999999999997" y2="214" />
    <line x1="393.6" y1="214" x2="402" y2="214" />
    <line x1="402" y1="214" x2="410.4" y2="214" />
    <line x1="410.40000000000003" y1="214" x2="418.8" y2="214" />
    <line x1="418.8" y1="214" x2="427.2" y2="214" />
    <line x1="427.20000000000005" y1="214" x2="435.6" y2="214" />
    <line x1="435.6" y1="214" x2="444" y2="214" />
    <line x1="444" y1="214" x2="452.4" y2="214" />
    <line x1="452.40000000000003" y1="214" x2="460.8" y2="214" />
    <line x1="460.8" y1="214" x2="465" y2="224" />
    <line x1="45" y1="224" x2="45" y2="244" />
    <line x1="473.40000000000003" y1="224" x2="473.40000000000003" y2="244" />
    <line x1="45" y1="244" x2="45" y2="264" />
    <line x1="473.40000000000003" y1="244" x2="473.40000000000003" y2="264" />
    <line x1="45" y1="264" x2="45" y2="284" />
    <line x1="473.40000000000003" y1="264" x2="473.40000000000003" y2="284" />
    <line x1="45" y1="284" x2="45" y2="304" />
    <line x1="473.40000000000003" y1="284" x2="473.40000000000003" y2="304" />
    <line x1="45" y1="304" x2="45" y2="324" />
    <line x1="45" y1="314" x2="49.199999999999996" y2="314" />
    <line x1="49.2" y1="314" x2="57.6" y2="314" />
    <line x1="57.6" y1="314" x2="66" y2="314" />
    <line x1="66" y1="314" x2="74.4" y2="314" />
    <line x1="74.4" y1="314" x2="82.80000000000001" y2="314" />
    <line x1="82.80000000000001" y1="314" x2="91.20000000000002" y2="314" />
    <line x1="91.2" y1="314" x2="99.60000000000001" y2="314" />
    <line x1="99.60000000000001" y1="314" x2="108.00000000000001" y2="314" />
    <line x1="108" y1="314" x2="116.4" y2="314" />
    <line x1="116.4" y1="314" x2="124.80000000000001" y2="314" />
    <line x1="124.80000000000001" y1="314" x2="133.20000000000002" y2="314" />
    <line x1="133.2" y1="314" x2="141.6" y2="314" />
    <line x1="141.60000000000002" y1="314" x2="150.00000000000003" y2="314" />
    <line x1="150" y1="314" x2="158.4" y2="314" />
    <line x1="158.4" y1="314" x2="166.8" y2="314" />
    <line x1="166.8" y1="314" x2="175.20000000000002" y2="314" />
    <line x1="175.20000000000002" y1="314" x2="183.60000000000002" y2="314" />
    <line x1="183.6" y1="314" x2="192" y2="314" />
    <line x1="192" y1="314" x2="200.4" y2="314" />
    <line x1="200.4" y1="314" x2="208.8" y2="314" />
    <line x1="208.8" y1="314" x2="217.20000000000002" y2="314" />
    <line x1="217.20000000000002" y1="314" x2="225.60000000000002" y2="314" />
    <line x1="225.60000000000002" y1="314" x2="234.00000000000003" y2="314" />
    <line x1="234" y1="314" x2="242.4" y2="314" />
    <line x1="242.4" y1="314" x2="250.8" y2="314" />
    <line x1="250.8" y1="314" x2="259.2" y2="314" />
    <line x1="259.20000000000005" y1="314" x2="267.6" y2="314" />
    <line x1="267.6" y1="314" x2="276" y2="314" />
    <line x1="276" y1="314" x2="284.4" y2="314" />
    <line x1="284.40000000000003" y1="314" x2="292.8" y2="314" />
    <line x1="292.8" y1="314" x2="301.2" y2="314" />
    <line x1="301.2" y1="314" x2="309.59999999999997" y2="314" />
    <line x1="309.6" y1="314" x2="318" y2="314" />
    <line x1="318" y1="314" x2="326.4" y2="314" />
    <line x1="326.40000000000003" y1="314" x2="334.8" y2="314" />
    <line x1="334.8" y1="314" x2="343.2" y2="314" />
    <line x1="343.2" y1="314" x2="351.59999999999997" y2="314" />
    <line x1="351.6" y1="314" x2="360" y2="314" />
    <line x1="360" y1="314" x2="368.4" y2="314" />
    <line x1="368.40000000000003" y1="314" x2="376.8" y2="314" />
    <line x1="376.8" y1="314" x2="385.2" y2="314" />
    <line x1="385.2" y1="314" x2="393.59999999999997" y2="314" />
    <line x1="393.6" y1="314" x2="402" y2="314" />
    <line x1="402" y1="314" x2="410.4" y2="314" />
    <line x1="410.40000000000003" y1="314" x2="418.8" y2="314" />
    <line x1="418.8" y1="314" x2="427.2" y2="314" />
    <line x1="427.20000000000005" y1="314" x2="435.6" y2="314" />
    <line x1="435.6" y1="314" x2="444" y2="314" />
    <line x1="444" y1="314" x2="452.4" y2="314" />
    <line x1="452.40000000000003" y1="314" x2="460.8" y2="314" />
    <line x1="465" y1="304" x2="465" y2="324" />
    <line x1="460.8" y1="314" x2="465" y2="314" />
    <line x1="45" y1="324" x2="45" y2="344" />
    <line x1="473.40000000000003" y1="324" x2="473.40000000000003" y2="344" />
    <line x1="45" y1="344" x2="45" y2="364" />
    <line x1="473.40000000000003" y1="344" x2="473.40000000000003" y2="364" />
    <line x1="45" y1="364" x2="45" y2="384" />
    <line x1="473.40000000000003" y1="364" x2="473.40000000000003" y2="384" />
    <line x1="45" y1="384" x2="45" y2="404" />
    <line x1="473.40000000000003" y1="384" x2="473.40000000000003" y2="404" />
    <line x1="45" y1="404" x2="45" y2="424" />
    <line x1="473.40000000000003" y1="404" x2="473.40000000000003" y2="424" />
    <line x1="45" y1="424" x2="45" y2="444" />
    <line x1="45" y1="434" x2="49.199999999999996" y2="434" />
    <line x1="49.2" y1="434" x2="57.6" y2="434" />
    <line x1="57.6" y1="434" x2="66" y2="434" />
    <line x1="66" y1="434" x2="74.4" y2="434" />
    <line x1="74.4" y1="434" x2="82.80000000000001" y2="434" />
    <line x1="82.80000000000001" y1="434" x2="91.20000000000002" y2="434" />
    <line x1="91.2" y1="434" x2="99.60000000000001" y2="434" />
    <line x1="99.60000000000001" y1="434" x2="108.00000000000001" y2="434" />
    <line x1="108" y1="434" x2="116.4" y2="434" />
    <line x1="116.4" y1="434" x2="124.80000000000001" y2="434" />
    <line x1="124.80000000000001" y1="434" x2="133.20000000000002" y2="434" />
    <line x1="133.2" y1="434" x2="141.6" y2="434" />
    <line x1="141.60000000000002" y1="434" x2="150.00000000000003" y2="434" />
    <line x1="150" y1="434" x2="158.4" y2="434" />
    <line x1="158.4" y1="434" x2="166.8" y2="434" />
    <line x1="166.8" y1="434" x2="175.20000000000002" y2="434" />
    <line x1="175.20000000000002" y1="434" x2="183.60000000000002" y2="434" />
    <line x1="183.6" y1="434" x2="192" y2="434" />
    <line x1="192" y1="434" x2="200.4" y2="434" />
    <line x1="200.4" y1="434" x2="208.8" y2="434" />
    <line x1="208.8" y1="434" x2="217.20000000000002" y2="434" />
    <line x1="217.20000000000002" y1="434" x2="225.60000000000002" y2="434" />
    <line x1="225.60000000000002" y1="434" x2="234.00000000000003" y2="434" />
    <line x1="234" y1="434" x2="242.4" y2="434" />
    <line x1="242.4" y1="434" x2="250.8" y2="434" />
    <line x1="250.8" y1="434" x2="259.2" y2="434" />
    <line x1="259.20000000000005" y1="434" x2="267.6" y2="434" />
    <line x1="267.6" y1="434" x2="276" y2="434" />
    <line x1="276" y1="434" x2="284.4" y2="434" />
    <line x1="284.40000000000003" y1="434" x2="292.8" y2="434" />
    <line x1="292.8" y1="434" x2="301.2" y2="434" />
    <line x1="301.2" y1="434" x2="309.59999999999997" y2="434" />
    <line x1="309.6" y1="434" x2="318" y2="434" />
    <line x1="318" y1="434" x2="326.4" y2="434" />
    <line x1="326.40000000000003" y1="434" x2="334.8" y2="434" />
    <line x1="334.8" y1="434" x2="343.2" y2="434" />
    <line x1="343.2" y1="434" x2="351.59999999999997" y2="434" />
    <line x1="351.6" y1="434" x2="360" y2="434" />
    <line x1="360" y1="434" x2="368.4" y2="434" />
    <line x1="368.40000000000003" y1="434" x2="376.8" y2="434" />
    <line x1="376.8" y1="434" x2="385.2" y2="434" />
    <line x1="385.2" y1="434" x2="393.59999999999997" y2="434" />
    <line x1="393.6" y1="434" x2="402" y2="434" />
    <line x1="402" y1="434" x2="410.4" y2="434" />
    <line x1="410.40000000000003" y1="434" x2="418.8" y2="434" />
    <line x1="418.8" y1="434" x2="427.2" y2="434" />
    <line x1="427.20000000000005" y1="434" x2="435.6" y2="434" />
    <line x1="435.6" y1="434" x2="444" y2="434" />
    <line x1="444" y1="434" x2="452.4" y2="434" />
    <line x1="452.40000000000003" y1="434" x2="460.8" y2="434" />
    <line x1="465" y1="424" x2="465" y2="444" />
    <line x1="460.8" y1="434" x2="465" y2="434" />
    <line x1="45" y1="444" x2="45" y2="464" />
    <line x1="473.40000000000003" y1="444" x2="473.40000000000003" y2="464" />
    <line x1="45" y1="464" x2="45" y2="484" />
    <line x1="473.40000000000003" y1="464" x2="473.40000000000003" y2="484" />
    <line x1="45" y1="484" x2="45" y2="504" />
    <line x1="473.40000000000003" y1="484" x2="473.40000000000003" y2="504" />
    <line x1="45" y1="504" x2="45" y2="524" />
    <line x1="473.40000000000003" y1="504" x2="473.40000000000003" y2="524" />
    <line x1="45" y1="524" x2="45" y2="544" />
    <line x1="45" y1="534" x2="49.199999999999996" y2="534" />
    <line x1="49.2" y1="534" x2="57.6" y2="534" />
    <line x1="57.6" y1="534" x2="66" y2="534" />
    <line x1="66" y1="534" x2="74.4" y2="534" />
    <line x1="74.4" y1="534" x2="82.80000000000001" y2="534" />
    <line x1="82.80000000000001" y1="534" x2="91.20000000000002" y2="534" />
    <line x1="91.2" y1="534" x2="99.60000000000001" y2="534" />
    <line x1="99.60000000000001" y1="534" x2="108.00000000000001" y2="534" />
    <line x1="108" y1="534" x2="116.4" y2="534" />
    <line x1="116.4" y1="534" x2="124.80000000000001" y2="534" />
    <line x1="124.80000000000001" y1="534" x2="133.20000000000002" y2="534" />
    <line x1="133.2" y1="534" x2="141.6" y2="534" />
    <line x1="141.60000000000002" y1="534" x2="150.00000000000003" y2="534" />
    <line x1="150" y1="534" x2="158.4" y2="534" />
    <line x1="158.4" y1="534" x2="166.8" y2="534" />
    <line x1="166.8" y1="534" x2="175.20000000000002" y2="534" />
    <line x1="175.20000000000002" y1="534" x2="183.60000000000002" y2="534" />
    <line x1="183.6" y1="534" x2="192" y2="534" />
    <line x1="192" y1="534" x2="200.4" y2="534" />
    <line x1="200.4" y1="534" x2="208.8" y2="534" />
    <line x1="208.8" y1="534" x2="217.20000000000002" y2="534" />
    <line x1="217.20000000000002" y1="534" x2="225.60000000000002" y2="534" />
    <line x1="225.60000000000002" y1="534" x2="234.00000000000003" y2="534" />
    <line x1="234" y1="534" x2="242.4" y2="534" />
    <line x1="242.4" y1="534" x2="250.8" y2="534" />
    <line x1="250.8" y1="534" x2="259.2" y2="534" />
    <line x1="259.20000000000005" y1="534" x2="267.6" y2="534" />
    <line x1="267.6" y1="534" x2="276" y2="534" />
    <line x1="276" y1="534" x2="284.4" y2="534" />
    <line x1="284.40000000000003" y1="534" x2="292.8" y2="534" />
    <line x1="292.8" y1="534" x2="301.2" y2="534" />
    <line x1="301.2" y1="534" x2="309.59999999999997" y2="534" />
    <line x1="309.6" y1="534" x2="318" y2="534" />
    <line x1="318" y1="534" x2="326.4" y2="534" />
    <line x1="326.40000000000003" y1="534" x2="334.8" y2="534" />
    <line x1="334.8" y1="534" x2="343.2" y2="534" />
    <line x1="343.2" y1="534" x2="351.59999999999997" y2="534" />
    <line x1="351.6" y1="534" x2="360" y2="534" />
    <line x1="360" y1="534" x2="368.4" y2="534" />
    <line x1="368.40000000000003" y1="534" x2="376.8" y2="534" />
    <line x1="376.8" y1="534" x2="385.2" y2="534" />
    <line x1="385.2" y1="534" x2="393.59999999999997" y2="534" />
    <line x1="393.6" y1="534" x2="402" y2="534" />
    <line x1="402" y1="534" x2="410.4" y2="534" />
    <line x1="410.40000000000003" y1="534" x2="418.8" y2="534" />
    <line x1="418.8" y1="534" x2="427.2" y2="534" />
    <line x1="427.20000000000005" y1="534" x2="435.6" y2="534" />
    <line x1="435.6" y1="534" x2="444" y2="534" />
    <line x1="444" y1="534" x2="452.4" y2="534" />
    <line x1="452.40000000000003" y1="534" x2="460.8" y2="534" />
    <line x1="465" y1="524" x2="465" y2="544" />
    <line x1="460.8" y1="534" x2="465" y2="534" />
    <line x1="45" y1="544" x2="45" y2="564" />
    <line x1="473.40000000000003" y1="544" x2="473.40000000000003" y2="564" />
    <line x1="45" y1="564" x2="45" y2="584" />
    <line x1="473.40000000000003" y1="564" x2="473.40000000000003" y2="584" />
    <line x1="45" y1="584" x2="45" y2="604" />
    <line x1="481.8" y1="584" x2="481.8" y2="604" />
    <line x1="45" y1="604" x2="49.199999999999996" y2="614" />
    <line x1="49.2" y1="614" x2="57.6" y2="614" />
    <line x1="57.6" y1="614" x2="66" y2="614" />
    <line x1="66" y1="614" x2="74.4" y2="614" />
    <line x1="74.4" y1="614" x2="82.80000000000001" y2="614" />
    <line x1="82.80000000000001" y1="614" x2="91.20000000000002" y2="614" />
    <line x1="91.2" y1="614" x2="99.60000000000001" y2="614" />
    <line x1="99.60000000000001" y1="614" x2="108.00000000000001" y2="614" />
    <line x1="108" y1="614" x2="116.4" y2="614" />
    <line x1="116.4" y1="614" x2="124.80000000000001" y2="614" />
    <line x1="124.80000000000001" y1="614" x2="133.20000000000002" y2="614" />
    <line x1="133.2" y1="614" x2="141.6" y2="614" />
    <line x1="141.60000000000002" y1="614" x2="150.00000000000003" y2="614" />
    <line x1="150" y1="614" x2="158.4" y2="614" />
    <line x1="158.4" y1="614" x2="166.8" y2="614" />
    <line x1="166.8" y1="614" x2="175.20000000000002" y2="614" />
    <line x1="175.20000000000002" y1="614" x2="183.60000000000002" y2="614" />
    <line x1="183.6" y1="614" x2="192" y2="614" />
    <line x1="192" y1="614" x2="200.4" y2="614" />
    <line x1="200.4" y1="614" x2="208.8" y2="614" />
    <line x1="208.8" y1="614" x2="217.20000000000002" y2="614" />
    <line x1="217.20000000000002" y1="614" x2="225.60000000000002" y2="614" />
    <line x1="225.60000000000002" y1="614" x2="234.00000000000003" y2="614" />
    <line x1="234" y1="614" x2="242.4" y2="614" />
    <line x1="242.4" y1="614" x2="250.8" y2="614" />
    <line x1="250.8" y1="614" x2="259.2" y2="614" />
    <line x1="259.20000000000005" y1="614" x2="267.6" y2="614" />
    <line x1="267.6" y1="614" x2="276" y2="614" />
    <line x1="276" y1="614" x2="284.4" y2="614" />
    <line x1="284.40000000000003" y1="614" x2="292.8" y2="614" />
    <line x1="292.8" y1="614" x2="301.2" y2="614" />
    <line x1="301.2" y1="614" x2="309.59999999999997" y2="614" />
    <line x1="309.6" y1="614" x2="318" y2="614" />
    <line x1="318" y1="614" x2="326.4" y2="614" />
    <line x1="326.40000000000003" y1="614" x2="334.8" y2="614" />
    <line x1="334.8" y1="614" x2="343.2" y2="614" />
    <line x1="343.2" y1="614" x2="351.59999999999997" y2="614" />
    <line x1="351.6" y1="614" x2="360" y2="614" />
    <line x1="360" y1="614" x2="368.4" y2="614" />
    <line x1="368.40000000000003" y1="614" x2="376.8" y2="614" />
    <line x1="376.8" y1="614" x2="385.2" y2="614" />
    <line x1="385.2" y1="614" x2="393.59999999999997" y2="614" />
    <line x1="393.6" y1="614" x2="402" y2="614" />
    <line x1="402" y1="614" x2="410.4" y2="614" />
    <line x1="410.40000000000003" y1="614" x2="418.8" y2="614" />
    <line x1="418.8" y1="614" x2="427.2" y2="614" />
    <line x1="427.20000000000005" y1="614" x2="435.6" y2="614" />
    <line x1="435.6" y1="614" x2="444" y2="614" />
    <line x1="444" y1="614" x2="452.4" y2="614" />
    <line x1="452.40000000000003" y1="614" x2="460.8" y2="614" />
    <line x1="460.8" y1="614" x2="465" y2="604" />
  </g>
  <g>
    <text x="24" y="39" xml:space="preserve">Requirements:</text>
    <text x="24" y="59" xml:space="preserve">  • 10M users, 1B messages/month</text>
    <text x="24" y="79" xml:space="preserve">  • 1:1 and group chats (up to 500 members)</text>
    <text x="24" y="99" xml:space="preserve">  • Message history (read-heavy)</text>
    <text x="24" y="119" xml:space="preserve">  • User profiles and contacts</text>
    <text x="24" y="139" xml:space="preserve">  • Real-time presence (online/offline)</text>
    <text x="24" y="179" xml:space="preserve">Decision:</text>
    <text x="24" y="239" xml:space="preserve">     USER PROFILES &amp; AUTH: PostgreSQL                 </text>
    <text x="24" y="259" xml:space="preserve">     • Structured data, relationships                 </text>
    <text x="24" y="279" xml:space="preserve">     • Transactions for account operations            </text>
    <text x="24" y="299" xml:space="preserve">     • ~10M rows, manageable size                     </text>
    <text x="24" y="339" xml:space="preserve">     MESSAGES: Cassandra                              </text>
    <text x="24" y="359" xml:space="preserve">     • Massive write throughput (1B/month)            </text>
    <text x="24" y="379" xml:space="preserve">     • Partitioned by chat_id, sorted by timestamp    </text>
    <text x="24" y="399" xml:space="preserve">     • Horizontal scaling, multi-DC replication       </text>
    <text x="24" y="419" xml:space="preserve">     • Append-only (messages rarely updated)          </text>
    <text x="24" y="459" xml:space="preserve">     PRESENCE &amp; SESSIONS: Redis                       </text>
    <text x="24" y="479" xml:space="preserve">     • Sub-millisecond reads                          </text>
    <text x="24" y="499" xml:space="preserve">     • TTL for automatic expiry                       </text>
    <text x="24" y="519" xml:space="preserve">     • Pub/Sub for real-time updates                  </text>
    <text x="24" y="559" xml:space="preserve">     SEARCH: Elasticsearch                            </text>
    <text x="24" y="579" xml:space="preserve">     • Full-text search across messages               </text>
    <text x="24" y="599" xml:space="preserve">     • Async indexing from Cassandra via CDC           </text>
  </g>
</svg>
