<?xml version="1.0" encoding="UTF-8"?>
<svg xmlns="http://www.w3.org/2000/svg" width="569" height="568" viewBox="0 0 569 568" role="img" aria-labelledby="title desc">
  <title id="title">SQL (Relational) Databases diagram</title>
  <desc id="desc">Generated vector rendering of a documentation diagram.</desc>
  <defs>
    <style>
      .card { fill: #fbfcff; stroke: #cbd5e1; stroke-width: 1.2; }
      .segments { stroke: #0f172a; stroke-width: 1.8; stroke-linecap: round; }
      text {
        fill: #0f172a;
        font-family: "JetBrains Mono", "SFMono-Regular", Consolas, "Liberation Mono", monospace;
        font-size: 14px;
      }
    </style>
  </defs>
  <rect class="card" x="0.6" y="0.6" width="567.8" height="566.8" rx="16" />
  <g class="segments">
    <line x1="28.2" y1="64" x2="32.4" y2="54" />
    <line x1="32.4" y1="54" x2="40.8" y2="54" />
    <line x1="40.8" y1="54" x2="49.199999999999996" y2="54" />
    <line x1="49.2" y1="54" x2="57.6" y2="54" />
    <line x1="57.6" y1="54" x2="66" y2="54" />
    <line x1="66" y1="54" x2="74.4" y2="54" />
    <line x1="74.4" y1="54" x2="82.80000000000001" y2="54" />
    <line x1="78.60000000000001" y1="54" x2="78.60000000000001" y2="64" />
    <line x1="82.80000000000001" y1="54" x2="91.20000000000002" y2="54" />
    <line x1="91.2" y1="54" x2="99.60000000000001" y2="54" />
    <line x1="99.60000000000001" y1="54" x2="108.00000000000001" y2="54" />
    <line x1="108" y1="54" x2="116.4" y2="54" />
    <line x1="116.4" y1="54" x2="124.80000000000001" y2="54" />
    <line x1="124.80000000000001" y1="54" x2="133.20000000000002" y2="54" />
    <line x1="133.2" y1="54" x2="141.6" y2="54" />
    <line x1="141.60000000000002" y1="54" x2="150.00000000000003" y2="54" />
    <line x1="150" y1="54" x2="158.4" y2="54" />
    <line x1="158.4" y1="54" x2="166.8" y2="54" />
    <line x1="166.8" y1="54" x2="175.20000000000002" y2="54" />
    <line x1="171" y1="54" x2="171" y2="64" />
    <line x1="175.20000000000002" y1="54" x2="183.60000000000002" y2="54" />
    <line x1="183.6" y1="54" x2="192" y2="54" />
    <line x1="192" y1="54" x2="200.4" y2="54" />
    <line x1="200.4" y1="54" x2="208.8" y2="54" />
    <line x1="208.8" y1="54" x2="217.20000000000002" y2="54" />
    <line x1="217.20000000000002" y1="54" x2="225.60000000000002" y2="54" />
    <line x1="225.60000000000002" y1="54" x2="234.00000000000003" y2="54" />
    <line x1="234" y1="54" x2="242.4" y2="54" />
    <line x1="242.4" y1="54" x2="250.8" y2="54" />
    <line x1="250.8" y1="54" x2="259.2" y2="54" />
    <line x1="259.20000000000005" y1="54" x2="267.6" y2="54" />
    <line x1="267.6" y1="54" x2="276" y2="54" />
    <line x1="276" y1="54" x2="284.4" y2="54" />
    <line x1="284.40000000000003" y1="54" x2="292.8" y2="54" />
    <line x1="292.8" y1="54" x2="301.2" y2="54" />
    <line x1="301.2" y1="54" x2="309.59999999999997" y2="54" />
    <line x1="309.6" y1="54" x2="318" y2="54" />
    <line x1="318" y1="54" x2="326.4" y2="54" />
    <line x1="326.40000000000003" y1="54" x2="334.8" y2="54" />
    <line x1="330.6" y1="54" x2="330.6" y2="64" />
    <line x1="334.8" y1="54" x2="343.2" y2="54" />
    <line x1="343.2" y1="54" x2="351.59999999999997" y2="54" />
    <line x1="351.6" y1="54" x2="360" y2="54" />
    <line x1="360" y1="54" x2="368.4" y2="54" />
    <line x1="368.40000000000003" y1="54" x2="376.8" y2="54" />
    <line x1="376.8" y1="54" x2="385.2" y2="54" />
    <line x1="385.2" y1="54" x2="393.59999999999997" y2="54" />
    <line x1="393.6" y1="54" x2="402" y2="54" />
    <line x1="402" y1="54" x2="410.4" y2="54" />
    <line x1="410.40000000000003" y1="54" x2="418.8" y2="54" />
    <line x1="418.8" y1="54" x2="427.2" y2="54" />
    <line x1="427.20000000000005" y1="54" x2="431.40000000000003" y2="64" />
    <line x1="28.2" y1="64" x2="28.2" y2="84" />
    <line x1="78.60000000000001" y1="64" x2="78.60000000000001" y2="84" />
    <line x1="171" y1="64" x2="171" y2="84" />
    <line x1="330.6" y1="64" x2="330.6" y2="84" />
    <line x1="431.40000000000003" y1="64" x2="431.40000000000003" y2="84" />
    <line x1="28.2" y1="84" x2="28.2" y2="104" />
    <line x1="28.2" y1="94" x2="32.4" y2="94" />
    <line x1="32.4" y1="94" x2="40.8" y2="94" />
    <line x1="40.8" y1="94" x2="49.199999999999996" y2="94" />
    <line x1="49.2" y1="94" x2="57.6" y2="94" />
    <line x1="57.6" y1="94" x2="66" y2="94" />
    <line x1="66" y1="94" x2="74.4" y2="94" />
    <line x1="74.4" y1="94" x2="82.80000000000001" y2="94" />
    <line x1="78.60000000000001" y1="84" x2="78.60000000000001" y2="104" />
    <line x1="82.80000000000001" y1="94" x2="91.20000000000002" y2="94" />
    <line x1="91.2" y1="94" x2="99.60000000000001" y2="94" />
    <line x1="99.60000000000001" y1="94" x2="108.00000000000001" y2="94" />
    <line x1="108" y1="94" x2="116.4" y2="94" />
    <line x1="116.4" y1="94" x2="124.80000000000001" y2="94" />
    <line x1="124.80000000000001" y1="94" x2="133.20000000000002" y2="94" />
    <line x1="133.2" y1="94" x2="141.6" y2="94" />
    <line x1="141.60000000000002" y1="94" x2="150.00000000000003" y2="94" />
    <line x1="150" y1="94" x2="158.4" y2="94" />
    <line x1="158.4" y1="94" x2="166.8" y2="94" />
    <line x1="166.8" y1="94" x2="175.20000000000002" y2="94" />
    <line x1="171" y1="84" x2="171" y2="104" />
    <line x1="175.20000000000002" y1="94" x2="183.60000000000002" y2="94" />
    <line x1="183.6" y1="94" x2="192" y2="94" />
    <line x1="192" y1="94" x2="200.4" y2="94" />
    <line x1="200.4" y1="94" x2="208.8" y2="94" />
    <line x1="208.8" y1="94" x2="217.20000000000002" y2="94" />
    <line x1="217.20000000000002" y1="94" x2="225.60000000000002" y2="94" />
    <line x1="225.60000000000002" y1="94" x2="234.00000000000003" y2="94" />
    <line x1="234" y1="94" x2="242.4" y2="94" />
    <line x1="242.4" y1="94" x2="250.8" y2="94" />
    <line x1="250.8" y1="94" x2="259.2" y2="94" />
    <line x1="259.20000000000005" y1="94" x2="267.6" y2="94" />
    <line x1="267.6" y1="94" x2="276" y2="94" />
    <line x1="276" y1="94" x2="284.4" y2="94" />
    <line x1="284.40000000000003" y1="94" x2="292.8" y2="94" />
    <line x1="292.8" y1="94" x2="301.2" y2="94" />
    <line x1="301.2" y1="94" x2="309.59999999999997" y2="94" />
    <line x1="309.6" y1="94" x2="318" y2="94" />
    <line x1="318" y1="94" x2="326.4" y2="94" />
    <line x1="326.40000000000003" y1="94" x2="334.8" y2="94" />
    <line x1="330.6" y1="84" x2="330.6" y2="104" />
    <line x1="334.8" y1="94" x2="343.2" y2="94" />
    <line x1="343.2" y1="94" x2="351.59999999999997" y2="94" />
    <line x1="351.6" y1="94" x2="360" y2="94" />
    <line x1="360" y1="94" x2="368.4" y2="94" />
    <line x1="368.40000000000003" y1="94" x2="376.8" y2="94" />
    <line x1="376.8" y1="94" x2="385.2" y2="94" />
    <line x1="385.2" y1="94" x2="393.59999999999997" y2="94" />
    <line x1="393.6" y1="94" x2="402" y2="94" />
    <line x1="402" y1="94" x2="410.4" y2="94" />
    <line x1="410.40000000000003" y1="94" x2="418.8" y2="94" />
    <line x1="418.8" y1="94" x2="427.2" y2="94" />
    <line x1="431.40000000000003" y1="84" x2="431.40000000000003" y2="104" />
    <line x1="427.20000000000005" y1="94" x2="431.40000000000003" y2="94" />
    <line x1="28.2" y1="104" x2="28.2" y2="124" />
    <line x1="78.60000000000001" y1="104" x2="78.60000000000001" y2="124" />
    <line x1="171" y1="104" x2="171" y2="124" />
    <line x1="330.6" y1="104" x2="330.6" y2="124" />
    <line x1="431.40000000000003" y1="104" x2="431.40000000000003" y2="124" />
    <line x1="28.2" y1="124" x2="28.2" y2="144" />
    <line x1="78.60000000000001" y1="124" x2="78.60000000000001" y2="144" />
    <line x1="171" y1="124" x2="171" y2="144" />
    <line x1="330.6" y1="124" x2="330.6" y2="144" />
    <line x1="431.40000000000003" y1="124" x2="431.40000000000003" y2="144" />
    <line x1="28.2" y1="144" x2="32.4" y2="154" />
    <line x1="32.4" y1="154" x2="40.8" y2="154" />
    <line x1="40.8" y1="154" x2="49.199999999999996" y2="154" />
    <line x1="49.2" y1="154" x2="57.6" y2="154" />
    <line x1="57.6" y1="154" x2="66" y2="154" />
    <line x1="66" y1="154" x2="74.4" y2="154" />
    <line x1="74.4" y1="154" x2="82.80000000000001" y2="154" />
    <line x1="78.60000000000001" y1="144" x2="78.60000000000001" y2="154" />
    <line x1="82.80000000000001" y1="154" x2="91.20000000000002" y2="154" />
    <line x1="91.2" y1="154" x2="99.60000000000001" y2="154" />
    <line x1="99.60000000000001" y1="154" x2="108.00000000000001" y2="154" />
    <line x1="108" y1="154" x2="116.4" y2="154" />
    <line x1="116.4" y1="154" x2="124.80000000000001" y2="154" />
    <line x1="124.80000000000001" y1="154" x2="133.20000000000002" y2="154" />
    <line x1="133.2" y1="154" x2="141.6" y2="154" />
    <line x1="141.60000000000002" y1="154" x2="150.00000000000003" y2="154" />
    <line x1="150" y1="154" x2="158.4" y2="154" />
    <line x1="158.4" y1="154" x2="166.8" y2="154" />
    <line x1="166.8" y1="154" x2="175.20000000000002" y2="154" />
    <line x1="171" y1="144" x2="171" y2="154" />
    <line x1="175.20000000000002" y1="154" x2="183.60000000000002" y2="154" />
    <line x1="183.6" y1="154" x2="192" y2="154" />
    <line x1="192" y1="154" x2="200.4" y2="154" />
    <line x1="200.4" y1="154" x2="208.8" y2="154" />
    <line x1="208.8" y1="154" x2="217.20000000000002" y2="154" />
    <line x1="217.20000000000002" y1="154" x2="225.60000000000002" y2="154" />
    <line x1="225.60000000000002" y1="154" x2="234.00000000000003" y2="154" />
    <line x1="234" y1="154" x2="242.4" y2="154" />
    <line x1="242.4" y1="154" x2="250.8" y2="154" />
    <line x1="250.8" y1="154" x2="259.2" y2="154" />
    <line x1="259.20000000000005" y1="154" x2="267.6" y2="154" />
    <line x1="267.6" y1="154" x2="276" y2="154" />
    <line x1="276" y1="154" x2="284.4" y2="154" />
    <line x1="284.40000000000003" y1="154" x2="292.8" y2="154" />
    <line x1="292.8" y1="154" x2="301.2" y2="154" />
    <line x1="301.2" y1="154" x2="309.59999999999997" y2="154" />
    <line x1="309.6" y1="154" x2="318" y2="154" />
    <line x1="318" y1="154" x2="326.4" y2="154" />
    <line x1="326.40000000000003" y1="154" x2="334.8" y2="154" />
    <line x1="330.6" y1="144" x2="330.6" y2="154" />
    <line x1="334.8" y1="154" x2="343.2" y2="154" />
    <line x1="343.2" y1="154" x2="351.59999999999997" y2="154" />
    <line x1="351.6" y1="154" x2="360" y2="154" />
    <line x1="360" y1="154" x2="368.4" y2="154" />
    <line x1="368.40000000000003" y1="154" x2="376.8" y2="154" />
    <line x1="376.8" y1="154" x2="385.2" y2="154" />
    <line x1="385.2" y1="154" x2="393.59999999999997" y2="154" />
    <line x1="393.6" y1="154" x2="402" y2="154" />
    <line x1="402" y1="154" x2="410.4" y2="154" />
    <line x1="410.40000000000003" y1="154" x2="418.8" y2="154" />
    <line x1="418.8" y1="154" x2="427.2" y2="154" />
    <line x1="427.20000000000005" y1="154" x2="431.40000000000003" y2="144" />
    <line x1="28.2" y1="224" x2="32.4" y2="214" />
    <line x1="32.4" y1="214" x2="40.8" y2="214" />
    <line x1="40.8" y1="214" x2="49.199999999999996" y2="214" />
    <line x1="49.2" y1="214" x2="57.6" y2="214" />
    <line x1="57.6" y1="214" x2="66" y2="214" />
    <line x1="66" y1="214" x2="74.4" y2="214" />
    <line x1="74.4" y1="214" x2="82.80000000000001" y2="214" />
    <line x1="78.60000000000001" y1="214" x2="78.60000000000001" y2="224" />
    <line x1="82.80000000000001" y1="214" x2="91.20000000000002" y2="214" />
    <line x1="91.2" y1="214" x2="99.60000000000001" y2="214" />
    <line x1="99.60000000000001" y1="214" x2="108.00000000000001" y2="214" />
    <line x1="108" y1="214" x2="116.4" y2="214" />
    <line x1="116.4" y1="214" x2="124.80000000000001" y2="214" />
    <line x1="124.80000000000001" y1="214" x2="133.20000000000002" y2="214" />
    <line x1="133.2" y1="214" x2="141.6" y2="214" />
    <line x1="141.60000000000002" y1="214" x2="150.00000000000003" y2="214" />
    <line x1="150" y1="214" x2="158.4" y2="214" />
    <line x1="158.4" y1="214" x2="166.8" y2="214" />
    <line x1="162.6" y1="214" x2="162.6" y2="224" />
    <line x1="166.8" y1="214" x2="175.20000000000002" y2="214" />
    <line x1="175.20000000000002" y1="214" x2="183.60000000000002" y2="214" />
    <line x1="183.6" y1="214" x2="192" y2="214" />
    <line x1="192" y1="214" x2="200.4" y2="214" />
    <line x1="200.4" y1="214" x2="208.8" y2="214" />
    <line x1="208.8" y1="214" x2="217.20000000000002" y2="214" />
    <line x1="217.20000000000002" y1="214" x2="225.60000000000002" y2="214" />
    <line x1="225.60000000000002" y1="214" x2="234.00000000000003" y2="214" />
    <line x1="234" y1="214" x2="242.4" y2="214" />
    <line x1="238.2" y1="214" x2="238.2" y2="224" />
    <line x1="242.4" y1="214" x2="250.8" y2="214" />
    <line x1="250.8" y1="214" x2="259.2" y2="214" />
    <line x1="259.20000000000005" y1="214" x2="267.6" y2="214" />
    <line x1="267.6" y1="214" x2="276" y2="214" />
    <line x1="276" y1="214" x2="284.4" y2="214" />
    <line x1="284.40000000000003" y1="214" x2="292.8" y2="214" />
    <line x1="292.8" y1="214" x2="301.2" y2="214" />
    <line x1="301.2" y1="214" x2="309.59999999999997" y2="214" />
    <line x1="309.6" y1="214" x2="313.8" y2="224" />
    <line x1="28.2" y1="224" x2="28.2" y2="244" />
    <line x1="78.60000000000001" y1="224" x2="78.60000000000001" y2="244" />
    <line x1="162.6" y1="224" x2="162.6" y2="244" />
    <line x1="238.2" y1="224" x2="238.2" y2="244" />
    <line x1="313.8" y1="224" x2="313.8" y2="244" />
    <line x1="28.2" y1="244" x2="28.2" y2="264" />
    <line x1="28.2" y1="254" x2="32.4" y2="254" />
    <line x1="32.4" y1="254" x2="40.8" y2="254" />
    <line x1="40.8" y1="254" x2="49.199999999999996" y2="254" />
    <line x1="49.2" y1="254" x2="57.6" y2="254" />
    <line x1="57.6" y1="254" x2="66" y2="254" />
    <line x1="66" y1="254" x2="74.4" y2="254" />
    <line x1="74.4" y1="254" x2="82.80000000000001" y2="254" />
    <line x1="78.60000000000001" y1="244" x2="78.60000000000001" y2="264" />
    <line x1="82.80000000000001" y1="254" x2="91.20000000000002" y2="254" />
    <line x1="91.2" y1="254" x2="99.60000000000001" y2="254" />
    <line x1="99.60000000000001" y1="254" x2="108.00000000000001" y2="254" />
    <line x1="108" y1="254" x2="116.4" y2="254" />
    <line x1="116.4" y1="254" x2="124.80000000000001" y2="254" />
    <line x1="124.80000000000001" y1="254" x2="133.20000000000002" y2="254" />
    <line x1="133.2" y1="254" x2="141.6" y2="254" />
    <line x1="141.60000000000002" y1="254" x2="150.00000000000003" y2="254" />
    <line x1="150" y1="254" x2="158.4" y2="254" />
    <line x1="158.4" y1="254" x2="166.8" y2="254" />
    <line x1="162.6" y1="244" x2="162.6" y2="264" />
    <line x1="166.8" y1="254" x2="175.20000000000002" y2="254" />
    <line x1="175.20000000000002" y1="254" x2="183.60000000000002" y2="254" />
    <line x1="183.6" y1="254" x2="192" y2="254" />
    <line x1="192" y1="254" x2="200.4" y2="254" />
    <line x1="200.4" y1="254" x2="208.8" y2="254" />
    <line x1="208.8" y1="254" x2="217.20000000000002" y2="254" />
    <line x1="217.20000000000002" y1="254" x2="225.60000000000002" y2="254" />
    <line x1="225.60000000000002" y1="254" x2="234.00000000000003" y2="254" />
    <line x1="234" y1="254" x2="242.4" y2="254" />
    <line x1="238.2" y1="244" x2="238.2" y2="264" />
    <line x1="242.4" y1="254" x2="250.8" y2="254" />
    <line x1="250.8" y1="254" x2="259.2" y2="254" />
    <line x1="259.20000000000005" y1="254" x2="267.6" y2="254" />
    <line x1="267.6" y1="254" x2="276" y2="254" />
    <line x1="276" y1="254" x2="284.4" y2="254" />
    <line x1="284.40000000000003" y1="254" x2="292.8" y2="254" />
    <line x1="292.8" y1="254" x2="301.2" y2="254" />
    <line x1="301.2" y1="254" x2="309.59999999999997" y2="254" />
    <line x1="313.8" y1="244" x2="313.8" y2="264" />
    <line x1="309.6" y1="254" x2="313.8" y2="254" />
    <line x1="28.2" y1="264" x2="28.2" y2="284" />
    <line x1="78.60000000000001" y1="264" x2="78.60000000000001" y2="284" />
    <line x1="162.6" y1="264" x2="162.6" y2="284" />
    <line x1="238.2" y1="264" x2="238.2" y2="284" />
    <line x1="313.8" y1="264" x2="313.8" y2="284" />
    <line x1="28.2" y1="284" x2="28.2" y2="304" />
    <line x1="78.60000000000001" y1="284" x2="78.60000000000001" y2="304" />
    <line x1="162.6" y1="284" x2="162.6" y2="304" />
    <line x1="238.2" y1="284" x2="238.2" y2="304" />
    <line x1="313.8" y1="284" x2="313.8" y2="304" />
    <line x1="28.2" y1="304" x2="32.4" y2="314" />
    <line x1="32.4" y1="314" x2="40.8" y2="314" />
    <line x1="40.8" y1="314" x2="49.199999999999996" y2="314" />
    <line x1="49.2" y1="314" x2="57.6" y2="314" />
    <line x1="57.6" y1="314" x2="66" y2="314" />
    <line x1="66" y1="314" x2="74.4" y2="314" />
    <line x1="74.4" y1="314" x2="82.80000000000001" y2="314" />
    <line x1="78.60000000000001" y1="304" x2="78.60000000000001" y2="314" />
    <line x1="82.80000000000001" y1="314" x2="91.20000000000002" y2="314" />
    <line x1="91.2" y1="314" x2="99.60000000000001" y2="314" />
    <line x1="99.60000000000001" y1="314" x2="108.00000000000001" y2="314" />
    <line x1="108" y1="314" x2="116.4" y2="314" />
    <line x1="116.4" y1="314" x2="124.80000000000001" y2="314" />
    <line x1="124.80000000000001" y1="314" x2="133.20000000000002" y2="314" />
    <line x1="133.2" y1="314" x2="141.6" y2="314" />
    <line x1="141.60000000000002" y1="314" x2="150.00000000000003" y2="314" />
    <line x1="150" y1="314" x2="158.4" y2="314" />
    <line x1="158.4" y1="314" x2="166.8" y2="314" />
    <line x1="162.6" y1="304" x2="162.6" y2="314" />
    <line x1="166.8" y1="314" x2="175.20000000000002" y2="314" />
    <line x1="175.20000000000002" y1="314" x2="183.60000000000002" y2="314" />
    <line x1="183.6" y1="314" x2="192" y2="314" />
    <line x1="192" y1="314" x2="200.4" y2="314" />
    <line x1="200.4" y1="314" x2="208.8" y2="314" />
    <line x1="208.8" y1="314" x2="217.20000000000002" y2="314" />
    <line x1="217.20000000000002" y1="314" x2="225.60000000000002" y2="314" />
    <line x1="225.60000000000002" y1="314" x2="234.00000000000003" y2="314" />
    <line x1="234" y1="314" x2="242.4" y2="314" />
    <line x1="238.2" y1="304" x2="238.2" y2="314" />
    <line x1="242.4" y1="314" x2="250.8" y2="314" />
    <line x1="250.8" y1="314" x2="259.2" y2="314" />
    <line x1="259.20000000000005" y1="314" x2="267.6" y2="314" />
    <line x1="267.6" y1="314" x2="276" y2="314" />
    <line x1="276" y1="314" x2="284.4" y2="314" />
    <line x1="284.40000000000003" y1="314" x2="292.8" y2="314" />
    <line x1="292.8" y1="314" x2="301.2" y2="314" />
    <line x1="301.2" y1="314" x2="309.59999999999997" y2="314" />
    <line x1="309.6" y1="314" x2="313.8" y2="304" />
  </g>
  <g>
    <text x="24" y="39" xml:space="preserve">Table: users</text>
    <text x="24" y="79" xml:space="preserve">  id    name       email              created_at </text>
    <text x="24" y="119" xml:space="preserve">  1     Alice      alice@example.com  2024-01-01 </text>
    <text x="24" y="139" xml:space="preserve">  2     Bob        bob@example.com    2024-01-02 </text>
    <text x="24" y="199" xml:space="preserve">Table: orders</text>
    <text x="24" y="239" xml:space="preserve">  id    user_id   total    status  </text>
    <text x="24" y="279" xml:space="preserve">  101   1         99.99    paid    </text>
    <text x="24" y="299" xml:space="preserve">  102   2         49.50    pending </text>
    <text x="24" y="359" xml:space="preserve">  SELECT u.name, o.total</text>
    <text x="24" y="379" xml:space="preserve">  FROM users u JOIN orders o ON u.id = o.user_id</text>
    <text x="24" y="399" xml:space="preserve">  WHERE o.status = &apos;paid&apos;;</text>
    <text x="24" y="439" xml:space="preserve">Properties:</text>
    <text x="24" y="459" xml:space="preserve">  • Fixed schema (ALTER TABLE to change)</text>
    <text x="24" y="479" xml:space="preserve">  • ACID transactions</text>
    <text x="24" y="499" xml:space="preserve">  • Rich queries: JOIN, GROUP BY, subqueries, window functions</text>
    <text x="24" y="519" xml:space="preserve">  • Referential integrity (foreign keys)</text>
    <text x="24" y="539" xml:space="preserve">  • Normalization: no data duplication</text>
  </g>
</svg>
